<svg xmlns="http://www.w3.org/2000/svg" width="63" height="62" viewBox="0 0 63 62"><g><g><path fill="#8ed3aa" d="M2.111 61.337A1.011 1.011 0 0 1 1.1 60.325v-7.077a9.11 9.11 0 0 1 9.1-9.1h8.089a7.086 7.086 0 0 0 7.078-7.05l-2.02-35.36A1.01 1.01 0 0 1 24.355.67h36.4a1.01 1.01 0 0 1 1.008 1.08l-2.02 29.288v29.287a1.011 1.011 0 0 1-1.01 1.012H46.6a1.011 1.011 0 0 1-1.011-1.012v-1.94l-3.413 2.73a1.01 1.01 0 0 1-.632.222zm55.611-5.056h-6.066a1.01 1.01 0 0 1-1.012-1.011v-4.045a1.013 1.013 0 0 0-1.01-1.01h-.338c-.218 0-.431.07-.606.202l-7.55 5.662a1.012 1.012 0 0 1-.607.202H17.278v3.033H19.3a1.01 1.01 0 1 1 2.022 0h2.022a1.011 1.011 0 0 1 2.023 0h2.022a1.011 1.011 0 0 1 2.022 0h2.022a1.011 1.011 0 0 1 2.023 0h2.022a1.011 1.011 0 0 1 2.022 0h2.022a1.011 1.011 0 0 1 1.988-.256l4.458-3.567a1.012 1.012 0 0 1 1.643.79v3.033h2.022a1.011 1.011 0 0 1 2.023 0h2.022a1.011 1.011 0 0 1 2.022 0h2.022zm0-13.061c-1.722.278-3.217 1.277-4.453 2.988a12.29 12.29 0 0 0-1.51 2.856 3.023 3.023 0 0 1 .908 2.161v3.034h5.055zM39.582 2.692l.23 4.045h19.581l.28-4.045zm-14.156 0l.231 4.045h12.13l-.23-4.045zM26.495 41a9.084 9.084 0 0 1-2.507 3.157c.122-.005.244-.01.368-.01h8.088a7.086 7.086 0 0 0 7.078-7.05L37.902 8.76h-12.13l1.615 28.253c.002.02.002.039.002.058 0 1.36-.306 2.704-.895 3.93zm-2.14 5.17a7.086 7.086 0 0 0-7.077 7.078v1.01h22.918l7.28-5.46a3.052 3.052 0 0 1 1.82-.606h.337c.098 0 .193.005.287.014.425-1.108.986-2.16 1.671-3.13 1.627-2.277 3.731-3.61 6.131-3.9V31.002l.003-.07L59.254 8.76H39.928l1.615 28.253c.002.02.002.039.002.058a9.11 9.11 0 0 1-9.1 9.1zM3.123 54.259h12.134v-1.011a9.086 9.086 0 0 1 3.4-7.087c-.122.005-.244.009-.367.009H10.2a7.086 7.086 0 0 0-7.078 7.078zm0 5.055h2.022a1.011 1.011 0 0 1 2.023 0h2.022a1.011 1.011 0 0 1 2.022 0h2.022a1.011 1.011 0 0 1 2.023 0v-3.033H3.122z"/><path fill="none" stroke="#8ed3aa" stroke-miterlimit="20" d="M2.111 61.337A1.011 1.011 0 0 1 1.1 60.325v-7.077a9.11 9.11 0 0 1 9.1-9.1h8.089a7.086 7.086 0 0 0 7.078-7.05l-2.02-35.36A1.01 1.01 0 0 1 24.355.67h36.4a1.01 1.01 0 0 1 1.008 1.08l-2.02 29.288v29.287a1.011 1.011 0 0 1-1.01 1.012H46.6a1.011 1.011 0 0 1-1.011-1.012v-1.94l-3.413 2.73a1.01 1.01 0 0 1-.632.222zm55.611-5.056h-6.066a1.01 1.01 0 0 1-1.012-1.011v-4.045a1.013 1.013 0 0 0-1.01-1.01h-.338c-.218 0-.431.07-.606.202l-7.55 5.662a1.012 1.012 0 0 1-.607.202H17.278v3.033H19.3a1.01 1.01 0 1 1 2.022 0h2.022a1.011 1.011 0 0 1 2.023 0h2.022a1.011 1.011 0 0 1 2.022 0h2.022a1.011 1.011 0 0 1 2.023 0h2.022a1.011 1.011 0 0 1 2.022 0h2.022a1.011 1.011 0 0 1 1.988-.256l4.458-3.567a1.012 1.012 0 0 1 1.643.79v3.033h2.022a1.011 1.011 0 0 1 2.023 0h2.022a1.011 1.011 0 0 1 2.022 0h2.022zm0-13.061c-1.722.278-3.217 1.277-4.453 2.988a12.29 12.29 0 0 0-1.51 2.856 3.023 3.023 0 0 1 .908 2.161v3.034h5.055zM39.582 2.692l.23 4.045h19.581l.28-4.045zm-14.156 0l.231 4.045h12.13l-.23-4.045zM26.495 41a9.084 9.084 0 0 1-2.507 3.157c.122-.005.244-.01.368-.01h8.088a7.086 7.086 0 0 0 7.078-7.05L37.902 8.76h-12.13l1.615 28.253c.002.02.002.039.002.058 0 1.36-.306 2.704-.895 3.93zm-2.14 5.17a7.086 7.086 0 0 0-7.077 7.078v1.01h22.918l7.28-5.46a3.052 3.052 0 0 1 1.82-.606h.337c.098 0 .193.005.287.014.425-1.108.986-2.16 1.671-3.13 1.627-2.277 3.731-3.61 6.131-3.9V31.002l.003-.07L59.254 8.76H39.928l1.615 28.253c.002.02.002.039.002.058a9.11 9.11 0 0 1-9.1 9.1zM3.123 54.259h12.134v-1.011a9.086 9.086 0 0 1 3.4-7.087c-.122.005-.244.009-.367.009H10.2a7.086 7.086 0 0 0-7.078 7.078zm0 5.055h2.022a1.011 1.011 0 0 1 2.023 0h2.022a1.011 1.011 0 0 1 2.022 0h2.022a1.011 1.011 0 0 1 2.023 0v-3.033H3.122z"/></g></g></svg>