<svg xmlns="http://www.w3.org/2000/svg" width="72" height="77" viewBox="0 0 72 77"><defs><clipPath id="mzuva"><path fill="#fff" d="M31.724 65.636H29.63v-29.88c-8.848-1.105-16.897-8.64-16.897-17.789 8.413 0 15.46 5.794 17.4 13.607v6.287h1.088v-6.287c1.94-7.813 8.987-13.607 17.4-13.607 0 9.15-8.049 16.684-16.897 17.79zm-1.202-31.968h.31c.089-.712.22-1.41.39-2.094V20.966a4.35 4.35 0 0 0 3.807-4.314 4.35 4.35 0 0 0-4.314 3.807h-.075a4.35 4.35 0 0 0-4.314-3.807 4.35 4.35 0 0 0 3.807 4.314v10.608c.17.683.3 1.382.39 2.094zm14.112 31.463h-1.627v-9.925a6.503 6.503 0 0 1-5.692-6.45 6.503 6.503 0 0 1 6.45 5.693h.112a6.503 6.503 0 0 1 6.45-5.693 6.503 6.503 0 0 1-5.693 6.45zm-24.402 9h-1.088v-8.083a4.35 4.35 0 0 1-3.807-4.314 4.35 4.35 0 0 1 4.314 3.807h.075a4.35 4.35 0 0 1 4.313-3.807 4.35 4.35 0 0 1-3.807 4.314z"/></clipPath></defs><g><g><path fill="#fcb69f" d="M31.747.567c15.474 0 28.12 12.332 28.63 27.685.011.343.104.682.277.98l10.303 17.661c.778 1.334-.184 3.008-1.727 3.008h-6.837a2 2 0 0 0-2 2v13.506a2 2 0 0 1-2 2H33.747a2 2 0 0 0-2 2v5.548a2 2 0 0 1-2 2H1.92a2 2 0 0 1-2-2V29.212C-.081 13.418 12.769.567 28.564.567zm31.941 46.151c1.544 0 2.506-1.674 1.728-3.008l-7.989-13.694a1.595 1.595 0 0 1-.217-.804c0-14.039-11.423-25.462-25.463-25.462h-3.183c-14.04 0-25.463 11.423-25.463 25.462v42.56a2 2 0 0 0 2 2h21.463a2 2 0 0 0 2-2v-5.548a2 2 0 0 1 2-2H55.21a2 2 0 0 0 2-2V48.718a2 2 0 0 1 2-2z"/></g><g><path fill="none" stroke="#fcb69f" stroke-miterlimit="20" stroke-width="8" d="M31.724 65.636H29.63v-29.88c-8.848-1.105-16.897-8.64-16.897-17.789 8.413 0 15.46 5.794 17.4 13.607v6.287h1.088v-6.287c1.94-7.813 8.987-13.607 17.4-13.607 0 9.15-8.049 16.684-16.897 17.79zm-1.202-31.968h.31c.089-.712.22-1.41.39-2.094V20.966a4.35 4.35 0 0 0 3.807-4.314 4.35 4.35 0 0 0-4.314 3.807h-.075a4.35 4.35 0 0 0-4.314-3.807 4.35 4.35 0 0 0 3.807 4.314v10.608c.17.683.3 1.382.39 2.094zm14.112 31.463h-1.627v-9.925a6.503 6.503 0 0 1-5.692-6.45 6.503 6.503 0 0 1 6.45 5.693h.112a6.503 6.503 0 0 1 6.45-5.693 6.503 6.503 0 0 1-5.693 6.45zm-24.402 9h-1.088v-8.083a4.35 4.35 0 0 1-3.807-4.314 4.35 4.35 0 0 1 4.314 3.807h.075a4.35 4.35 0 0 1 4.313-3.807 4.35 4.35 0 0 1-3.807 4.314z" clip-path="url(&quot;#mzuva&quot;)"/></g></g></svg>