<svg xmlns="http://www.w3.org/2000/svg" width="55" height="55" viewBox="0 0 55 55"><g><g><path fill="#fcb69f" d="M54.636 2.996c.077 1.104 1.643 25.315-9.397 36.278-5.7 5.751-14.172 7.189-21.104 7.189a56.2 56.2 0 0 1-10.707-1.053L4.16 54.68l-3.62-3.62 9.294-9.269c-1.027-5.058-3.517-22.157 6.11-31.81C26.935-1.035 51.145.53 52.249.608l2.234.154zM41.619 35.654c7.548-7.548 8.062-23.852 7.985-30.013-6.162-.077-22.465.436-30.142 7.984-6.187 6.316-5.852 20.155-5.135 23.672.718 3.518 3.646 3.518 3.646 3.518 6.29.898 17.356 1.18 23.672-5.135z"/></g><g><path fill="#fcb69f" d="M37.462 23.893c-1.272-.928-1.997-2.841-.958-4.025l1.747-1.99a2 2 0 0 0 .497-1.32v-.328a2 2 0 0 0-2-2H26.275a1.908 1.908 0 1 0 0 3.815h2.402c1.723 0 2.64 2.033 1.5 3.324l-.79.893a2 2 0 0 0-.5 1.324v.383a2 2 0 0 0 2 2h.172c2.7 0 3.844.969 3.844 2.524 0 1.673-1.467 2.642-3.844 2.642-1.306 0-2.621-.25-3.802-.712-1.15-.449-2.581-.127-3.14.973-.446.878-.184 1.964.706 2.385 1.843.87 4.124 1.345 6.353 1.345 5.84 0 8.51-3.17 8.51-6.633 0-1.906-.746-3.52-2.224-4.6z"/></g></g></svg>