<svg xmlns="http://www.w3.org/2000/svg" width="9" height="12" viewBox="0 0 9 12"><g><g><path fill="#8ed3aa" d="M4.339 8.677a3.799 3.799 0 1 0 0-7.597 3.799 3.799 0 0 0 0 7.597z"/><path fill="none" stroke="#8ed3aa" stroke-miterlimit="20" d="M4.339 8.677a3.799 3.799 0 1 0 0-7.597 3.799 3.799 0 0 0 0 7.597z"/></g><g><path fill="#fff" d="M4.345 7.13a2.245 2.245 0 1 0 0-4.49 2.245 2.245 0 0 0 0 4.49z"/></g><g><path fill="#8ed3aa" d="M4.342 12.056c-.097 0-.237-.14-.237-.14C.004 7.2.543 4.88.543 4.88S1.73 8.668 4.342 8.679"/></g><g><path fill="#8ed3aa" d="M4.34 12.056c.097 0 .237-.14.237-.14C8.678 7.2 8.14 4.88 8.14 4.88S6.952 8.668 4.34 8.679"/></g></g></svg>