<svg width="329" height="321" viewBox="0 0 329 321" fill="none" xmlns="http://www.w3.org/2000/svg">
<path d="M263.118 181.965C240.007 207.086 218.224 228.976 195.738 241.824C173.284 254.654 150.155 258.455 124.289 247.426C72.5173 225.351 50.5453 160.315 75.3697 102.094C87.8031 72.9339 101.383 58.4536 120.845 54.7757C130.605 52.9312 141.893 53.7925 155.332 56.9497C168.77 60.1066 184.328 65.5513 202.618 72.8461C220.903 80.1388 236.704 87.5063 249.401 95.2348C262.102 102.966 271.664 111.039 277.506 119.73C283.337 128.405 285.469 137.702 283.304 147.937C281.134 158.195 274.639 169.441 263.118 181.965Z" stroke="#FCB69F"/>
<path d="M275.567 200.728C244.87 226.271 216.205 248.283 188.123 259.698C160.075 271.099 132.636 271.919 104.326 255.101C47.6696 221.441 32.2824 142.56 70.1221 78.8673C89.0696 46.9745 107.084 32.2597 130.266 31.0125C141.887 30.3873 154.855 33.1418 169.955 38.8904C185.053 44.6387 202.254 53.369 222.332 64.6668C242.405 75.9619 259.589 86.9598 273.118 97.8961C286.651 108.836 296.497 119.69 301.93 130.691C307.355 141.673 308.387 152.808 304.28 164.365C300.166 175.943 290.877 187.988 275.567 200.728Z" stroke="#FCB69F"/>
</svg>
