<svg width="162" height="56" viewBox="0 0 162 56" fill="none" xmlns="http://www.w3.org/2000/svg">
<rect width="162" height="56" fill="black"/>
<path fill-rule="evenodd" clip-rule="evenodd" d="M139.252 35.2236C139.25 35.7356 139.05 36.2258 138.697 36.5858C138.343 36.9458 137.865 37.146 137.368 37.1422C136.871 37.1557 136.39 36.963 136.033 36.6075C135.676 36.252 135.473 35.7636 135.469 35.2523C135.475 34.7365 135.68 34.2441 136.038 33.8841C136.397 33.5241 136.881 33.326 137.381 33.3337C137.874 33.3241 138.35 33.5189 138.702 33.8744C139.054 34.2299 139.252 34.7161 139.252 35.2236ZM135.942 35.2236C135.991 36.0002 136.634 36.5942 137.389 36.561C138.144 36.5278 138.735 35.8796 138.72 35.1015C138.705 34.3234 138.089 33.7004 137.333 33.6988C136.949 33.7137 136.587 33.885 136.326 34.1751C136.065 34.4652 135.927 34.8501 135.942 35.2451V35.2236ZM137.048 36.1686H136.61V34.293C136.84 34.259 137.072 34.2375 137.305 34.2285C137.524 34.2031 137.745 34.2562 137.931 34.3789C138.06 34.4675 138.134 34.62 138.125 34.7798C138.111 35.0016 137.954 35.1862 137.743 35.2308C137.924 35.288 138.014 35.4312 138.07 35.6889C138.092 35.8505 138.139 36.0075 138.209 36.1543H137.764C137.68 36.0121 137.626 35.8537 137.604 35.6889C137.604 35.4957 137.465 35.4026 137.235 35.4097H137.034L137.048 36.1686ZM137.048 35.1019H137.249C137.479 35.1019 137.673 35.016 137.673 34.8156C137.673 34.6151 137.555 34.5364 137.277 34.5364C137.201 34.526 137.124 34.526 137.048 34.5364V35.1019ZM55.1104 24.3161C54.941 25.2932 54.7357 26.4241 54.4593 27.5549C54.7694 30.2304 55.6997 33.2973 58.174 33.2267C59.4984 33.1882 60.6419 32.367 61.6174 31.1607C60.8068 28.7161 60.4842 26.1378 60.6677 23.5705C60.8292 19.9069 61.8435 12.599 65.19 12.599C68.8272 12.599 66.9343 21.6906 66.3593 23.7437C65.7843 25.7969 64.8476 28.9664 63.2777 31.3981C63.9261 32.6832 65.2545 33.4897 66.7017 33.477C67.4667 33.4846 68.2209 33.2968 68.8918 32.9316C68.2248 31.9063 67.8994 30.6988 67.9615 29.4797C68.0132 26.2781 69.8285 23.8271 71.8894 23.8271C74.2151 23.8015 74.6932 26.1113 73.9309 28.6328C73.43 30.2552 72.5206 31.7238 71.2886 32.8995C71.8376 33.1355 72.4364 33.2347 73.0329 33.1882C74.1543 33.1628 75.2211 32.7022 76.0047 31.905C76.2954 31.6933 76.6378 31.7767 76.3664 32.3926C76.0951 33.0086 75.0356 34.6319 72.2189 34.6319C71.4073 34.6374 70.6136 34.3955 69.9448 33.9389C68.9738 34.55 67.8622 34.9055 66.7146 34.9719C64.9267 35.1127 63.2195 34.2086 62.3409 32.6557C61.3575 33.9223 59.8824 34.7189 58.2774 34.85C55.6738 34.9655 54.2332 33.0022 53.4838 30.5833C52.7796 32.2258 51.8105 33.4898 50.4215 33.7079C48.4834 34.0031 47.4691 32.5466 46.9588 30.7116C46.0608 32.7969 44.8462 34.465 43.2505 34.465C40.9312 34.4779 41.0217 30.8849 41.0217 30.8849C39.8265 33.7593 37.2811 36.8326 33.9152 36.3257C31.5637 35.9792 30.1811 34.2597 29.393 32.0975C28.1586 33.2166 26.7945 34.1859 25.3294 34.9847C23.9663 35.7226 23.0295 35.9664 22.4222 35.8766C21.8149 35.7868 21.9054 35.4339 22.4222 35.235C24.9361 34.1865 27.1732 32.5773 28.9601 30.532C28.4964 28.3482 28.3549 26.1091 28.5402 23.8849C28.8568 19.9005 30.9112 11.3927 34.8714 12.0344C39.2515 12.7786 36.4542 21.4853 35.091 24.4367C33.9791 26.7997 32.4865 28.9669 30.6721 30.8528C31.2988 32.9893 32.4746 34.7923 34.5871 34.7473C37.8432 34.6768 39.7167 30.1855 40.7633 27.4779C41.1057 26.6053 41.4997 26.2781 42.0553 26.3487C42.6109 26.4193 42.8952 26.8555 42.8047 27.7602C42.6762 28.7235 42.6287 29.6956 42.6626 30.6667C42.7724 31.6676 42.921 32.6493 43.5735 32.6878C44.226 32.7263 45.5439 30.5448 46.5001 27.6383C46.4367 26.7305 46.4367 25.8193 46.5001 24.9115C46.5255 24.5934 46.5539 24.2861 46.5861 23.9911C45.4469 23.9784 44.5361 23.9887 44.0905 24.0321C43.9105 25.1479 43.0943 25.6304 42.1623 25.7057C40.9862 25.7962 39.3986 25.163 39.3986 24.0623C39.3986 22.9616 40.9797 22.0042 42.1495 21.9138C43.0878 21.8384 43.9169 22.2304 44.0776 23.3461C44.5294 23.2637 45.4945 23.1736 46.702 23.09C46.9684 21.3337 47.4159 20.1901 48.1927 20.1315C49.009 20.0699 49.1188 21.3911 48.9483 22.9565C50.2946 22.8875 51.7231 22.8323 52.9904 22.8034C53.4964 18.4821 54.4618 17.9794 54.9826 18.0206C55.5489 18.0653 56.1217 18.8105 55.3788 22.7869C55.9597 22.7969 56.4041 22.8214 56.6491 22.8636C57.941 22.9616 59.1043 23.2707 59.0657 23.8211C59.0272 24.3714 58.378 24.5749 56.6041 24.4543C56.3275 24.4107 55.7998 24.3633 55.1104 24.3161ZM52.8564 24.1884C51.5765 24.1269 50.1407 24.0725 48.7958 24.0356C48.7887 24.0773 48.7815 24.1191 48.7741 24.1608C48.6191 25.0655 48.38 26.2332 48.0506 27.4458C48.07 27.7474 48.0958 28.0489 48.1346 28.3505C48.4317 30.6539 49.2264 32.3606 50.176 32.3606C51.4164 32.3798 52.3273 30.0315 52.9217 27.7153C52.795 26.5438 52.7731 25.3636 52.8564 24.1884ZM29.9809 25.5467C29.9658 26.7082 30.0458 27.8691 30.2199 29.0178C30.9629 28.0744 31.6303 27.0747 32.2162 26.0279C34.4644 21.9986 36.4348 14.1581 34.4644 13.7988C32.494 13.4395 30.0778 20.9976 29.9809 25.5467ZM47.6952 21.7419V21.6457C47.6952 21.6457 47.6888 21.6393 47.6952 21.7419ZM62.2828 22.6338C62.01 24.9691 62.119 27.3329 62.6058 29.6337C63.8026 27.3029 64.6493 24.8105 65.1189 22.236C65.9846 17.5458 65.7003 14.6265 65.1189 14.4404C64.5375 14.2543 62.8384 16.6796 62.2828 22.6338ZM69.5572 29.0948C69.4306 30.0938 69.6517 31.1057 70.1838 31.9628C71.1672 30.9925 71.9141 29.8118 72.3675 28.5109C72.8326 27.1507 72.8132 25.4697 71.8312 25.3863C70.8493 25.3029 69.751 26.939 69.5572 29.0948ZM85.7443 28.299C87.5782 28.6623 89.3622 28.9001 89.3246 31.1392C89.2495 33.2594 87.3717 34.9305 84.9431 35.4655C82.5144 36.0005 80.6867 34.9833 80.4676 34.7588C80.2485 34.5342 80.042 34.0388 80.6429 34.1907C81.2438 34.3426 82.1514 34.6002 84.5237 34.0586C86.4015 33.6359 87.7034 32.1498 87.741 31.1986C87.7785 30.2475 86.4015 30.0692 84.7678 29.6993C82.9776 29.303 81.1561 28.7878 81.1561 26.7733C81.1812 24.9701 82.5395 23.4509 84.7615 22.8829C86.9836 22.3148 88.3669 23.015 88.7112 23.2858C89.2089 23.5763 89.3975 24.2318 89.1368 24.7653C88.7362 25.3268 88.079 24.9701 87.7598 24.7653C87.4405 24.5606 86.9899 24.2369 85.4125 24.3954C83.8351 24.554 82.6521 25.6636 82.6521 26.6742C82.6521 27.6848 84.0354 27.9622 85.7443 28.299ZM136.937 29.595C137.097 29.8691 136.822 30.5154 136.309 31.2726C135.796 32.0298 133.9 35.1761 131.132 34.7779C128.364 34.3797 128.139 31.4945 128.094 30.0128C128.056 27.702 128.524 25.6523 128.094 25.4434C127.806 25.3063 126.864 26.1223 125.666 28.2764C124.843 29.8104 124.101 31.388 123.442 33.0024C122.962 34.0142 122.738 34.2296 122.161 34.0142C121.796 33.8641 121.584 33.4398 121.796 32.2713C121.95 31.5533 122.155 30.7634 122.436 28.9422C122.593 28.0973 122.692 27.2423 122.731 26.3834C121.783 26.8412 120.772 27.1473 119.732 27.2907C119.754 28.2695 119.595 29.2437 119.265 30.1629C118.188 33.3157 116.42 33.9946 115.215 33.9163C113.325 33.7988 112.338 32.2713 112.338 30.3652C112.278 29.472 112.427 28.577 112.774 27.7542C112.118 28.0848 111.431 28.3472 110.723 28.5375C110.224 31.0506 108.667 33.5964 106.379 33.8184C104.96 34.0352 103.573 33.2645 102.983 31.9319C102.66 31.1847 102.458 30.3887 102.387 29.5754C101.543 30.5909 100.554 31.4711 99.4525 32.1865C98.7234 32.6671 97.951 33.0758 97.1457 33.4071C96.7568 33.813 96.2777 34.1175 95.7489 34.2949C93.4165 35.0325 92.9616 33.7661 93.8266 33.1134C94.4738 32.6369 94.8774 32.7609 96.0308 32.3496C96.9082 31.4237 97.5236 30.2735 97.8121 29.0206C98.3439 27.1471 98.5362 24.5361 96.9471 23.8833C94.9159 23.0804 93.1986 25.4826 92.0325 28.0936C92.723 31.1652 93.05 34.31 93.0064 37.4608C92.9488 40.4504 92.0325 44.2365 90.751 43.9884C87.6753 43.4009 88.5147 34.7975 89.3028 31.5859C89.6291 30.2483 90.0576 28.9388 90.5844 27.6693C90.4626 26.9643 90.328 26.3116 90.1679 25.6588C89.8218 24.2619 89.2388 23.7984 89.636 23.4982C89.8987 23.3023 90.7702 23.7397 91.4558 25.8416C92.7373 23.5308 94.5122 21.69 96.8061 21.925C100.215 22.2514 100.241 26.9643 99.3051 29.4318C99.0808 29.9736 98.8758 30.4827 98.6643 30.9527C100.219 29.6728 101.608 28.1966 102.797 26.5596C103.214 26.0374 103.464 26.0048 103.854 26.168C104.245 26.3312 104.297 26.7098 104.149 27.6367C104.002 28.5636 103.906 32.3692 106.168 32.4802C107.609 32.552 108.57 30.7243 109.032 28.8835C108.378 28.9472 107.718 28.9032 107.077 28.7529C104.918 28.2242 103.861 26.9839 104.149 24.7776C104.227 23.9312 104.635 23.1521 105.282 22.6156C105.929 22.0791 106.761 21.8302 107.59 21.925C108.756 22.0425 111.089 23.0935 110.89 27.0688C111.555 26.8083 112.198 26.4917 112.812 26.1223C113.722 25.6001 114.337 25.2998 114.683 25.8547C114.888 26.181 114.876 26.3964 114.587 27.121C114.155 28.0879 113.936 29.1397 113.946 30.2021C114.043 31.2856 114.568 32.3562 115.58 32.3888C116.593 32.4214 117.676 31.1681 118.067 28.5049C118.103 28.158 118.118 27.8092 118.111 27.4604C115.984 27.343 114.049 25.9591 114.619 24.3141C115.241 22.4929 117.413 23.1783 118.131 23.7462C118.791 24.3254 119.255 25.102 119.457 25.9656C119.803 25.9265 120.098 25.8742 120.444 25.809C121.436 25.6414 122.374 25.234 123.18 24.6209C123.648 24.399 124.384 24.7058 124.288 25.7045C124.192 26.7032 124 28.0088 124 28.0088C124.558 26.9074 125.24 25.8757 126.031 24.9343C126.967 23.9747 128.056 23.0412 129.235 23.694C130.228 24.2619 129.876 25.9265 129.741 27.1928C129.542 28.9749 129.325 32.2778 131.023 32.8914C132.439 33.4202 133.586 32.3758 134.643 31.4619C135.7 30.548 136.687 29.1511 136.937 29.595ZM91.2572 35.3589C91.1931 33.8836 91.1034 32.3758 90.956 30.8875C90.8022 31.3509 90.6805 31.8013 90.5844 32.193C89.9308 34.8758 89.6296 41.5862 90.4434 41.9322C90.6164 41.9975 91.4109 38.8903 91.2572 35.3589ZM107.174 27.356C107.846 27.5403 108.546 27.5913 109.237 27.5061C109.288 27.2646 109.288 27.0492 109.288 26.8534C109.384 24.6927 108.186 23.5896 107.026 23.6744C106.259 23.7697 105.638 24.3571 105.488 25.1301C105.328 26.0505 105.655 26.9513 107.174 27.356ZM116.554 25.6066H116.561C116.962 25.8733 117.428 26.0203 117.906 26.0309C117.753 25.4668 117.336 25.0168 116.791 24.8298C116.163 24.6731 115.785 25.0322 116.554 25.6066Z" fill="#B8BEC8"/>
</svg>
