<svg width="304" height="108" viewBox="0 0 304 108" fill="none" xmlns="http://www.w3.org/2000/svg">
<rect width="304" height="108" fill="black"/>
<path d="M114.752 54.6303V37.2608H120.169V38.4088C120.169 39.0404 120.179 39.557 120.191 39.557C120.202 39.557 120.544 39.3489 120.95 39.0945C125.741 36.0939 132.706 35.1902 138.952 36.7589C144.579 38.1723 148.659 41.5271 150.109 45.9345C150.957 48.51 150.91 51.3741 149.98 53.8649C148.823 56.9633 146.444 59.4544 143.013 61.161C140.011 62.6544 136.583 63.4022 132.74 63.4022C129.554 63.4022 126.583 62.8708 123.967 61.8337C122.929 61.4221 121.599 60.7466 120.792 60.2212L120.169 59.816V72H114.752V54.6303ZM135.36 58.7845C138.407 58.3523 140.771 57.3855 142.544 55.847C143.885 54.6824 144.82 53.065 145.174 51.2942C145.318 50.57 145.319 48.8598 145.174 48.1377C144.758 46.0538 143.563 44.2335 141.776 42.957C141.055 42.4426 139.592 41.7093 138.658 41.3951C136.019 40.5077 132.821 40.2449 129.891 40.6749C124.804 41.4213 121.366 43.9442 120.444 47.6069C120.037 49.2229 120.11 50.9676 120.647 52.4923C121.869 55.9558 125.471 58.2606 130.561 58.8357C131.585 58.9515 134.395 58.9214 135.36 58.7845H135.36ZM153.319 54.6303V37.2608H158.735V38.4088C158.735 39.0404 158.747 39.557 158.761 39.557C158.776 39.557 159.074 39.3704 159.424 39.1424C160.234 38.6144 161.832 37.8249 162.857 37.4466C167.281 35.8137 172.683 35.5502 177.411 36.7371C185.117 38.6718 189.655 43.9723 189.227 50.5381C188.899 55.55 185.565 59.6668 180.079 61.8303C178.29 62.5359 176.456 62.981 174.161 63.2665C172.95 63.4171 169.686 63.4171 168.421 63.2661C164.842 62.8392 161.7 61.7765 159.25 60.1643L158.735 59.8254V72H153.319V54.6303ZM174.058 58.7589C178.277 58.1287 181.251 56.4287 182.814 53.7533C183.721 52.1992 184.061 50.1318 183.725 48.2124C183.025 44.2228 179.519 41.4621 174.15 40.674C170.607 40.154 166.607 40.672 163.887 42.0029C161.111 43.3616 159.441 45.3901 158.87 48.0946C158.721 48.8046 158.721 50.6299 158.871 51.3257C159.275 53.199 160.188 54.7489 161.574 55.9136C163.482 57.5175 165.965 58.4726 169.187 58.8418C170.252 58.9638 172.998 58.9171 174.058 58.7589V58.7589ZM92.3778 63.3663C89.5045 63.1125 87.0519 62.5464 84.9664 61.6557C80.2228 59.6296 77.2267 56.2099 76.4136 51.8938C76.2583 51.0695 76.1991 49.2123 76.2998 48.3249C76.887 43.1503 80.6988 39.0515 86.7255 37.1148C89.9326 36.0842 93.8802 35.7475 97.4237 36.2024C103.916 37.0359 108.826 40.0462 110.985 44.5155C112.742 48.1545 112.519 52.5747 110.407 55.973C109.455 57.5038 107.888 59.0837 106.274 60.1403C103.762 61.7841 100.762 62.8067 97.1177 63.2611C96.3879 63.3521 93.0549 63.4261 92.3778 63.3663V63.3663ZM96.2205 58.8413C99.0462 58.5415 101.423 57.7346 103.212 56.4688C104.674 55.4339 105.831 53.9085 106.35 52.3315C106.654 51.4086 106.714 50.9752 106.714 49.7139C106.714 48.4562 106.655 48.0264 106.353 47.1028C105.362 44.0668 102.463 41.8083 98.4131 40.9169C94.8618 40.1351 90.7203 40.4068 87.652 41.6227C85.4382 42.4999 83.691 43.9201 82.6662 45.6745C81.5768 47.5402 81.3294 50.0812 82.0245 52.2711C82.7735 54.6308 84.7464 56.6054 87.4614 57.713C88.9403 58.3162 90.7712 58.7368 92.5839 58.8891C93.2794 58.9474 95.494 58.9183 96.2205 58.8413V58.8413ZM207.959 63.3683C207.846 63.3555 207.448 63.3159 207.076 63.2807C204.086 62.9972 200.942 62.053 198.637 60.7459C195.522 58.9789 193.352 56.4673 192.361 53.4821C191.691 51.4619 191.576 49.1915 192.04 47.1026C192.74 43.9441 194.663 41.2621 197.648 39.2785C201.586 36.6626 207.375 35.5008 212.964 36.2051C217.607 36.7901 221.432 38.4882 224.094 41.146C226.121 43.1701 227.287 45.5419 227.623 48.3286C227.711 49.0529 227.697 50.5175 227.596 51.2859C226.865 56.8196 222.479 61.0492 215.76 62.6969C213.724 63.1964 212.445 63.3477 210.049 63.3724C209.013 63.3831 208.072 63.3812 207.959 63.3683V63.3683ZM211.521 58.8687C215.098 58.5398 218.013 57.361 219.885 55.4872C221.152 54.2185 221.887 52.822 222.177 51.134C222.297 50.4385 222.295 48.9884 222.174 48.267C221.522 44.383 218.097 41.5675 213.023 40.7439C211.804 40.5461 210.994 40.4816 209.725 40.4816C204.036 40.4816 199.622 42.6269 197.924 46.2166C197.418 47.2865 197.185 48.3907 197.185 49.7139C197.185 51.4597 197.591 52.8445 198.51 54.2241C200.196 56.757 203.394 58.3751 207.627 58.8374C208.5 58.9327 210.64 58.95 211.521 58.8689L211.521 58.8687Z" fill="#B8BEC8"/>
</svg>
