<svg width="162" height="56" viewBox="0 0 162 56" fill="none" xmlns="http://www.w3.org/2000/svg">
<rect width="162" height="56" fill="black"/>
<path fill-rule="evenodd" clip-rule="evenodd" d="M39.1765 31.3736C38.987 31.4488 38.8493 31.6023 38.6973 31.7167C38.4466 31.9054 38.1914 32.0714 37.9161 32.2364C37.6011 32.4252 37.2517 32.5989 36.8641 32.7146C36.5714 32.8021 36.1094 32.8757 35.7497 32.8185C35.4538 32.7717 35.2137 32.7893 34.9684 32.7146C34.0844 32.4452 33.564 31.8465 33.2289 31.0305C33.032 30.5511 32.9743 30.0065 32.8748 29.4191C32.7823 28.8737 32.8081 27.973 32.8956 27.4542C33.2167 25.5493 33.6259 24.4274 35.5517 24.1067C36.6329 23.9267 37.7529 24.5586 38.3224 24.9593C38.5181 25.097 39.0621 25.605 39.4056 25.3855C39.8435 25.1056 39.8802 23.2021 39.6348 22.6098C39.4728 22.2188 39.0704 22.0259 38.7182 21.8196C37.8412 21.3061 36.7198 21.0486 35.3121 21.0711C35.1212 21.085 34.9301 21.0989 34.7393 21.1127C34.2945 21.1915 33.8649 21.2387 33.4685 21.3622C31.9269 21.8424 30.8493 22.7305 30.0936 23.9924C29.6536 24.7274 29.3902 25.5845 29.177 26.5498C29.0506 27.1232 29.1041 27.7448 29 28.3795C29.0035 28.6255 29.0069 28.8716 29.0104 29.1176C29.0173 29.3255 29.0244 29.5334 29.0313 29.7414C29.1155 30.2428 29.1387 30.7411 29.25 31.1864C29.809 33.4226 30.9212 34.9696 33.0414 35.6358C33.4623 35.7681 33.9152 35.8236 34.3955 35.9062C34.6177 35.9201 34.84 35.9339 35.0621 35.9478C35.4369 36.0091 35.911 35.9423 36.2287 35.8855C37.2486 35.7026 38.0956 35.5065 38.8327 35.0641C39.1305 34.8853 39.4948 34.7097 39.6556 34.3988C39.9125 33.9018 39.898 32.1777 39.6973 31.6126C39.6301 31.4236 39.436 31.2704 39.1765 31.3736ZM132.287 22.2564C132.237 21.9197 132.269 21.6398 132.107 21.435C131.893 21.1652 131.006 21.0428 130.504 21.0503C130.361 21.0642 130.217 21.0781 130.074 21.0919C129.718 21.167 129.399 21.2763 129.132 21.4454C128.595 21.7852 128.109 22.2808 127.73 22.7865C127.556 23.0256 127.383 23.2647 127.209 23.5038V23.5209C127.206 23.3961 127.202 23.271 127.199 23.1462C127.199 22.7784 127.281 21.8615 127.136 21.6371C126.823 21.1526 124.256 21.1632 124.029 21.6996C123.938 21.9151 123.998 22.3415 123.998 22.6155V34.3532C123.998 34.6403 123.931 35.1299 124.049 35.3258C124.175 35.5336 124.506 35.5933 124.786 35.6466C125.525 35.7877 127.43 35.7642 127.688 35.3051C127.763 35.1724 127.73 34.8909 127.73 34.6946V26.8721C127.877 26.6538 128.024 26.4354 128.171 26.2172C128.621 25.5585 129.165 24.8186 130.024 24.5953C130.601 24.4452 131.144 24.7077 131.556 24.8449C131.777 24.9186 132.027 24.8868 132.127 24.7202C132.331 24.3802 132.373 22.8392 132.287 22.2564ZM111.703 27.0245C111.7 25.0777 113.002 23.2404 115.224 23.7291C115.526 23.7955 115.815 23.8887 116.047 24.0305C116.914 24.5616 117.286 25.6041 117.265 27.0245H111.703ZM120.798 25.8102C120.545 24.664 120.184 23.7769 119.579 23.0022C118.837 22.052 117.709 21.4774 116.318 21.1717C115.96 21.093 115.576 21.1098 115.192 21.0469H114.817C114.443 20.9852 113.805 21.051 113.462 21.1197C112.929 21.2269 112.428 21.3232 111.972 21.5046C110.175 22.2194 108.969 23.603 108.367 25.5085C108.23 25.9415 108.163 26.3735 108.065 26.8606C108.026 27.1761 107.988 27.4916 107.95 27.8071C107.947 27.9526 107.943 28.0983 107.94 28.2438V29.0759C107.947 29.2804 107.953 29.485 107.96 29.6895C108.1 30.5165 108.144 31.2759 108.388 31.9672C109.088 33.9545 110.361 35.0519 112.441 35.6697C112.926 35.8136 113.459 35.8286 114.004 35.9192C114.362 35.9297 114.72 35.9401 115.077 35.9505C116.55 35.9505 117.816 35.7215 118.943 35.3681C119.405 35.2234 119.99 35.0838 120.183 34.6712C120.391 34.2276 120.44 32.3714 119.985 32.2375C119.644 32.1369 119.284 32.3577 119.058 32.4456C118.495 32.6645 117.893 32.7996 117.266 32.9552C116.894 33.0473 116.494 33.0446 116.088 33.1112C115.728 33.1703 115.156 33.156 114.817 33.1008C114.397 33.0324 114.041 33.0157 113.702 32.8824C112.409 32.3747 111.716 31.269 111.743 29.4502H117.881C118.557 29.4503 119.989 29.5587 120.402 29.3151C120.888 29.0291 120.944 28.4824 120.944 27.703C120.941 27.4778 120.937 27.2524 120.934 27.027C120.864 26.611 120.883 26.1964 120.798 25.8102ZM84.9376 31.7374C84.4893 32.3415 83.6926 32.9828 82.8855 33.224C81.5677 33.618 80.4259 32.9831 80.1983 31.9453C80.114 31.5616 80.1884 31.0934 80.3024 30.8122C80.8761 29.3966 82.9329 29.4872 84.9376 29.5022V31.7374ZM88.6699 27.6414C88.6699 26.6243 88.7336 25.5205 88.5448 24.6681C88.1073 22.6919 87.1269 21.7635 85.2014 21.2791C84.8295 21.1855 84.4577 21.1831 84.0452 21.1127C83.4925 21.0185 82.4405 20.9943 81.8682 21.0919C81.2992 21.1891 80.7477 21.2444 80.2434 21.383C79.2941 21.6439 77.7499 22.0496 77.4102 22.8696C77.1593 23.4752 77.2658 25.3484 78.0143 25.2296C78.4765 25.1562 78.7999 24.8977 79.1704 24.7202C80.391 24.1353 83.549 23.1915 84.5868 24.6473C84.9983 25.2248 85.0134 26.1449 85.0035 27.1528C81.6077 27.1514 78.5757 27.3142 77.2227 29.3359C76.9484 29.7459 76.7605 30.2073 76.6394 30.781C76.6221 30.9681 76.6047 31.1553 76.5874 31.3424C76.5839 31.5607 76.5804 31.779 76.5769 31.9973C76.6385 32.3664 76.6455 32.7163 76.7436 33.0368C77.196 34.5157 78.2254 35.3388 79.7434 35.7607C80.2368 35.8977 81.2258 36.0588 81.8891 35.9478C82.3272 35.8744 82.7303 35.8381 83.1078 35.7191C83.8707 35.4785 84.494 35.0716 85.0556 34.6275C85.2291 34.4612 85.4028 34.2948 85.5763 34.1285C85.5725 34.5469 85.476 35.3251 85.7222 35.5111C86.1456 35.8313 88.3563 35.8008 88.6178 35.3968C88.7208 35.2378 88.6699 34.8414 88.6699 34.5963V27.6414ZM75.3394 21.435C75.1255 21.1652 74.2389 21.0428 73.7369 21.0503C73.5934 21.0642 73.4498 21.0781 73.3064 21.0919C72.9509 21.167 72.6322 21.2763 72.3649 21.4454C71.8279 21.7852 71.342 22.2808 70.9626 22.7865C70.7891 23.0256 70.6155 23.2647 70.4419 23.5038V23.5209C70.4384 23.3961 70.4349 23.271 70.4315 23.1462C70.4315 22.7784 70.5139 21.8615 70.3689 21.6371C70.0557 21.1526 67.4888 21.1632 67.2616 21.6996C67.1703 21.9151 67.2302 22.3415 67.2302 22.6155V34.3532C67.2302 34.6403 67.1639 35.1299 67.2821 35.3258C67.4076 35.5336 67.739 35.5933 68.0183 35.6466C68.7577 35.7877 70.6624 35.7642 70.9212 35.3051C70.996 35.1724 70.9626 34.8909 70.9626 34.6946V26.8721C71.1095 26.6538 71.2565 26.4354 71.4034 26.2172C71.8534 25.5585 72.3973 24.8186 73.2562 24.5953C73.8342 24.4452 74.3772 24.7077 74.7885 24.8449C75.0098 24.9186 75.2593 24.8868 75.3595 24.7202C75.5636 24.3802 75.606 22.8392 75.5197 22.2564C75.4699 21.9197 75.5016 21.6398 75.3394 21.435ZM49.6132 26.3835C49.4016 27.4126 48.8557 27.9736 47.8009 28.1612C45.8549 28.5072 44.6781 26.6895 45.3845 24.9697C45.5969 24.4521 45.9856 24.0532 46.5093 23.8469C46.7171 23.765 46.9735 23.7899 47.2072 23.7013C48.3495 23.6961 48.9955 24.0341 49.4049 24.7512C49.5066 24.9293 49.565 25.1639 49.6132 25.3855C49.677 25.6776 49.6719 26.0989 49.6132 26.3835ZM45.499 35.3136C45.6239 35.2131 45.749 35.1126 45.8739 35.0121C46.419 35.0294 46.9642 35.0468 47.5093 35.0641C47.9259 35.0745 48.3426 35.0849 48.7592 35.0953C49.7375 35.2476 50.7918 35.5814 50.4987 36.8627C50.4578 37.0414 50.396 37.2286 50.3112 37.372C49.6357 38.5136 47.1097 38.784 45.6032 38.1621C44.9789 37.9044 44.4408 37.3645 44.7282 36.4157C44.8577 35.9879 45.1843 35.5664 45.499 35.3136ZM61.0674 24.4255H63.274C63.5462 24.4255 63.9899 24.4832 64.1735 24.3736C64.5812 24.1303 64.5795 23.213 64.5394 22.5669C64.5173 22.2098 64.5066 21.8597 64.3617 21.6218C64.1981 21.3535 63.8343 21.3934 63.3996 21.3934H61.0674V19.2336C61.0674 18.9484 61.1306 18.5044 61.0363 18.2781C60.9386 18.0444 60.6752 17.9785 60.402 17.9147C59.7002 17.7512 57.9554 17.7511 57.5014 18.0912C57.2904 18.2494 57.335 18.6471 57.335 19.0155V21.3934H50.0262C49.5707 21.3934 49.2775 21.291 48.8929 21.2168C48.2059 21.0846 47.2268 21.0401 46.4913 21.1649C44.3079 21.5356 42.8763 22.4579 42.2183 24.3425C41.9642 25.0702 41.8472 26.2908 42.0623 27.1774C42.191 27.707 42.3917 28.1699 42.6654 28.5585C42.7832 28.7038 42.901 28.8492 43.0188 28.9946C43.0431 29.0189 43.0674 29.0431 43.0916 29.0672C42.5081 29.5001 41.9438 30.364 41.74 31.1752C41.4172 32.4608 42.1001 33.8372 42.9877 34.145C42.7936 34.3042 42.5995 34.4635 42.4054 34.6228C41.9754 34.9688 41.5863 35.518 41.3554 36.0557C41.2457 36.311 41.1749 36.594 41.1162 36.8969C40.9696 37.6546 41.1887 38.4425 41.4593 38.901C42.1189 40.0182 43.3267 40.481 44.7862 40.8013C45.142 40.8794 45.494 40.872 45.878 40.9363C46.3391 41.0135 46.862 40.9992 47.3819 40.9986C47.6834 40.9842 48.1755 40.9605 48.477 40.9459C48.93 40.8989 49.373 40.8928 49.787 40.7909C51.592 40.3464 53.2097 39.6226 53.8937 38.0703C54.0413 37.7354 54.1525 37.3829 54.2368 36.98C54.3916 36.2406 54.2423 35.3508 54.0185 34.82C53.5136 33.6224 52.5372 32.9637 51.1802 32.6186C50.831 32.5297 50.4573 32.5054 50.0782 32.4421C49.742 32.4283 49.4058 32.4144 49.0697 32.4006C48.7855 32.3901 48.5013 32.3797 48.2172 32.3694C46.9988 32.1724 45.5649 32.5868 45.0254 31.6944C44.9179 31.5166 44.8806 31.211 44.9526 30.9571C45.0305 30.6824 45.2215 30.5189 45.3269 30.2926C45.3815 30.2596 45.9303 30.5168 46.0963 30.573C46.6992 30.7774 47.7059 30.8622 48.4667 30.7182C48.8123 30.653 49.1579 30.6276 49.4751 30.5314C51.0976 30.0393 52.1021 29.2158 52.6877 27.6862C52.9065 27.1149 53.0793 26.1079 52.906 25.3498C52.8213 24.9792 52.6837 24.7091 52.5317 24.4255H57.335V29.8953C57.335 31.4211 57.3363 32.8387 57.7938 33.8807C58.2598 34.9424 59.0904 35.5015 60.3377 35.7954C60.7857 35.901 61.5924 36.0012 62.152 35.9099C62.8171 35.8013 63.4072 35.7635 63.9243 35.5353C64.5154 35.2746 64.4218 34.8416 64.5394 34.1202V33.5013C64.4837 33.1497 64.5377 32.7553 64.3617 32.5251C64.2015 32.3156 63.7969 32.5082 63.6191 32.5771C63.023 32.808 62.0848 32.8441 61.6113 32.4732C61.0458 32.0305 61.0673 30.9878 61.0674 29.9811V24.4255ZM101.169 30.6667C100.971 30.8954 100.773 31.1241 100.575 31.3527C99.9847 32.0867 99.3125 32.6105 98.1589 32.7979C97.5247 32.9008 96.9857 32.5953 96.6694 32.3508C95.914 31.7667 95.6593 30.8196 95.4507 29.679C95.43 29.3741 95.4091 29.0691 95.3883 28.7642C95.3244 28.3716 95.3652 27.8553 95.43 27.4958C95.6592 26.2209 95.9824 25.1237 96.8986 24.5434C97.0827 24.4267 97.3078 24.3352 97.5461 24.2749C97.694 24.261 97.9306 24.2386 98.0786 24.2246C99.2681 24.2793 100.04 24.9481 100.586 25.6246C100.71 25.7787 101.111 26.1243 101.169 26.2899V30.6667ZM104.902 16.7657C104.902 16.4318 104.979 15.711 104.87 15.4614C104.659 14.9777 103.433 14.9944 102.703 15.0025C102.567 15.0128 102.345 15.0296 102.208 15.0399C101.817 15.0957 101.385 15.1323 101.221 15.4092C101.139 15.5482 101.169 15.8313 101.169 16.0458V22.8075C100.977 22.6336 100.786 22.4597 100.594 22.2857C100.096 21.8986 99.5709 21.5411 98.9318 21.2945C97.6126 20.7854 95.6568 21.0936 94.6662 21.6701C93.1249 22.5672 92.298 23.9425 91.8121 25.8961C91.7153 26.2846 91.6951 26.672 91.6238 27.0961C91.5473 27.5511 91.4662 28.4179 91.5401 28.9223C91.5507 29.2179 91.5611 29.5136 91.5715 29.8093C91.6676 30.4271 91.703 31.0227 91.8434 31.5831C92.3483 33.6006 93.4089 35.1605 95.3353 35.757C95.9342 35.9425 96.8573 36.1068 97.6668 35.9762C98.0932 35.9074 98.4995 35.8532 98.8587 35.7153C99.7223 35.3838 100.375 34.8973 101.033 34.3692C101.263 34.1432 101.493 33.917 101.723 33.691C101.719 34.1685 101.622 35.3234 101.88 35.5172C102.326 35.8516 104.626 35.885 104.86 35.3814C104.985 35.1104 104.902 34.3051 104.902 33.931V16.7657Z" fill="#B8BEC8"/>
</svg>
