<svg width="162" height="56" viewBox="0 0 162 56" fill="none" xmlns="http://www.w3.org/2000/svg">
<rect width="162" height="56" fill="black"/>
<path d="M23.1892 35.4899L23.4302 33.7194C24.5487 34.4311 26.3899 35.3163 28.8334 35.3163C31.6555 35.3163 33.2386 34.2054 33.2386 32.244C33.2386 27.0887 23 30.5256 23 23.8602C23 20.7011 25.0649 19 28.7818 19C32.361 19 34.0646 20.4754 34.3743 22.9576L32.6191 23.3047C32.3438 21.4474 31.0877 20.5622 28.7474 20.5622C26.2694 20.5622 24.8068 21.6731 24.8068 23.6866C24.8068 29.0675 34.9594 25.3356 35.0282 32.2093C35.0455 35.4204 32.9805 37 28.8678 37C25.8393 36.9653 24.1357 36.1148 23.1892 35.4899Z" fill="#B8BEC8"/>
<path d="M39.6049 26.3947V33.7544C39.6049 35.1083 40.2072 35.4207 41.1192 35.4207C41.9624 35.4207 42.513 35.1777 42.8916 35.0215L43.0293 36.5664C42.6163 36.7053 41.8419 36.9656 40.6718 36.9656C38.865 36.9656 37.8497 36.3234 37.8497 33.7718V26.3947H35.6815V24.9019H37.8497V21.4651H39.6049V24.9019H43.3046V26.3947H39.6049Z" fill="#B8BEC8"/>
<path d="M50.842 24.8149L50.7216 26.5507C50.584 26.4986 50.2569 26.4465 49.8267 26.4465C48.0714 26.4465 46.953 28.5295 46.953 30.4388V36.6529H45.1979V24.9017H46.7296L46.8499 27.1582C47.5036 25.6654 48.5534 24.6587 49.7921 24.6587C50.3433 24.6587 50.6525 24.7455 50.842 24.8149Z" fill="#B8BEC8"/>
<path d="M61.7002 35.7503C61.0978 36.271 59.532 36.9827 57.1224 36.9827C53.371 36.9827 51.496 34.7262 51.496 30.8901C51.496 27.2623 53.3371 24.6587 57.26 24.6587C60.3578 24.6587 61.6311 26.2729 61.6311 28.0434C61.6311 31.029 59.1184 31.9663 53.3371 32.2093C53.6982 34.5353 55.1609 35.4205 57.26 35.4205C59.3079 35.4205 60.8565 34.5353 61.3558 34.136L61.7002 35.7503ZM53.2507 30.786C58.3099 30.595 59.893 30.0222 59.893 28.165C59.893 27.2276 59.2394 26.2035 57.2088 26.2035C55.0579 26.2035 53.3025 27.4012 53.2507 30.786Z" fill="#B8BEC8"/>
<path d="M73.5206 24.9017V36.6876H72.0579L71.869 34.9865C71.0944 36.1669 69.7693 36.9827 67.9455 36.9827C64.8311 36.9827 62.8177 34.7783 62.8177 31.0116C62.8177 27.0367 65.0372 24.6587 68.1862 24.6587C69.9588 24.6587 71.1808 25.353 71.8863 26.3597L72.0579 24.9191H73.5206V24.9017ZM71.766 32.0878V29.9701C71.766 28.3212 70.9395 26.1861 68.3584 26.1861C65.9494 26.1861 64.5558 28.0261 64.5558 30.9943C64.5558 33.8409 65.8464 35.4032 68.1862 35.4032C70.4235 35.4205 71.766 33.9798 71.766 32.0878Z" fill="#B8BEC8"/>
<path d="M93.6355 29.3452V36.6876H91.8808V29.623C91.8808 27.5053 91.0544 26.2556 89.2305 26.2556C87.045 26.2556 85.8236 27.974 85.8236 29.5362V36.6702H84.1028V29.4841C84.1028 27.4185 83.2597 26.2382 81.4698 26.2382C79.2843 26.2382 78.0802 27.974 78.0802 29.5536V36.6702H76.3248V24.9017H77.6839L77.9252 26.9152C78.6307 25.6134 79.9725 24.6587 81.9173 24.6587C83.7411 24.6587 84.9805 25.5092 85.5137 27.1061C86.2019 25.6828 87.6128 24.6587 89.6434 24.6587C92.2073 24.6587 93.6355 26.2209 93.6355 29.3452Z" fill="#B8BEC8"/>
<path d="M108.885 19.2603L102.552 29.9874V36.6875H99.2656V29.9874L92.9331 19.2603H96.6332L100.935 26.9151L105.271 19.2603H108.885Z" fill="#B8BEC8"/>
<path d="M118.141 24.9017V36.6876H115.715L115.319 35.2469C114.544 36.3057 113.254 36.9827 111.568 36.9827C108.47 36.9827 106.319 34.7435 106.319 30.9943C106.319 27.0367 108.677 24.6587 111.791 24.6587C113.426 24.6587 114.562 25.2662 115.302 26.1515L115.577 24.9017H118.141ZM114.923 31.6538V29.9528C114.802 28.5815 114.028 27.3839 112.324 27.3839C110.603 27.3839 109.434 28.6163 109.434 30.9422C109.434 33.1292 110.449 34.2575 112.204 34.2575C113.925 34.2402 114.923 33.1466 114.923 31.6538Z" fill="#B8BEC8"/>
<path d="M127.314 24.8496L127.124 27.922C126.935 27.8525 126.591 27.7484 126.058 27.7484C124.818 27.7484 123.666 28.8766 123.666 31.1157V36.6876H120.431V24.9017H123.029L123.304 26.6722C123.941 25.4398 124.905 24.6587 126.126 24.6587C126.746 24.6587 127.159 24.7802 127.314 24.8496Z" fill="#B8BEC8"/>
<path d="M139.273 19.2603V36.6875H136.572L136.262 35.3336C135.419 36.2882 134.146 36.9825 132.442 36.9825C129.602 36.9825 127.503 35.0211 127.503 31.0115C127.503 27.0018 129.723 24.6585 133.251 24.6585C134.421 24.6585 135.35 24.8842 136.055 25.1792V19.2603H139.273ZM136.038 31.2718V28.1127C135.47 27.7135 134.679 27.3837 133.612 27.3837C131.891 27.3837 130.738 28.512 130.738 30.9594C130.738 33.3201 131.805 34.24 133.199 34.24C134.747 34.24 136.038 33.0771 136.038 31.2718Z" fill="#B8BEC8"/>
</svg>
