<svg width="416" height="144" viewBox="0 0 416 144" fill="none" xmlns="http://www.w3.org/2000/svg">
<rect width="416" height="144" fill="black"/>
<path d="M277.256 50.4096C280.042 50.4096 282.203 48.1028 282.203 45.2045C282.203 42.3654 280.042 40.0586 277.256 40.0586C274.527 40.0586 272.253 42.3654 272.253 45.2045C272.196 48.1028 274.527 50.4096 277.256 50.4096Z" fill="#B8BEC8"/>
<path d="M234.616 54.0196H242.064V58.7515C243.94 55.9124 248.09 53.3098 252.98 53.3098C262.247 53.3098 269.297 61.5315 269.297 71.6459C269.297 81.7011 262.247 89.9819 252.98 89.9819C248.09 89.9819 243.997 87.3794 242.064 84.5403V104H234.616V54.0196ZM251.615 60.3485C245.589 60.3485 241.438 65.2578 241.438 71.6459C241.438 77.9748 245.589 82.9433 251.615 82.9433C257.585 82.9433 261.735 78.0339 261.735 71.6459C261.735 65.317 257.585 60.3485 251.615 60.3485Z" fill="#B8BEC8"/>
<path d="M286.471 54.0179H293.919V58.8089C295.965 55.26 299.831 53.3081 304.209 53.3081C312.055 53.3081 317.172 59.1047 317.172 68.0361V89.2704H309.724V69.3374C309.724 63.7774 306.995 60.4059 302.674 60.4059C297.728 60.4059 293.919 64.428 293.919 71.9399V89.2704H286.471V54.0179V54.0179Z" fill="#B8BEC8"/>
<path d="M177.891 53.3079C173.513 53.3079 169.647 55.2598 167.601 58.8087V40.0586H160.153V89.2702H167.601V71.9397C167.601 64.4278 171.41 60.4057 176.356 60.4057C180.677 60.4057 183.406 63.7772 183.406 69.3371V89.2702H190.854V68.0359C190.797 59.1044 185.737 53.3079 177.891 53.3079Z" fill="#B8BEC8"/>
<path d="M280.913 54.0195H273.465V89.2721H280.913V54.0195Z" fill="#B8BEC8"/>
<path d="M212.727 89.9819C202.721 89.9819 194.989 81.8786 194.989 71.6459C194.989 61.4132 202.721 53.3098 212.727 53.3098C222.733 53.3098 230.465 61.4132 230.465 71.6459C230.465 81.8786 222.733 89.9819 212.727 89.9819ZM212.727 82.7658C218.697 82.7658 222.904 77.9156 222.904 71.6459C222.904 65.3761 218.697 60.5259 212.727 60.5259C206.701 60.5259 202.493 65.3761 202.493 71.6459C202.493 77.9156 206.701 82.7658 212.727 82.7658Z" fill="#B8BEC8"/>
<path d="M128.225 49.5229C128.168 51.8889 126.576 55.2603 123.904 55.2603C122.256 55.2603 120.891 53.8408 120.891 52.1255V52.0663C120.834 49.2863 119.64 46.8612 117.764 45.1459C116.343 43.9038 114.58 43.0757 112.647 42.8391C114.296 41.0647 116.627 40 119.186 40C122.426 40 125.383 41.9519 127.088 44.791C127.884 46.2106 128.282 47.9259 128.225 49.5229Z" fill="#B8BEC8"/>
<path d="M117.671 49.7588C119.092 51.6515 119.945 55.2596 117.899 57.034C116.591 58.1579 114.715 57.9804 113.635 56.6792C111.872 54.609 109.427 53.5443 106.983 53.4851C105.107 53.426 103.23 54.0175 101.638 55.1413C101.809 52.7162 102.889 50.2911 104.879 48.5758C107.438 46.3873 111.019 45.7367 114.089 47.0379C115.511 47.5703 116.761 48.5167 117.671 49.7588Z" fill="#B8BEC8"/>
<path d="M109.693 56.9759C111.91 57.4491 114.867 59.6968 114.412 62.4176C114.128 64.1329 112.536 65.2567 110.887 64.961H110.83C108.215 64.547 105.656 65.375 103.78 66.972C102.359 68.155 101.222 69.8703 100.71 71.8222C99.3457 69.8112 98.7203 67.2678 99.1183 64.6061C99.7436 61.2346 102.075 58.3955 105.258 57.2717C106.68 56.7985 108.272 56.6802 109.693 56.9759Z" fill="#B8BEC8"/>
<path d="M108.059 67.8594C110.048 66.7356 113.687 66.499 114.995 68.865C115.848 70.3437 115.336 72.2956 113.914 73.1828C111.64 74.6024 110.219 76.9092 109.707 79.4526C109.366 81.3453 109.537 83.3564 110.39 85.19C108.115 84.5985 106.012 83.0606 104.761 80.7538C103.112 77.7372 103.169 74.0109 104.875 71.0535C105.671 69.693 106.751 68.5692 108.059 67.8594Z" fill="#B8BEC8"/>
<path d="M113.515 77.2633C114.368 75.0748 116.983 72.4723 119.428 73.4187C121.02 74.0101 121.816 75.8437 121.247 77.4408C120.395 80.0433 120.736 82.7641 121.93 85.0118C122.839 86.7271 124.204 88.0875 125.966 88.9747C123.806 90.0394 121.304 90.276 118.916 89.3296C115.789 88.1467 113.515 85.2484 113.004 81.8178C112.833 80.2799 113.004 78.6829 113.515 77.2633Z" fill="#B8BEC8"/>
<path d="M123.509 80.8124C122.77 78.5647 123.168 74.8384 125.669 73.892C127.261 73.3005 128.967 74.1286 129.535 75.7847C130.502 78.3281 132.435 80.2209 134.766 81.1673C136.471 81.877 138.461 81.9953 140.338 81.5221C139.371 83.7698 137.552 85.6034 135.164 86.5498C132.037 87.7327 128.455 87.023 126.01 84.7162C124.873 83.5923 123.964 82.2911 123.509 80.8124Z" fill="#B8BEC8"/>
<path d="M133.399 76.8505C131.466 75.6084 129.419 72.4735 130.783 70.1075C131.636 68.6288 133.456 68.0965 134.934 68.9246C137.265 70.2258 139.88 70.4033 142.268 69.5752C144.03 68.9246 145.622 67.7416 146.759 66.0854C147.385 68.4514 147.157 71.0539 145.85 73.3607C144.201 76.3773 141.017 78.2109 137.72 78.0926C136.128 78.0926 134.593 77.6786 133.399 76.8505Z" fill="#B8BEC8"/>
<path d="M138.517 67.2094C136.242 67.5642 132.774 66.4996 132.32 63.7787C131.978 62.1226 133.115 60.4664 134.764 60.1707H134.821C137.436 59.6383 139.54 57.9822 140.791 55.7937C141.757 54.1375 142.212 52.1856 142.041 50.1746C143.975 51.535 145.453 53.7235 145.851 56.326C146.419 59.6975 145.112 63.2464 142.553 65.3757C141.359 66.3221 139.938 67.0319 138.517 67.2094Z" fill="#B8BEC8"/>
<path d="M136.474 56.4401C134.939 58.2146 131.641 59.7524 129.595 57.978C128.287 56.8541 128.117 54.9022 129.197 53.5418C130.846 51.4125 131.471 48.6916 131.073 46.1482C130.789 44.2555 129.936 42.4219 128.571 40.9432C130.902 40.7066 133.347 41.4164 135.337 43.1317C137.895 45.3202 139.089 48.9282 138.407 52.2997C138.123 53.8376 137.441 55.3163 136.474 56.4401Z" fill="#B8BEC8"/>
</svg>
