<svg width="416" height="144" viewBox="0 0 416 144" fill="none" xmlns="http://www.w3.org/2000/svg">
<rect width="416" height="144" fill="black"/>
<path d="M110.685 67.8746C112.993 68.3085 114.618 69.2863 115.569 70.7944C116.519 72.3094 116.995 74.692 116.995 77.9423C116.995 84.4016 115.052 89.6834 111.167 93.8014C107.282 97.9125 102.316 99.9715 96.2678 99.9715C93.8845 99.9715 91.57 99.5445 89.3244 98.6837C87.0788 97.823 85.15 96.6247 83.5382 95.0891C81.6921 93.3951 80.3076 91.6116 79.3846 89.7247C78.4615 87.8379 78 85.9097 78 83.9403C78 81.7367 78.4753 80.0358 79.4259 78.8307C80.3765 77.6256 81.8712 76.8061 83.9239 76.3723C83.5382 75.4771 83.2558 74.7196 83.0767 74.1067C82.8976 73.4938 82.808 73.0187 82.808 72.6812C82.808 71.5312 83.4142 70.3468 84.6334 69.1417C85.8527 67.9366 86.9961 67.3375 88.0776 67.3375C88.5391 67.3375 89.0282 67.4201 89.5379 67.5854C90.0477 67.7507 90.6401 68.0261 91.3082 68.4118C89.3313 62.827 87.8985 58.5162 87.003 55.4794C86.1075 52.4425 85.6598 50.3491 85.6598 49.1922C85.6598 47.6015 85.9353 46.3895 86.7344 45.4392C87.7125 44.2755 89.1797 44 90.5918 44C93.4436 44 94.4631 46.4446 99.3882 60.1483C100.049 61.9869 100.518 63.4123 100.849 64.4177C101.131 63.6258 101.53 62.4965 102.04 61.0366C105.732 50.3767 107.31 45.0467 111.574 45.0467C112.882 45.0467 113.923 45.4874 114.708 46.3758C115.493 47.2572 115.879 48.4485 115.879 49.9291C115.879 51.0584 115.452 53.1174 114.591 56.1198C113.73 59.1153 112.428 63.0336 110.685 67.8746ZM83.1524 83.5615C83.5106 83.9954 84.0135 84.6358 84.6541 85.4828C86.3486 87.8172 87.9123 88.981 89.345 88.981C89.8341 88.981 90.2681 88.8295 90.6538 88.5196C91.0396 88.2097 91.2325 87.893 91.2325 87.5556C91.2325 87.1699 90.9776 86.5295 90.4609 85.6343C89.9443 84.7391 89.2417 83.7268 88.3463 82.5975C87.3199 81.2891 86.4657 80.3388 85.7907 79.7328C85.1087 79.1337 84.5646 78.8307 84.1582 78.8307C83.2627 78.8307 82.436 79.3127 81.6783 80.2699C80.9206 81.234 80.5418 82.3633 80.5418 83.6717C80.5418 84.7253 80.8036 85.896 81.3271 87.1906C81.8506 88.4852 82.6152 89.7867 83.614 91.0951C85.1294 93.1196 87.003 94.6759 89.2486 95.764C91.4942 96.852 93.974 97.396 96.688 97.396C101.689 97.396 105.87 95.5298 109.245 91.8044C112.614 88.0789 114.301 83.4031 114.301 77.7908C114.301 76.0762 114.171 74.7127 113.916 73.7004C113.661 72.6881 113.234 71.9513 112.648 71.4899C111.594 70.6223 109.555 69.8372 106.518 69.1417C103.48 68.4531 100.304 68.1019 96.998 68.1019C96.0749 68.1019 95.4205 68.2534 95.0348 68.5633C94.649 68.8731 94.4562 69.3965 94.4562 70.1402C94.4562 71.8824 95.4274 73.1426 97.3768 73.9277C99.3262 74.7127 102.481 75.0983 106.834 75.0983H108.412C108.77 75.0983 109.059 75.236 109.28 75.5046C109.5 75.7732 109.645 76.1795 109.721 76.7166C109.287 77.1298 108.384 77.598 107.027 78.1214C105.67 78.6447 104.63 79.1681 103.914 79.6777C102.378 80.807 101.138 82.143 100.201 83.6924C99.2642 85.2418 98.7958 86.7085 98.7958 88.0927C98.7958 88.9397 98.9956 89.9589 99.3951 91.1502C99.7946 92.3415 99.9944 93.0783 99.9944 93.3607V93.6292L99.9186 93.9735C98.7889 93.8978 97.9003 93.2367 97.2459 91.9972C96.5915 90.7577 96.2678 89.0981 96.2678 87.0184V86.6741C96.0612 86.8532 95.8614 86.984 95.6685 87.0597C95.4757 87.1355 95.2621 87.1768 95.0348 87.1768C94.8006 87.1768 94.587 87.1562 94.3804 87.1217C94.1737 87.0804 93.9464 87.0253 93.6915 86.9496C93.7673 87.2319 93.8293 87.5073 93.8638 87.7759C93.9051 88.0445 93.9189 88.2579 93.9189 88.4094C93.9189 89.3597 93.5469 90.1723 92.803 90.8472C92.059 91.5289 91.1773 91.8663 90.151 91.8663C88.5391 91.8663 86.8928 91.0813 85.2258 89.5044C83.5589 87.9274 82.7254 86.3849 82.7254 84.8699C82.7254 84.5876 82.7598 84.3397 82.8218 84.1193C82.8907 83.899 83.0009 83.713 83.1524 83.5615ZM94.6904 84.4843C95.1243 84.4843 95.5239 84.2846 95.8821 83.8852C96.2403 83.4858 96.4193 83.0588 96.4193 82.5975C96.4193 82.1085 96.068 80.9792 95.3585 79.1956C94.6559 77.4121 93.7742 75.663 92.7272 73.9483C91.9557 72.6675 91.2049 71.6965 90.4609 71.0492C89.717 70.395 89.0144 70.0714 88.3463 70.0714C87.809 70.0714 87.2097 70.4088 86.5553 71.0905C85.9009 71.7723 85.5771 72.4058 85.5771 72.9911C85.5771 73.604 85.9009 74.5268 86.5415 75.7594C87.1821 76.992 88.0432 78.2935 89.1177 79.6777C90.2474 81.1927 91.3082 82.3702 92.307 83.2172C93.3058 84.0573 94.098 84.4843 94.6904 84.4843ZM98.4583 65.9189L94.3046 53.9231C93.23 50.8725 92.3966 48.8824 91.8042 47.9458C91.2118 47.0093 90.5712 46.541 89.8823 46.541C89.345 46.541 88.9111 46.7476 88.5735 47.1539C88.2429 47.5671 88.0707 48.118 88.0707 48.8066C88.0707 49.9842 88.5185 52.0363 89.4139 54.956C90.3094 57.8758 91.6595 61.7114 93.4505 66.4492C93.602 66.1668 93.8224 65.9672 94.1049 65.8501C94.3873 65.733 94.773 65.6779 95.2552 65.6779C95.4067 65.6779 95.7167 65.6917 96.1783 65.7192C96.6467 65.7468 97.4044 65.8157 98.4583 65.9189ZM102.798 77.5636C101.696 77.5154 100.649 77.3983 99.6637 77.2193C98.6787 77.0402 97.735 76.7855 96.8395 76.448C97.2459 77.2675 97.611 78.087 97.9348 78.9064C98.2585 79.7259 98.5203 80.5316 98.72 81.3304C99.3331 80.5591 99.9806 79.8636 100.663 79.237C101.344 78.6103 102.054 78.0525 102.798 77.5636ZM107.916 67.2204C109.631 62.5585 110.974 58.709 111.932 55.6722C112.896 52.6354 113.371 50.7692 113.371 50.0806C113.371 49.3368 113.213 48.7584 112.889 48.3521C112.566 47.9458 112.125 47.7392 111.56 47.7392C110.843 47.7392 110.113 48.3383 109.369 49.5297C108.625 50.721 107.806 52.6354 106.91 55.2797L103.067 66.3872L107.916 67.2204Z" fill="#B8BEC8"/>
<path d="M153.459 53.6479L168.242 89.8765H160.589L156.965 80.9037H141.549L138.043 89.8765H130.797L145.469 53.6479H153.459ZM143.74 75.3878H154.782L149.319 61.815H149.092L143.74 75.3878Z" fill="#B8BEC8"/>
<path d="M177.115 89.8764H170.213V64.5144H177.115V68.653C178.382 65.7745 181.599 63.8188 185.401 63.8188C192.186 63.8188 194.666 68.4189 194.666 74.0587V89.8764H187.764V75.4428C187.764 71.5315 186.214 69.2865 182.818 69.2865C179.312 69.2865 177.122 72.0479 177.122 76.3036V89.8764H177.115Z" fill="#B8BEC8"/>
<path d="M209.805 81.0765C207.732 81.0765 205.838 80.7873 204.226 80.1537C203.592 80.5531 203.193 81.1867 203.193 81.9924C203.193 83.1424 203.943 83.893 205.838 83.893H215.964C221.598 83.893 224.478 86.9436 224.478 91.0271C224.478 97.3556 217.114 99.9999 209.234 99.9999C202.215 99.9999 196.235 98.2164 196.235 93.4993C196.235 90.9101 198.309 89.0714 201.298 88.672C198.998 87.9214 197.792 86.0828 197.792 84.0169C197.792 81.7169 199.404 79.9885 201.877 79.0175C199.693 77.5232 198.371 75.2783 198.371 72.5169C198.371 67.1112 203.144 63.8333 209.819 63.8333C212.926 63.8333 215.798 64.639 217.872 66.0782C219.311 64.0674 221.839 62.4561 224.601 62.4561V67.9788C223.224 67.9788 221.55 68.2061 220.227 68.6675C220.916 69.7624 221.323 71.0845 221.323 72.5169C221.316 77.8055 216.48 81.0765 209.805 81.0765ZM209.234 95.7993C214.297 95.7993 217.975 94.6493 217.975 92.1771C217.975 90.5107 216.597 89.8771 214.297 89.8771H205.838C203.999 89.8771 202.504 90.6277 202.504 92.4663C202.504 94.7664 205.149 95.7993 209.234 95.7993ZM209.867 68.027C207.277 68.027 205.493 69.5764 205.493 72.51C205.493 75.4435 207.277 76.9929 209.867 76.9929C212.512 76.9929 214.297 75.4435 214.297 72.51C214.297 69.5764 212.512 68.027 209.867 68.027Z" fill="#B8BEC8"/>
<path d="M250.716 81.5991C249.393 87.232 245.019 90.5718 238.523 90.5718C230.698 90.5718 225.064 85.5655 225.064 77.5775C225.064 69.5825 230.76 63.8325 238.351 63.8325C246.638 63.8325 250.895 69.5825 250.895 76.4826V78.9547H231.856C232.083 82.694 235.017 85.3383 238.758 85.3383C242.154 85.3383 244.165 83.8991 245.143 81.0275L250.716 81.5991ZM244.158 74.637C243.931 71.7035 242.147 68.887 238.289 68.887C234.494 68.887 232.593 71.4763 231.959 74.637H244.158Z" fill="#B8BEC8"/>
<path d="M260.51 53.6479V89.8765H253.607V53.6479H260.51Z" fill="#B8BEC8"/>
<path d="M272.02 53.6479V83.8993H285.665V89.8834H264.828V53.6479H272.02Z" fill="#B8BEC8"/>
<path d="M287.286 53.6479H294.36V60.3758H287.286V53.6479ZM294.305 64.5145V89.8765H287.403V64.5145H294.305Z" fill="#B8BEC8"/>
<path d="M302.516 81.2547C302.915 84.3053 305.223 85.8548 308.729 85.8548C311.257 85.8548 313.331 84.994 313.331 83.1553C313.331 81.4269 312.18 80.6832 309.652 80.2769L305.623 79.5883C300.215 78.7275 297.226 76.7098 297.226 71.9996C297.226 67.1655 301.311 63.8325 307.751 63.8325C314.77 63.8325 318.972 66.9933 319.427 72.6332L313.73 72.8604C313.269 69.9888 311.312 68.5496 307.689 68.5496C305.216 68.5496 303.604 69.6445 303.604 71.3661C303.604 72.7433 304.527 73.549 306.367 73.8382L311.195 74.6439C316.547 75.5047 319.709 77.7496 319.709 82.5218C319.709 87.7003 315.225 90.5718 308.667 90.5718C302.054 90.5718 296.992 87.6934 296.53 81.4889L302.516 81.2547Z" fill="#B8BEC8"/>
<path d="M323.423 69.3488H319.799V65.2653L321.522 64.976C323.994 64.5766 324.683 63.3096 325.262 60.9476L326.068 57.4976H330.27V64.5147H337.172V69.3419H330.27V81.8818C330.27 84.0647 331.248 85.0426 333.321 85.0426C334.699 85.0426 336.139 84.5261 337.633 83.8375V88.3824C335.794 89.7596 333.721 90.5653 330.614 90.5653C326.702 90.5653 323.423 88.8438 323.423 83.4312V69.3488Z" fill="#B8BEC8"/>
</svg>
