<svg width="304" height="108" viewBox="0 0 304 108" fill="none" xmlns="http://www.w3.org/2000/svg">
<rect width="304" height="108" fill="black"/>
<path fill-rule="evenodd" clip-rule="evenodd" d="M262.045 67.5443C262.042 68.5043 261.668 69.4233 261.006 70.0983C260.344 70.7733 259.448 71.1488 258.517 71.1416C257.588 71.1669 256.687 70.8056 256.019 70.139C255.35 69.4725 254.97 68.5568 254.963 67.598C254.974 66.6308 255.357 65.7078 256.029 65.0327C256.701 64.3577 257.605 63.9863 258.543 64.0006C259.466 63.9826 260.357 64.348 261.016 65.0145C261.675 65.681 262.046 66.5927 262.045 67.5443ZM255.849 67.5443C255.941 69.0004 257.144 70.1141 258.558 70.0519C259.972 69.9897 261.079 68.7743 261.05 67.3154C261.021 65.8564 259.868 64.6883 258.452 64.6852C257.734 64.7131 257.056 65.0344 256.567 65.5783C256.079 66.1222 255.82 66.8439 255.849 67.5845V67.5443ZM257.919 69.3161H257.098V65.7993C257.53 65.7357 257.965 65.6954 258.4 65.6785C258.811 65.6308 259.224 65.7304 259.572 65.9604C259.814 66.1265 259.953 66.4126 259.936 66.7121C259.91 67.128 259.616 67.4741 259.22 67.5577C259.559 67.6651 259.728 67.9335 259.832 68.4168C259.875 68.7198 259.963 69.0141 260.093 69.2893H259.259C259.103 69.0227 259.001 68.7257 258.96 68.4168C258.96 68.0544 258.7 67.8799 258.27 67.8933H257.893L257.919 69.3161ZM257.919 67.3161H258.296C258.726 67.3161 259.09 67.155 259.09 66.7792C259.09 66.4033 258.869 66.2557 258.348 66.2557C258.206 66.2363 258.061 66.2363 257.919 66.2557V67.3161ZM104.497 47.0927C104.18 48.9248 103.795 51.0451 103.278 53.1654C103.858 58.182 105.6 63.9325 110.233 63.8001C112.713 63.7279 114.854 62.1881 116.681 59.9264C115.163 55.3427 114.559 50.5085 114.902 45.6947C115.205 38.8255 117.104 25.1231 123.37 25.1231C130.181 25.1231 126.636 42.1699 125.56 46.0195C124.483 49.8692 122.729 55.8121 119.79 60.3715C121.004 62.781 123.491 64.2932 126.201 64.2693C127.633 64.2835 129.045 63.9314 130.301 63.2467C129.053 61.3244 128.443 59.0602 128.56 56.7745C128.656 50.7714 132.055 46.1759 135.914 46.1759C140.269 46.1278 141.164 50.4587 139.737 55.1865C138.799 58.2285 137.096 60.982 134.789 63.1866C135.817 63.6291 136.939 63.815 138.055 63.7279C140.155 63.6803 142.153 62.8166 143.62 61.3219C144.164 60.9249 144.805 61.0813 144.297 62.2362C143.789 63.3911 141.805 66.4347 136.531 66.4347C135.012 66.445 133.525 65.9916 132.273 65.1355C130.455 66.2813 128.374 66.9478 126.225 67.0723C122.877 67.3363 119.681 65.6411 118.036 62.7294C116.194 65.1043 113.432 66.5979 110.427 66.8438C105.552 67.0603 102.854 63.3791 101.451 58.8437C100.133 61.9234 98.318 64.2934 95.7173 64.7024C92.0883 65.2558 90.1891 62.5249 89.2335 59.0843C87.5521 62.9941 85.2779 66.122 82.29 66.122C77.9474 66.146 78.1167 59.4091 78.1167 59.4091C75.8788 64.7986 71.1128 70.5611 64.8104 69.6107C60.4073 68.9611 57.8186 65.737 56.3428 61.6828C54.0315 63.7812 51.4773 65.5985 48.734 67.0964C46.1817 68.4799 44.4277 68.937 43.2906 68.7686C42.1535 68.6002 42.3228 67.9385 43.2906 67.5656C47.9977 65.5997 52.1865 62.5824 55.5323 58.7474C54.664 54.6529 54.3991 50.4545 54.7461 46.2842C55.3388 38.8134 59.1855 22.8614 66.6007 24.0644C74.8022 25.4599 69.5644 41.7849 67.012 47.3188C64.93 51.7495 62.1353 55.8129 58.7379 59.349C59.9113 63.355 62.1129 66.7355 66.0685 66.6513C72.1652 66.5189 75.6732 58.0978 77.6328 53.0211C78.274 51.385 79.0119 50.7714 80.0522 50.9038C81.0925 51.0361 81.6247 51.8542 81.4554 53.5504C81.2148 55.3565 81.1258 57.1793 81.1892 59.0001C81.3949 60.8768 81.6731 62.7174 82.8949 62.7896C84.1166 62.8618 86.5843 58.7715 88.3746 53.3218C88.256 51.6196 88.256 49.9112 88.3746 48.209C88.4222 47.6127 88.4755 47.0364 88.5356 46.4833C86.4027 46.4595 84.6973 46.4789 83.8628 46.5603C83.5259 48.6523 81.9975 49.5569 80.2525 49.6983C78.0502 49.8679 75.0777 48.6805 75.0777 46.6168C75.0777 44.5531 78.0382 42.7579 80.2284 42.5883C81.9855 42.4469 83.5379 43.182 83.8387 45.274C84.6848 45.1194 86.4918 44.9504 88.7527 44.7938C89.2515 41.5006 90.0895 39.3564 91.5439 39.2465C93.0724 39.1311 93.278 41.6083 92.9587 44.5434C95.4797 44.4141 98.1543 44.3105 100.527 44.2564C101.475 36.1539 103.282 35.2114 104.257 35.2886C105.318 35.3725 106.39 36.7696 104.999 44.2255C106.087 44.2442 106.919 44.2901 107.378 44.3693C109.797 44.5531 111.975 45.1326 111.903 46.1645C111.831 47.1963 110.615 47.578 107.294 47.3518C106.776 47.27 105.788 47.1813 104.497 47.0927ZM100.276 46.8533C97.8799 46.738 95.1914 46.6359 92.6732 46.5667C92.6599 46.645 92.6464 46.7233 92.6326 46.8015C92.3423 48.4977 91.8947 50.6872 91.2778 52.9609C91.3141 53.5263 91.3625 54.0918 91.4351 54.6572C91.9915 58.976 93.4794 62.1761 95.2576 62.1761C97.5801 62.2121 99.2858 57.8091 100.399 53.4662C100.161 51.2697 100.12 49.0567 100.276 46.8533ZM57.4436 49.4C57.4154 51.5779 57.5651 53.7545 57.8912 55.9083C59.2823 54.1395 60.5321 52.2651 61.629 50.3023C65.8387 42.7473 69.5281 28.0464 65.8387 27.3727C62.1492 26.699 57.6251 40.8706 57.4436 49.4ZM90.6125 42.2661V42.0856C90.6125 42.0856 90.6004 42.0736 90.6125 42.2661ZM117.927 43.9383C117.416 48.3171 117.62 52.7492 118.531 57.0632C120.772 52.6928 122.358 48.0197 123.237 43.1924C124.858 34.3984 124.326 28.9246 123.237 28.5757C122.148 28.2269 118.967 32.7743 117.927 43.9383ZM131.547 56.0527C131.31 57.9258 131.724 59.8232 132.721 61.4302C134.562 59.611 135.961 57.3972 136.809 54.9579C137.68 52.4075 137.644 49.2556 135.805 49.0992C133.967 48.9428 131.91 52.0105 131.547 56.0527ZM161.857 54.5607C165.291 55.2418 168.631 55.6877 168.56 59.886C168.42 63.8614 164.904 66.9947 160.356 67.9978C155.809 69.001 152.387 67.0938 151.976 66.6727C151.566 66.2516 151.179 65.3228 152.305 65.6076C153.43 65.8925 155.129 66.3755 159.571 65.3599C163.087 64.5673 165.525 61.7808 165.595 59.9975C165.666 58.2141 163.087 57.8797 160.028 57.1862C156.676 56.4431 153.266 55.4771 153.266 51.6999C153.313 48.3189 155.856 45.4705 160.016 44.4054C164.177 43.3403 166.767 44.6531 167.412 45.1609C168.344 45.7056 168.697 46.9347 168.209 47.935C167.459 48.9877 166.228 48.3189 165.63 47.935C165.033 47.5511 164.189 46.9442 161.235 47.2414C158.282 47.5387 156.067 49.6193 156.067 51.5141C156.067 53.4089 158.657 53.9291 161.857 54.5607ZM257.711 56.9906C258.011 57.5046 257.495 58.7163 256.535 60.1361C255.575 61.5559 252.024 67.4552 246.841 66.7086C241.658 65.962 241.238 60.5522 241.154 57.7739C241.082 53.4412 241.958 49.5981 241.154 49.2064C240.614 48.9494 238.851 50.4793 236.607 54.5183C235.066 57.3945 233.676 60.3524 232.444 63.3795C231.544 65.2766 231.124 65.6805 230.044 65.2766C229.36 64.9951 228.964 64.1996 229.36 62.0087C229.648 60.6624 230.032 59.1814 230.56 55.7667C230.853 54.1825 231.038 52.5793 231.112 50.9689C229.337 51.8273 227.443 52.4011 225.497 52.6701C225.538 54.5053 225.24 56.3319 224.621 58.0554C222.606 63.967 219.294 65.2399 217.039 65.093C213.499 64.8727 211.652 62.0087 211.652 58.4348C211.539 56.76 211.818 55.0818 212.467 53.5391C211.239 54.159 209.953 54.6511 208.628 55.0078C207.692 59.72 204.777 64.4933 200.494 64.9094C197.837 65.316 195.239 63.8709 194.135 61.3723C193.53 59.9713 193.153 58.4789 193.019 56.9539C191.439 58.8578 189.586 60.5082 187.524 61.8496C186.159 62.7508 184.713 63.5172 183.205 64.1384C182.477 64.8994 181.58 65.4704 180.589 65.8029C176.222 67.1859 175.37 64.8115 176.99 63.5876C178.202 62.6941 178.958 62.9267 181.117 62.1556C182.76 60.4195 183.913 58.2628 184.453 55.9135C185.449 52.4009 185.808 47.5051 182.833 46.2812C179.03 44.7758 175.814 49.2798 173.631 54.1756C174.924 59.9348 175.536 65.8312 175.454 71.739C175.346 77.3446 173.631 84.4434 171.231 83.9783C165.472 82.8767 167.044 66.7453 168.52 60.7236C169.131 58.2156 169.933 55.7603 170.919 53.38C170.691 52.0582 170.439 50.8342 170.139 49.6103C169.492 46.9911 168.4 46.1221 169.144 45.5591C169.636 45.1919 171.267 46.0119 172.551 49.953C174.951 45.6203 178.274 42.1688 182.569 42.6094C188.952 43.2214 189 52.0582 187.248 56.6846C186.828 57.7005 186.444 58.6551 186.048 59.5364C188.96 57.1364 191.56 54.3685 193.787 51.2993C194.567 50.3202 195.035 50.259 195.767 50.565C196.498 50.8709 196.594 51.5808 196.319 53.3188C196.043 55.0568 195.863 62.1923 200.098 62.4004C202.797 62.535 204.597 59.108 205.461 55.6565C204.236 55.7761 203 55.6934 201.801 55.4117C197.758 54.4203 195.779 52.0949 196.319 47.958C196.463 46.3711 197.228 44.9102 198.44 43.9043C199.651 42.8983 201.209 42.4317 202.761 42.6094C204.945 42.8297 209.312 44.8002 208.94 52.254C210.186 51.7656 211.39 51.172 212.539 50.4793C214.243 49.5001 215.395 48.9371 216.043 49.9775C216.427 50.5894 216.403 50.9933 215.863 52.3519C215.054 54.1649 214.644 56.1369 214.663 58.1289C214.843 60.1606 215.827 62.1678 217.723 62.229C219.618 62.2902 221.646 59.9403 222.378 54.9466C222.446 54.2963 222.474 53.6423 222.462 52.9883C218.478 52.768 214.855 50.1733 215.923 47.089C217.087 43.6742 221.154 44.9594 222.498 46.0242C223.734 47.11 224.603 48.5663 224.981 50.1855C225.629 50.1121 226.181 50.0142 226.829 49.8918C228.686 49.5776 230.443 48.8137 231.952 47.6642C232.828 47.2481 234.207 47.8234 234.027 49.696C233.847 51.5686 233.488 54.0164 233.488 54.0164C234.533 51.9514 235.809 50.0169 237.291 48.2517C239.042 46.4525 241.082 44.7023 243.29 45.9263C245.149 46.9911 244.489 50.1121 244.238 52.4865C243.866 55.8279 243.458 62.021 246.637 63.1715C249.289 64.1628 251.436 62.2045 253.416 60.491C255.395 58.7775 257.243 56.1583 257.711 56.9906ZM172.179 67.7979C172.059 65.0318 171.891 62.2045 171.615 59.414C171.327 60.283 171.099 61.1275 170.919 61.8618C169.696 66.8922 169.132 79.4742 170.655 80.1229C170.979 80.2453 172.467 74.4194 172.179 67.7979ZM201.981 52.7925C203.24 53.1381 204.551 53.2337 205.845 53.074C205.941 52.6212 205.941 52.2173 205.941 51.8501C206.121 47.7989 203.877 45.7304 201.706 45.8895C200.268 46.0682 199.106 47.1695 198.826 48.6189C198.526 50.3447 199.138 52.0337 201.981 52.7925ZM219.546 49.5124H219.558C220.309 50.0124 221.181 50.288 222.078 50.3079C221.791 49.2503 221.009 48.4065 219.99 48.0559C218.814 47.7622 218.106 48.4353 219.546 49.5124Z" fill="#B8BEC8"/>
</svg>
