<svg width="304" height="108" viewBox="0 0 304 108" fill="none" xmlns="http://www.w3.org/2000/svg">
<rect width="304" height="108" fill="black"/>
<path fill-rule="evenodd" clip-rule="evenodd" d="M85.9115 34.3636C75.1066 34.3636 66.3475 43.1551 66.3475 54C66.3475 64.8449 75.1066 73.6364 85.9115 73.6364C96.7164 73.6364 105.475 64.8449 105.475 54C105.475 43.1551 96.7164 34.3636 85.9115 34.3636ZM62 54C62 40.7452 72.7055 30 85.9115 30C99.1174 30 109.823 40.7452 109.823 54C109.823 67.2548 99.1174 78 85.9115 78C72.7055 78 62 67.2548 62 54Z" fill="#B8BEC8"/>
<path d="M85.912 67.4877C93.3335 67.4877 99.3498 61.4491 99.3498 54.0001C99.3498 46.5511 93.3335 40.5125 85.912 40.5125C78.4905 40.5125 72.4741 46.5511 72.4741 54.0001C72.4741 61.4491 78.4905 67.4877 85.912 67.4877Z" fill="#B8BEC8"/>
<path fill-rule="evenodd" clip-rule="evenodd" d="M85.9117 42.2983C79.4724 42.2983 74.2524 47.5377 74.2524 54.0008C74.2524 60.4639 79.4724 65.7032 85.9117 65.7032C92.351 65.7032 97.571 60.4639 97.571 54.0008C97.571 47.5377 92.351 42.2983 85.9117 42.2983ZM70.6953 54.0008C70.6953 45.5659 77.5079 38.728 85.9117 38.728C94.3155 38.728 101.128 45.5659 101.128 54.0008C101.128 62.4356 94.3155 69.2735 85.9117 69.2735C77.5079 69.2735 70.6953 62.4356 70.6953 54.0008Z" fill="#B8BEC8"/>
<path d="M140.502 45.8179C142.417 45.8179 144.151 46.2594 145.704 47.1425C147.257 47.9997 148.473 49.2205 149.353 50.8049C150.233 52.3893 150.673 54.1945 150.673 56.2205C150.673 58.2724 150.233 60.0906 149.353 61.675C148.473 63.2594 147.257 64.4932 145.704 65.3763C144.177 66.2335 142.443 66.662 140.502 66.662C138.846 66.662 137.345 66.3244 136 65.649C134.68 64.9477 133.593 63.9348 132.739 62.6101V74.0257H129.983V45.9737H132.622V50.0257C133.451 48.675 134.537 47.6361 135.883 46.9088C137.255 46.1815 138.794 45.8179 140.502 45.8179ZM140.308 64.2075C141.732 64.2075 143.026 63.8828 144.19 63.2335C145.355 62.5581 146.26 61.6101 146.907 60.3893C147.58 59.1685 147.917 57.7789 147.917 56.2205C147.917 54.662 147.58 53.2854 146.907 52.0906C146.26 50.8698 145.355 49.9218 144.19 49.2464C143.026 48.5711 141.732 48.2335 140.308 48.2335C138.859 48.2335 137.552 48.5711 136.388 49.2464C135.249 49.9218 134.343 50.8698 133.671 52.0906C133.024 53.2854 132.7 54.662 132.7 56.2205C132.7 57.7789 133.024 59.1685 133.671 60.3893C134.343 61.6101 135.249 62.5581 136.388 63.2335C137.552 63.8828 138.859 64.2075 140.308 64.2075Z" fill="#B8BEC8"/>
<path d="M163.319 45.8179C165.985 45.8179 168.029 46.4932 169.453 47.8438C170.876 49.1685 171.588 51.1425 171.588 53.7659V66.4672H168.948V63.2724C168.327 64.3374 167.408 65.1685 166.192 65.7659C165.002 66.3633 163.578 66.662 161.922 66.662C159.645 66.662 157.833 66.1166 156.488 65.0257C155.142 63.9348 154.469 62.4932 154.469 60.701C154.469 58.9607 155.09 57.5581 156.332 56.4932C157.6 55.4283 159.606 54.8958 162.349 54.8958H168.832V53.649C168.832 51.8828 168.34 50.5451 167.356 49.6361C166.373 48.701 164.937 48.2335 163.048 48.2335C161.754 48.2335 160.512 48.4542 159.321 48.8958C158.131 49.3114 157.109 49.8958 156.255 50.649L155.013 48.5841C156.048 47.701 157.29 47.0257 158.739 46.5581C160.188 46.0646 161.715 45.8179 163.319 45.8179ZM162.349 64.4802C163.902 64.4802 165.234 64.1296 166.347 63.4283C167.46 62.701 168.288 61.662 168.832 60.3114V56.9607H162.427C158.933 56.9607 157.186 58.1815 157.186 60.6231C157.186 61.8179 157.639 62.7659 158.545 63.4672C159.451 64.1425 160.719 64.4802 162.349 64.4802Z" fill="#B8BEC8"/>
<path d="M197.473 45.9737V66.4672H194.833V62.727C194.108 63.9737 193.112 64.9477 191.844 65.649C190.576 66.3244 189.127 66.662 187.497 66.662C184.831 66.662 182.722 65.9218 181.169 64.4412C179.643 62.9348 178.879 60.74 178.879 57.8568V45.9737H181.635V57.5841C181.635 59.7399 182.166 61.3763 183.227 62.4932C184.288 63.6101 185.802 64.1685 187.768 64.1685C189.916 64.1685 191.611 63.5192 192.853 62.2205C194.096 60.8958 194.717 59.0646 194.717 56.727V45.9737H197.473Z" fill="#B8BEC8"/>
<path d="M210.665 66.662C209.009 66.662 207.417 66.4283 205.89 65.9607C204.389 65.4672 203.212 64.8568 202.358 64.1296L203.6 61.9477C204.454 62.6231 205.528 63.1815 206.822 63.6231C208.116 64.0387 209.461 64.2464 210.859 64.2464C212.722 64.2464 214.094 63.9607 214.974 63.3893C215.879 62.7919 216.332 61.9607 216.332 60.8958C216.332 60.1425 216.086 59.5581 215.595 59.1425C215.103 58.701 214.482 58.3763 213.731 58.1685C212.981 57.9348 211.985 57.714 210.742 57.5062C209.086 57.1945 207.753 56.8828 206.744 56.5711C205.735 56.2335 204.868 55.675 204.143 54.8958C203.445 54.1166 203.095 53.0387 203.095 51.662C203.095 49.9477 203.807 48.5451 205.23 47.4542C206.654 46.3633 208.633 45.8179 211.169 45.8179C212.489 45.8179 213.809 45.9997 215.129 46.3633C216.449 46.701 217.535 47.1555 218.389 47.727L217.186 49.9477C215.504 48.7789 213.498 48.1945 211.169 48.1945C209.41 48.1945 208.077 48.5062 207.171 49.1296C206.291 49.7529 205.851 50.5711 205.851 51.5841C205.851 52.3633 206.097 52.9867 206.589 53.4542C207.107 53.9218 207.741 54.2724 208.491 54.5062C209.241 54.714 210.277 54.9348 211.596 55.1685C213.227 55.4802 214.534 55.7919 215.517 56.1036C216.5 56.4153 217.341 56.9477 218.04 57.701C218.739 58.4542 219.088 59.4932 219.088 60.8179C219.088 62.6101 218.338 64.0387 216.837 65.1036C215.362 66.1425 213.304 66.662 210.665 66.662Z" fill="#B8BEC8"/>
<path d="M241.962 57.0776H224.882C225.037 59.2075 225.852 60.9348 227.327 62.2594C228.802 63.5581 230.666 64.2075 232.917 64.2075C234.185 64.2075 235.35 63.9867 236.411 63.5451C237.472 63.0776 238.39 62.4023 239.167 61.5192L240.719 63.3114C239.814 64.4023 238.675 65.2335 237.304 65.8049C235.958 66.3763 234.47 66.662 232.84 66.662C230.743 66.662 228.88 66.2205 227.25 65.3374C225.645 64.4283 224.39 63.1815 223.485 61.5971C222.579 60.0127 222.126 58.2205 222.126 56.2205C222.126 54.2205 222.553 52.4283 223.407 50.8438C224.287 49.2594 225.477 48.0257 226.978 47.1425C228.505 46.2594 230.213 45.8179 232.102 45.8179C233.991 45.8179 235.686 46.2594 237.187 47.1425C238.688 48.0257 239.865 49.2594 240.719 50.8438C241.573 52.4023 242 54.1945 242 56.2205L241.962 57.0776ZM232.102 48.1945C230.135 48.1945 228.479 48.8309 227.133 50.1036C225.814 51.3503 225.063 52.9867 224.882 55.0127H239.361C239.18 52.9867 238.416 51.3503 237.071 50.1036C235.751 48.8309 234.095 48.1945 232.102 48.1945Z" fill="#B8BEC8"/>
</svg>
