<svg width="93" height="94" viewBox="0 0 93 94" fill="none" xmlns="http://www.w3.org/2000/svg">
  <g filter="url(#filter0_d)">
    <path d="M36.677 84.076C-2.62391 75.1701 -7.65078 20.8214 29.5937 4.1514C40.7899 -1.10078 51.0722 -1.32914 62.2684 3.23798C79.4054 10.5454 88.3167 23.79 88.7737 42.0585C89.0022 69.4612 63.6393 90.0132 36.677 84.076ZM64.5533 72.8865C86.0317 59.6419 86.7172 26.3019 65.4673 13.0573C41.4754 -1.78585 11.3142 15.5692 11.7712 43.8853C12.2282 69.9179 42.1609 86.3595 64.5533 72.8865Z" fill="#FF0000" />
    <path d="M34.6203 63.2956C34.1633 61.6971 35.0773 58.5001 37.1338 56.2165C39.8757 53.0196 40.1042 51.1927 38.0477 46.6256C36.4483 43.4286 33.9348 40.9167 32.5639 41.1451C26.166 41.8301 23.8811 40.6883 23.8811 36.5779C23.8811 30.184 27.994 28.3571 32.7924 32.6959C38.5047 37.9481 49.9294 33.8377 47.873 27.4437C46.502 22.8766 51.9859 16.9393 55.8703 19.2229C58.8407 21.0497 58.8407 27.9004 55.8703 30.869C54.2708 32.4675 54.0423 35.2078 55.6418 39.3182C57.2412 43.657 59.0692 44.7987 62.4966 43.8853C67.9804 42.5152 71.6363 48.9092 67.7519 52.7912C65.6955 54.8464 63.6391 54.618 59.5262 52.5628C53.5853 49.3659 43.9886 52.5628 44.6741 57.5867C45.3595 63.7523 44.2171 66.0358 40.1042 66.0358C37.5907 66.0358 35.3058 64.6657 34.6203 63.2956Z" fill="#FF0000" />
  </g>
  <defs>
    <filter id="filter0_d" x="0.251709" y="0" width="92.5235" height="93.1036" filterUnits="userSpaceOnUse" color-interpolation-filters="sRGB">
      <feFlood flood-opacity="0" result="BackgroundImageFix" />
      <feColorMatrix in="SourceAlpha" type="matrix" values="0 0 0 0 0 0 0 0 0 0 0 0 0 0 0 0 0 0 127 0" />
      <feOffset dy="4" />
      <feGaussianBlur stdDeviation="2" />
      <feColorMatrix type="matrix" values="0 0 0 0 0 0 0 0 0 0 0 0 0 0 0 0 0 0 0.25 0" />
      <feBlend mode="normal" in2="BackgroundImageFix" result="effect1_dropShadow" />
      <feBlend mode="normal" in="SourceGraphic" in2="effect1_dropShadow" result="shape" />
    </filter>
  </defs>
</svg>