<svg width="94" height="94" viewBox="0 0 94 94" fill="none" xmlns="http://www.w3.org/2000/svg">
  <g filter="url(#filter0_d)">
    <path d="M41.057 85.074C37.0815 84.0848 29.0752 81.0624 25.8728 79.3038C13.118 72.2148 4.06274 56.8276 4.06274 42.2098C4.06274 30.9442 9.58427 18.9093 18.5844 10.5562C25.928 3.74192 33.7685 0.499623 44.4251 0.0599898C57.6767 -0.544506 68.2781 3.41219 77.2781 12.2598C81.8058 16.7111 85.1187 21.9867 87.2169 28.1965C89.2046 34.1315 89.7568 45.8368 88.266 52.4313C85.5604 64.741 77.3886 75.0724 66.1247 80.4579C58.1737 84.2497 46.6337 86.3929 41.057 85.074ZM54.2534 75.9516C64.7443 73.4237 73.5235 66.6094 77.9959 57.597C84.8426 43.6936 82.5236 29.1307 71.7566 18.4147C57.7872 4.62118 35.9772 4.29146 22.5046 17.7003C19.3574 20.7777 18.0322 22.6461 16.0445 26.8226C11.6272 35.8901 10.799 42.2098 12.8972 49.7935C16.6518 63.2572 25.0445 72.3247 36.9158 75.7868C41.2226 77.0507 49.4497 77.1057 54.2534 75.9516Z" fill="#FF0000" />
    <path d="M31.0077 62.1581C30.5107 62.0482 29.6825 61.3338 29.2408 60.6194C28.0813 58.8059 29.0199 57.2122 31.6703 56.4978C34.2102 55.7834 59.4987 55.7834 62.0386 56.4978C64.689 57.2122 65.6276 58.8059 64.5233 60.5644C64.0264 61.2788 63.0877 62.0482 62.4251 62.213C61.0448 62.5977 32.4433 62.5428 31.0077 62.1581Z" fill="#FF0000" />
    <path d="M31.339 52.9808C29.5722 52.2115 29.2409 51.607 27.2531 45.1224C26.4801 42.6494 25.3206 40.3414 24.1611 38.9675C22.1181 36.6045 21.6212 33.8018 23.1672 33.1973C26.0384 32.0982 29.9587 33.4171 33.7133 36.7144C36.198 38.8576 36.3084 38.9126 37.3575 37.9783C39.0692 36.4396 41.6091 30.8343 42.4373 26.8776C43.2655 22.9759 44.5907 21.3272 46.9097 21.3272C48.7871 21.3272 50.4435 23.1957 50.4435 25.3389C50.4435 27.4821 52.873 32.7577 55.689 36.6045L57.7319 39.4621L61.5418 35.945C71.3149 26.9875 72.8609 32.8127 65.186 49.5187L63.1982 53.7502H48.1245C36.7501 53.6952 32.609 53.5304 31.339 52.9808Z" fill="#FF0000" />
  </g>
  <defs>
    <filter id="filter0_d" x="0.0627441" y="0" width="93.0514" height="93.4644" filterUnits="userSpaceOnUse" color-interpolation-filters="sRGB">
      <feFlood flood-opacity="0" result="BackgroundImageFix" />
      <feColorMatrix in="SourceAlpha" type="matrix" values="0 0 0 0 0 0 0 0 0 0 0 0 0 0 0 0 0 0 127 0" />
      <feOffset dy="4" />
      <feGaussianBlur stdDeviation="2" />
      <feColorMatrix type="matrix" values="0 0 0 0 0 0 0 0 0 0 0 0 0 0 0 0 0 0 0.25 0" />
      <feBlend mode="normal" in2="BackgroundImageFix" result="effect1_dropShadow" />
      <feBlend mode="normal" in="SourceGraphic" in2="effect1_dropShadow" result="shape" />
    </filter>
  </defs>
</svg>