<svg width="92" height="91" viewBox="0 0 92 91" fill="none" xmlns="http://www.w3.org/2000/svg">
  <g filter="url(#filter0_d)">
    <path d="M36.8577 81.7734C24.3805 79.0578 12.5132 68.6387 7.35599 56.0027C4.41691 48.6872 3.64055 40.0416 5.30418 32.5597C7.13417 24.1912 13.8996 13.0516 19.7778 8.72878C23.8259 5.79148 31.0904 2.29996 35.8595 1.08071C41.5158 -0.360235 49.9449 -0.360235 55.5458 1.08071C70.9621 5.01559 83.5502 18.0949 86.7111 33.3911C90.5374 51.8462 80.0011 71.2435 61.8121 79.2241C54.714 82.3831 44.344 83.4361 36.8577 81.7734ZM54.6031 76.7856C62.6439 74.735 70.6848 69.5254 75.2321 63.54C80.3893 56.6124 82.3302 50.6823 82.3302 41.8704C82.2748 31.3959 78.7811 22.8611 71.5166 15.4901C66.9139 10.7794 60.9248 7.4541 54.3258 5.79148C48.9467 4.46138 38.6877 4.96016 33.6968 6.78905C28.0404 8.89504 23.9923 11.4998 19.6668 15.8781C4.13964 31.3959 6.52417 57.7762 24.6577 70.6893C28.6504 73.5712 33.2531 75.6771 37.634 76.7856C41.904 77.7831 50.5549 77.7831 54.6031 76.7856Z" fill="#FF0000" />
    <path d="M43.9557 59.0508C42.9575 58.6075 42.1257 57.9979 42.1257 57.6653C42.1257 56.7786 46.1739 55.0051 50.3884 54.0076C55.102 52.9546 57.7084 51.1257 56.7657 49.5185C56.4329 48.9643 54.7139 47.8004 52.8839 46.8583C50.2775 45.5282 49.5012 44.8077 48.8357 43.1451C47.3384 39.0439 49.8893 34.1115 54.1593 32.8922C59.4275 31.3404 66.3592 31.3959 68.4665 32.9476C69.5201 33.7235 69.2429 35.8295 68.0229 35.9404C56.4329 37.1042 55.102 38.656 61.812 42.9788C64.7511 44.8631 67.0802 47.6342 67.0802 49.2968C67.0802 49.7401 66.5811 51.1811 65.9711 52.4558C63.9193 56.6678 58.2629 59.328 50.4439 59.6605C47.0612 59.8267 45.2312 59.6051 43.9557 59.0508Z" fill="#FF0000" />
    <path d="M29.1496 49.186C27.9296 47.9667 27.8187 47.2462 27.486 40.7066C27.0424 32.0055 26.3215 28.1815 24.8797 26.8514C23.3824 25.4658 24.3806 24.967 28.706 24.967C33.6969 24.967 34.0851 25.5212 34.5841 33.3356C34.806 36.7717 35.0832 39.7644 35.2496 39.8753C35.8041 40.4295 38.2441 37.3813 39.3532 34.7765C40.2959 32.6151 40.5177 31.285 40.2959 29.2899C39.8523 25.5212 40.5732 24.967 46.0632 24.967C48.4477 24.967 50.4441 25.1333 50.4441 25.2996C50.4441 26.1863 41.4605 43.8101 39.9632 45.9161C36.636 50.4052 31.8114 51.8462 29.1496 49.186Z" fill="#FF0000" />
  </g>
  <defs>
    <filter id="filter0_d" x="0.442139" y="0" width="91.0501" height="90.5553" filterUnits="userSpaceOnUse" color-interpolation-filters="sRGB">
      <feFlood flood-opacity="0" result="BackgroundImageFix" />
      <feColorMatrix in="SourceAlpha" type="matrix" values="0 0 0 0 0 0 0 0 0 0 0 0 0 0 0 0 0 0 127 0" />
      <feOffset dy="4" />
      <feGaussianBlur stdDeviation="2" />
      <feColorMatrix type="matrix" values="0 0 0 0 0 0 0 0 0 0 0 0 0 0 0 0 0 0 0.25 0" />
      <feBlend mode="normal" in2="BackgroundImageFix" result="effect1_dropShadow" />
      <feBlend mode="normal" in="SourceGraphic" in2="effect1_dropShadow" result="shape" />
    </filter>
  </defs>
</svg>