<svg width="93" height="93" viewBox="0 0 93 93" fill="none" xmlns="http://www.w3.org/2000/svg">
  <g filter="url(#filter0_d)">
    <path d="M34.8116 82.8896C15.7504 77.4469 4.63135 62.4792 4.63135 42.7492C4.63135 22.112 15.9773 6.69083 35.2654 1.47484C71.7994 -8.27679 102.207 32.3172 82.4646 64.7471C73.3879 79.4879 51.6036 87.8788 34.8116 82.8896ZM71.3456 65.6542C90.6337 45.2438 78.8339 10.5461 51.8305 8.2783C37.0808 7.14439 32.3155 8.50509 23.2387 16.896C7.5813 31.6369 7.12746 51.3669 22.1041 66.3345C31.8617 75.8594 33.4501 76.5397 49.3344 75.8594C61.5881 75.179 63.4034 74.2719 71.3456 65.6542Z" fill="#FF0000" />
    <path d="M27.7771 66.7881C12.1197 56.3562 10.5312 34.5851 24.6002 20.5246C33.4501 11.6801 43.8883 10.0926 43.8883 17.5764C43.8883 20.071 42.5268 22.112 40.7115 22.112C35.2654 22.112 25.7348 35.4922 25.7348 42.976C25.7348 52.2741 36.6269 62.9328 46.1575 62.9328C55.6881 62.9328 66.5803 52.2741 66.5803 42.976C66.5803 35.4922 57.0497 22.112 51.6036 22.112C49.7882 22.112 48.4267 20.071 48.4267 17.5764C48.4267 6.23729 68.8495 16.2157 74.7494 30.2762C78.8339 40.2546 78.8339 45.6974 74.0686 55.449C66.3533 71.7773 43.4345 77.4469 27.7771 66.7881Z" fill="#FF0000" />
  </g>
  <defs>
    <filter id="filter0_d" x="0.631348" y="0" width="92.0508" height="92.3342" filterUnits="userSpaceOnUse" color-interpolation-filters="sRGB">
      <feFlood flood-opacity="0" result="BackgroundImageFix" />
      <feColorMatrix in="SourceAlpha" type="matrix" values="0 0 0 0 0 0 0 0 0 0 0 0 0 0 0 0 0 0 127 0" />
      <feOffset dy="4" />
      <feGaussianBlur stdDeviation="2" />
      <feColorMatrix type="matrix" values="0 0 0 0 0 0 0 0 0 0 0 0 0 0 0 0 0 0 0.25 0" />
      <feBlend mode="normal" in2="BackgroundImageFix" result="effect1_dropShadow" />
      <feBlend mode="normal" in="SourceGraphic" in2="effect1_dropShadow" result="shape" />
    </filter>
  </defs>
</svg>