<svg xmlns="http://www.w3.org/2000/svg" width="36" height="31" viewBox="0 0 36 31"><g><g><g><path fill="#fff" d="M1.56 30.354c-.249-.3-.572-2.49-.748-5.134-.046-.773-.092-3.235-.092-5.48v-4.08h13.114v3.362h9.513V15.66h12.754l-.037 6.252c-.037 7.034-.027 6.943-.701 7.96l-.398.6H18.314c-13.669 0-16.67-.018-16.754-.118z"/></g><g><path fill="#fff" d="M14.94 14.571V13.39h6.927v2.363H14.94z"/></g><g><path fill="#fff" d="M.72 10.554c0-3.934.148-4.834.868-5.58.48-.48 1.007-.635 2.503-.717 1.358-.073 2.198-.245 3.048-.636.83-.373 1.126-.69 1.247-1.309.203-1.054.96-1.999 1.764-2.199.73-.19 15.783-.19 16.513 0 .803.2 1.56 1.145 1.764 2.2.12.617.415.935 1.246 1.308.85.39 1.69.563 3.048.636 1.616.082 2.06.19 2.42.554.702.736.951 2.29.951 5.97v2.7H23.347v-3.454h-9.512v3.454H.72zm20.854-6.433c1.006-.11 1.727-.291 2.004-.5.185-.136.185-.136-.092-.364-.555-.454-2.448-.681-5.588-.681-2.364 0-3.37.1-4.239.418-.951.345-.979.436-.23.663.572.182 2.16.418 3.222.49 1.109.074 4.1.055 4.923-.026z"/></g></g></g></svg>