<svg width="54" height="55" viewBox="0 0 54 55" fill="none" xmlns="http://www.w3.org/2000/svg">
  <g filter="url(#filter0_d)">
    <g clip-path="url(#clip0)">
      <path d="M24.013 46.7024C21.8623 46.167 17.5312 44.5309 15.7987 43.579C8.8987 39.7417 4 31.4126 4 23.4999C4 17.4018 6.98701 10.8872 11.8558 6.36573C15.8286 2.67712 20.0701 0.922059 25.8351 0.684084C33.0039 0.356869 38.739 2.49864 43.6078 7.28788C46.0571 9.69737 47.8493 12.5531 48.9844 15.9145C50.0597 19.1271 50.3584 25.4632 49.5519 29.0328C48.0883 35.6961 43.6675 41.2885 37.574 44.2037C33.2727 46.2562 27.0299 47.4164 24.013 46.7024ZM31.1519 41.7645C36.8273 40.3961 41.5766 36.7075 43.9961 31.829C47.7 24.3031 46.4455 16.4202 40.6208 10.6195C33.0636 3.15307 21.2649 2.97459 13.9766 10.2328C12.274 11.8986 11.5571 12.91 10.4818 15.1708C8.09221 20.079 7.64416 23.4999 8.77922 27.605C10.8104 34.8929 15.3506 39.8012 21.7727 41.6752C24.1026 42.3594 28.5532 42.3891 31.1519 41.7645Z" fill="white" />
      <path d="M18.5766 34.298C18.3078 34.2386 17.8597 33.8518 17.6208 33.4651C16.9935 32.4835 17.5013 31.6208 18.9351 31.2341C20.3091 30.8474 33.9896 30.8474 35.3636 31.2341C36.7974 31.6208 37.3052 32.4835 36.7078 33.4354C36.439 33.8221 35.9312 34.2386 35.5727 34.3278C34.826 34.536 19.3532 34.5063 18.5766 34.298Z" fill="white" />
      <path d="M18.7559 29.3302C17.8 28.9138 17.6208 28.5865 16.5455 25.0764C16.1273 23.7378 15.5 22.4884 14.8728 21.7448C13.7676 20.4657 13.4987 18.9486 14.3351 18.6214C15.8883 18.0264 18.0091 18.7403 20.0403 20.5252C21.3844 21.6853 21.4442 21.715 22.0117 21.2093C22.9377 20.3764 24.3117 17.3422 24.7598 15.2005C25.2078 13.0884 25.9247 12.196 27.1793 12.196C28.1948 12.196 29.0909 13.2074 29.0909 14.3676C29.0909 15.5277 30.4052 18.3834 31.9286 20.4657L33.0338 22.0125L35.0948 20.1087C40.3819 15.26 41.2182 18.4131 37.0663 27.4562L35.9909 29.7467H27.8364C21.6831 29.7169 19.4429 29.6277 18.7559 29.3302Z" fill="white" />
    </g>
  </g>
  <defs>
    <filter id="filter0_d" x="0" y="0" width="54" height="55" filterUnits="userSpaceOnUse" color-interpolation-filters="sRGB">
      <feFlood flood-opacity="0" result="BackgroundImageFix" />
      <feColorMatrix in="SourceAlpha" type="matrix" values="0 0 0 0 0 0 0 0 0 0 0 0 0 0 0 0 0 0 127 0" />
      <feOffset dy="4" />
      <feGaussianBlur stdDeviation="2" />
      <feColorMatrix type="matrix" values="0 0 0 0 0 0 0 0 0 0 0 0 0 0 0 0 0 0 0.25 0" />
      <feBlend mode="normal" in2="BackgroundImageFix" result="effect1_dropShadow" />
      <feBlend mode="normal" in="SourceGraphic" in2="effect1_dropShadow" result="shape" />
    </filter>
    <clipPath id="clip0">
      <rect x="4" width="46" height="47" fill="white" />
    </clipPath>
  </defs>
</svg>