<svg xmlns="http://www.w3.org/2000/svg" width="31" height="34" viewBox="0 0 31 34">
  <g>
    <g>
      <path fill="#fff" d="M.997 21.96C2.045 8.858 2.307 7.81 4.665 7.81c.917 0 2.62-1.834 3.8-3.93 1.834-3.144 3.144-3.93 6.68-3.93 4.324 0 8.779 3.144 8.779 6.288 0 .917 1.048 1.572 2.489 1.572 1.965 0 2.489 1.442 3.275 7.992.393 4.454.786 10.35.786 13.1v5.11H.08zM19.993 6.5c0-2.227-4.454-3.799-6.943-2.489-3.668 2.096-2.62 3.8 2.358 3.8 2.49 0 4.585-.525 4.585-1.31z" />
    </g>
  </g>
</svg>