<svg xmlns="http://www.w3.org/2000/svg" width="31" height="28" viewBox="0 0 31 28">
  <g>
    <g>
      <path fill="#fff" d="M2.052 27.673a1.877 1.877 0 0 1-.8-.408c-.13-.117-.152-.138-.152-.157 0-.009-.007-.018-.015-.018-.026 0-.184-.23-.252-.368a1.955 1.955 0 0 1-.149-.367c-.02-.07-.026-1.832-.032-10.48C.647 6.51.65 5.459.677 5.272c.05-.36.156-.813.228-.985A.306.306 0 0 0 .93 4.19c0-.018.007-.04.017-.045.01-.005.023-.034.03-.062a.598.598 0 0 1 .041-.119l.044-.103c.062-.153.322-.654.358-.688a2.585 2.585 0 0 1 .226-.333.095.095 0 0 0 .018-.043c0-.01.006-.019.015-.019.008 0 .051-.05.097-.113a.533.533 0 0 1 .097-.113c.01 0 .017-.008.017-.019 0-.041.61-.659.652-.659a3.913 3.913 0 0 1 .458-.339c.01 0 .02-.006.024-.013a.534.534 0 0 1 .138-.1.603.603 0 0 0 .09-.05c.075-.048.136-.084.32-.182.043-.022.147-.07.23-.105.083-.034.166-.07.183-.08C4.13.93 4.64.782 4.97.718 5.449.624 4.775.63 15.743.63S26.036.624 26.515.717c.27.052.83.214.97.28l.113.053c.06.026.395.19.523.256.028.015.055.034.057.043a.032.032 0 0 0 .026.016c.026 0 .475.299.482.322.004.009.019.017.034.017.015 0 .026.007.026.015 0 .009.04.045.09.08.05.034.118.09.151.125a.392.392 0 0 0 .07.062c.011 0 .367.358.367.37a.3.3 0 0 0 .053.06c.028.028.087.094.126.144a.628.628 0 0 0 .089.1c.01.004.015.019.015.034 0 .015.007.026.019.026.01 0 .04.038.067.085.027.047.057.085.066.085.01 0 .017.01.017.019 0 .022.078.137.1.147a.026.026 0 0 1 .013.022c0 .01.05.1.11.202.096.164.18.331.258.504.022.05.062.157.17.443a6.562 6.562 0 0 1 .226.97c.024.168.027 1.004.027 7.011 0 7.303.006 6.893-.086 7.349-.062.314-.211.82-.288.975a22.724 22.724 0 0 1-.301.621c-.016.029-.035.055-.044.057a.032.032 0 0 0-.015.026c0 .02-.27.432-.309.475a2.261 2.261 0 0 0-.122.153c-.2.254-.53.583-.784.783a2.274 2.274 0 0 0-.152.122c-.044.04-.456.31-.475.31a.032.032 0 0 0-.026.014c-.006.02-.012.021-.362.198-.14.07-.267.126-.282.126-.015 0-.032.008-.04.02-.006.008-.038.025-.072.035-.033.01-.118.037-.192.064-.3.103-.525.16-.979.241-.105.02-1.586.026-7.184.036-5.39.007-7.12.017-7.336.034a15.094 15.094 0 0 0-1.516.192 2.297 2.297 0 0 0-.188.034 9.59 9.59 0 0 1-.235.05 8.805 8.805 0 0 0-.264.06 7.284 7.284 0 0 0-.424.11l-.207.056a2.247 2.247 0 0 0-.188.057c-.036.013-.117.038-.18.056a1.577 1.577 0 0 0-.174.059.3.3 0 0 1-.094.026.138.138 0 0 0-.068.028.15.15 0 0 1-.072.029.314.314 0 0 0-.094.026c-.034.015-.1.041-.147.058-.047.017-.11.044-.141.057-.03.013-.094.038-.141.056l-.142.059c-.26.115-.314.14-.324.14-.013 0-.824.404-.871.432-.081.051-.324.189-.334.189a.62.62 0 0 0-.088.052c-.042.029-.09.059-.106.066-.015.008-.053.03-.085.051a.557.557 0 0 1-.082.05c-.076.037-.724.48-.733.502-.004.007-.019.013-.034.013-.015 0-.026.008-.026.019 0 .01-.038.04-.085.068-.047.026-.085.056-.085.066 0 .01-.011.017-.026.017s-.03.007-.034.017a.914.914 0 0 1-.137.116 5.628 5.628 0 0 0-.245.194 5.577 5.577 0 0 0-.2.172l-.186.16c-.347.301-.543.406-.908.497a2.47 2.47 0 0 1-.816-.008zm5.026-10.395a.88.88 0 0 0 .512-.465l.074-.147.005-1.19.006-1.19 1.783-.006 1.784-.006.132-.064c.116-.058.305-.22.376-.324.074-.105.141-.339.141-.48 0-.128-.113-.46-.154-.46-.01 0-.015-.009-.015-.02 0-.034-.198-.219-.284-.264-.22-.115-.125-.111-2.027-.111H7.673v-1.669c0-1.145.006-1.69.02-1.738a.502.502 0 0 1 .215-.273l.095-.058L9.584 8.8c1.034-.005 1.605-.017 1.648-.03a.899.899 0 0 0 .63-.644c.095-.33-.072-.723-.392-.93-.208-.134-.102-.126-1.93-.126-1.745 0-1.679-.004-1.999.086-.179.05-.473.181-.512.228-.011.013-.028.025-.038.025-.075 0-.636.533-.636.604 0 .01-.008.017-.017.017-.01 0-.025.017-.03.038a.147.147 0 0 1-.036.06c-.028.028-.2.38-.2.409a.314.314 0 0 1-.026.08 1.689 1.689 0 0 0-.06.204c-.034.136-.036.303-.036 3.993 0 3.713.002 3.853.036 3.926.018.042.049.104.066.14.043.092.242.286.34.333.194.094.217.1.396.1a.776.776 0 0 0 .29-.036zm6.8.006c.204-.07.4-.236.497-.42.115-.215.115-.225.115-1.477v-1.141h2.467v1.098c0 1.1.008 1.254.07 1.425.032.087.096.192.122.204a.031.031 0 0 1 .015.024c0 .044.181.183.33.254.105.051.128.055.34.055.223 0 .227 0 .37-.071a.846.846 0 0 0 .405-.405l.071-.145.006-3.484c.006-3.136.002-3.5-.024-3.644a2.697 2.697 0 0 0-.268-.816c-.11-.226-.122-.248-.141-.254a.031.031 0 0 1-.015-.025c0-.02-.08-.135-.098-.145-.01-.003-.015-.018-.015-.033 0-.016-.008-.027-.015-.027-.01 0-.045-.04-.081-.088a2.663 2.663 0 0 0-.437-.437c-.049-.036-.088-.072-.088-.081 0-.008-.012-.015-.027-.015s-.03-.006-.034-.013a.528.528 0 0 0-.147-.106 2.9 2.9 0 0 0-.838-.358 2.33 2.33 0 0 0-.73-.088c-.377 0-.637.041-.985.16-.094.03-.501.228-.595.288-.07.043-.202.137-.26.183-.1.079-.503.493-.556.574a.4.4 0 0 1-.07.09c-.009.004-.015.015-.015.023a.43.43 0 0 1-.054.098 2.72 2.72 0 0 0-.198.378c-.07.162-.081.198-.111.296-.043.15-.081.31-.11.462-.018.103-.026.845-.03 3.51-.005 2.989-.003 3.392.023 3.493.032.126.104.294.126.294.01 0 .015.01.015.02 0 .033.155.187.25.25.146.094.248.122.447.124a.806.806 0 0 0 .273-.03zm13.013-.032a.987.987 0 0 0 .289-.204.739.739 0 0 1 .047-.056c.13-.136.207-.424.177-.654a.89.89 0 0 0-.731-.734 4.335 4.335 0 0 0-.475-.021h-.352v-2.748c0-1.725-.007-2.84-.019-2.99a2.9 2.9 0 0 0-.135-.712c-.055-.168-.264-.618-.309-.665a.146.146 0 0 1-.036-.06c-.005-.02-.02-.038-.03-.038-.01 0-.017-.013-.017-.028 0-.015-.007-.028-.015-.028-.007 0-.028-.025-.045-.053a1.054 1.054 0 0 0-.098-.124.512.512 0 0 1-.068-.078c0-.016-.248-.254-.265-.254-.01 0-.017-.007-.017-.015 0-.013-.243-.198-.368-.277a3.058 3.058 0 0 0-1.092-.414 3.776 3.776 0 0 0-.945.002c-.204.04-.362.08-.435.113a.305.305 0 0 1-.089.026.163.163 0 0 0-.062.017c-.017.01-.124.062-.24.117-.336.164-.515.294-.818.599-.119.12-.241.256-.273.303a.939.939 0 0 1-.068.094.182.182 0 0 0-.025.038c-.013.028-.02.041-.105.179a1.769 1.769 0 0 0-.136.273 3.078 3.078 0 0 0-.173.518c-.075.297-.077.39-.077 2.815 0 2.424.002 2.516.077 2.816a2.891 2.891 0 0 0 .367.89c.03.046.055.089.055.098 0 .008.006.02.015.023a.46.46 0 0 1 .07.09c.054.081.455.496.559.578.075.06.33.232.343.232a2.492 2.492 0 0 0 .322.16l.231.096a.313.313 0 0 0 .09.027.66.66 0 0 1 .12.028c.26.083.239.08 2.497.079l2.146-.004z" />
    </g>
  </g>
</svg>