<svg xmlns="http://www.w3.org/2000/svg" width="37" height="26" viewBox="0 0 37 26">
  <g>
    <g>
      <g>
        <path fill="#fff" d="M1.911 24.785C.438 24.407.03 23.714.03 21.539c0-2.552.533-4.127 1.85-5.608 1.599-1.764 3.323-2.174 10.127-2.395 5.298-.157 5.58-.157 6.646.505.596.378 1.192.976 1.286 1.291.125.347.313.63.47.63.878 0 1.881 5.451 1.286 6.995-.69 1.796-1.568 1.985-10.535 2.048-4.483.032-8.653-.063-9.249-.22z" />
      </g>
      <g>
        <path fill="#fff" d="M22.67 22.361c.252-.976.189-1.764-.375-4.222-.408-1.67-.627-3.277-.533-3.56.313-.788 1.63-1.166 4.922-1.355 3.919-.252 5.925.22 7.618 1.764 1.568 1.418 2.383 3.214 2.415 5.168 0 1.418-.063 1.544-1.004 1.922-.627.252-3.04.504-5.894.63-4.985.19-6.02.284-6.96.662-.47.189-.502.094-.188-1.009z" />
      </g>
      <g>
        <path fill="#fff" d="M9.376 12.31c-3.762-1.167-5.392-5.704-3.511-9.674C6.71.872 8.216.21 11.539.21c2.415 0 2.979.095 3.888.725 2.884 1.922 3.355 7.152.847 9.578-1.004.945-3.982 2.332-4.954 2.269-.25 0-1.129-.22-1.944-.473z" />
      </g>
      <g>
        <path fill="#fff" d="M24.332 12.277c-.91-.22-2.007-1.323-2.728-2.741-.533-1.04-.596-1.607-.439-3.151.188-2.017.753-3.025 2.195-4.096 1.254-.945 5.079-.945 6.333 0 1.599 1.197 2.07 2.143 2.226 4.443.25 3.812-1.505 5.797-5.048 5.734-1.066-.031-2.194-.094-2.54-.189z" />
      </g>
    </g>
  </g>
</svg>