<svg xmlns="http://www.w3.org/2000/svg" width="28" height="21" viewBox="0 0 28 21">
  <g>
    <g>
      <g>
        <path fill="#fff" d="M2.744 18.477c-2.62-2.882-2.62-2.882.262-5.764 2.489-2.359 2.882-2.49 2.882-.524 0 1.965 1.44 2.227 10.48 2.227 6.158 0 10.481.524 10.481 1.31s-4.323 1.31-10.35 1.31c-8.515 0-10.48.393-10.873 2.096-.262 1.834-.786 1.703-2.882-.655z" />
      </g>
      <g>
        <path fill="#fff" d="M21.611 8.78c0-1.965-1.44-2.227-10.48-2.227C4.973 6.553.65 6.03.65 5.243s4.323-1.31 10.48-1.31c9.04 0 10.481-.262 10.481-2.227 0-1.965.393-1.834 2.882.655l2.883 2.882-2.883 2.882c-2.489 2.49-2.882 2.62-2.882.655z" />
      </g>
    </g>
  </g>
</svg>