<svg width="49" height="49" viewBox="0 0 49 49" fill="none" xmlns="http://www.w3.org/2000/svg">
  <g clip-path="url(#clip0)">
    <g clip-path="url(#clip1)">
      <g filter="url(#filter0_d)">
        <path d="M20.1283 47.7592C13.1504 46.2396 6.51374 40.4092 3.62956 33.3383C1.98589 29.2446 1.55171 24.4066 2.48209 20.2199C3.50551 15.537 7.28905 9.30348 10.5764 6.88449C12.8403 5.24082 16.903 3.28703 19.5701 2.60475C22.7334 1.79842 27.4473 1.79842 30.5796 2.60475C39.2011 4.80665 46.241 12.1256 48.0087 20.6851C50.1485 31.0123 44.2561 41.8668 34.084 46.3326C30.1144 48.1003 24.315 48.6896 20.1283 47.7592ZM30.0523 44.968C34.5492 43.8206 39.046 40.9054 41.5891 37.556C44.4732 33.6794 45.5587 30.3611 45.5587 25.4301C45.5277 19.5687 43.5739 14.7927 39.5112 10.668C36.9372 8.03196 33.5878 6.1712 29.8973 5.24082C26.8891 4.49652 21.1517 4.77563 18.3606 5.79905C15.1973 6.97753 12.9334 8.43513 10.5144 10.8851C1.83083 19.5687 3.16437 34.3307 13.3055 41.5566C15.5384 43.1693 18.1125 44.3478 20.5625 44.968C22.9504 45.5263 27.7884 45.5263 30.0523 44.968Z" fill="white" />
        <path d="M24.0979 35.044C23.5397 34.7959 23.0745 34.4547 23.0745 34.2686C23.0745 33.7724 25.3384 32.78 27.6953 32.2218C30.3314 31.6326 31.789 30.6092 31.2618 29.7098C31.0757 29.3997 30.1143 28.7484 29.0909 28.2212C27.6333 27.4769 27.1991 27.0737 26.827 26.1433C25.9897 23.8484 27.4162 21.0883 29.8042 20.406C32.7504 19.5376 36.627 19.5686 37.8055 20.437C38.3947 20.8712 38.2396 22.0497 37.5574 22.1117C31.0757 22.7629 30.3314 23.6313 34.084 26.0503C35.7276 27.1047 37.0302 28.6554 37.0302 29.5857C37.0302 29.8338 36.751 30.6402 36.4099 31.3535C35.2624 33.7104 32.0991 35.199 27.7264 35.3851C25.8346 35.4781 24.8112 35.3541 24.0979 35.044Z" fill="white" />
        <path d="M15.8175 29.5237C15.1352 28.8414 15.0732 28.4383 14.8871 24.7788C14.639 19.9098 14.2359 17.7699 13.4296 17.0256C12.5922 16.2503 13.1504 15.9712 15.5694 15.9712C18.3606 15.9712 18.5777 16.2813 18.8568 20.6541C18.9808 22.5769 19.1359 24.2516 19.2289 24.3136C19.539 24.6237 20.9036 22.918 21.5239 21.4604C22.0511 20.2509 22.1751 19.5066 22.0511 18.3902C21.803 16.2813 22.2061 15.9712 25.2764 15.9712C26.6099 15.9712 27.7264 16.0642 27.7264 16.1573C27.7264 16.6535 22.7023 26.5155 21.865 27.694C20.0042 30.206 17.3061 31.0123 15.8175 29.5237Z" fill="white" />
      </g>
    </g>
  </g>
  <defs>
    <filter id="filter0_d" x="-2" y="2" width="54.4455" height="54.1967" filterUnits="userSpaceOnUse" color-interpolation-filters="sRGB">
      <feFlood flood-opacity="0" result="BackgroundImageFix" />
      <feColorMatrix in="SourceAlpha" type="matrix" values="0 0 0 0 0 0 0 0 0 0 0 0 0 0 0 0 0 0 127 0" />
      <feOffset dy="4" />
      <feGaussianBlur stdDeviation="2" />
      <feColorMatrix type="matrix" values="0 0 0 0 0 0 0 0 0 0 0 0 0 0 0 0 0 0 0.25 0" />
      <feBlend mode="normal" in2="BackgroundImageFix" result="effect1_dropShadow" />
      <feBlend mode="normal" in="SourceGraphic" in2="effect1_dropShadow" result="shape" />
    </filter>
    <clipPath id="clip0">
      <rect width="49" height="49" fill="white" />
    </clipPath>
    <clipPath id="clip1">
      <rect x="2" width="49" height="49" fill="white" />
    </clipPath>
  </defs>
</svg>