<svg width="54" height="54" viewBox="0 0 54 54" fill="none" xmlns="http://www.w3.org/2000/svg">
  <g filter="url(#filter0_d)">
    <path d="M20.9474 44.5474C10.779 41.6421 4.84741 33.6526 4.84741 23.1211C4.84741 12.1053 10.9 3.8737 21.1895 1.08949C40.679 -4.11577 56.9 17.5527 46.3685 34.8632C41.5264 42.7316 29.9053 47.2105 20.9474 44.5474ZM40.4369 35.3474C50.7264 24.4527 44.4316 5.9316 30.0264 4.72107C22.1579 4.11581 19.6158 4.84212 14.7737 9.32107C6.4211 17.1895 6.17899 27.7211 14.1685 35.7105C19.3737 40.7948 20.2211 41.1579 28.6948 40.7948C35.2316 40.4316 36.2 39.9474 40.4369 35.3474Z" fill="white" />
    <path d="M17.1948 35.9527C8.84215 30.3843 7.99478 18.7632 15.5 11.2579C20.2211 6.53688 25.7895 5.68951 25.7895 9.68425C25.7895 11.0158 25.0632 12.1053 24.0948 12.1053C21.1895 12.1053 16.1053 19.2474 16.1053 23.2421C16.1053 28.2053 21.9158 33.8948 27 33.8948C32.0842 33.8948 37.8948 28.2053 37.8948 23.2421C37.8948 19.2474 32.8106 12.1053 29.9053 12.1053C28.9369 12.1053 28.2106 11.0158 28.2106 9.68425C28.2106 3.63161 39.1053 8.95793 42.2527 16.4632C44.4316 21.7895 44.4316 24.6948 41.8895 29.9C37.7737 38.6158 25.5474 41.6421 17.1948 35.9527Z" fill="white" />
  </g>
  <defs>
    <filter id="filter0_d" x="0" y="0" width="54" height="54" filterUnits="userSpaceOnUse" color-interpolation-filters="sRGB">
      <feFlood flood-opacity="0" result="BackgroundImageFix" />
      <feColorMatrix in="SourceAlpha" type="matrix" values="0 0 0 0 0 0 0 0 0 0 0 0 0 0 0 0 0 0 127 0" />
      <feOffset dy="4" />
      <feGaussianBlur stdDeviation="2" />
      <feColorMatrix type="matrix" values="0 0 0 0 0 0 0 0 0 0 0 0 0 0 0 0 0 0 0.25 0" />
      <feBlend mode="normal" in2="BackgroundImageFix" result="effect1_dropShadow" />
      <feBlend mode="normal" in="SourceGraphic" in2="effect1_dropShadow" result="shape" />
    </filter>
  </defs>
</svg>