<svg xmlns="http://www.w3.org/2000/svg" width="36" height="34" viewBox="0 0 36 34">
  <g>
    <g>
      <g>
        <path fill="#fff" d="M14.066 31.746c-2.384-.774-3.845-1.664-4.96-2.941-2.115-2.555-.769-3.213 3.268-1.587 4.23 1.664 5.652 1.819 8.612.812 6.883-2.283 10.92-9.599 8.844-15.908-1.961-5.884-10.15-9.56-16.11-7.316-2.692 1.045-4.191 2.361-3.845 3.368.154.387.769 1.355 1.384 2.167 1.538 1.974 1.154 2.284-2.922 2.516-3.845.194-5.882-.348-6.42-1.741-.385-1.046-.462-6.774-.116-8.168.23-.735.423-.851 1.269-.658.538.155 1.384.62 1.845 1.045 1.038.968 2.153.775 5.114-1.045 3.883-2.36 6.92-2.593 12.188-1.006 3.037.929 5.498 2.67 7.651 5.38 5.114 6.542 4.498 14.825-1.5 20.747-3.498 3.445-5.69 4.529-9.612 4.684-1.96.116-3.729-.04-4.69-.349z" />
      </g>
      <g>
        <path fill="#fff" d="M19.986 20.484c-.961-.31-2.038-.89-2.345-1.239-1.961-2.206-1.961-11.65 0-11.263.922.193 1.614 1.819 1.614 3.909 0 2.206 1.346 5.574 2.307 5.883.923.31 1.192 1.162.77 2.323-.193.542-.424.967-.462.929-.077 0-.923-.271-1.884-.542z" />
      </g>
    </g>
  </g>
</svg>