<?xml version="1.0" encoding="utf-8"?>
<svg xmlns="http://www.w3.org/2000/svg" xmlns:xlink="http://www.w3.org/1999/xlink">

  <symbol viewBox="0 0 36 31" id="iconSiteNav1">
    <g>
      <g>
        <path d="M1.56 30.354c-.249-.3-.572-2.49-.748-5.134-.046-.773-.092-3.235-.092-5.48v-4.08h13.114v3.362h9.513V15.66h12.754l-.037 6.252c-.037 7.034-.027 6.943-.701 7.96l-.398.6H18.314c-13.669 0-16.67-.018-16.754-.118z" />
      </g>
      <g>
        <path d="M14.94 14.571V13.39h6.927v2.363H14.94z" />
      </g>
      <g>
        <path d="M.72 10.554c0-3.934.148-4.834.868-5.58.48-.48 1.007-.635 2.503-.717 1.358-.073 2.198-.245 3.048-.636.83-.373 1.126-.69 1.247-1.309.203-1.054.96-1.999 1.764-2.199.73-.19 15.783-.19 16.513 0 .803.2 1.56 1.145 1.764 2.2.12.617.415.935 1.246 1.308.85.39 1.69.563 3.048.636 1.616.082 2.06.19 2.42.554.702.736.951 2.29.951 5.97v2.7H23.347v-3.454h-9.512v3.454H.72zm20.854-6.433c1.006-.11 1.727-.291 2.004-.5.185-.136.185-.136-.092-.364-.555-.454-2.448-.681-5.588-.681-2.364 0-3.37.1-4.239.418-.951.345-.979.436-.23.663.572.182 2.16.418 3.222.49 1.109.074 4.1.055 4.923-.026z" />
      </g>
    </g>
  </symbol>

  <symbol viewBox="0 0 31 34" id="iconSiteNav2">
    <path d="M.997 21.96C2.045 8.858 2.307 7.81 4.665 7.81c.917 0 2.62-1.834 3.8-3.93 1.834-3.144 3.144-3.93 6.68-3.93 4.324 0 8.779 3.144 8.779 6.288 0 .917 1.048 1.572 2.489 1.572 1.965 0 2.489 1.442 3.275 7.992.393 4.454.786 10.35.786 13.1v5.11H.08zM19.993 6.5c0-2.227-4.454-3.799-6.943-2.489-3.668 2.096-2.62 3.8 2.358 3.8 2.49 0 4.585-.525 4.585-1.31z" />
  </symbol>

  <symbol viewBox="0 0 28 21" id="iconSiteNav3">
    <g>
      <g>
        <path d="M2.744 18.477c-2.62-2.882-2.62-2.882.262-5.764 2.489-2.359 2.882-2.49 2.882-.524 0 1.965 1.44 2.227 10.48 2.227 6.158 0 10.481.524 10.481 1.31s-4.323 1.31-10.35 1.31c-8.515 0-10.48.393-10.873 2.096-.262 1.834-.786 1.703-2.882-.655z" />
      </g>
      <g>
        <path d="M21.611 8.78c0-1.965-1.44-2.227-10.48-2.227C4.973 6.553.65 6.03.65 5.243s4.323-1.31 10.48-1.31c9.04 0 10.481-.262 10.481-2.227 0-1.965.393-1.834 2.882.655l2.883 2.882-2.883 2.882c-2.489 2.49-2.882 2.62-2.882.655z" />
      </g>
    </g>
  </symbol>

  <symbol viewBox="0 0 36 28" id="iconSiteNav4">
    <g>
      <g>
        <path d="M2.759 27.098C.673 26.8.34 26.321.34 23.75s.847-4.904 2.419-6.49c2.055-2.092 2.66-2.272 6.953-2.182 2.69.03 4.535-.09 6.349-.479l2.6-.508-.272 2.063c-.242 1.854-.212 2.273.423 3.738 1.149 2.722 3.084 5.174 5.593 7.058.514.359-.786.418-9.705.388-5.653 0-11.034-.12-11.941-.239z" />
      </g>
      <g>
        <path d="M26.37 26.773c-1.24-.479-4.867-4.396-5.653-6.07-.575-1.227-.726-2.184-.786-4.337l-.091-2.751 2.57-.808c1.874-.568 3.235-.807 4.988-.807 2.207 0 2.63.09 4.777 1.136 2.963 1.436 3.628 2.333 3.416 4.665-.302 3.17-3.265 7.955-5.532 8.912-1.119.448-2.63.478-3.689.06zm3.417-5.712c.997-1.495.786-4.276-.303-4.635-.725-.24-1.42 2.691-.997 4.186.332 1.286.665 1.376 1.3.449z" />
      </g>
      <g>
        <path d="M10.556 14.125c-1.844-.478-2.812-1.136-3.719-2.512-1.844-2.78-1.693-6.638.363-9.03C8.651.937 10.284.19 12.612.19c4.867 0 7.981 2.811 7.981 7.237 0 3.409-2.146 6.1-5.442 6.788-1.904.419-2.781.389-4.595-.09z" />
      </g>
    </g>
  </symbol>

  <symbol viewBox="0 0 36 34" id="iconSiteNav5">
    <g>
      <g>
        <path d="M14.066 31.746c-2.384-.774-3.845-1.664-4.96-2.941-2.115-2.555-.769-3.213 3.268-1.587 4.23 1.664 5.652 1.819 8.612.812 6.883-2.283 10.92-9.599 8.844-15.908-1.961-5.884-10.15-9.56-16.11-7.316-2.692 1.045-4.191 2.361-3.845 3.368.154.387.769 1.355 1.384 2.167 1.538 1.974 1.154 2.284-2.922 2.516-3.845.194-5.882-.348-6.42-1.741-.385-1.046-.462-6.774-.116-8.168.23-.735.423-.851 1.269-.658.538.155 1.384.62 1.845 1.045 1.038.968 2.153.775 5.114-1.045 3.883-2.36 6.92-2.593 12.188-1.006 3.037.929 5.498 2.67 7.651 5.38 5.114 6.542 4.498 14.825-1.5 20.747-3.498 3.445-5.69 4.529-9.612 4.684-1.96.116-3.729-.04-4.69-.349z" />
      </g>
      <g>
        <path d="M19.986 20.484c-.961-.31-2.038-.89-2.345-1.239-1.961-2.206-1.961-11.65 0-11.263.922.193 1.614 1.819 1.614 3.909 0 2.206 1.346 5.574 2.307 5.883.923.31 1.192 1.162.77 2.323-.193.542-.424.967-.462.929-.077 0-.923-.271-1.884-.542z" />
      </g>
    </g>
  </symbol>

  <symbol viewBox="0 0 37 26" id="iconSiteNav6">
    <g>
      <g>
        <path d="M1.911 24.785C.438 24.407.03 23.714.03 21.539c0-2.552.533-4.127 1.85-5.608 1.599-1.764 3.323-2.174 10.127-2.395 5.298-.157 5.58-.157 6.646.505.596.378 1.192.976 1.286 1.291.125.347.313.63.47.63.878 0 1.881 5.451 1.286 6.995-.69 1.796-1.568 1.985-10.535 2.048-4.483.032-8.653-.063-9.249-.22z" />
      </g>
      <g>
        <path d="M22.67 22.361c.252-.976.189-1.764-.375-4.222-.408-1.67-.627-3.277-.533-3.56.313-.788 1.63-1.166 4.922-1.355 3.919-.252 5.925.22 7.618 1.764 1.568 1.418 2.383 3.214 2.415 5.168 0 1.418-.063 1.544-1.004 1.922-.627.252-3.04.504-5.894.63-4.985.19-6.02.284-6.96.662-.47.189-.502.094-.188-1.009z" />
      </g>
      <g>
        <path d="M9.376 12.31c-3.762-1.167-5.392-5.704-3.511-9.674C6.71.872 8.216.21 11.539.21c2.415 0 2.979.095 3.888.725 2.884 1.922 3.355 7.152.847 9.578-1.004.945-3.982 2.332-4.954 2.269-.25 0-1.129-.22-1.944-.473z" />
      </g>
      <g>
        <path d="M24.332 12.277c-.91-.22-2.007-1.323-2.728-2.741-.533-1.04-.596-1.607-.439-3.151.188-2.017.753-3.025 2.195-4.096 1.254-.945 5.079-.945 6.333 0 1.599 1.197 2.07 2.143 2.226 4.443.25 3.812-1.505 5.797-5.048 5.734-1.066-.031-2.194-.094-2.54-.189z" />
      </g>
    </g>
  </symbol>

  <symbol viewBox="0 0 33 21" id="iconSiteNav7">
    <g>
      <g>
        <path d="M1.6.64h28.298v9.17l-.131 9.171H1.6zm25.94 1.31H3.958v15.721H27.54z" />
      </g>
      <g>
        <path d="M7.89 9.81V4.57h17.031v10.48H7.89z" />
      </g>
    </g>
  </symbol>

  <symbol viewBox="0 0 28 28" id="iconSiteNav8">
      <path d="M12.863 27.404c-.009-.003-.132-.013-.275-.026-.378-.029-.772-.077-1.204-.147a9.751 9.751 0 0 1-.758-.155.645.645 0 0 0-.119-.024.716.716 0 0 1-.127-.028 16.322 16.322 0 0 1-1.55-.488 3.252 3.252 0 0 1-.214-.084 4.846 4.846 0 0 0-.129-.054 3.21 3.21 0 0 1-.138-.055c-.024-.01-.065-.029-.094-.04a13.118 13.118 0 0 1-.68-.319c-.31-.155-.386-.193-.395-.203a.564.564 0 0 0-.077-.045 6.428 6.428 0 0 1-.232-.129 5.204 5.204 0 0 0-.19-.108.859.859 0 0 1-.072-.043c-.258-.165-.256-.165-.313-.143-.029.012-.075.028-.105.037a3.355 3.355 0 0 0-.232.077 3.17 3.17 0 0 1-.232.077c-.027.009-.079.024-.112.036-.032.01-.087.03-.12.042a3.567 3.567 0 0 1-.232.077c-.028.009-.08.024-.112.036l-.12.041a3.17 3.17 0 0 1-.232.078 3.364 3.364 0 0 0-.232.077 3.567 3.567 0 0 1-.233.078 3.354 3.354 0 0 0-.232.077 3.17 3.17 0 0 1-.232.077c-.027.009-.079.024-.112.036-.032.01-.087.03-.12.042a3.357 3.357 0 0 1-.232.077c-.028.009-.08.024-.112.036a3.17 3.17 0 0 0-.12.042 3.355 3.355 0 0 1-.232.077 3.567 3.567 0 0 0-.232.077 3.357 3.357 0 0 1-.233.078c-.027.008-.079.024-.111.036a3.17 3.17 0 0 0-.12.041 3.355 3.355 0 0 1-.233.077c-.027.009-.079.024-.112.036-.032.01-.087.03-.12.042a3.357 3.357 0 0 1-.232.077c-.028.009-.08.024-.112.036a3.17 3.17 0 0 0-.12.042 3.354 3.354 0 0 1-.232.077c-.028.007-.07.02-.095.03-.215.087-.387.073-.55-.042-.038-.028-.069-.059-.069-.069 0-.012-.007-.022-.017-.022-.009 0-.033-.036-.052-.081a.657.657 0 0 1-.01-.418c.045-.112.074-.19.13-.352.03-.085.064-.178.078-.207a.777.777 0 0 0 .03-.086l.047-.129c.021-.051.045-.122.055-.154a.263.263 0 0 1 .033-.078c.009-.008.016-.03.016-.051a.13.13 0 0 1 .025-.067.141.141 0 0 0 .026-.071c0-.02.007-.043.016-.052a.263.263 0 0 0 .032-.077 2.66 2.66 0 0 1 .055-.155c.043-.113.08-.208.114-.304l.077-.215c.03-.08.059-.162.067-.186.009-.024.031-.086.052-.137.02-.052.044-.122.055-.155a.263.263 0 0 1 .032-.077c.01-.009.016-.031.016-.052a.13.13 0 0 1 .026-.067.142.142 0 0 0 .026-.07c0-.021.006-.043.015-.052a.263.263 0 0 0 .033-.077c.01-.033.034-.104.055-.155l.051-.138.067-.185.078-.215c.013-.04.041-.116.062-.167a3.63 3.63 0 0 0 .106-.293.23.23 0 0 1 .033-.075.092.092 0 0 0 .015-.052.13.13 0 0 1 .026-.069.141.141 0 0 0 .026-.07c0-.02.007-.043.015-.053a.23.23 0 0 0 .033-.076c.01-.033.035-.103.055-.155.043-.113.08-.208.114-.304l.072-.206.05-.136-.04-.06a.23.23 0 0 1-.04-.08c-.001-.012-.008-.022-.015-.022-.008 0-.024-.017-.036-.038a.94.94 0 0 0-.053-.09.81.81 0 0 1-.047-.078 1.052 1.052 0 0 0-.053-.086.84.84 0 0 1-.057-.095.866.866 0 0 0-.05-.086.872.872 0 0 1-.058-.103 2.705 2.705 0 0 0-.08-.146l-.108-.19c-.051-.094-.304-.6-.347-.696-.014-.027-.051-.113-.086-.189a5.551 5.551 0 0 1-.11-.253 6.216 6.216 0 0 1-.169-.418l-.04-.103a1.362 1.362 0 0 1-.033-.085 7.288 7.288 0 0 0-.078-.224 5.895 5.895 0 0 1-.077-.224c-.007-.027-.034-.113-.059-.189-.058-.18-.125-.409-.171-.588a13.813 13.813 0 0 1-.362-1.922c-.072-.612-.082-.851-.075-1.737.005-.486.017-.946.029-1.057.067-.65.122-1.042.2-1.427l.051-.258a7.22 7.22 0 0 1 .103-.456c.016-.065.04-.155.052-.198l.051-.189c.016-.062.04-.143.052-.18.012-.038.034-.116.052-.172l.051-.164c.012-.032.031-.087.041-.12a5.896 5.896 0 0 1 .172-.49l.042-.103c.029-.08.142-.358.17-.422.01-.024.03-.065.041-.094.067-.158.253-.554.316-.68.245-.472.315-.6.492-.892l.2-.325a.857.857 0 0 0 .043-.072.12.12 0 0 1 .02-.034.516.516 0 0 0 .088-.136c0-.009.005-.02.014-.023a.524.524 0 0 0 .106-.156c.01-.012.057-.074.105-.141l.11-.151c.014-.016.026-.038.026-.047 0-.01.005-.017.014-.017.007 0 .034-.034.06-.077.028-.043.057-.078.065-.078.009 0 .016-.012.016-.026 0-.013.005-.025.014-.025.007 0 .03-.03.055-.064.024-.034.051-.07.06-.08l.155-.192c.075-.094.146-.178.156-.189a14.53 14.53 0 0 1 1.589-1.6.452.452 0 0 0 .082-.078c.004-.009.018-.015.031-.015.014 0 .024-.006.024-.013 0-.008.067-.067.152-.134a2.95 2.95 0 0 0 .17-.14.779.779 0 0 1 .083-.057c.032-.021.06-.045.06-.054 0-.008.012-.015.025-.015.014 0 .026-.007.026-.016 0-.008.035-.037.078-.065.043-.026.077-.053.077-.06 0-.009.01-.014.024-.014s.028-.007.031-.014a2.15 2.15 0 0 1 .22-.161 9.214 9.214 0 0 0 .265-.186.558.558 0 0 0 .082-.05c.205-.136.324-.208.34-.208a1.215 1.215 0 0 1 .261-.155.015.015 0 0 0 .015-.015c0-.009.02-.024.048-.035a.775.775 0 0 0 .098-.051c.03-.019.11-.062.18-.1.071-.036.133-.07.138-.076.009-.01.606-.304.774-.381.052-.023.19-.083.31-.133l.249-.105C8.704.826 8.79.79 8.83.778c.024-.008.086-.03.137-.051.052-.02.15-.055.215-.078l.172-.058a13.665 13.665 0 0 1 1.247-.353 13.76 13.76 0 0 1 2.04-.31 21.27 21.27 0 0 1 2.145 0 14.27 14.27 0 0 1 2.641.464l.18.05c.137.04.228.07.302.095l.111.035c.052.014.124.038.233.079l.215.076c.085.029.178.063.206.077.03.012.086.036.129.052.043.015.101.04.129.051.029.012.094.04.146.06.179.073.44.195.79.368a6.486 6.486 0 0 1 .56.294c.108.054.275.153.28.167a.022.022 0 0 0 .02.014c.021 0 .231.125.238.14.003.01.014.015.024.015.024 0 .71.457.77.514a.85.85 0 0 0 .107.074c.045.027.082.058.082.067 0 .008.012.015.026.015.014 0 .026.007.026.014s.02.026.048.041a.616.616 0 0 1 .081.06c.019.018.084.07.146.116.062.046.12.093.13.103.01.01.078.069.154.129.076.062.162.136.19.163.03.03.107.1.173.157.325.282.748.705 1.03 1.03.056.065.127.142.156.172.028.029.102.115.163.19.06.076.12.147.13.155.01.01.056.067.103.13.046.061.098.126.115.145a.618.618 0 0 1 .06.081c.015.028.034.048.041.048.007 0 .014.012.014.026 0 .014.007.026.015.026.01 0 .04.038.068.082a.86.86 0 0 0 .073.107c.057.06.515.746.515.77 0 .01.005.02.013.024.016.007.141.217.141.238 0 .008.006.017.014.02.014.005.114.172.167.28a6.525 6.525 0 0 1 .294.559 12.697 12.697 0 0 1 .428.938c.012.029.036.085.052.128.015.043.04.102.051.13.014.029.048.122.078.206l.075.215c.042.108.066.18.08.232.008.03.023.079.034.112.026.074.055.165.094.3l.052.181.048.18c.077.303.08.305.158.671.11.494.2 1.116.258 1.79.036.408.036 1.739 0 2.146a13.839 13.839 0 0 1-.412 2.452 12.5 12.5 0 0 1-.174.593c-.024.076-.052.162-.059.19a6.02 6.02 0 0 1-.077.223l-.077.215a4.566 4.566 0 0 1-.052.137 11.111 11.111 0 0 1-.33.791c-.062.138-.373.762-.45.903a7.628 7.628 0 0 0-.124.229.334.334 0 0 1-.062.09c-.007 0-.014.008-.014.018 0 .016-.155.277-.261.442a.851.851 0 0 0-.043.072.117.117 0 0 1-.021.035.519.519 0 0 0-.088.136c0 .008-.005.018-.012.022a.487.487 0 0 0-.09.125.096.096 0 0 1-.018.031 3.87 3.87 0 0 0-.103.141 3.668 3.668 0 0 1-.11.152c-.016.015-.028.037-.028.046 0 .01-.005.017-.012.017-.008 0-.036.035-.062.078-.027.043-.057.077-.065.077-.009 0-.016.012-.016.026 0 .014-.006.026-.013.026-.007 0-.026.02-.042.048a.617.617 0 0 1-.06.08 3.506 3.506 0 0 0-.125.155c-.105.133-.152.191-.186.226a9.06 9.06 0 0 1-.27.315c-.038.039-.138.147-.223.238a13.687 13.687 0 0 1-1.067 1.027l-.146.124c-.024.02-.062.055-.086.074-.024.02-.09.073-.146.116a2.77 2.77 0 0 0-.12.098 3.68 3.68 0 0 1-.385.284c-.01 0-.02.007-.02.016 0 .008-.029.034-.063.055-.036.022-.11.072-.163.113a.537.537 0 0 1-.114.074c-.01 0-.02.005-.024.014a.391.391 0 0 1-.134.09c-.009 0-.017.006-.017.013 0 .009-.017.024-.038.036a10.282 10.282 0 0 0-.255.157 11.9 11.9 0 0 1-.24.15c-.014.006-.1.054-.19.108a6.45 6.45 0 0 1-.231.128 14.232 14.232 0 0 1-.791.404l-.207.095c-.136.062-.168.076-.278.122l-.112.048-.134.054c-.043.015-.1.04-.13.051-.027.014-.12.048-.205.078l-.215.075c-.109.042-.18.066-.233.08l-.103.032a11.913 11.913 0 0 1-.636.19c-.027.01-.12.032-.206.053a14.03 14.03 0 0 1-1.754.316c-.62.07-.82.079-1.635.077-.444 0-.814-.003-.824-.007zm1.135-6.21a.993.993 0 0 0 .49-.361.857.857 0 0 0 .148-.375c.03-.152.034-1.55.005-1.727a1.026 1.026 0 0 0-.24-.5 1.143 1.143 0 0 0-.205-.16l-.052-.026a.653.653 0 0 0-.215-.08.954.954 0 0 0-.43 0 .653.653 0 0 0-.215.08l-.051.026c-.036.015-.157.11-.205.16-.06.062-.146.203-.187.3-.064.154-.072.285-.072 1.06 0 .767.008.879.073 1.058a.949.949 0 0 0 .717.574c.131.019.356.003.439-.03zm.04-5.216a.63.63 0 0 0 .189-.098c.012-.012.027-.022.034-.022.02 0 .15-.126.205-.198a1.24 1.24 0 0 0 .165-.344c.008-.037.02-.4.027-.808.014-.77.012-.751.098-1.083.026-.096.04-.136.107-.31a2.41 2.41 0 0 1 .184-.376.315.315 0 0 0 .043-.074c0-.019.113-.155.213-.256a2.56 2.56 0 0 1 .268-.215c.165-.112.191-.133.351-.272.117-.101.174-.16.296-.302.11-.128.265-.327.265-.34 0-.006.027-.05.06-.102.053-.08.19-.35.232-.453l.033-.086c.208-.51.273-1.234.163-1.78a3.885 3.885 0 0 0-.212-.7l-.08-.168a1.358 1.358 0 0 0-.074-.146.554.554 0 0 1-.045-.077.612.612 0 0 0-.043-.077.534.534 0 0 1-.086-.138c0-.009-.005-.017-.012-.017-.009 0-.036-.035-.062-.078-.028-.043-.057-.077-.065-.077a.015.015 0 0 1-.016-.015c0-.033-.306-.356-.464-.492a4.06 4.06 0 0 0-.52-.372 12.342 12.342 0 0 0-.366-.178c-.154-.066-.184-.078-.206-.078a.278.278 0 0 1-.08-.024 2.456 2.456 0 0 0-.427-.107 4.115 4.115 0 0 0-1.008 0 4.202 4.202 0 0 0-.643.174 3.92 3.92 0 0 0-.495.244.154.154 0 0 1-.055.031c-.019.005-.035.02-.035.028s-.008.015-.017.015c-.02 0-.125.07-.134.091-.003.007-.017.012-.03.012-.015 0-.025.007-.025.016 0 .007-.029.034-.065.057a1.253 1.253 0 0 0-.14.115 2.213 2.213 0 0 0-.284.279 3.75 3.75 0 0 0-.183.228l-.136.177a.096.096 0 0 0-.017.031c0 .005-.02.041-.047.083a3.293 3.293 0 0 0-.137.244 8.641 8.641 0 0 0-.15.34.342.342 0 0 0-.027.09.28.28 0 0 1-.024.08c-.062.145-.126.47-.148.767-.035.42.038.664.254.88.158.156.196.181.379.248.098.038.331.052.467.03.138-.023.365-.133.461-.226.208-.2.287-.392.313-.756.02-.294.043-.38.168-.635.155-.31.475-.6.795-.718.115-.043.361-.092.466-.092.163 0 .37.052.557.141.289.138.597.45.73.742.106.232.137.376.138.617 0 .504-.221.92-.646 1.21-.066.045-.162.112-.213.15-.12.088-.511.48-.576.576-.026.04-.055.072-.062.072-.009 0-.016.01-.016.024s-.005.028-.012.031c-.02.009-.161.215-.189.272a3.955 3.955 0 0 0-.287.567 2.566 2.566 0 0 1-.062.141.133.133 0 0 0-.017.059c0 .015-.01.048-.024.072-.02.043-.035.084-.102.322-.022.079-.044.178-.098.438-.065.318-.096 1.616-.046 1.883.027.136.094.292.172.395.055.073.184.198.204.198.007 0 .023.01.035.022a.79.79 0 0 0 .314.135c.12.024.42.003.521-.037z" />
  </symbol>

  <symbol viewBox="0 0 31 28" id="iconSiteNav9">
    <path d="M2.052 27.673a1.877 1.877 0 0 1-.8-.408c-.13-.117-.152-.138-.152-.157 0-.009-.007-.018-.015-.018-.026 0-.184-.23-.252-.368a1.955 1.955 0 0 1-.149-.367c-.02-.07-.026-1.832-.032-10.48C.647 6.51.65 5.459.677 5.272c.05-.36.156-.813.228-.985A.306.306 0 0 0 .93 4.19c0-.018.007-.04.017-.045.01-.005.023-.034.03-.062a.598.598 0 0 1 .041-.119l.044-.103c.062-.153.322-.654.358-.688a2.585 2.585 0 0 1 .226-.333.095.095 0 0 0 .018-.043c0-.01.006-.019.015-.019.008 0 .051-.05.097-.113a.533.533 0 0 1 .097-.113c.01 0 .017-.008.017-.019 0-.041.61-.659.652-.659a3.913 3.913 0 0 1 .458-.339c.01 0 .02-.006.024-.013a.534.534 0 0 1 .138-.1.603.603 0 0 0 .09-.05c.075-.048.136-.084.32-.182.043-.022.147-.07.23-.105.083-.034.166-.07.183-.08C4.13.93 4.64.782 4.97.718 5.449.624 4.775.63 15.743.63S26.036.624 26.515.717c.27.052.83.214.97.28l.113.053c.06.026.395.19.523.256.028.015.055.034.057.043a.032.032 0 0 0 .026.016c.026 0 .475.299.482.322.004.009.019.017.034.017.015 0 .026.007.026.015 0 .009.04.045.09.08.05.034.118.09.151.125a.392.392 0 0 0 .07.062c.011 0 .367.358.367.37a.3.3 0 0 0 .053.06c.028.028.087.094.126.144a.628.628 0 0 0 .089.1c.01.004.015.019.015.034 0 .015.007.026.019.026.01 0 .04.038.067.085.027.047.057.085.066.085.01 0 .017.01.017.019 0 .022.078.137.1.147a.026.026 0 0 1 .013.022c0 .01.05.1.11.202.096.164.18.331.258.504.022.05.062.157.17.443a6.562 6.562 0 0 1 .226.97c.024.168.027 1.004.027 7.011 0 7.303.006 6.893-.086 7.349-.062.314-.211.82-.288.975a22.724 22.724 0 0 1-.301.621c-.016.029-.035.055-.044.057a.032.032 0 0 0-.015.026c0 .02-.27.432-.309.475a2.261 2.261 0 0 0-.122.153c-.2.254-.53.583-.784.783a2.274 2.274 0 0 0-.152.122c-.044.04-.456.31-.475.31a.032.032 0 0 0-.026.014c-.006.02-.012.021-.362.198-.14.07-.267.126-.282.126-.015 0-.032.008-.04.02-.006.008-.038.025-.072.035-.033.01-.118.037-.192.064-.3.103-.525.16-.979.241-.105.02-1.586.026-7.184.036-5.39.007-7.12.017-7.336.034a15.094 15.094 0 0 0-1.516.192 2.297 2.297 0 0 0-.188.034 9.59 9.59 0 0 1-.235.05 8.805 8.805 0 0 0-.264.06 7.284 7.284 0 0 0-.424.11l-.207.056a2.247 2.247 0 0 0-.188.057c-.036.013-.117.038-.18.056a1.577 1.577 0 0 0-.174.059.3.3 0 0 1-.094.026.138.138 0 0 0-.068.028.15.15 0 0 1-.072.029.314.314 0 0 0-.094.026c-.034.015-.1.041-.147.058-.047.017-.11.044-.141.057-.03.013-.094.038-.141.056l-.142.059c-.26.115-.314.14-.324.14-.013 0-.824.404-.871.432-.081.051-.324.189-.334.189a.62.62 0 0 0-.088.052c-.042.029-.09.059-.106.066-.015.008-.053.03-.085.051a.557.557 0 0 1-.082.05c-.076.037-.724.48-.733.502-.004.007-.019.013-.034.013-.015 0-.026.008-.026.019 0 .01-.038.04-.085.068-.047.026-.085.056-.085.066 0 .01-.011.017-.026.017s-.03.007-.034.017a.914.914 0 0 1-.137.116 5.628 5.628 0 0 0-.245.194 5.577 5.577 0 0 0-.2.172l-.186.16c-.347.301-.543.406-.908.497a2.47 2.47 0 0 1-.816-.008zm5.026-10.395a.88.88 0 0 0 .512-.465l.074-.147.005-1.19.006-1.19 1.783-.006 1.784-.006.132-.064c.116-.058.305-.22.376-.324.074-.105.141-.339.141-.48 0-.128-.113-.46-.154-.46-.01 0-.015-.009-.015-.02 0-.034-.198-.219-.284-.264-.22-.115-.125-.111-2.027-.111H7.673v-1.669c0-1.145.006-1.69.02-1.738a.502.502 0 0 1 .215-.273l.095-.058L9.584 8.8c1.034-.005 1.605-.017 1.648-.03a.899.899 0 0 0 .63-.644c.095-.33-.072-.723-.392-.93-.208-.134-.102-.126-1.93-.126-1.745 0-1.679-.004-1.999.086-.179.05-.473.181-.512.228-.011.013-.028.025-.038.025-.075 0-.636.533-.636.604 0 .01-.008.017-.017.017-.01 0-.025.017-.03.038a.147.147 0 0 1-.036.06c-.028.028-.2.38-.2.409a.314.314 0 0 1-.026.08 1.689 1.689 0 0 0-.06.204c-.034.136-.036.303-.036 3.993 0 3.713.002 3.853.036 3.926.018.042.049.104.066.14.043.092.242.286.34.333.194.094.217.1.396.1a.776.776 0 0 0 .29-.036zm6.8.006c.204-.07.4-.236.497-.42.115-.215.115-.225.115-1.477v-1.141h2.467v1.098c0 1.1.008 1.254.07 1.425.032.087.096.192.122.204a.031.031 0 0 1 .015.024c0 .044.181.183.33.254.105.051.128.055.34.055.223 0 .227 0 .37-.071a.846.846 0 0 0 .405-.405l.071-.145.006-3.484c.006-3.136.002-3.5-.024-3.644a2.697 2.697 0 0 0-.268-.816c-.11-.226-.122-.248-.141-.254a.031.031 0 0 1-.015-.025c0-.02-.08-.135-.098-.145-.01-.003-.015-.018-.015-.033 0-.016-.008-.027-.015-.027-.01 0-.045-.04-.081-.088a2.663 2.663 0 0 0-.437-.437c-.049-.036-.088-.072-.088-.081 0-.008-.012-.015-.027-.015s-.03-.006-.034-.013a.528.528 0 0 0-.147-.106 2.9 2.9 0 0 0-.838-.358 2.33 2.33 0 0 0-.73-.088c-.377 0-.637.041-.985.16-.094.03-.501.228-.595.288-.07.043-.202.137-.26.183-.1.079-.503.493-.556.574a.4.4 0 0 1-.07.09c-.009.004-.015.015-.015.023a.43.43 0 0 1-.054.098 2.72 2.72 0 0 0-.198.378c-.07.162-.081.198-.111.296-.043.15-.081.31-.11.462-.018.103-.026.845-.03 3.51-.005 2.989-.003 3.392.023 3.493.032.126.104.294.126.294.01 0 .015.01.015.02 0 .033.155.187.25.25.146.094.248.122.447.124a.806.806 0 0 0 .273-.03zm13.013-.032a.987.987 0 0 0 .289-.204.739.739 0 0 1 .047-.056c.13-.136.207-.424.177-.654a.89.89 0 0 0-.731-.734 4.335 4.335 0 0 0-.475-.021h-.352v-2.748c0-1.725-.007-2.84-.019-2.99a2.9 2.9 0 0 0-.135-.712c-.055-.168-.264-.618-.309-.665a.146.146 0 0 1-.036-.06c-.005-.02-.02-.038-.03-.038-.01 0-.017-.013-.017-.028 0-.015-.007-.028-.015-.028-.007 0-.028-.025-.045-.053a1.054 1.054 0 0 0-.098-.124.512.512 0 0 1-.068-.078c0-.016-.248-.254-.265-.254-.01 0-.017-.007-.017-.015 0-.013-.243-.198-.368-.277a3.058 3.058 0 0 0-1.092-.414 3.776 3.776 0 0 0-.945.002c-.204.04-.362.08-.435.113a.305.305 0 0 1-.089.026.163.163 0 0 0-.062.017c-.017.01-.124.062-.24.117-.336.164-.515.294-.818.599-.119.12-.241.256-.273.303a.939.939 0 0 1-.068.094.182.182 0 0 0-.025.038c-.013.028-.02.041-.105.179a1.769 1.769 0 0 0-.136.273 3.078 3.078 0 0 0-.173.518c-.075.297-.077.39-.077 2.815 0 2.424.002 2.516.077 2.816a2.891 2.891 0 0 0 .367.89c.03.046.055.089.055.098 0 .008.006.02.015.023a.46.46 0 0 1 .07.09c.054.081.455.496.559.578.075.06.33.232.343.232a2.492 2.492 0 0 0 .322.16l.231.096a.313.313 0 0 0 .09.027.66.66 0 0 1 .12.028c.26.083.239.08 2.497.079l2.146-.004z" />
  </symbol>

  <symbol viewBox="0 0 52 47" id="iconSiteNav10">
    <path d="M24.013 46.7024C21.8623 46.167 17.5312 44.5309 15.7987 43.579C8.8987 39.7417 4 31.4126 4 23.4999C4 17.4018 6.98701 10.8872 11.8558 6.36573C15.8286 2.67712 20.0701 0.922059 25.8351 0.684084C33.0039 0.356869 38.739 2.49864 43.6078 7.28788C46.0571 9.69737 47.8493 12.5531 48.9844 15.9145C50.0597 19.1271 50.3584 25.4632 49.5519 29.0328C48.0883 35.6961 43.6675 41.2885 37.574 44.2037C33.2727 46.2562 27.0299 47.4164 24.013 46.7024ZM31.1519 41.7645C36.8273 40.3961 41.5766 36.7075 43.9961 31.829C47.7 24.3031 46.4455 16.4202 40.6208 10.6195C33.0636 3.15307 21.2649 2.97459 13.9766 10.2328C12.274 11.8986 11.5571 12.91 10.4818 15.1708C8.09221 20.079 7.64416 23.4999 8.77922 27.605C10.8104 34.8929 15.3506 39.8012 21.7727 41.6752C24.1026 42.3594 28.5532 42.3891 31.1519 41.7645Z" />
    <path d="M18.5766 34.298C18.3078 34.2386 17.8597 33.8518 17.6208 33.4651C16.9935 32.4835 17.5013 31.6208 18.9351 31.2341C20.3091 30.8474 33.9896 30.8474 35.3636 31.2341C36.7974 31.6208 37.3052 32.4835 36.7078 33.4354C36.439 33.8221 35.9312 34.2386 35.5727 34.3278C34.826 34.536 19.3532 34.5063 18.5766 34.298Z" />
    <path d="M18.7559 29.3302C17.8 28.9138 17.6208 28.5865 16.5455 25.0764C16.1273 23.7378 15.5 22.4884 14.8728 21.7448C13.7676 20.4657 13.4987 18.9486 14.3351 18.6214C15.8883 18.0264 18.0091 18.7403 20.0403 20.5252C21.3844 21.6853 21.4442 21.715 22.0117 21.2093C22.9377 20.3764 24.3117 17.3422 24.7598 15.2005C25.2078 13.0884 25.9247 12.196 27.1793 12.196C28.1948 12.196 29.0909 13.2074 29.0909 14.3676C29.0909 15.5277 30.4052 18.3834 31.9286 20.4657L33.0338 22.0125L35.0948 20.1087C40.3819 15.26 41.2182 18.4131 37.0663 27.4562L35.9909 29.7467H27.8364C21.6831 29.7169 19.4429 29.6277 18.7559 29.3302Z" />
  </symbol>

  <symbol viewBox="0 0 49 49" id="iconSiteNav11">
        <path d="M18.8264 47.5815C-3.35257 42.5526 -6.18942 11.8631 14.829 2.44992C21.1474 -0.515874 26.9501 -0.644821 33.2685 1.93413C42.9395 6.06044 47.9685 13.5394 48.2264 23.8552C48.3553 39.3289 34.0422 50.9341 18.8264 47.5815ZM34.5579 41.2631C46.679 33.7841 47.0658 14.9578 35.0737 7.47886C21.5343 -0.902716 4.51322 8.89729 4.77111 24.8868C5.029 39.5868 21.9211 48.871 34.5579 41.2631Z" />
        <path d="M17.6658 35.8474C17.4079 34.9448 17.9236 33.1395 19.0842 31.85C20.6315 30.0448 20.7605 29.0132 19.6 26.4342C18.6973 24.629 17.2789 23.2106 16.5052 23.3395C12.8947 23.7263 11.6052 23.0816 11.6052 20.7606C11.6052 17.15 13.9263 16.1185 16.6342 18.5685C19.8579 21.5342 26.3052 19.2132 25.1447 15.6027C24.371 13.0237 27.4658 9.67109 29.6579 10.9606C31.3342 11.9921 31.3342 15.8606 29.6579 17.5369C28.7552 18.4395 28.6263 19.9869 29.5289 22.3079C30.4315 24.7579 31.4631 25.4027 33.3973 24.8869C36.4921 24.1132 38.5552 27.7237 36.3631 29.9158C35.2026 31.0763 34.0421 30.9474 31.721 29.7869C28.3684 27.9816 22.9526 29.7869 23.3394 32.6237C23.7263 36.1053 23.0815 37.3948 20.7605 37.3948C19.3421 37.3948 18.0526 36.6211 17.6658 35.8474Z" />
  </symbol>

  <symbol viewBox="0 0 49 49" id="iconSiteNav12">
          <path d="M20.1283 47.7592C13.1504 46.2396 6.51374 40.4092 3.62956 33.3383C1.98589 29.2446 1.55171 24.4066 2.48209 20.2199C3.50551 15.537 7.28905 9.30348 10.5764 6.88449C12.8403 5.24082 16.903 3.28703 19.5701 2.60475C22.7334 1.79842 27.4473 1.79842 30.5796 2.60475C39.2011 4.80665 46.241 12.1256 48.0087 20.6851C50.1485 31.0123 44.2561 41.8668 34.084 46.3326C30.1144 48.1003 24.315 48.6896 20.1283 47.7592ZM30.0523 44.968C34.5492 43.8206 39.046 40.9054 41.5891 37.556C44.4732 33.6794 45.5587 30.3611 45.5587 25.4301C45.5277 19.5687 43.5739 14.7927 39.5112 10.668C36.9372 8.03196 33.5878 6.1712 29.8973 5.24082C26.8891 4.49652 21.1517 4.77563 18.3606 5.79905C15.1973 6.97753 12.9334 8.43513 10.5144 10.8851C1.83083 19.5687 3.16437 34.3307 13.3055 41.5566C15.5384 43.1693 18.1125 44.3478 20.5625 44.968C22.9504 45.5263 27.7884 45.5263 30.0523 44.968Z" />
          <path d="M24.0979 35.044C23.5397 34.7959 23.0745 34.4547 23.0745 34.2686C23.0745 33.7724 25.3384 32.78 27.6953 32.2218C30.3314 31.6326 31.789 30.6092 31.2618 29.7098C31.0757 29.3997 30.1143 28.7484 29.0909 28.2212C27.6333 27.4769 27.1991 27.0737 26.827 26.1433C25.9897 23.8484 27.4162 21.0883 29.8042 20.406C32.7504 19.5376 36.627 19.5686 37.8055 20.437C38.3947 20.8712 38.2396 22.0497 37.5574 22.1117C31.0757 22.7629 30.3314 23.6313 34.084 26.0503C35.7276 27.1047 37.0302 28.6554 37.0302 29.5857C37.0302 29.8338 36.751 30.6402 36.4099 31.3535C35.2624 33.7104 32.0991 35.199 27.7264 35.3851C25.8346 35.4781 24.8112 35.3541 24.0979 35.044Z" />
          <path d="M15.8175 29.5237C15.1352 28.8414 15.0732 28.4383 14.8871 24.7788C14.639 19.9098 14.2359 17.7699 13.4296 17.0256C12.5922 16.2503 13.1504 15.9712 15.5694 15.9712C18.3606 15.9712 18.5777 16.2813 18.8568 20.6541C18.9808 22.5769 19.1359 24.2516 19.2289 24.3136C19.539 24.6237 20.9036 22.918 21.5239 21.4604C22.0511 20.2509 22.1751 19.5066 22.0511 18.3902C21.803 16.2813 22.2061 15.9712 25.2764 15.9712C26.6099 15.9712 27.7264 16.0642 27.7264 16.1573C27.7264 16.6535 22.7023 26.5155 21.865 27.694C20.0042 30.206 17.3061 31.0123 15.8175 29.5237Z" />
  </symbol>

  <symbol viewBox="0 0 51 46" id="iconSiteNav13">
      <path d="M20.9474 44.5474C10.779 41.6421 4.84741 33.6526 4.84741 23.1211C4.84741 12.1053 10.9 3.8737 21.1895 1.08949C40.679 -4.11577 56.9 17.5527 46.3685 34.8632C41.5264 42.7316 29.9053 47.2105 20.9474 44.5474ZM40.4369 35.3474C50.7264 24.4527 44.4316 5.9316 30.0264 4.72107C22.1579 4.11581 19.6158 4.84212 14.7737 9.32107C6.4211 17.1895 6.17899 27.7211 14.1685 35.7105C19.3737 40.7948 20.2211 41.1579 28.6948 40.7948C35.2316 40.4316 36.2 39.9474 40.4369 35.3474Z" />
      <path d="M17.1948 35.9527C8.84215 30.3843 7.99478 18.7632 15.5 11.2579C20.2211 6.53688 25.7895 5.68951 25.7895 9.68425C25.7895 11.0158 25.0632 12.1053 24.0948 12.1053C21.1895 12.1053 16.1053 19.2474 16.1053 23.2421C16.1053 28.2053 21.9158 33.8948 27 33.8948C32.0842 33.8948 37.8948 28.2053 37.8948 23.2421C37.8948 19.2474 32.8106 12.1053 29.9053 12.1053C28.9369 12.1053 28.2106 11.0158 28.2106 9.68425C28.2106 3.63161 39.1053 8.95793 42.2527 16.4632C44.4316 21.7895 44.4316 24.6948 41.8895 29.9C37.7737 38.6158 25.5474 41.6421 17.1948 35.9527Z" />
  </symbol>

  <symbol viewBox="0 0 51 46" id="iconSiteNav14">
      <path d="M20.9474 44.5474C10.779 41.6421 4.84741 33.6526 4.84741 23.1211C4.84741 12.1053 10.9 3.8737 21.1895 1.08949C40.679 -4.11577 56.9 17.5527 46.3685 34.8632C41.5264 42.7316 29.9053 47.2105 20.9474 44.5474ZM40.4369 35.3474C43.3422 32.3211 45.279 29.0527 45.4 26.9948C46.2474 11.1369 38.8632 3.75265 23.0053 4.60002C18.1632 4.96318 10.1737 12.7105 8.84215 18.5211C7.75268 23.4842 9.68952 32.8053 11.8685 33.5316C12.5948 33.7737 16.5895 30.3842 20.9474 26.0263C26.3948 20.579 28.0895 18.1579 26.5158 18.1579C22.1579 18.1579 25.5474 15.1316 30.3895 14.7684L35.4737 14.4053V19.8526C35.4737 23.9684 34.9895 25.4211 33.6579 25.4211C32.6895 25.4211 31.8421 24.4527 31.8421 23.3632C31.8421 21.9105 29.179 23.8474 23.9737 29.0527C19.6158 33.2895 16.1053 37.2842 16.1053 37.8895C16.1053 39.8263 21.7948 41.1579 28.6948 40.7948C35.2316 40.4316 36.2 39.9474 40.4369 35.3474Z" />
  </symbol>

  <symbol viewBox="0 0 9 9" id="iconSiteMoney">
    <g>
      <path d="M3.68188 2.64806C3.68188 3.32058 5.01961 3.67256 6.34098 3.67256C7.66236 3.67256 9.00008 3.32058 9.00008 2.64806C9.00007 1.30298 3.68188 1.30298 3.68188 2.64806Z" fill="#FF0202" />
      <path d="M8.9014 3.64034C8.84048 3.60352 8.76397 3.60091 8.70065 3.63415C8.14974 3.92309 7.31178 4.08237 6.34098 4.08237C5.37019 4.08237 4.53223 3.92309 3.98132 3.63415C3.918 3.60093 3.84149 3.60352 3.78057 3.64034C3.71924 3.67735 3.68188 3.74399 3.68188 3.81563V3.87745C3.68188 4.54998 5.01961 4.90196 6.34098 4.90196C7.66236 4.90196 9.00008 4.54998 9.00008 3.87745V3.81563C9.00007 3.74399 8.96271 3.67735 8.9014 3.64034Z" fill="#FF0202" />
      <path d="M1.22729 6.74608C1.22729 7.41862 2.56502 7.77058 3.88639 7.77058C5.20777 7.77058 6.54549 7.4186 6.54549 6.74608C6.54548 5.40101 1.22729 5.40101 1.22729 6.74608Z" fill="#FF0202" />
      <path d="M6.44681 7.73839C6.38568 7.70176 6.30938 7.69896 6.24606 7.73219C5.69515 8.02114 4.85719 8.18042 3.88639 8.18042C2.9156 8.18042 2.07764 8.02114 1.52673 7.73219C1.46341 7.69898 1.3869 7.70178 1.32598 7.73839C1.26465 7.7754 1.22729 7.84203 1.22729 7.91368V7.9755C1.22729 8.64805 2.56502 9.00001 3.88639 9.00001C5.20777 9.00001 6.54549 8.64803 6.54549 7.9755V7.91368C6.54548 7.84203 6.50812 7.7754 6.44681 7.73839Z" fill="#FF0202" />
      <path d="M2.6591 2.0332C2.93535 2.0332 3.21162 2.01759 3.48028 1.98659C3.52402 1.98158 3.56498 1.96258 3.59714 1.93236C3.90695 1.64021 4.43629 1.42471 5.12784 1.30925C5.20096 1.29703 5.26188 1.24621 5.28685 1.17618C5.30802 1.11716 5.3182 1.06233 5.3182 1.0087C5.31818 -0.336393 0 -0.336393 0 1.00868C0 1.68123 1.33773 2.0332 2.6591 2.0332Z" fill="#FF0202" />
      <path d="M2.6591 3.2627C2.82848 3.2627 2.99368 3.25689 3.15369 3.24629C3.21822 3.24188 3.27674 3.20747 3.31189 3.15303C3.34685 3.0988 3.35423 3.03098 3.33188 2.97034C3.29212 2.86328 3.27276 2.75783 3.27375 2.63698C3.27375 2.58095 3.25078 2.52733 3.21022 2.48871C3.16988 2.45009 3.11294 2.42668 3.0594 2.43228C2.92576 2.43868 2.79212 2.44307 2.6591 2.44307C1.68831 2.44307 0.850347 2.2838 0.299436 1.99485C0.236116 1.96164 0.159603 1.96424 0.0986805 2.00104C0.0373551 2.03809 0 2.10473 0 2.17637V2.2382C0 2.91074 1.33773 3.2627 2.6591 3.2627Z" fill="#FF0202" />
      <path d="M2.6591 4.49216C2.82848 4.49216 2.99368 4.48635 3.15369 4.47574C3.21822 4.47133 3.27674 4.43693 3.31189 4.38249C3.34685 4.32826 3.35423 4.26043 3.33188 4.1998C3.29212 4.09274 3.27276 3.98729 3.27276 3.86644C3.27276 3.81041 3.24978 3.75679 3.20922 3.71817C3.16888 3.67955 3.11294 3.65754 3.0584 3.66174C2.92517 3.66814 2.79193 3.67253 2.6591 3.67253C1.68831 3.67253 0.850347 3.51326 0.299436 3.22431C0.236116 3.1911 0.159603 3.19371 0.0986805 3.2305C0.0373551 3.26755 0 3.33419 0 3.40581V3.46764C0 4.14018 1.33773 4.49216 2.6591 4.49216Z" fill="#FF0202" />
      <path d="M8.90141 6.09914C8.84009 6.06172 8.76398 6.05971 8.70066 6.09294C8.31573 6.29485 7.7742 6.43591 7.13481 6.50055C7.02694 6.51156 6.95005 6.63762 6.95463 6.74608C6.95463 6.84994 6.93785 6.94918 6.90349 7.04903C6.88071 7.11526 6.89331 7.18871 6.93685 7.24353C6.97601 7.29257 7.03494 7.32077 7.09686 7.32077C7.10405 7.32077 7.11143 7.32037 7.11884 7.31957C8.29677 7.19229 9.00009 6.82472 9.00009 6.33627V6.27443C9.00007 6.2028 8.96272 6.13617 8.90141 6.09914Z" fill="#FF0202" />
      <path d="M3.88642 5.31175L4.02205 5.31415C4.02326 5.31415 4.02445 5.31415 4.02566 5.31415C4.12113 5.31415 4.20403 5.24791 4.2252 5.15447C4.24658 5.05962 4.19864 4.96297 4.11034 4.92274L4.0666 4.90312C4.03743 4.89031 4.00807 4.8775 3.9809 4.86329C3.91718 4.82987 3.84168 4.83288 3.78035 4.86989C3.71922 4.9069 3.68188 4.97335 3.68188 5.04497V5.10679C3.68187 5.22011 3.77336 5.31175 3.88642 5.31175Z" fill="#FF0202" />
      <path d="M8.90137 4.86977C8.84045 4.83295 8.76393 4.83034 8.70061 4.86358C8.1497 5.15252 7.31174 5.3118 6.34095 5.3118L6.20591 5.30919C6.12341 5.30219 6.02473 5.37483 6.00375 5.46947C5.98258 5.56412 6.03052 5.66056 6.11862 5.70058C6.34014 5.80142 6.52113 5.92129 6.65636 6.05675C6.6949 6.09518 6.74685 6.11658 6.80098 6.11658C6.80518 6.11658 6.80957 6.11639 6.81397 6.11618C7.82231 6.05215 9.00005 5.7494 9.00005 5.10688V5.04506C9.00003 4.97342 8.96267 4.90678 8.90137 4.86977Z" fill="#FF0202" />
      <path d="M1.71067 5.65792C1.73623 5.65792 1.76181 5.65312 1.78597 5.64351C2.14633 5.50084 2.58577 5.40259 3.09235 5.35158C3.20021 5.34078 3.27732 5.2043 3.27272 5.09584C3.27272 5.03981 3.24974 4.98619 3.20919 4.94757C3.16884 4.90895 3.1129 4.88834 3.05837 4.89114C2.92513 4.89754 2.79189 4.90193 2.65906 4.90193C1.68827 4.90193 0.850309 4.74266 0.299397 4.45371C0.236078 4.4205 0.159565 4.42311 0.0986421 4.45991C0.0373551 4.49693 0 4.56355 0 4.63519V4.69702C0 5.14984 0.628824 5.50842 1.6823 5.6559C1.6917 5.6573 1.70129 5.65792 1.71067 5.65792Z" fill="#FF0202" />
    </g>
  </symbol>

  <symbol viewBox="0 0 94 94" id="iconSiteCard1">
    <path d="M41.057 85.074C37.0815 84.0848 29.0752 81.0624 25.8728 79.3038C13.118 72.2148 4.06274 56.8276 4.06274 42.2098C4.06274 30.9442 9.58427 18.9093 18.5844 10.5562C25.928 3.74192 33.7685 0.499623 44.4251 0.0599898C57.6767 -0.544506 68.2781 3.41219 77.2781 12.2598C81.8058 16.7111 85.1187 21.9867 87.2169 28.1965C89.2046 34.1315 89.7568 45.8368 88.266 52.4313C85.5604 64.741 77.3886 75.0724 66.1247 80.4579C58.1737 84.2497 46.6337 86.3929 41.057 85.074ZM54.2534 75.9516C64.7443 73.4237 73.5235 66.6094 77.9959 57.597C84.8426 43.6936 82.5236 29.1307 71.7566 18.4147C57.7872 4.62118 35.9772 4.29146 22.5046 17.7003C19.3574 20.7777 18.0322 22.6461 16.0445 26.8226C11.6272 35.8901 10.799 42.2098 12.8972 49.7935C16.6518 63.2572 25.0445 72.3247 36.9158 75.7868C41.2226 77.0507 49.4497 77.1057 54.2534 75.9516Z" fill="#FF0000" />
    <path d="M31.0077 62.1581C30.5107 62.0482 29.6825 61.3338 29.2408 60.6194C28.0813 58.8059 29.0199 57.2122 31.6703 56.4978C34.2102 55.7834 59.4987 55.7834 62.0386 56.4978C64.689 57.2122 65.6276 58.8059 64.5233 60.5644C64.0264 61.2788 63.0877 62.0482 62.4251 62.213C61.0448 62.5977 32.4433 62.5428 31.0077 62.1581Z" fill="#FF0000" />
    <path d="M31.339 52.9808C29.5722 52.2115 29.2409 51.607 27.2531 45.1224C26.4801 42.6494 25.3206 40.3414 24.1611 38.9675C22.1181 36.6045 21.6212 33.8018 23.1672 33.1973C26.0384 32.0982 29.9587 33.4171 33.7133 36.7144C36.198 38.8576 36.3084 38.9126 37.3575 37.9783C39.0692 36.4396 41.6091 30.8343 42.4373 26.8776C43.2655 22.9759 44.5907 21.3272 46.9097 21.3272C48.7871 21.3272 50.4435 23.1957 50.4435 25.3389C50.4435 27.4821 52.873 32.7577 55.689 36.6045L57.7319 39.4621L61.5418 35.945C71.3149 26.9875 72.8609 32.8127 65.186 49.5187L63.1982 53.7502H48.1245C36.7501 53.6952 32.609 53.5304 31.339 52.9808Z" fill="#FF0000" />
  </symbol>

  <symbol viewBox="0 0 93 94" id="iconSiteCard2">
    <path d="M36.677 84.076C-2.62391 75.1701 -7.65078 20.8214 29.5937 4.1514C40.7899 -1.10078 51.0722 -1.32914 62.2684 3.23798C79.4054 10.5454 88.3167 23.79 88.7737 42.0585C89.0022 69.4612 63.6393 90.0132 36.677 84.076ZM64.5533 72.8865C86.0317 59.6419 86.7172 26.3019 65.4673 13.0573C41.4754 -1.78585 11.3142 15.5692 11.7712 43.8853C12.2282 69.9179 42.1609 86.3595 64.5533 72.8865Z" fill="#FF0000" />
    <path d="M34.6203 63.2956C34.1633 61.6971 35.0773 58.5001 37.1338 56.2165C39.8757 53.0196 40.1042 51.1927 38.0477 46.6256C36.4483 43.4286 33.9348 40.9167 32.5639 41.1451C26.166 41.8301 23.8811 40.6883 23.8811 36.5779C23.8811 30.184 27.994 28.3571 32.7924 32.6959C38.5047 37.9481 49.9294 33.8377 47.873 27.4437C46.502 22.8766 51.9859 16.9393 55.8703 19.2229C58.8407 21.0497 58.8407 27.9004 55.8703 30.869C54.2708 32.4675 54.0423 35.2078 55.6418 39.3182C57.2412 43.657 59.0692 44.7987 62.4966 43.8853C67.9804 42.5152 71.6363 48.9092 67.7519 52.7912C65.6955 54.8464 63.6391 54.618 59.5262 52.5628C53.5853 49.3659 43.9886 52.5628 44.6741 57.5867C45.3595 63.7523 44.2171 66.0358 40.1042 66.0358C37.5907 66.0358 35.3058 64.6657 34.6203 63.2956Z" fill="#FF0000" />
  </symbol>

  <symbol viewBox="0 0 94 94" id="iconSiteCard3">
    <path d="M36.8577 81.7734C24.3805 79.0578 12.5132 68.6387 7.35599 56.0027C4.41691 48.6872 3.64055 40.0416 5.30418 32.5597C7.13417 24.1912 13.8996 13.0516 19.7778 8.72878C23.8259 5.79148 31.0904 2.29996 35.8595 1.08071C41.5158 -0.360235 49.9449 -0.360235 55.5458 1.08071C70.9621 5.01559 83.5502 18.0949 86.7111 33.3911C90.5374 51.8462 80.0011 71.2435 61.8121 79.2241C54.714 82.3831 44.344 83.4361 36.8577 81.7734ZM54.6031 76.7856C62.6439 74.735 70.6848 69.5254 75.2321 63.54C80.3893 56.6124 82.3302 50.6823 82.3302 41.8704C82.2748 31.3959 78.7811 22.8611 71.5166 15.4901C66.9139 10.7794 60.9248 7.4541 54.3258 5.79148C48.9467 4.46138 38.6877 4.96016 33.6968 6.78905C28.0404 8.89504 23.9923 11.4998 19.6668 15.8781C4.13964 31.3959 6.52417 57.7762 24.6577 70.6893C28.6504 73.5712 33.2531 75.6771 37.634 76.7856C41.904 77.7831 50.5549 77.7831 54.6031 76.7856Z" fill="#FF0000" />
    <path d="M43.9557 59.0508C42.9575 58.6075 42.1257 57.9979 42.1257 57.6653C42.1257 56.7786 46.1739 55.0051 50.3884 54.0076C55.102 52.9546 57.7084 51.1257 56.7657 49.5185C56.4329 48.9643 54.7139 47.8004 52.8839 46.8583C50.2775 45.5282 49.5012 44.8077 48.8357 43.1451C47.3384 39.0439 49.8893 34.1115 54.1593 32.8922C59.4275 31.3404 66.3592 31.3959 68.4665 32.9476C69.5201 33.7235 69.2429 35.8295 68.0229 35.9404C56.4329 37.1042 55.102 38.656 61.812 42.9788C64.7511 44.8631 67.0802 47.6342 67.0802 49.2968C67.0802 49.7401 66.5811 51.1811 65.9711 52.4558C63.9193 56.6678 58.2629 59.328 50.4439 59.6605C47.0612 59.8267 45.2312 59.6051 43.9557 59.0508Z" fill="#FF0000" />
    <path d="M29.1496 49.186C27.9296 47.9667 27.8187 47.2462 27.486 40.7066C27.0424 32.0055 26.3215 28.1815 24.8797 26.8514C23.3824 25.4658 24.3806 24.967 28.706 24.967C33.6969 24.967 34.0851 25.5212 34.5841 33.3356C34.806 36.7717 35.0832 39.7644 35.2496 39.8753C35.8041 40.4295 38.2441 37.3813 39.3532 34.7765C40.2959 32.6151 40.5177 31.285 40.2959 29.2899C39.8523 25.5212 40.5732 24.967 46.0632 24.967C48.4477 24.967 50.4441 25.1333 50.4441 25.2996C50.4441 26.1863 41.4605 43.8101 39.9632 45.9161C36.636 50.4052 31.8114 51.8462 29.1496 49.186Z" fill="#FF0000" />
  </symbol>

  <symbol viewBox="0 0 93 93" id="iconSiteCard4">
    <path d="M34.8116 82.8896C15.7504 77.4469 4.63135 62.4792 4.63135 42.7492C4.63135 22.112 15.9773 6.69083 35.2654 1.47484C71.7994 -8.27679 102.207 32.3172 82.4646 64.7471C73.3879 79.4879 51.6036 87.8788 34.8116 82.8896ZM71.3456 65.6542C90.6337 45.2438 78.8339 10.5461 51.8305 8.2783C37.0808 7.14439 32.3155 8.50509 23.2387 16.896C7.5813 31.6369 7.12746 51.3669 22.1041 66.3345C31.8617 75.8594 33.4501 76.5397 49.3344 75.8594C61.5881 75.179 63.4034 74.2719 71.3456 65.6542Z" fill="#FF0000" />
    <path d="M27.7771 66.7881C12.1197 56.3562 10.5312 34.5851 24.6002 20.5246C33.4501 11.6801 43.8883 10.0926 43.8883 17.5764C43.8883 20.071 42.5268 22.112 40.7115 22.112C35.2654 22.112 25.7348 35.4922 25.7348 42.976C25.7348 52.2741 36.6269 62.9328 46.1575 62.9328C55.6881 62.9328 66.5803 52.2741 66.5803 42.976C66.5803 35.4922 57.0497 22.112 51.6036 22.112C49.7882 22.112 48.4267 20.071 48.4267 17.5764C48.4267 6.23729 68.8495 16.2157 74.7494 30.2762C78.8339 40.2546 78.8339 45.6974 74.0686 55.449C66.3533 71.7773 43.4345 77.4469 27.7771 66.7881Z" fill="#FF0000" />
  </symbol>

  <symbol viewBox="0 0 93 92" id="iconSiteCard5">
    <path d="M34.881 82.5612C15.8953 77.14 4.82031 62.2316 4.82031 42.5798C4.82031 22.0244 16.1213 6.66431 35.333 1.46899C71.7222 -8.24399 102.009 32.1891 82.3452 64.4905C73.3044 79.1729 51.6064 87.5306 34.881 82.5612ZM71.2702 65.394C76.6947 59.7469 80.311 53.6481 80.537 49.8081C82.1191 20.2173 68.3319 6.43843 38.7233 8.01962C29.6825 8.69727 14.7652 23.1538 12.279 33.9962C10.2448 43.2574 13.8611 60.6505 17.9295 62.0058C19.2856 62.4575 26.7442 56.1328 34.881 48.001C45.0519 37.8362 48.2161 33.3186 45.2779 33.3186C37.1412 33.3186 43.4697 27.6715 52.5105 26.9938L62.0034 26.3162V36.4809C62.0034 44.161 61.0993 46.8716 58.6131 46.8716C56.8049 46.8716 55.2228 45.0645 55.2228 43.0316C55.2228 40.321 50.2503 43.9351 40.5315 53.6481C32.3947 61.554 25.8402 69.0082 25.8402 70.1376C25.8402 73.7517 36.4631 76.2364 49.3462 75.5588C61.5513 74.8811 63.3595 73.9776 71.2702 65.394Z" fill="#FF0000" />
  </symbol>

</svg>