<svg xmlns="http://www.w3.org/2000/svg" width="37" height="37" viewBox="0 0 37 37"><g><g><path fill="#8ed3a9" d="M19.675 26.53a1.125 1.125 0 0 1 0 2.25H9.581c-.313 0-.597-.13-.8-.339a1.002 1.002 0 0 1-.356-.786V17.53a1.125 1.125 0 0 1 2.25 0l-.036 7.397 7.234-7.234 1.577 1.577.402-.403.014.014-7.649 7.649zm-1.4-9.24l1.577 1.577 7.234-7.234-.036 7.397a1.125 1.125 0 0 0 2.25 0V8.905c0-.333-.137-.602-.356-.788a1.117 1.117 0 0 0-.8-.337H18.05a1.125 1.125 0 0 0 0 2.25h7.458l-7.65 7.649.015.014zM32.3.28a4.5 4.5 0 0 1 4.5 4.5v27a4.5 4.5 0 0 1-4.5 4.5h-27a4.5 4.5 0 0 1-4.5-4.5v-27A4.5 4.5 0 0 1 5.3.28zm2.25 4.5a2.25 2.25 0 0 0-2.25-2.25h-27a2.25 2.25 0 0 0-2.25 2.25v27a2.25 2.25 0 0 0 2.25 2.25h27a2.25 2.25 0 0 0 2.25-2.25z"/></g></g></svg>