<svg xmlns="http://www.w3.org/2000/svg" width="48" height="60" viewBox="0 0 48 60"><g><g><path fill="#8ed3aa" d="M.262 1.912A1.758 1.758 0 0 1 1.76.55c7.255-.907 13.957-.693 19.92.634 7.593 1.691 14.102 5.207 19.348 10.452 8.18 8.189 8.18 21.513 0 29.702-.79.79-1.632 1.506-2.517 2.151v14.752a1.758 1.758 0 0 1-3.516 0V45.558a20.958 20.958 0 0 1-8.822 1.929c-5.614 0-10.887-2.184-14.847-6.148-6.192-6.191-4.91-14.721-4.488-19.509.644-7.308 1.2-13.62-5.8-18.05a1.758 1.758 0 0 1-.776-1.868zm38.28 12.21c-6.192-6.19-14.237-9.684-24.01-10.45 4.192 2.043 8.242 5.021 11.78 8.755a44.374 44.374 0 0 1 12.016 26.635c7.005-6.775 7.113-18.033.214-24.94zM10.34 22.14c-.552 6.259-1.073 12.17 3.472 16.715a17.354 17.354 0 0 0 12.361 5.117c3.14 0 6.153-.821 8.793-2.36-.361-10.027-4.306-19.482-11.207-26.767-3.17-3.346-6.884-6.11-10.74-7.992a29.269 29.269 0 0 0-5.638-2.09c1.381 1.77 2.317 3.794 2.828 6.103.804 3.638.462 7.52.131 11.274z"/></g></g></svg>