<svg xmlns="http://www.w3.org/2000/svg" width="72" height="72" viewBox="0 0 72 72"><g><g><path fill="#8ed3aa" d="M70.14 57.09a1.172 1.172 0 0 1 1.172 1.172V69.98a1.172 1.172 0 0 1-1.171 1.172H2.17A1.172 1.172 0 0 1 1 69.98V58.26a1.172 1.172 0 0 1 1.172-1.171h12.192a8.147 8.147 0 0 0 5.319-1.96c3.468-2.987 9.124-4.842 15.301-5.05v-2.432a10.562 10.562 0 0 1-9.375-10.48v-4.687a1.172 1.172 0 0 1 1.172-1.172 10.528 10.528 0 0 1 8.203 3.929V28.92a15.255 15.255 0 0 1-14.062-15.19V6.699a1.172 1.172 0 0 1 1.172-1.171 15.243 15.243 0 0 1 13.178 7.598A15.26 15.26 0 0 1 50.219.84a1.172 1.172 0 0 1 1.172 1.172v7.031a15.254 15.254 0 0 1-14.063 15.19v6.316a10.53 10.53 0 0 1 8.203-3.928 1.172 1.172 0 0 1 1.172 1.172v4.688a10.562 10.562 0 0 1-9.375 10.48v7.118c6.177.21 11.833 2.064 15.301 5.051a8.147 8.147 0 0 0 5.32 1.96zM37.329 19.235l4.884-7.326a1.172 1.172 0 1 1 1.95 1.3l-.001.002-.003.005-5.671 8.506a12.912 12.912 0 0 0 10.56-12.679V3.236a12.908 12.908 0 0 0-11.719 12.838zm0 18.75l2.541-3.81a1.172 1.172 0 1 1 1.95 1.3l-.001.002-.003.004-3.223 4.834a8.218 8.218 0 0 0 5.767-7.834v-3.432a8.216 8.216 0 0 0-7.03 8.12zM28.15 17.896a1.171 1.171 0 1 1 1.95-1.3l4.884 7.327v-3.161A12.908 12.908 0 0 0 23.266 7.924v5.807a12.912 12.912 0 0 0 10.56 12.678l-5.671-8.506-.003-.004-.002-.003zm2.344 22.266a1.172 1.172 0 1 1 1.95-1.3l2.54 3.81v-.816a8.216 8.216 0 0 0-7.03-8.12v3.432a8.217 8.217 0 0 0 5.767 7.834l-3.223-4.833-.003-.005-.001-.002zm38.475 19.272h-11.02a10.492 10.492 0 0 1-6.849-2.528c-3.063-2.638-8.149-4.281-13.772-4.482v3.009l2 2a1.172 1.172 0 0 1 .344.829v2.344h1.172c.253 0 .499.082.701.234l4.688 3.516a1.169 1.169 0 0 1-.537 2.096 1.17 1.17 0 0 1-.868-.222l-4.375-3.28H38.5a1.172 1.172 0 0 1-1.172-1.172v-3.03l-1.172-1.173-1.515 1.516a1.173 1.173 0 0 1-.829.343h-1.171v3.515a1.172 1.172 0 1 1-2.344 0v-4.687a1.172 1.172 0 0 1 1.172-1.172h1.858l1.657-1.657v-3.01c-5.623.202-10.71 1.845-13.772 4.483a10.492 10.492 0 0 1-6.849 2.528H3.343v9.375H68.97z"/><path fill="none" stroke="#8ed3aa" stroke-miterlimit="20" d="M70.14 57.09a1.172 1.172 0 0 1 1.172 1.172V69.98a1.172 1.172 0 0 1-1.171 1.172H2.17A1.172 1.172 0 0 1 1 69.98V58.26a1.172 1.172 0 0 1 1.172-1.171h12.192a8.147 8.147 0 0 0 5.319-1.96c3.468-2.987 9.124-4.842 15.301-5.05v-2.432a10.562 10.562 0 0 1-9.375-10.48v-4.687a1.172 1.172 0 0 1 1.172-1.172 10.528 10.528 0 0 1 8.203 3.929V28.92a15.255 15.255 0 0 1-14.062-15.19V6.699a1.172 1.172 0 0 1 1.172-1.171 15.243 15.243 0 0 1 13.178 7.598A15.26 15.26 0 0 1 50.219.84a1.172 1.172 0 0 1 1.172 1.172v7.031a15.254 15.254 0 0 1-14.063 15.19v6.316a10.53 10.53 0 0 1 8.203-3.928 1.172 1.172 0 0 1 1.172 1.172v4.688a10.562 10.562 0 0 1-9.375 10.48v7.118c6.177.21 11.833 2.064 15.301 5.051a8.147 8.147 0 0 0 5.32 1.96zM37.329 19.235l4.884-7.326a1.172 1.172 0 1 1 1.95 1.3l-.001.002-.003.005-5.671 8.506a12.912 12.912 0 0 0 10.56-12.679V3.236a12.908 12.908 0 0 0-11.719 12.838zm0 18.75l2.541-3.81a1.172 1.172 0 1 1 1.95 1.3l-.001.002-.003.004-3.223 4.834a8.218 8.218 0 0 0 5.767-7.834v-3.432a8.216 8.216 0 0 0-7.03 8.12zM28.15 17.896a1.171 1.171 0 1 1 1.95-1.3l4.884 7.327v-3.161A12.908 12.908 0 0 0 23.266 7.924v5.807a12.912 12.912 0 0 0 10.56 12.678l-5.671-8.506-.003-.004-.002-.003zm2.344 22.266a1.172 1.172 0 1 1 1.95-1.3l2.54 3.81v-.816a8.216 8.216 0 0 0-7.03-8.12v3.432a8.217 8.217 0 0 0 5.767 7.834l-3.223-4.833-.003-.005-.001-.002zm38.475 19.272h-11.02a10.492 10.492 0 0 1-6.849-2.528c-3.063-2.638-8.149-4.281-13.772-4.482v3.009l2 2a1.172 1.172 0 0 1 .344.829v2.344h1.172c.253 0 .499.082.701.234l4.688 3.516v0a1.169 1.169 0 0 1-.537 2.096 1.17 1.17 0 0 1-.868-.222v0l-4.375-3.28H38.5a1.172 1.172 0 0 1-1.172-1.172v-3.03l-1.172-1.173-1.515 1.516a1.173 1.173 0 0 1-.829.343h-1.171v3.515a1.172 1.172 0 1 1-2.344 0v-4.687a1.172 1.172 0 0 1 1.172-1.172h1.858l1.657-1.657v-3.01c-5.623.202-10.71 1.845-13.772 4.483a10.492 10.492 0 0 1-6.849 2.528H3.343v9.375H68.97z"/></g></g></svg>