<svg xmlns="http://www.w3.org/2000/svg" width="44" height="33" viewBox="0 0 44 33"><g><g><path fill="#8ed3aa" d="M31.793 24.094c0-.072.016-.143.045-.208l6.95-15.209a.5.5 0 0 1 .207-.226l1.031-.59a.5.5 0 0 0 .082-.81l-.915-.8a.5.5 0 0 0-.577-.058l-6.075 3.47a.5.5 0 0 1-.748-.435v-.415a.5.5 0 0 1 .263-.44l4.533-2.441.725-.392a.5.5 0 0 0 .25-.33l.219-.962a.5.5 0 0 1 .817-.266l3.958 3.465a.5.5 0 0 1-.176.852l-2.284.738h-.002a.001.001 0 0 0-.003 0L32.748 25.11c-.223.489-.955.33-.955-.208z"/><path fill="none" stroke="#8ed3aa" stroke-miterlimit="20" d="M31.793 24.094c0-.072.016-.143.045-.208l6.95-15.209a.5.5 0 0 1 .207-.226l1.031-.59a.5.5 0 0 0 .082-.81l-.915-.8a.5.5 0 0 0-.577-.058l-6.075 3.47a.5.5 0 0 1-.748-.435v-.415a.5.5 0 0 1 .263-.44l4.533-2.441v0l.725-.392a.5.5 0 0 0 .25-.33l.219-.962a.5.5 0 0 1 .817-.266l3.958 3.465a.5.5 0 0 1-.176.852l-2.284.738h-.002v0a.001.001 0 0 0-.003 0h0v0L32.748 25.11c-.223.489-.955.33-.955-.208z"/></g><g><path fill="#8ed3aa" d="M9.802 10.364v1.27c-.974.556-1.769 1.294-2.317 2.153a5.143 5.143 0 0 0-.836 2.778c0 .968.287 1.921.836 2.78.548.858 1.343 1.596 2.317 2.152v1.27c-1.357-.617-2.488-1.516-3.275-2.606-.787-1.09-1.202-2.332-1.202-3.596 0-1.264.415-2.505 1.202-3.595.787-1.09 1.918-1.99 3.275-2.606z"/><path fill="none" stroke="#8ed3aa" stroke-miterlimit="20" d="M9.802 10.364v1.27c-.974.556-1.769 1.294-2.317 2.153a5.143 5.143 0 0 0-.836 2.778c0 .968.287 1.921.836 2.78.548.858 1.343 1.596 2.317 2.152v1.27c-1.357-.617-2.488-1.516-3.275-2.606-.787-1.09-1.202-2.332-1.202-3.596 0-1.264.415-2.505 1.202-3.595.787-1.09 1.918-1.99 3.275-2.606z"/></g><g/><g><path fill="#8ed3aa" d="M9.802 6.407v1.14c-2.24.702-4.166 1.94-5.525 3.55-1.358 1.609-2.085 3.515-2.085 5.467 0 1.952.727 3.859 2.085 5.468 1.359 1.61 3.285 2.847 5.525 3.549v1.14c-2.604-.724-4.865-2.093-6.466-3.914-1.6-1.821-2.46-4.004-2.46-6.242 0-2.239.86-4.421 2.46-6.242 1.601-1.821 3.862-3.19 6.466-3.915z"/><path fill="none" stroke="#8ed3aa" stroke-miterlimit="20" d="M9.802 6.407v1.14c-2.24.702-4.166 1.94-5.525 3.55-1.358 1.609-2.085 3.515-2.085 5.467 0 1.952.727 3.859 2.085 5.468 1.359 1.61 3.285 2.847 5.525 3.549v1.14c-2.604-.724-4.865-2.093-6.466-3.914-1.6-1.821-2.46-4.004-2.46-6.242 0-2.239.86-4.421 2.46-6.242 1.601-1.821 3.862-3.19 6.466-3.915z"/></g><g><path fill="#8ed3aa" d="M29.986.726a2.647 2.647 0 0 1 2.647 2.647V29.18a2.647 2.647 0 0 1-2.647 2.647H12.449a2.647 2.647 0 0 1-2.647-2.647V3.373A2.647 2.647 0 0 1 12.45.726zM11.126 29.18a1.324 1.324 0 0 0 1.323 1.324h17.537a1.324 1.324 0 0 0 1.324-1.324V3.373a1.324 1.324 0 0 0-1.324-1.324H12.449a1.324 1.324 0 0 0-1.323 1.324z"/><path fill="none" stroke="#8ed3aa" stroke-miterlimit="20" d="M29.986.726a2.647 2.647 0 0 1 2.647 2.647V29.18a2.647 2.647 0 0 1-2.647 2.647H12.449a2.647 2.647 0 0 1-2.647-2.647V3.373A2.647 2.647 0 0 1 12.45.726zM11.126 29.18a1.324 1.324 0 0 0 1.323 1.324h17.537a1.324 1.324 0 0 0 1.324-1.324V3.373a1.324 1.324 0 0 0-1.324-1.324H12.449a1.324 1.324 0 0 0-1.323 1.324z"/></g></g></svg>