<svg xmlns="http://www.w3.org/2000/svg" width="57" height="60" viewBox="0 0 57 60"><g><g><path fill="#fcb69f" d="M55.494 8.26a2.087 2.087 0 0 1 1.502 2.004v22.774c0 19.634-25.998 26.54-27.625 26.948a1.85 1.85 0 0 1-.543.073c-.169 0-.337-.022-.5-.063C27.19 59.714.66 52.86.66 33.038V10.264A2.087 2.087 0 0 1 2.141 8.27L28.223.687a2.086 2.086 0 0 1 1.19 0zm-2.67 3.579l-23.996-6.99-23.995 6.99v21.2c0 15.262 20.49 21.803 23.995 22.773 3.505-.97 23.995-7.542 23.995-22.774z"/></g><g><path fill="#fcb69f" d="M16.34 19.64a3 3 0 0 0-3 3v2.198c0 1.205.977 2.182 2.182 2.182h.472a1.71 1.71 0 0 0 1.71-1.71c0-.944.765-1.71 1.71-1.71h1.056c2.004 0 3.343 2.064 2.526 3.894l-4.34 9.723c-.718 1.609.459 3.423 2.22 3.423.964 0 1.836-.569 2.225-1.45l7.018-15.898a2.601 2.601 0 0 0-2.38-3.652z"/></g><g><path fill="#fcb69f" d="M34.607 27.92c-.715 0-1.279-.611-1.221-1.324l.032-.392A1.588 1.588 0 0 1 35 24.744h3.786a1.552 1.552 0 1 0 0-3.104h-5.651a3 3 0 0 0-2.989 2.734l-.303 3.407a3 3 0 0 0 2.988 3.266h.89c2.96 0 3.798.86 3.798 2.173 0 1.361-1.165 2.173-3.052 2.173a8.106 8.106 0 0 1-2.943-.555c-.94-.37-2.115-.112-2.569.79-.354.704-.149 1.573.561 1.915 1.469.71 3.292 1.097 5.044 1.097 4.66 0 6.78-2.579 6.78-5.54 0-2.96-1.91-5.18-6.733-5.18z"/></g></g></svg>