<svg xmlns="http://www.w3.org/2000/svg" width="60" height="61" viewBox="0 0 60 61"><g><g><path fill="#fcb69f" d="M60.03 30.33c0 16.57-13.433 30-30 30-16.57 0-30-13.43-30-30s13.43-30 30-30c16.568 0 30 13.43 30 30zm-6.175-2.787a23.814 23.814 0 0 0-2.722-8.653m2.847 10.448c-.02-.489-.026-.98-.074-1.462m-3.347-9.934c-.21-.343-.403-.698-.627-1.032M48.8 15.397c-.087-.108-.16-.224-.251-.333m-1.547 32.238a23.934 23.934 0 0 0 7.028-16.97H34.032a4 4 0 0 1-4-4v-16c0-2.21-1.805-4.035-3.984-3.671C14.688 8.558 6.031 18.435 6.031 30.333c0 13.254 10.745 24 24 24a23.927 23.927 0 0 0 16.97-7.031z"/></g></g></svg>