<svg xmlns="http://www.w3.org/2000/svg" width="32" height="32" viewBox="0 0 32 32"><defs><clipPath id="l6lpa"><path fill="#fff" d="M16.21 16.495C8.815 15.571 2.087 9.272 2.087 1.625c7.033 0 12.924 4.843 14.545 11.373v5.256h.91V13c1.62-6.531 7.512-11.375 14.545-11.375 0 7.648-6.728 13.947-14.125 14.871v15.004h-1.75zm.747-1.746h.258c.075-.595.184-1.179.326-1.75V4.13A3.636 3.636 0 0 0 20.723.525a3.636 3.636 0 0 0-3.606 3.183h-.062A3.636 3.636 0 0 0 13.448.525a3.636 3.636 0 0 0 3.183 3.606v8.867c.142.572.251 1.156.326 1.751zM5.419 25.334A5.436 5.436 0 0 1 .66 19.943 5.436 5.436 0 0 1 6.052 24.7h.094a5.436 5.436 0 0 1 5.391-4.758 5.436 5.436 0 0 1-4.758 5.391V31.5h-1.36zm20.398 2.042a3.636 3.636 0 0 1-3.182-3.606 3.636 3.636 0 0 1 3.606 3.182h.063a3.636 3.636 0 0 1 3.606-3.182 3.636 3.636 0 0 1-3.183 3.606v4.123h-.91z"/></clipPath></defs><g><g><path fill="none" stroke="#fcb69f" stroke-miterlimit="20" stroke-width="4" d="M16.21 16.495C8.815 15.571 2.087 9.272 2.087 1.625c7.033 0 12.924 4.843 14.545 11.373v5.256h.91V13c1.62-6.531 7.512-11.375 14.545-11.375 0 7.648-6.728 13.947-14.125 14.871v15.004h-1.75zm.747-1.746h.258c.075-.595.184-1.179.326-1.75V4.13A3.636 3.636 0 0 0 20.723.525a3.636 3.636 0 0 0-3.606 3.183h-.062A3.636 3.636 0 0 0 13.448.525a3.636 3.636 0 0 0 3.183 3.606v8.867c.142.572.251 1.156.326 1.751zM5.419 25.334A5.436 5.436 0 0 1 .66 19.943 5.436 5.436 0 0 1 6.052 24.7h.094a5.436 5.436 0 0 1 5.391-4.758 5.436 5.436 0 0 1-4.758 5.391V31.5h-1.36zm20.398 2.042a3.636 3.636 0 0 1-3.182-3.606 3.636 3.636 0 0 1 3.606 3.182h.063a3.636 3.636 0 0 1 3.606-3.182 3.636 3.636 0 0 1-3.183 3.606v4.123h-.91z" clip-path="url(&quot;#l6lpa&quot;)"/></g></g></svg>