<svg xmlns="http://www.w3.org/2000/svg" width="16" height="16" viewBox="0 0 16 16">
  <g>
    <g>
      <path fill="#5c9974" d="M11.741 8.1a3.878 3.878 0 0 1-3.871 3.87A3.86 3.86 0 0 1 3.999 8.1 3.878 3.878 0 0 1 7.87 4.229c2.117 0 3.871 1.754 3.871 3.87zm-1.391 0c0-1.361-1.12-2.48-2.48-2.48A2.491 2.491 0 0 0 5.39 8.1c0 1.36 1.12 2.48 2.48 2.48 1.36 0 2.48-1.12 2.48-2.48zm.665-3.962a.877.877 0 1 1 1.754 0 .877.877 0 0 1-1.754 0zm4.355.877v6.23c0 1.3-.423 2.42-1.24 3.206-.786.756-1.875 1.179-3.175 1.179h-6.17c-1.24 0-2.328-.393-3.145-1.18-.847-.816-1.27-1.935-1.27-3.235v-6.2C.37 2.384 2.124.63 4.755.63h6.23c1.27 0 2.389.423 3.175 1.24.787.786 1.21 1.875 1.21 3.145zm-1.33 0c0-.877-.303-1.633-.817-2.177-.544-.545-1.3-.817-2.208-.817h-6.23c-.907 0-1.693.272-2.207.786-.545.545-.817 1.3-.817 2.208v6.2c0 .937.272 1.693.817 2.238.544.514 1.3.786 2.207.786h6.17c.907 0 1.663-.272 2.207-.786.545-.514.877-1.27.877-2.208z" />
    </g>
  </g>
</svg>