<svg xmlns="http://www.w3.org/2000/svg" width="25" height="35" viewBox="0 0 25 35">
  <g>
    <g>
      <path fill="#fcb69f" d="M12.835 34.543l-.645-.788C11.76 33.18.79 20.347.79 12.675.79 6.007 6.24.63 12.835.63c6.597 0 12.046 5.45 12.046 12.045 0 7.672-10.97 20.578-11.4 21.08zm0-32.264C7.1 2.28 2.511 6.94 2.511 12.604c0 6.022 7.958 16.275 10.324 19.215 2.366-2.94 10.325-13.121 10.325-19.215 0-5.665-4.589-10.325-10.325-10.325zm0 14.985c-2.51 0-4.588-2.08-4.588-4.589 0-2.51 2.079-4.588 4.588-4.588 2.51 0 4.589 2.079 4.589 4.588 0 2.51-2.08 4.589-4.589 4.589z" />
    </g>
  </g>
</svg>