<svg xmlns="http://www.w3.org/2000/svg" width="11" height="11" viewBox="0 0 11 11"><g><g><path fill="#8ed3aa" d="M10.444 7.997c0 .13-.024.301-.072.511-.049.21-.1.376-.153.497-.101.242-.396.498-.885.77-.454.246-.904.37-1.349.37a2.803 2.803 0 0 1-.798-.117 5.912 5.912 0 0 1-.345-.105c-.075-.027-.209-.076-.402-.149a15.422 15.422 0 0 0-.356-.13 6.57 6.57 0 0 1-1.27-.602c-.618-.382-1.258-.904-1.918-1.564-.66-.66-1.181-1.3-1.563-1.919A6.57 6.57 0 0 1 .73 4.29 15.512 15.512 0 0 0 .6 3.935a28.652 28.652 0 0 1-.149-.402 5.914 5.914 0 0 1-.105-.345A2.798 2.798 0 0 1 .23 2.39c0-.445.123-.894.37-1.35.27-.488.527-.783.769-.884.12-.053.286-.104.497-.152.21-.049.38-.073.511-.073.068 0 .119.007.153.022.087.029.215.213.384.551.053.092.126.223.218.392.092.17.176.323.254.46.077.138.152.268.225.389l.127.181c.07.102.122.187.155.258.034.07.051.139.051.206 0 .097-.069.218-.206.363a3.536 3.536 0 0 1-.45.399c-.162.12-.312.25-.45.384-.138.136-.207.247-.207.334a.49.49 0 0 0 .036.163c.025.066.045.115.062.15.017.033.05.091.102.173l.083.138c.368.663.788 1.23 1.262 1.705A7.614 7.614 0 0 0 5.881 7.46l.138.084c.082.05.14.084.174.101.034.017.084.038.149.062a.49.49 0 0 0 .163.036c.087 0 .198-.069.334-.207.135-.138.263-.287.384-.45.121-.161.254-.311.4-.45.144-.137.265-.206.362-.206.068 0 .137.017.207.05.07.035.156.087.257.157l.182.127c.12.072.25.147.388.225.138.077.291.162.46.254.17.091.3.164.392.217.339.17.522.298.551.385a.406.406 0 0 1 .022.152z"/></g></g></svg>