<svg xmlns="http://www.w3.org/2000/svg" width="20" height="20" viewBox="0 0 20 20"><g><g><path d="M19.437 8.109L8.108 19.437a1.91 1.91 0 0 1-1.36.562c-.513 0-.996-.2-1.358-.562L.56 14.609a1.924 1.924 0 0 1 0-2.718L11.892.562A1.909 1.909 0 0 1 13.25 0c.514 0 .997.199 1.359.562l4.829 4.828c.749.75.749 1.97 0 2.719zm-.906-1.813l-4.828-4.828a.639.639 0 0 0-.907 0l-.372.372 1.151 1.152a.641.641 0 0 1-.906.906l-1.151-1.152-.373.374 1.152 1.15a.641.641 0 0 1-.907.908L10.24 4.026l-.586.586 1.151 1.151a.641.641 0 0 1-.906.907L8.747 5.518l-.373.373 2.856 2.856a.64.64 0 1 1-.906.906L7.468 6.797l-.373.373L8.247 8.32a.641.641 0 0 1-.906.906L6.189 8.076l-.373.373 1.152 1.15a.641.641 0 0 1-.906.907L4.91 9.354l-.586.586 1.15 1.152a.64.64 0 0 1-.905.906l-1.152-1.151-.373.372 2.857 2.857a.64.64 0 0 1-.906.906l-2.857-2.856-.671.67a.643.643 0 0 0 0 .907l4.828 4.828a.64.64 0 0 0 .906 0l11.33-11.329a.643.643 0 0 0 0-.906z"/><path fill="#c4a17b" d="M19.437 8.109L8.108 19.437a1.91 1.91 0 0 1-1.36.562c-.513 0-.996-.2-1.358-.562L.56 14.609a1.924 1.924 0 0 1 0-2.718L11.892.562A1.909 1.909 0 0 1 13.25 0c.514 0 .997.199 1.359.562l4.829 4.828c.749.75.749 1.97 0 2.719zm-.906-1.813l-4.828-4.828a.639.639 0 0 0-.907 0l-.372.372 1.151 1.152a.641.641 0 0 1-.906.906l-1.151-1.152-.373.374 1.152 1.15a.641.641 0 0 1-.907.908L10.24 4.026l-.586.586 1.151 1.151a.641.641 0 0 1-.906.907L8.747 5.518l-.373.373 2.856 2.856a.64.64 0 1 1-.906.906L7.468 6.797l-.373.373L8.247 8.32a.641.641 0 0 1-.906.906L6.189 8.076l-.373.373 1.152 1.15a.641.641 0 0 1-.906.907L4.91 9.354l-.586.586 1.15 1.152a.64.64 0 0 1-.905.906l-1.152-1.151-.373.372 2.857 2.857a.64.64 0 0 1-.906.906l-2.857-2.856-.671.67a.643.643 0 0 0 0 .907l4.828 4.828a.64.64 0 0 0 .906 0l11.33-11.329a.643.643 0 0 0 0-.906z"/></g></g></svg>