<svg xmlns="http://www.w3.org/2000/svg" width="20" height="20" viewBox="0 0 20 20"><g><g><path d="M20 10c0 5.514-4.486 10-10 10S0 15.514 0 10C0 4.484 4.486 0 10 0s10 4.485 10 10zm-1.25 0c0-4.825-3.925-8.75-8.75-8.75S1.25 5.175 1.25 10s3.925 8.75 8.75 8.75 8.75-3.925 8.75-8.75zm-4.558 3.46a.624.624 0 1 1-.884.883L10.7 11.735c-.217.089-.453.14-.7.14a1.877 1.877 0 0 1-1.875-1.876c0-.813.524-1.5 1.25-1.759V3.124a.625.625 0 0 1 1.25 0V8.24c.726.26 1.25.946 1.25 1.76 0 .328-.092.633-.242.9zM10.625 10A.626.626 0 1 0 9.373 10 .626.626 0 0 0 10.625 10z"/><path fill="#c4a17b" d="M20 10c0 5.514-4.486 10-10 10S0 15.514 0 10C0 4.484 4.486 0 10 0s10 4.485 10 10zm-1.25 0c0-4.825-3.925-8.75-8.75-8.75S1.25 5.175 1.25 10s3.925 8.75 8.75 8.75 8.75-3.925 8.75-8.75zm-4.558 3.46a.624.624 0 1 1-.884.883L10.7 11.735c-.217.089-.453.14-.7.14a1.877 1.877 0 0 1-1.875-1.876c0-.813.524-1.5 1.25-1.759V3.124a.625.625 0 0 1 1.25 0V8.24c.726.26 1.25.946 1.25 1.76 0 .328-.092.633-.242.9zM10.625 10A.626.626 0 1 0 9.373 10 .626.626 0 0 0 10.625 10z"/></g></g></svg>