<svg xmlns="http://www.w3.org/2000/svg" width="19" height="19" viewBox="0 0 19 19"><g><g><path fill="#929292" d="M18.513 13.903a5.011 5.011 0 0 1-7.38 4.419A8.643 8.643 0 0 1 1.08 8.085a5.01 5.01 0 0 1 6.991-6.779 8.707 8.707 0 0 1 1.477-.126 8.643 8.643 0 0 1 8.444 10.496c.334.674.52 1.43.52 2.227zm-3.926-1.879c0-.592-.118-1.108-.352-1.522a2.935 2.935 0 0 0-.974-1.027c-.405-.265-.902-.49-1.478-.674a19.11 19.11 0 0 0-1.913-.502c-.551-.13-.955-.227-1.194-.297a3.59 3.59 0 0 1-.697-.267c-.219-.11-.39-.24-.514-.39a.757.757 0 0 1-.173-.503c0-.322.175-.594.535-.83.375-.242.88-.37 1.496-.37.67 0 1.156.112 1.447.333.297.229.56.553.776.961.185.319.353.543.515.69.174.147.426.228.744.228.352 0 .65-.125.885-.371.238-.244.357-.525.357-.834 0-.322-.09-.653-.269-.986-.179-.328-.462-.647-.838-.943-.38-.297-.86-.534-1.43-.716-.568-.174-1.244-.26-2.017-.26-.966 0-1.819.132-2.537.395-.728.27-1.291.66-1.679 1.166a2.811 2.811 0 0 0-.586 1.749c0 .687.19 1.267.559 1.732.366.456.867.824 1.487 1.088.604.257 1.365.486 2.264.677.66.139 1.193.272 1.587.391.376.12.685.29.922.512.223.21.33.478.33.818 0 .436-.204.786-.636 1.083-.442.299-1.03.449-1.742.449-.518 0-.94-.075-1.256-.223a1.912 1.912 0 0 1-.725-.56 4.25 4.25 0 0 1-.496-.881c-.137-.321-.307-.57-.506-.743a1.157 1.157 0 0 0-.764-.262c-.363 0-.665.111-.902.335-.239.224-.357.5-.357.815 0 .509.183 1.036.552 1.563.364.526.842.95 1.42 1.264.817.43 1.857.649 3.1.649 1.031 0 1.94-.16 2.697-.473.768-.32 1.36-.766 1.757-1.334a3.255 3.255 0 0 0 .605-1.93z"/></g></g></svg>