<svg xmlns="http://www.w3.org/2000/svg" width="18" height="19" viewBox="0 0 18 19"><g><g><path fill="#929292" d="M18.047 12.385v2.656a3.308 3.308 0 0 1-3.305 3.309H3.26a3.308 3.308 0 0 1-3.307-3.31v-2.655A3.307 3.307 0 0 1 3.26 9.078h11.482a3.307 3.307 0 0 1 3.305 3.307zM5.67 10.245H2.506v.901h1.066v5.307h1.031v-5.307H5.67zm3.017 1.628h-.916v3.477c-.086.101-.18.181-.283.247a.505.505 0 0 1-.256.096c-.084 0-.148-.023-.187-.074-.037-.049-.057-.123-.057-.232v-3.514h-.916v3.829c0 .273.056.478.162.613.108.138.267.205.479.205.172 0 .347-.047.532-.144.183-.099.358-.24.526-.427v.505h.916zm3.32 1.092c0-.373-.075-.662-.229-.857-.151-.196-.372-.29-.661-.29a.917.917 0 0 0-.424.108c-.136.074-.27.182-.392.316v-1.998h-.925v6.21h.925v-.355c.119.144.25.247.39.313.143.064.3.1.48.1.271 0 .48-.086.622-.26.145-.174.215-.422.215-.744zm3.175.139c0-.434-.11-.766-.335-.996-.226-.233-.55-.35-.968-.35-.412 0-.742.125-1.002.375s-.387.576-.387.97v2.06c0 .442.116.786.352 1.036.234.254.558.377.969.377.454 0 .8-.115 1.028-.353.23-.24.343-.59.343-1.06v-.237h-.94v.21c0 .27-.033.442-.09.522-.063.078-.168.118-.322.118-.143 0-.248-.046-.309-.14-.06-.092-.09-.26-.09-.5v-.865h1.751zm-1.037-.417c.064.08.097.217.097.409v.465h-.81v-.465c0-.192.03-.328.095-.409.063-.087.168-.128.313-.128.14 0 .244.04.305.128zm-3.175-.021c.063.078.094.195.094.348v2.367c0 .146-.027.252-.078.315-.054.064-.136.097-.247.097a.564.564 0 0 1-.22-.046.864.864 0 0 1-.218-.163v-2.856a.604.604 0 0 1 .189-.138.406.406 0 0 1 .193-.045c.123 0 .22.04.287.121zM4.762 4.779L3.38.65h1.167l.755 2.734h.074L6.094.649h1.18l-1.352 4v2.84h-1.16zm3.002 2.457c-.272-.255-.408-.597-.408-1.025V3.598c0-.395.138-.706.415-.932.278-.235.653-.351 1.12-.351.424 0 .777.125 1.05.367.27.244.407.558.407.943v2.606c0 .432-.134.77-.397 1.015-.272.247-.638.367-1.107.367-.448 0-.814-.125-1.08-.377zm.65-.927c0 .136.04.242.111.32.073.076.178.111.316.111.14 0 .252-.039.333-.113a.422.422 0 0 0 .125-.318v-2.75c0-.11-.044-.2-.127-.268a.503.503 0 0 0-.331-.102.454.454 0 0 0-.307.102.341.341 0 0 0-.12.268zm2.95 1.025c-.12-.15-.18-.372-.18-.675V2.444h1.027V6.31c0 .118.025.206.07.258.04.057.11.08.21.08.075 0 .167-.033.285-.102.115-.073.225-.163.32-.274V2.444h1.029v5.044h-1.03V6.93c-.189.205-.388.363-.595.47a1.29 1.29 0 0 1-.598.16c-.24 0-.416-.074-.539-.226z"/></g></g></svg>