<svg width="70" height="68" viewBox="0 0 70 68" fill="none" xmlns="http://www.w3.org/2000/svg">
<path fill-rule="evenodd" clip-rule="evenodd" d="M53.2757 64.3753C55.2799 63.9241 57.1563 63.1335 58.8413 62.0675L60.047 63.2734C60.6778 63.9042 61.7158 63.9042 62.3466 63.2734L65.5685 60.0512C66.1993 59.4164 66.1993 58.3822 65.5685 57.7473L64.3628 56.5454C65.4288 54.8605 66.2193 52.9839 66.6705 50.9794H68.3713C69.2655 50.9794 70.0001 50.2488 70.0001 49.3504V44.7947C70.0001 43.9003 69.2655 43.1696 68.3713 43.1696H66.6705C66.2193 41.1652 65.4288 39.2886 64.3628 37.6037L65.5685 36.3978C66.1993 35.767 66.1993 34.7329 65.5685 34.0979L62.3466 30.8757C61.7158 30.2449 60.6778 30.2449 60.047 30.8757L58.8413 32.0816C57.1565 31.0155 55.28 30.2249 53.2757 29.7738V28.0729C53.2757 27.1784 52.5451 26.4438 51.6508 26.4438H47.0953C46.1971 26.4438 45.4664 27.1786 45.4664 28.0729V29.7738C43.4623 30.2249 41.5858 31.0156 39.9009 32.0816L38.6991 30.8757C38.0643 30.2449 37.0303 30.2449 36.3954 30.8757L33.1735 34.0979C32.5427 34.7327 32.5427 35.7669 33.1735 36.3978L34.3792 37.6037C33.3132 39.2886 32.5227 41.1652 32.0715 43.1696H30.3708C29.4765 43.1696 28.7458 43.9003 28.7458 44.7947V49.3504C28.7458 50.2488 29.4765 50.9794 30.3708 50.9794H32.0715C32.5227 52.9839 33.3132 54.8605 34.3792 56.5454L33.1735 57.7473C32.5427 58.3822 32.5427 59.4162 33.1735 60.0512L36.3954 63.2734C37.0302 63.9042 38.0642 63.9042 38.6991 63.2734L39.9009 62.0675C41.5857 63.1336 43.4621 63.9241 45.4664 64.3753V66.0762C45.4664 66.9707 46.1971 67.7013 47.0953 67.7013H51.6508C52.5451 67.7013 53.2757 66.9707 53.2757 66.0762V64.3753ZM49.3711 36.5055C55.2081 36.5055 59.9393 41.237 59.9393 47.0745C59.9393 52.912 55.2082 57.6434 49.3711 57.6434C43.5341 57.6434 38.803 52.912 38.803 47.0745C38.803 41.237 43.5341 36.5055 49.3711 36.5055Z" fill="#9B3690"/>
<path fill-rule="evenodd" clip-rule="evenodd" d="M29.8119 46.3957C32.2512 45.8487 34.531 44.8865 36.5751 43.5887L38.0403 45.0541C38.8069 45.8207 40.0685 45.8207 40.835 45.0541L44.7516 41.1371C45.5181 40.3705 45.5181 39.1087 44.7516 38.3421L43.2863 36.8768C44.5839 34.8324 45.546 32.5526 46.093 30.113H48.1571C49.247 30.113 50.1373 29.2226 50.1373 28.1366V22.5985C50.1373 21.5124 49.247 20.6221 48.1571 20.6221H46.093C45.546 18.1865 44.5839 15.9067 43.2863 13.8583L44.7516 12.393C45.5181 11.6264 45.5181 10.3686 44.7516 9.59805L40.835 5.68105C40.0684 4.91446 38.8067 4.91446 38.0403 5.68105L36.5751 7.14654C34.531 5.84894 32.2512 4.89067 29.8119 4.33956V2.27524C29.8119 1.18914 28.9215 0.298828 27.8356 0.298828H22.298C21.2121 0.298828 20.3218 1.18928 20.3218 2.27524V4.33956C17.8864 4.89054 15.6066 5.8488 13.5586 7.14654L12.0932 5.68118C11.3266 4.9146 10.0691 4.9146 9.29853 5.68118L5.38194 9.59818C4.61536 10.3687 4.61536 11.6265 5.38194 12.3931L6.84716 13.8585C5.54956 15.9068 4.59143 18.1867 4.04442 20.6222H1.97627C0.890314 20.6222 0 21.5126 0 22.5987V28.1367C0 29.2228 0.890314 30.1131 1.97627 30.1131H4.04442C4.59143 32.5528 5.54956 34.8327 6.84716 36.8769L5.38181 38.3423C4.61522 39.1088 4.61522 40.3706 5.38181 41.1372L9.2984 45.0542C10.0689 45.8208 11.3266 45.8208 12.0931 45.0542L13.5583 43.5889C15.6065 44.8865 17.8861 45.8488 20.3215 46.3958V48.4602C20.3215 49.5502 21.2118 50.4405 22.2978 50.4405H27.8353C28.9213 50.4405 29.8116 49.5501 29.8116 48.4602V46.3957H29.8119Z" fill="#BAC3EE"/>
<path fill-rule="evenodd" clip-rule="evenodd" d="M24.1145 0.298828C25.7554 3.51309 27.0769 7.41396 27.9793 11.7742C42.991 14.9764 42.1367 35.9506 27.9713 38.9612C27.065 43.3253 25.7395 47.2263 24.0986 50.4405H27.8356C28.2388 50.4405 28.6182 50.3168 28.9295 50.1052C29.4605 49.7498 29.8118 49.1429 29.8118 48.4602V46.3958C32.2512 45.8488 34.531 44.8866 36.5751 43.5889L38.0403 45.0542C38.2879 45.3018 38.5913 45.4734 38.9106 45.5613C39.5774 45.741 40.316 45.5733 40.835 45.0542L44.7516 41.1372C45.5181 40.3706 45.5181 39.1088 44.7516 38.3423L44.2405 37.8312L43.2863 36.8769C44.5839 34.8325 45.546 32.5528 46.093 30.1131H48.1571C49.247 30.1131 50.1373 29.2227 50.1373 28.1367V26.4437V22.5987C50.1373 21.5126 49.247 20.6222 48.1571 20.6222H46.093C45.546 18.1866 44.5839 15.9068 43.2863 13.8585L44.7516 12.3931C45.5181 11.6265 45.5181 10.3687 44.7516 9.59818L40.835 5.68118C40.0684 4.9146 38.8067 4.9146 38.0403 5.68118L36.5749 7.14654C34.5308 5.84894 32.2511 4.89067 29.8117 4.33956V2.27524C29.8117 1.18914 28.9214 0.298828 27.8354 0.298828H24.1145Z" fill="#8795DE"/>
<path fill-rule="evenodd" clip-rule="evenodd" d="M25.0688 40.6101C33.461 40.6101 40.308 33.7623 40.308 25.3696C40.308 16.9727 33.4609 10.125 25.0688 10.125C16.6726 10.125 9.82544 16.9727 9.82544 25.3696C9.82544 33.7623 16.6726 40.6101 25.0688 40.6101Z" fill="#F8F2F0"/>
<path fill-rule="evenodd" clip-rule="evenodd" d="M25.0688 10.125C33.4849 10.125 40.308 16.9486 40.308 25.3696C40.308 33.7864 33.4849 40.6101 25.0688 40.6101C23.368 40.6101 21.739 40.3306 20.2139 39.8194C26.1627 37.7432 30.4346 32.0854 30.4346 25.4254C30.4346 18.7055 26.0868 12.9998 20.0461 10.9714C21.6192 10.4244 23.3081 10.125 25.0688 10.125Z" fill="#EEE1DC"/>
<path fill-rule="evenodd" clip-rule="evenodd" d="M17.6849 19.5723C17.6849 24.0524 17.2536 26.6148 16.2883 28.3909C17.3132 29.5345 17.5191 30.0962 18.2058 30.8709C18.8924 31.6455 20.8643 33.2477 25.2836 33.5999C28.4832 33.8548 31.5119 32.0865 31.8508 31.9448C32.1896 31.8032 33.3135 31.1423 34.1572 30.6068C34.8686 30.1552 35.3476 30.1402 34.678 29.0869C34.6513 29.0458 34.6226 29.0027 34.5938 28.9596C33.3759 27.1651 32.8419 24.5513 32.8419 19.5538C32.7968 18.8291 32.7228 18.1146 32.5585 17.4246C31.0572 11.1028 22.3905 10.737 20.5298 14.3158C20.6777 14.2932 20.001 14.4196 20.5298 14.3158C19.0551 14.5518 17.6849 16.7799 17.6849 19.5723Z" fill="#6D80AA"/>
<path fill-rule="evenodd" clip-rule="evenodd" d="M21.0365 28.0566C17.6229 29.6018 15.2354 33.0436 15.2354 37.0165C17.8903 39.2605 21.3199 40.61 25.0689 40.61C28.8139 40.61 32.2433 39.2565 34.8984 37.0165C34.8984 33.0437 32.5109 29.6018 29.1014 28.0566H21.0365Z" fill="#CC193B"/>
<path fill-rule="evenodd" clip-rule="evenodd" d="M23.4973 12.2712C26.5164 12.1419 30.0448 13.7947 30.967 17.6732C31.1313 18.3631 31.2052 19.0777 31.2503 19.8024C31.2503 24.7999 31.7843 27.4137 33.0023 29.2082C33.031 29.2513 33.0598 29.2945 33.0865 29.3355C33.6472 30.2184 32.6005 31.6396 32.085 31.7546C31.9429 31.9891 33.0412 31.1873 33.0865 31.2386C33.4253 31.097 33.8082 30.9026 34.1855 30.6014C34.8694 30.4659 35.3477 30.1404 34.6782 29.087C34.6515 29.0459 34.6227 29.0029 34.594 28.9597C33.3761 27.1652 32.8421 24.5515 32.8421 19.554C32.7969 18.8292 32.7229 18.1147 32.5587 17.4248C31.4681 12.8338 26.7259 11.3617 23.4973 12.2712Z" fill="#49679B"/>
<path d="M24.9802 29.5038C28.2407 29.5038 30.9004 26.8623 30.9004 23.5836V20.6235C30.9004 17.3539 28.2498 14.7034 24.9802 14.7034C21.7197 14.7034 19.0601 17.3449 19.0601 20.6235V23.5836C19.0601 26.8532 21.7106 29.5038 24.9802 29.5038Z" fill="#FFDFBA"/>
<mask id="mask0" mask-type="alpha" maskUnits="userSpaceOnUse" x="19" y="14" width="12" height="16">
<path d="M24.9802 29.5033C28.2407 29.5033 30.9004 26.8618 30.9004 23.5831V20.623C30.9004 17.3534 28.2498 14.7029 24.9802 14.7029C21.7197 14.7029 19.0601 17.3444 19.0601 20.623V23.5831C19.0601 26.8527 21.7106 29.5033 24.9802 29.5033Z" fill="#FFDFBA"/>
</mask>
<g mask="url(#mask0)">
<path d="M24.4077 28.2667C27.6682 28.2667 30.3279 25.6252 30.3279 22.3466V19.3865C30.3279 16.1169 27.6773 13.4663 24.4077 13.4663C21.1472 13.4663 18.4876 16.1078 18.4876 19.3865V22.3466C18.4876 25.6162 21.1381 28.2667 24.4077 28.2667Z" fill="#FFEBD2"/>
</g>
<mask id="mask1" mask-type="alpha" maskUnits="userSpaceOnUse" x="18" y="14" width="14" height="13">
<rect x="19.2847" y="13.9866" width="12.4636" height="11.3837" rx="5.69183" transform="rotate(6.1773 19.2847 13.9866)" fill="#C4C4C4"/>
</mask>
<g mask="url(#mask1)">
<path fill-rule="evenodd" clip-rule="evenodd" d="M34.3994 17.3464C37.1229 13.965 39.0062 12.2932 40.8144 11.5395C40.7361 10.0533 40.1316 9.56639 39.5888 9.00913L29.6135 -0.313028C29.2716 -0.412107 28.9289 -0.557837 28.5507 -0.757693C27.9521 -1.07118 27.4927 -1.36709 27.3577 -0.165058C27.3529 -0.117797 27.3485 -0.0678198 27.3439 -0.017788C27.1722 2.07701 25.9864 4.37437 22.9484 8.14627C22.5418 8.72076 22.1634 9.30499 21.8679 9.92557C19.158 15.6097 27.362 21.5778 30.942 20.0079C31.092 19.9422 31.1655 19.4923 31.033 19.2241C32.2895 19.9424 32.7019 19.454 34.3994 17.3464Z" fill="#6D80AA"/>
<path fill-rule="evenodd" clip-rule="evenodd" d="M13.7493 5.51602C9.59085 6.76441 7.09219 7.07811 5.1747 6.67705C4.39873 7.94703 4.62191 8.69047 4.7544 9.45703L7.70895 22.7867C7.93487 23.0617 8.13508 23.3757 8.334 23.7545C8.65034 24.3515 8.86184 24.8553 9.65299 23.9404C9.68369 23.9041 9.71565 23.8654 9.74767 23.8267C11.074 22.1962 13.3513 20.9722 17.9899 19.5797C18.6501 19.3358 19.2927 19.068 19.8873 18.7233C25.3369 15.5682 21.9462 6.00635 18.1059 5.27644C17.945 5.24575 17.63 5.57526 17.5875 5.8713C16.9575 4.56834 16.3412 4.7379 13.7493 5.51602Z" fill="#6D80AA"/>
</g>
<path fill-rule="evenodd" clip-rule="evenodd" d="M26.7935 29.2425C29.5482 31.2589 31.4128 35.6949 31.4966 39.1925C32.7302 38.6176 33.8721 37.8829 34.8982 37.0165C34.8982 33.0437 32.5106 29.6018 29.1011 28.0566C28.4304 28.5957 27.6478 29.007 26.7935 29.2425Z" fill="#BB0E2F"/>
<path fill-rule="evenodd" clip-rule="evenodd" d="M56.1304 38.9491C58.458 40.8896 59.9392 43.8084 59.9392 47.0744C59.9392 52.0015 56.5656 56.146 51.9982 57.312C50.7286 61.177 49.2713 64.6787 47.6982 67.7012H51.6508C52.5451 67.7012 53.2757 66.9706 53.2757 66.0762V64.3753C55.2799 63.9241 57.1563 63.1335 58.8413 62.0675L60.047 63.2733C60.6778 63.9041 61.7158 63.9041 62.3466 63.2733L65.5685 60.0511C66.1993 59.4163 66.1993 58.3822 65.5685 57.7473L64.3628 56.5454C65.4288 54.8605 66.2193 52.9838 66.6705 50.9794H68.3712C69.2655 50.9794 70.0001 50.2488 70.0001 49.3504V44.7947C70.0001 43.9002 69.2655 43.1696 68.3712 43.1696H66.6705C66.2193 41.1652 65.4288 39.2886 64.3628 37.6036L65.5685 36.3978C66.1993 35.767 66.1993 34.7328 65.5685 34.0979L62.3466 30.8757C61.7158 30.2449 60.6778 30.2449 60.047 30.8757L58.8413 32.0816C58.2144 31.6823 57.5636 31.3229 56.8849 31.0075C56.7412 33.5827 56.4897 36.2419 56.1304 38.9491Z" fill="#6F0267"/>
</svg>
