<svg width="70" height="70" viewBox="0 0 70 70" fill="none" xmlns="http://www.w3.org/2000/svg">
<g clip-path="url(#clip0)">
<path fill-rule="evenodd" clip-rule="evenodd" d="M47.5256 41.1144C47.5256 46.3528 47.0213 49.349 45.8927 51.4256C47.091 52.7629 47.3318 53.4195 48.1347 54.3254C48.9376 55.2312 51.2433 57.1045 56.4105 57.5163C60.1516 57.8144 63.6931 55.7468 64.0893 55.5811C64.4855 55.4155 65.7996 54.6428 66.7861 54.0166C67.6179 53.4886 68.178 53.4711 67.3951 52.2395C67.3639 52.1914 67.3302 52.1411 67.2966 52.0906C65.8726 49.9923 65.2482 46.9362 65.2482 41.0928C65.1954 40.2453 65.1089 39.4099 64.9168 38.6032C63.1614 31.2113 53.3084 30.7335 51.1327 34.9181C51.0414 35.0933 50.8781 35.0885 50.7052 35.1149C48.981 35.391 47.5256 37.8493 47.5256 41.1144Z" fill="#6D80AA"/>
<path fill-rule="evenodd" clip-rule="evenodd" d="M54.3216 32.5773C57.8517 32.4261 61.9773 34.3587 63.0556 38.8937C63.2477 39.7003 63.3341 40.5358 63.3869 41.3833C63.3869 47.2267 64.0113 50.2829 65.4354 52.3811C65.469 52.4315 65.5026 52.4819 65.5338 52.5299C66.1894 53.5622 64.9657 55.224 64.3629 55.3584C64.1967 55.6326 65.481 54.6951 65.5338 54.7552C65.9301 54.5895 66.3777 54.3623 66.8189 54.0101C67.6186 53.8517 68.1778 53.471 67.395 52.2394C67.3637 52.1913 67.3301 52.141 67.2965 52.0906C65.8725 49.9923 65.2481 46.9361 65.2481 41.0927C65.1953 40.2453 65.1088 39.4099 64.9167 38.6032C63.6415 33.2351 58.0966 31.5138 54.3216 32.5773Z" fill="#49679B"/>
<path d="M47.9882 25.1793C55.1586 14.6061 47.6663 -0.0267334 34.6111 -0.0267334C22.2636 -0.0267334 14.6089 13.2358 20.4364 23.8736L18.4592 31.1233L25.2322 29.276C30.7504 33.2185 38.1213 33.2619 43.6652 29.5021L49.6091 31.1231L47.9882 25.1793Z" fill="#ECE2E2"/>
<path d="M34.6111 27.6622C42.2572 27.6622 48.4555 21.4638 48.4555 13.8177C48.4555 6.17164 42.2572 -0.0267334 34.6111 -0.0267334C26.965 -0.0267334 20.7667 6.17164 20.7667 13.8177C20.7667 21.4638 26.965 27.6622 34.6111 27.6622Z" fill="white"/>
<path d="M20.7666 43.4648C20.7666 46.9783 20.9596 48.2874 19.9648 50.1621C18.8039 52.3541 16.4978 53.8482 13.8444 53.8482C10.0214 53.8482 6.92218 50.749 6.92218 46.9259V43.4648C6.92218 37.3008 14.397 34.2231 18.739 38.5702C19.9922 39.822 20.7666 41.5526 20.7666 43.4648Z" fill="#FFDFBA"/>
<path d="M20.7667 43.4648C20.7667 46.9783 20.9596 48.2874 19.9648 50.1621C15.4327 52.567 9.80645 49.3118 9.80645 44.0417C9.80645 40.5283 9.61352 39.2191 10.6083 37.3445C15.2146 34.9002 20.7667 38.2667 20.7667 43.4648Z" fill="#FFEBD2"/>
<path d="M27.6889 66.5389C27.6889 68.4497 21.4907 70.0001 13.8444 70.0001C6.19823 70.0001 0 68.4497 0 66.5389C0.173056 65.9054 0.0343407 66.4135 0.729672 63.8652C2.33922 57.9598 7.70462 53.8481 13.8444 53.8481C19.9793 53.8481 25.3472 57.9538 26.9592 63.8652C27.6927 66.5506 27.488 65.803 27.6889 66.5389Z" fill="#245FB8"/>
<path d="M27.5202 65.9188C22.0735 66.8685 14.244 66.749 9.35747 65.4026C7.19482 64.8067 5.90434 62.5804 6.49827 60.4041C7.13141 58.0823 8.34415 56.0388 9.95506 54.4149C17.2731 52.234 24.9518 56.5036 26.9592 63.8652L27.5202 65.9188Z" fill="#4681DB"/>
<path d="M69.2221 66.5388C69.2221 68.4496 63.0239 69.9999 55.3777 69.9999C47.7315 69.9999 41.5333 68.4496 41.5333 66.5388C41.6974 65.9374 41.5667 66.4164 42.2629 63.8651C43.989 57.5334 50.0164 53.5898 55.4671 53.8495C61.5617 53.8872 66.8876 57.9801 68.4923 63.8651C68.557 64.1015 69.1577 66.3023 69.2221 66.5388Z" fill="#BB0E2F"/>
<path d="M55.393 53.8481C59.2054 53.8481 62.3152 50.7595 62.3152 46.9259V43.4648C62.3152 39.6418 59.2161 36.5426 55.393 36.5426C51.5807 36.5426 48.4708 39.6312 48.4708 43.4648V46.9259C48.4708 50.749 51.57 53.8481 55.393 53.8481Z" fill="#FFDFBA"/>
<path d="M48.4707 43.4648C48.4707 46.9783 48.2778 48.2874 49.2726 50.1621C53.8047 52.567 59.4309 49.3118 59.4309 44.0417C59.4309 40.5283 59.6238 39.2191 58.629 37.3445C54.0228 34.9002 48.4707 38.2667 48.4707 43.4648Z" fill="#FFEBD2"/>
<mask id="mask0" mask-type="alpha" maskUnits="userSpaceOnUse" x="45" y="36" width="18" height="13">
<rect x="45.6544" y="36.1213" width="17.2047" height="12.0001" rx="6.00004" fill="#C4C4C4"/>
</mask>
<g mask="url(#mask0)">
<path fill-rule="evenodd" clip-rule="evenodd" d="M69.4226 39.0813C72.4493 34.3617 74.6997 31.9952 77.0618 30.8695C76.6005 28.8734 75.6361 28.2549 74.7418 27.538L58.5247 15.5995C58.021 15.4871 57.5051 15.3119 56.9264 15.066C56.0115 14.6807 55.2962 14.3105 55.3907 15.9371C55.3951 16.001 55.4006 16.0686 55.4061 16.1362C55.66 18.9671 54.5372 22.1329 51.161 27.3976C50.7257 28.196 50.3321 29.0058 50.0638 29.8594C47.6005 37.6785 57.4702 44.6154 62.1283 42.282C62.3235 42.1844 62.4889 42.2965 62.6822 42.3869C64.6171 43.2768 67.5361 42.023 69.4226 39.0813Z" fill="#6D80AA"/>
</g>
<path d="M69.0607 65.9462C63.7409 66.849 55.9799 66.7586 51.0601 65.4025C48.8911 64.8055 47.6076 62.5746 48.2003 60.4041C48.8162 58.1401 50.0025 56.0844 51.6571 54.4149C58.9691 52.2352 66.5212 56.6359 68.4926 63.8652L69.0607 65.9462Z" fill="#CC193B"/>
<g clip-path="url(#clip1)">
<path d="M42.3889 13.7402C42.3889 18.6402 34.2222 22.4513 34.2222 22.4513C34.2222 22.4513 29.6285 20.3076 27.3316 17.1685C26.566 16.1221 26.0555 14.9652 26.0555 13.7402C26.0555 12.2562 26.7977 10.9458 27.9312 10.1591C30.0229 8.70767 32.9581 9.35118 34.2222 11.6305C35.9483 8.51831 40.4794 8.67931 41.9819 11.8996C41.9968 11.9145 42.3889 12.7178 42.3889 13.7402Z" fill="#720066"/>
<path d="M42.0486 12.6285C42.0486 14.8743 40.1771 16.8707 38.3056 18.3055C36.0994 19.997 33.0425 20.0063 30.8346 18.3171C29.0129 16.9232 27.0764 14.9123 27.0764 12.6285C27.0764 11.6961 27.3959 10.8386 27.9312 10.1591C30.0229 8.70767 32.9581 9.35118 34.2223 11.6305C35.9453 8.52379 40.477 8.67405 41.982 11.8996C41.9852 11.9029 42.0486 12.2336 42.0486 12.6285Z" fill="#9B3690"/>
<path d="M40.5568 12.7187C40.4437 12.4401 40.1261 12.3059 39.8476 12.419C39.569 12.5322 39.4348 12.8497 39.5479 13.1283C40.184 14.695 38.0463 16.6934 36.7035 17.7312C36.2936 18.048 36.5191 18.7065 37.0368 18.7065C37.1531 18.7065 37.2702 18.6694 37.3693 18.5928C39.2275 17.1567 41.4367 14.8857 40.5568 12.7187Z" fill="#FFCED9"/>
<path d="M38.4418 12.1584C38.6524 12.2128 38.6896 12.2658 38.8499 12.2658C39.065 12.2658 39.2687 12.1375 39.3546 11.926C39.4677 11.6474 39.3335 11.3298 39.0549 11.2168C38.9442 11.1718 38.8296 11.1339 38.714 11.1041C38.4229 11.0289 38.1259 11.204 38.0508 11.4951C37.9756 11.7862 38.1506 12.0832 38.4418 12.1584Z" fill="#FFCED9"/>
</g>
<path fill-rule="evenodd" clip-rule="evenodd" d="M11.4222 39.4005C15.6695 40.5718 16.3616 40.4818 20.0439 40.5747C21.7496 38.7219 21.5058 35.7102 20.9394 33.4445C20.5491 31.879 20.8051 32.1946 19.439 32.8578C15.7155 34.6618 10.1503 32.8023 8.75414 35.7078C8.59456 36.0396 8.48961 36.4358 8.44913 36.9034C8.42842 37.1415 8.48897 37.0958 8.27038 37.242C7.94953 37.456 7.69004 37.6747 7.48304 37.8992C6.42102 39.0504 6.71464 40.3742 6.99479 42.2714L6.99698 42.2711C8.55708 41.9611 9.5427 40.4625 10.0067 39.9272C10.317 39.5673 10.6889 39.1973 11.4222 39.4005Z" fill="#6D80AA"/>
<path fill-rule="evenodd" clip-rule="evenodd" d="M18.1358 33.674C18.6753 35.8279 18.9275 38.6553 17.4886 40.5174C17.8075 40.531 18.1462 40.542 18.5139 40.5515C18.9719 40.564 19.4768 40.5746 20.0589 40.5901C21.7625 38.7403 21.5142 35.7294 20.9444 33.4639C20.5517 31.8985 20.8082 32.2144 19.4425 32.8755C19.0048 33.0874 18.5413 33.2478 18.0613 33.3726C18.0839 33.4642 18.108 33.5641 18.1358 33.674Z" fill="#49679B"/>
</g>
<defs>
<clipPath id="clip0">
<rect width="69.2222" height="70" fill="white"/>
</clipPath>
<clipPath id="clip1">
<rect width="16.3333" height="16.3333" fill="white" transform="translate(26.0555 8.55566)"/>
</clipPath>
</defs>
</svg>
