<svg width="68" height="70" viewBox="0 0 68 70" fill="none" xmlns="http://www.w3.org/2000/svg">
<path fill-rule="evenodd" clip-rule="evenodd" d="M23.6768 45.2433L17.6979 51.2443L17.9451 54.8891L21.7335 55.291L27.7087 49.2939L27.6655 45.2866L23.6768 45.2433Z" fill="#6D80AA"/>
<path fill-rule="evenodd" clip-rule="evenodd" d="M18.5171 54.5393L19.3638 60.3713L11.1574 68.6049C9.30838 70.4648 6.28155 70.4648 4.43241 68.6049C2.5834 66.7491 2.5834 63.7111 4.43241 61.8552L12.6374 53.6201L18.5171 54.5393Z" fill="#9B3690"/>
<path fill-rule="evenodd" clip-rule="evenodd" d="M15.825 50.4208L12.6372 53.6203L19.3622 60.37L22.55 57.1745C22.8405 56.883 22.8405 56.4023 22.55 56.1106L21.7334 55.291L17.6976 51.2444L16.881 50.4208C16.5907 50.1293 16.1156 50.1293 15.825 50.4208Z" fill="#F8F2F0"/>
<path fill-rule="evenodd" clip-rule="evenodd" d="M17.1011 58.1003L8.89611 66.3355C7.44355 67.7934 5.26086 68.1086 3.49805 67.2733C3.7258 67.758 4.03591 68.2071 4.43235 68.6051C6.28136 70.4649 9.30818 70.4649 11.1573 68.6051L19.3623 60.37L17.1011 58.1003Z" fill="#720066"/>
<path fill-rule="evenodd" clip-rule="evenodd" d="M20.0727 55.1138L17.1008 58.1005L19.3622 60.3701L22.55 57.1746C22.8405 56.8831 22.8405 56.4024 22.55 56.1107L21.7334 55.2911L20.2887 53.8411C20.5792 54.1326 20.5792 54.6094 20.2887 54.901L20.0727 55.1138Z" fill="#EEE1DC"/>
<path fill-rule="evenodd" clip-rule="evenodd" d="M52.2686 10.6007H31.3282C29.2514 11.6685 27.3041 13.0713 25.569 14.8168C16.6064 23.8124 16.6064 38.3993 25.569 47.3948C34.5316 56.3903 49.0651 56.3905 58.0278 47.3948C66.9906 38.3992 66.9905 23.8123 58.0278 14.8168C56.2886 13.0712 54.3413 11.6685 52.2686 10.6007Z" fill="#BAC3EE"/>
<path fill-rule="evenodd" clip-rule="evenodd" d="M52.6651 16.5623H30.9277C26.5308 19.88 23.6846 25.16 23.6846 31.1058C23.6846 34.7653 24.7621 38.1719 26.6162 41.0238C29.8486 45.996 35.4414 44.2741 41.7984 44.2741C48.155 44.2741 53.746 45.9964 56.9774 41.0245C58.831 38.1724 59.9083 34.7656 59.9083 31.1058C59.9082 25.1598 57.062 19.88 52.6651 16.5623Z" fill="#F8F2F0"/>
<path fill-rule="evenodd" clip-rule="evenodd" d="M39.9219 2.08965C36.0431 2.82651 32.4902 5.6674 31.3282 10.6006C31.069 11.6961 30.9277 12.8938 30.9277 14.1981C35.3286 13.8907 34.673 10.5179 37.7077 11.302C40.0553 11.9088 40.9269 12.2161 41.7984 12.2161C42.67 12.2161 43.5375 11.9088 45.8852 11.302C48.9238 10.5179 48.2682 13.8907 52.6651 14.1981C52.6651 12.8938 52.5277 11.6959 52.2686 10.6006C51.1065 5.6674 47.5536 2.82651 43.671 2.08965C43.0546 1.9754 42.4265 1.90836 41.7984 1.90051C41.1703 1.90836 40.5421 1.9754 39.9219 2.08965Z" fill="#6D80AA"/>
<path fill-rule="evenodd" clip-rule="evenodd" d="M49.4578 10.6321C49.5481 11.2152 49.607 11.826 49.6306 12.4604C49.6384 12.6889 49.6463 12.9174 49.6463 13.1499C50.3099 13.6583 51.2128 14.0956 52.6653 14.198C52.6653 12.8938 52.5279 11.6959 52.2688 10.6006C51.1067 5.66735 47.5538 2.82646 43.6712 2.0896H43.6672C46.2661 3.45691 48.394 5.94321 49.2458 9.55248C49.3243 9.89139 49.395 10.2381 49.45 10.6006C49.4538 10.6124 49.4538 10.6203 49.4578 10.6321Z" fill="#49679B"/>
<path fill-rule="evenodd" clip-rule="evenodd" d="M52.4922 19.0839C53.878 22.7366 54.6593 26.8384 54.6593 31.1727C54.6593 31.6889 54.6475 32.2011 54.6239 32.7133C56.0293 33.8284 56.9754 35.4833 56.9754 38.143V41.0234C58.8284 38.1745 59.908 34.7662 59.908 31.1058C59.908 25.16 57.0618 19.88 52.6649 16.5623V17.5355C52.665 18.0358 52.6061 18.556 52.4922 19.0839Z" fill="#EEE1DC"/>
<path fill-rule="evenodd" clip-rule="evenodd" d="M52.6652 16.5623C57.0621 19.8801 59.9083 25.16 59.9083 31.1059C59.9083 34.7663 58.8287 38.1746 56.9757 41.0235C56.2023 42.2135 55.2994 43.305 54.2787 44.2742C53.2462 45.2632 52.0959 46.1261 50.8555 46.8472C49.3872 49.5779 47.546 51.9538 45.426 53.853C50.0389 53.1161 54.4711 50.9609 58.028 47.3948C66.9906 38.3992 66.9906 23.8123 58.028 14.8168C56.2889 13.0712 54.3416 11.6685 52.2689 10.6007C52.528 11.6962 52.6654 12.8939 52.6654 14.1981V16.5623H52.6652Z" fill="#8795DE"/>
<path fill-rule="evenodd" clip-rule="evenodd" d="M27.2625 14.0283C27.2625 22.3441 26.4676 27.1004 24.6885 30.397C26.5774 32.5199 26.957 33.5624 28.2226 35.0003C29.4881 36.4382 33.1226 39.4122 41.2678 40.0658C47.165 40.539 52.7474 37.2568 53.3719 36.9938C53.9965 36.7309 56.068 35.5042 57.623 34.5101C58.9341 33.6719 59.817 33.6442 58.583 31.689C58.5337 31.6127 58.4807 31.5328 58.4277 31.4527C56.183 28.1218 55.1987 23.2703 55.1987 13.9941C55.1155 12.6487 54.9791 11.3226 54.6764 10.0419C51.9093 -1.69242 36.3779 -2.45094 32.9483 4.19187C32.8044 4.47005 32.5471 4.4625 32.2745 4.50441C29.5566 4.94257 27.2625 8.84513 27.2625 14.0283Z" fill="#6D80AA"/>
<path fill-rule="evenodd" clip-rule="evenodd" d="M38.0123 0.477649C43.5665 0.235994 50.0577 3.32457 51.7541 10.5723C52.0564 11.8614 52.1924 13.1967 52.2755 14.5511C52.2755 23.8898 53.2578 28.7742 55.4985 32.1275C55.5514 32.2081 55.6043 32.2887 55.6534 32.3653C56.6849 34.0151 54.7594 36.6709 53.811 36.8858C53.5496 37.324 55.5702 35.8257 55.6534 35.9217C56.2768 35.6569 56.9812 35.2938 57.6753 34.7309C58.9335 34.4777 59.8134 33.8694 58.5817 31.901C58.5325 31.8242 58.4796 31.7437 58.4268 31.6631C56.1862 28.3097 55.2038 23.4255 55.2038 14.0868C55.1207 12.7324 54.9846 11.3972 54.6824 10.108C52.6761 1.52893 43.9519 -1.22206 38.0123 0.477649Z" fill="#49679B"/>
<path fill-rule="evenodd" clip-rule="evenodd" d="M33.5698 30.6605C30.0562 31.6534 26.6172 33.0719 26.6172 38.1431V41.0235C29.852 45.9961 35.4425 49.2823 41.7984 49.2823C48.1544 49.2823 53.7447 45.9961 56.9757 41.0235V38.1431C56.9757 33.0719 53.5407 31.6534 50.0231 30.6605L43.2707 34.6362C42.1244 35.3809 41.4687 35.3809 40.3224 34.6362L33.5698 30.6605Z" fill="#CC193B"/>
<path fill-rule="evenodd" clip-rule="evenodd" d="M48.1738 32.4967C51.3772 33.4936 54.2784 35.0697 54.2784 39.7311V44.2742C55.2992 43.3048 56.2021 42.2134 56.9754 41.0235V38.1431C56.9754 33.0719 53.5403 31.6534 50.0228 30.6605L47.3258 32.2485C47.6084 32.3272 47.895 32.41 48.1738 32.4967Z" fill="#BB0E2F"/>
<path fill-rule="evenodd" clip-rule="evenodd" d="M35.4426 30.1523C34.8263 30.3217 34.1981 30.4832 33.5701 30.6606L40.3224 37.3748C41.4687 38.1195 42.1245 38.1195 43.2708 37.3748L50.0231 30.6606C49.395 30.4833 48.7668 30.3217 48.1544 30.1523C46.7254 29.7622 46.3485 27.9142 46.058 27.3152C43.0666 25.0141 40.5344 25.0062 37.539 27.3152C37.2445 27.9142 36.8677 29.7622 35.4426 30.1523Z" fill="#FFDEBD"/>
<path fill-rule="evenodd" clip-rule="evenodd" d="M37.5389 27.3152C37.3505 27.7013 37.1267 28.6115 36.6046 29.313C36.5771 29.3445 40.7424 31.5116 43.9656 30.3098C44.4838 30.1482 44.523 30.042 44.7194 30.5068C45.116 31.4485 47.1734 32.0523 48.2451 32.4661L50.0232 30.6605C49.395 30.4832 48.7669 30.3215 48.1545 30.1521C46.7255 29.762 46.2282 27.2864 45.9377 26.6874C45.4391 26.9633 42.0888 25.6156 41.5627 25.8126C39.5958 26.5455 41.0448 28.7611 39.0741 28.0282C38.6384 27.8666 38.2066 27.6697 37.7904 27.449C37.7038 27.4058 37.6214 27.3624 37.5389 27.3152Z" fill="#FFCCA2"/>
<path d="M51.3363 17.4999C51.3363 23.6902 46.3377 28.7077 40.1706 28.7077C35.0663 28.7077 30.7635 25.2713 29.4296 20.578C27.402 13.3658 32.7968 6.29199 40.1706 6.29199C46.3496 6.29199 51.3363 11.3227 51.3363 17.4999Z" fill="#FFDFBA"/>
<path d="M29.4483 20.6655C26.6346 10.6335 37.6235 2.61234 46.1816 8.04757C49.0131 18.1432 37.9562 26.0688 29.4483 20.6655Z" fill="#FFEBD2"/>
<mask id="mask0" mask-type="alpha" maskUnits="userSpaceOnUse" x="28" y="5" width="24" height="22">
<rect width="22.3669" height="20.5849" rx="10.2924" transform="matrix(0.984736 0.174058 -0.172103 0.98508 30.6232 4.11914)" fill="#C4C4C4"/>
</mask>
<g mask="url(#mask0)">
<path fill-rule="evenodd" clip-rule="evenodd" d="M59.7919 9.88971C65.3783 4.16385 69.1713 1.40909 72.7236 0.303519C72.7294 -2.39439 71.6193 -3.36051 70.6353 -4.44505L52.4537 -22.715C51.8075 -22.9427 51.1645 -23.2549 50.4589 -23.6699C49.3422 -24.3217 48.4909 -24.9219 48.1053 -22.7681C48.0911 -22.6833 48.0772 -22.5936 48.0633 -22.5038C47.5135 -18.7412 44.9944 -14.7565 38.7628 -8.36939C37.9217 -7.38859 37.1333 -6.38619 36.5006 -5.3063C30.6983 4.58436 44.2175 17.0316 51.2588 14.7022C51.5539 14.6048 52.6983 12.937 51.0656 12.9361C53.4036 14.4131 56.3099 13.4586 59.7919 9.88971Z" fill="#6D80AA"/>
</g>
<path fill-rule="evenodd" clip-rule="evenodd" d="M26.1502 47.9583L20.2889 53.841L21.7337 55.2911L27.7088 49.294C27.1748 48.8763 26.6527 48.4311 26.1502 47.9583Z" fill="#49679B"/>
</svg>
