<svg width="70" height="70" viewBox="0 0 70 70" fill="none" xmlns="http://www.w3.org/2000/svg">
<path d="M63.188 15.6926C65.0461 15.6926 66.5524 17.1989 66.5524 19.057V63.1225H3.44775V19.057C3.44775 17.1989 4.95407 15.6926 6.81213 15.6926H63.188Z" fill="#9B3690"/>
<path d="M16.2811 15.6926H6.81213C4.95407 15.6926 3.44775 17.1989 3.44775 19.057V63.1225H12.9165V19.057C12.9165 17.1989 14.4229 15.6926 16.2811 15.6926Z" fill="#720066"/>
<path d="M11.4044 15.6926H58.5954V19.8612H11.4044V15.6926Z" fill="#720066"/>
<path d="M62.3196 20.4744V56.2243C62.3196 56.5275 62.0738 56.7734 61.7705 56.7734H8.22943C7.92622 56.7734 7.6803 56.5276 7.6803 56.2243V20.4744C7.6803 20.1712 7.92608 19.9253 8.22943 19.9253H61.7706C62.0738 19.9254 62.3196 20.1712 62.3196 20.4744Z" fill="white"/>
<path d="M12.9164 19.9253H8.22943C7.92622 19.9253 7.6803 20.1711 7.6803 20.4744V56.2241C7.6803 56.5273 7.92608 56.7733 8.22943 56.7733H12.9164V19.9253Z" fill="#ECEFFF"/>
<path d="M66.1982 66.3129H3.80176C1.70215 66.3129 0 64.6109 0 62.5112V61.6282C0 61.2845 0.278518 61.006 0.622222 61.006H69.3778C69.7215 61.006 70 61.2845 70 61.6282V62.5112C70 64.6109 68.2979 66.3129 66.1982 66.3129Z" fill="#720066"/>
<path d="M12.3461 62.5112V61.6282C12.3461 61.2845 12.6246 61.006 12.9683 61.006H0.622222C0.278518 61.006 0 61.2845 0 61.6282V62.5112C0 64.6108 1.70215 66.3129 3.80176 66.3129H16.1479C14.0483 66.3129 12.3461 64.6109 12.3461 62.5112Z" fill="#620057"/>
<path d="M11.2682 19.9253H58.732V56.7733H11.2682V19.9253Z" fill="#E2E6FC"/>
<path d="M55.9099 56.7732V13.6972C55.9099 12.7081 55.1085 11.9067 54.1195 11.9067H15.8803C14.8913 11.9067 14.0898 12.7081 14.0898 13.6972V56.7733H55.9099V56.7732Z" fill="white"/>
<path d="M27.8006 23.4682H30.248L31.9233 25.1433C32.7451 25.9651 33.8377 26.4176 35.0001 26.4176C36.1624 26.4176 37.2549 25.9651 38.077 25.1431L39.752 23.4682H42.1994C46.0643 23.4682 49.2088 20.3238 49.2088 16.4588V11.9067H20.7913V16.4588C20.7913 20.3238 23.9357 23.4682 27.8006 23.4682Z" fill="#ECE2E2"/>
<path d="M42.1995 4.08362H27.8008C25.4881 4.08362 23.6134 5.95833 23.6134 8.27099V16.4591C23.6134 18.7717 25.4881 20.6464 27.8008 20.6464H31.4171L33.9186 23.1479C34.5158 23.7451 35.4843 23.7451 36.0817 23.1479L38.5831 20.6464H42.1995C44.5122 20.6464 46.3869 18.7717 46.3869 16.4591V8.27099C46.3869 5.95833 44.5122 4.08362 42.1995 4.08362Z" fill="#CC193B"/>
<path d="M29.0466 17.1428V8.27272C29.0466 6.38447 30.1119 4.76627 31.6265 4.08337H27.8008C25.4881 4.08337 23.6134 5.95808 23.6134 8.27075V16.4588C23.6134 18.7715 25.4881 20.6462 27.8008 20.6462H30.574C29.6413 19.8143 29.0466 18.5539 29.0466 17.1428Z" fill="#BB0E2F"/>
<path d="M35.7154 17.4112L39.5936 13.533C40.7132 12.4134 40.7132 10.5981 39.5936 9.47837C38.474 8.3588 36.6587 8.3588 35.539 9.47837L35.0514 9.96599L34.4604 9.39809C33.3347 8.31661 31.5506 8.33439 30.4467 9.43816L30.4065 9.47837C29.2869 10.5979 29.2869 12.4133 30.4065 13.533L34.2847 17.4112C34.6799 17.8063 35.3203 17.8063 35.7154 17.4112Z" fill="#F3F0F3"/>
<path d="M23.5671 36.5834C26.2267 36.5834 28.3827 34.4274 28.3827 31.7678C28.3827 29.1083 26.2267 26.9523 23.5671 26.9523C20.9076 26.9523 18.7516 29.1083 18.7516 31.7678C18.7516 34.4274 20.9076 36.5834 23.5671 36.5834Z" fill="#ECE2E2"/>
<path d="M44.9041 32.826H32.2977C31.7133 32.826 31.2395 32.3523 31.2395 31.7678C31.2395 31.1832 31.7133 30.7096 32.2977 30.7096H44.9041C45.4885 30.7096 45.9623 31.1832 45.9623 31.7678C45.9623 32.3523 45.4885 32.826 44.9041 32.826Z" fill="#ECE2E2"/>
<path d="M23.6132 47.7682H21.9768C21.3924 47.7682 20.9186 47.2946 20.9186 46.7101C20.9186 46.1255 21.3924 45.6519 21.9768 45.6519H23.6133C24.1977 45.6519 24.6715 46.1255 24.6715 46.7101C24.6715 47.2946 24.1976 47.7682 23.6132 47.7682Z" fill="#ECE2E2"/>
<rect x="16.9166" y="40.8334" width="13.4167" height="13.4167" rx="4" fill="#ECE2E2"/>
<rect x="31.5" y="40.8334" width="13.4167" height="13.4167" rx="4" fill="#ECE2E2"/>
<path d="M46.0834 44.8334C46.0834 42.6242 47.8742 40.8334 50.0834 40.8334H53.0834V54.25H50.0834C47.8742 54.25 46.0834 52.4592 46.0834 50.25V44.8334Z" fill="#ECE2E2"/>
</svg>
