<svg width="70" height="70" viewBox="0 0 70 70" fill="none" xmlns="http://www.w3.org/2000/svg">
<g clip-path="url(#clip0)">
<path d="M32.8069 32.8074C31.5991 32.8074 30.6198 31.8283 30.6198 30.6203V22.9654C30.6198 17.5384 26.2047 13.1233 20.7777 13.1233C15.3508 13.1233 10.9357 17.5384 10.9357 22.9654V30.6203C10.9357 31.8283 9.95637 32.8074 8.74853 32.8074C7.54069 32.8074 6.5614 31.8283 6.5614 30.6203V22.9654C6.5614 15.1264 12.9388 8.74902 20.7777 8.74902C28.6167 8.74902 34.9941 15.1264 34.9941 22.9654V30.6203C34.9941 31.8283 34.0148 32.8074 32.8069 32.8074Z" fill="#BAC3EE"/>
<path d="M39.3683 60.7255H2.18713C0.97915 60.7255 0 59.7463 0 58.5384V31.135C0 29.927 0.97915 28.9479 2.18713 28.9479H39.3683C40.5763 28.9479 41.5554 29.927 41.5554 31.135V58.5385C41.5554 59.7463 40.5763 60.7255 39.3683 60.7255Z" fill="#720066"/>
<path d="M41.5555 31.135V53.3923H17.1111C11.7109 53.3923 7.33337 49.0146 7.33337 43.6146V28.9479H39.3684C40.5764 28.9479 41.5555 29.927 41.5555 31.135Z" fill="#9B3690"/>
<path d="M20.7777 52.4916C19.5699 52.4916 18.5906 51.5125 18.5906 50.3045V42.6495C18.5906 41.4416 19.5699 40.4624 20.7777 40.4624C21.9855 40.4624 22.9648 41.4416 22.9648 42.6495V50.3045C22.9648 51.5125 21.9855 52.4916 20.7777 52.4916Z" fill="white"/>
<path d="M20.7777 45.9302C18.3657 45.9302 16.4034 43.9679 16.4034 41.5559C16.4034 39.1439 18.3657 37.1816 20.7777 37.1816C23.1897 37.1816 25.152 39.1439 25.152 41.5559C25.152 43.9679 23.1897 45.9302 20.7777 45.9302ZM20.7776 41.553L20.7777 41.5559C20.7777 41.554 20.7776 41.553 20.7776 41.553Z" fill="white"/>
<path d="M57.9589 59.6819C50.6157 65.3314 38.7258 54.6338 51.7307 44.9399C54.3501 42.9876 56.9459 41.8009 57.0552 41.7514C57.6294 41.4909 58.2883 41.4909 58.8626 41.7514C58.9718 41.8009 61.5678 42.9876 64.187 44.9399C77.2292 54.6615 65.2748 65.3104 57.9589 59.6819ZM59.8585 55.3375C61.3776 57.9999 65.6138 56.9494 65.6138 53.9497C65.6138 50.8323 60.6382 47.5853 57.9589 46.1808C55.281 47.5845 50.3039 50.8318 50.3039 53.9497C50.3039 56.9449 54.537 58.0054 56.0592 55.3375C56.8971 53.8691 59.0199 53.868 59.8585 55.3375Z" fill="#CC193B"/>
<path d="M57.959 45.9301C56.7511 45.9301 55.7719 44.9509 55.7719 43.7429V11.4828C55.7719 10.2748 56.7511 9.29565 57.959 9.29565C59.1668 9.29565 60.1461 10.2748 60.1461 11.4828V43.7429C60.1461 44.9509 59.1668 45.9301 57.959 45.9301Z" fill="#CC193B"/>
<path d="M57.9588 13.1233H51.3975C50.1896 13.1233 49.2103 12.1441 49.2103 10.9362C49.2103 9.72817 50.1896 8.74902 51.3975 8.74902H57.9588C59.1667 8.74902 60.146 9.72817 60.146 10.9362C60.146 12.1441 59.1667 13.1233 57.9588 13.1233Z" fill="#CC193B"/>
<path d="M57.9588 21.8718H51.3975C50.1896 21.8718 49.2103 20.8927 49.2103 19.6847C49.2103 18.4767 50.1896 17.4976 51.3975 17.4976H57.9588C59.1667 17.4976 60.146 18.4767 60.146 19.6847C60.146 20.8927 59.1667 21.8718 57.9588 21.8718Z" fill="#CC193B"/>
</g>
<defs>
<clipPath id="clip0">
<rect width="70" height="70" fill="white"/>
</clipPath>
</defs>
</svg>
