<svg width="70" height="70" viewBox="0 0 70 70" fill="none" xmlns="http://www.w3.org/2000/svg">
<g clip-path="url(#clip0)">
<path d="M0.520203 11.027C0.520203 4.88297 5.54516 -0.0874386 11.7095 0.00129186C17.6807 0.0871512 22.536 4.98414 22.5738 10.9557C22.5949 14.3 21.1269 17.3014 18.7942 19.3373C18.5479 19.5521 18.5835 19.9442 18.8647 20.1106L20.9424 21.3399C21.2783 21.5387 21.1374 22.0536 20.7471 22.0536L11.3383 22.0513C5.34473 21.9399 0.520203 17.0471 0.520203 11.027Z" fill="#CC193B"/>
<path d="M20.9425 21.3399L18.8647 20.1105C18.5849 19.9451 18.5461 19.5535 18.791 19.34C21.1503 17.2825 22.6261 14.2373 22.5726 10.8486C22.48 4.98709 17.7359 0.17555 11.876 0.00478876C11.045 -0.0194105 10.234 0.0485388 9.45239 0.198793C14.5174 1.16977 18.3775 5.63432 18.4112 10.9556C18.4274 13.5326 17.5594 15.906 16.093 17.7909C15.2074 18.9291 15.4952 20.5796 16.7364 21.314L16.7798 21.3398C17.1121 21.5364 16.9773 22.0414 16.5968 22.0523L20.747 22.0533C21.1373 22.0536 21.2784 21.5385 20.9425 21.3399Z" fill="#BB0E2F"/>
<path d="M67.3982 52.4221V68.9596H16.0849V52.5466C16.0849 48.8305 18.312 45.4768 21.7355 44.0358L30.0193 40.4346L32.8083 39.2219C34.9247 38.3018 36.2933 36.2141 36.2933 33.9063V32.8358H47.1884V33.8516C47.1884 36.169 48.5706 38.2649 50.7021 39.1782L61.9062 43.9811C65.2449 45.4604 67.3982 48.769 67.3982 52.4221Z" fill="white"/>
<path d="M30.0185 44.3778C32.8457 45.2226 37.0071 46.1236 42.0795 46.0349C46.8388 45.9517 50.7457 45.0263 53.4642 44.158L54.815 40.9414L50.7016 39.1784C48.5707 38.265 47.1891 36.1698 47.1891 33.8513V32.8363H36.2939V33.9065C36.2939 36.2141 34.9251 38.3016 32.8091 39.2218L29.4775 40.6703L30.0185 44.3778Z" fill="#FFCEBF"/>
<path d="M61.9056 43.9804L53.4657 40.3629L53.4642 40.363V68.9593H67.3983V52.4222C67.3983 48.7695 65.2451 45.4602 61.9056 43.9804Z" fill="#245FB8"/>
<path d="M30.0193 40.4344V68.9595H16.0849V52.5464C16.0849 48.8303 18.312 45.4766 21.7355 44.0356L30.0193 40.4344Z" fill="#245FB8"/>
<path d="M45.5181 38.8161C46.7715 38.8161 47.9659 38.5644 49.0546 38.1103C47.8867 37.0322 47.1889 35.4982 47.1889 33.8512V32.8362H36.2938V33.9063C36.2938 34.7399 36.1143 35.5444 35.7863 36.2759C37.4361 37.8486 39.668 38.816 42.1272 38.816H45.5181V38.8161Z" fill="#FFB09E"/>
<path d="M52.6308 16.4464V25.4596C52.6308 30.5373 48.5145 34.6535 43.4369 34.6535H40.0461C34.9684 34.6535 30.8522 30.5372 30.8522 25.4596V16.4464C30.8522 13.1431 33.5299 10.4652 36.8333 10.4652H46.6498C49.953 10.4653 52.6308 13.1431 52.6308 16.4464Z" fill="#FFCEBF"/>
<path d="M52.6308 21.1359C52.6267 21.1483 52.6216 21.1603 52.6179 21.1731C52.2856 22.3208 51.4133 24.4889 49.3054 26.1143C48.3239 26.8714 47.2043 27.4182 45.9779 27.7401C45.422 27.8859 45.0895 28.4548 45.2354 29.0107C45.3582 29.4782 45.7797 29.7876 46.2414 29.7876C46.3287 29.7876 46.4176 29.7765 46.5062 29.7532C48.0035 29.3603 49.3729 28.6905 50.5764 27.7626C51.4075 27.1217 52.0802 26.4138 52.6248 25.702C52.6268 25.6213 52.6309 25.5411 52.6309 25.4599V21.1359H52.6308Z" fill="#7A6D79"/>
<path d="M44.8367 30.6169H42.398C41.288 30.6169 40.3881 29.717 40.3881 28.6069C40.3881 27.4969 41.288 26.597 42.398 26.597H44.8367C45.9467 26.597 46.8466 27.4969 46.8466 28.6069C46.8464 29.7171 45.9467 30.6169 44.8367 30.6169Z" fill="#685E68"/>
<path d="M43.3086 9.30912C43.4824 7.11712 45.581 5.6624 47.5895 4.90894C50.912 6.89975 53.1364 10.5349 53.1364 14.69V15.4734C52.9527 15.512 52.77 15.5457 52.5892 15.5727C51.4827 15.738 50.5405 15.6664 49.8967 15.5727C45.7485 15.0201 43.0987 11.9565 43.3086 9.30912Z" fill="#B98080"/>
<path d="M58.9219 68.9593H25.6099L23.7725 51.6268C23.6422 50.3974 24.6059 49.326 25.8421 49.326H58.6898C59.926 49.326 60.8897 50.3974 60.7594 51.6268L58.9219 68.9593Z" fill="#F2F2F2"/>
<path d="M58.6895 49.326H54.527C55.7632 49.326 56.7269 50.3974 56.5966 51.6268L54.7593 68.9594H58.9218L60.7592 51.6268C60.8896 50.3974 59.9259 49.326 58.6895 49.326Z" fill="#E5E1E5"/>
<path d="M68.9746 70H1.02539C0.458965 70 0 69.5409 0 68.9746C0 68.4083 0.458965 67.9492 1.02539 67.9492H68.9746C69.541 67.9492 70 68.4083 70 68.9746C70 69.5409 69.541 70 68.9746 70Z" fill="#ECE2E2"/>
<path d="M42.2658 62.0565C43.875 62.0565 45.1796 60.752 45.1796 59.1428C45.1796 57.5335 43.875 56.229 42.2658 56.229C40.6566 56.229 39.3521 57.5335 39.3521 59.1428C39.3521 60.752 40.6566 62.0565 42.2658 62.0565Z" fill="#ECE2E2"/>
<path d="M7.38474 12.0673C7.95943 12.0673 8.42531 11.6015 8.42531 11.0268C8.42531 10.4521 7.95943 9.98621 7.38474 9.98621C6.81005 9.98621 6.34418 10.4521 6.34418 11.0268C6.34418 11.6015 6.81005 12.0673 7.38474 12.0673Z" fill="white"/>
<path d="M11.5473 12.0673C12.122 12.0673 12.5879 11.6015 12.5879 11.0268C12.5879 10.4521 12.122 9.98621 11.5473 9.98621C10.9727 9.98621 10.5068 10.4521 10.5068 11.0268C10.5068 11.6015 10.9727 12.0673 11.5473 12.0673Z" fill="white"/>
<path d="M15.7098 12.0673C16.2844 12.0673 16.7503 11.6015 16.7503 11.0268C16.7503 10.4521 16.2844 9.98621 15.7098 9.98621C15.1351 9.98621 14.6692 10.4521 14.6692 11.0268C14.6692 11.6015 15.1351 12.0673 15.7098 12.0673Z" fill="white"/>
</g>
<path fill-rule="evenodd" clip-rule="evenodd" d="M38.775 12.2615C45.4205 15.2664 46.5714 15.2664 52.5571 16.2631C55.79 13.4195 56.1236 8.11341 55.7497 4.03487C55.4931 1.21697 55.8341 1.82525 53.4441 2.67173C46.9307 4.97296 38.3021 0.46937 35.3185 5.21853C34.9775 5.76086 34.7101 6.42785 34.5305 7.23402C34.4388 7.64443 34.5487 7.57847 34.1566 7.78373C33.5811 8.08425 33.1046 8.40667 32.7123 8.75111C30.7 10.5174 30.8576 12.892 30.8539 16.2632H30.8576C33.4783 16.0764 35.4504 13.6871 36.3374 12.8589C36.9312 12.3018 37.6277 11.7411 38.775 12.2615Z" fill="#6D80AA"/>
<path fill-rule="evenodd" clip-rule="evenodd" d="M51.1166 3.77103C51.4685 7.64806 51.1862 12.6353 48.3822 15.5596C48.899 15.6548 49.4488 15.7501 50.0464 15.8491C50.7904 15.9736 51.6115 16.1055 52.5572 16.2631C55.7902 13.4195 56.1237 8.11341 55.7499 4.03487C55.4933 1.21696 55.8342 1.82525 53.4443 2.67173C52.6782 2.94295 51.8827 3.11881 51.0691 3.2287C51.0836 3.39354 51.0983 3.57315 51.1166 3.77103Z" fill="#49679B"/>
<defs>
<clipPath id="clip0">
<rect width="70" height="70" fill="white"/>
</clipPath>
</defs>
</svg>
