<svg width="27" height="27" viewBox="0 0 27 27" fill="none" xmlns="http://www.w3.org/2000/svg">
<circle cx="13.053" cy="13.053" r="13.053" fill="url(#paint0_linear)"/>
<path d="M19.8053 4.50366H16.8591C15.5569 4.50366 14.3079 5.0253 13.3871 5.95382C12.4662 6.88234 11.9489 8.14168 11.9489 9.45481V12.4255H9.00277V16.3864H11.9489V26.1017C11.9489 26.1017 13.1766 26.1563 13.9601 26.1017C14.7139 26.0493 15.8771 25.8387 15.8771 25.8387V16.3864H18.8232L19.8053 12.4255H15.8771V9.45481C15.8771 9.19218 15.9806 8.94032 16.1647 8.75461C16.3489 8.56891 16.5987 8.46458 16.8591 8.46458H19.8053V4.50366Z" fill="white"/>
<defs>
<linearGradient id="paint0_linear" x1="22.0551" y1="3.60083" x2="4.05094" y2="23.4054" gradientUnits="userSpaceOnUse">
<stop stop-color="#39619F"/>
<stop offset="0.0001" stop-color="#39619F"/>
<stop offset="1" stop-color="#1A4476"/>
</linearGradient>
</defs>
</svg>
