<svg width="29" height="29" viewBox="0 0 29 29" fill="none" xmlns="http://www.w3.org/2000/svg">
<circle cx="14.5" cy="14.5" r="14" fill="white" stroke="#FEFEFE"/>
<path d="M25.9299 14.7626C25.9309 13.9679 25.8637 13.1746 25.729 12.3914H14.7312V16.8828H21.0302C20.9013 17.6002 20.6285 18.284 20.2282 18.8931C19.8279 19.5021 19.3085 20.0238 18.7011 20.4267V23.3422H22.4604C24.6616 21.3127 25.9299 18.3114 25.9299 14.7626Z" fill="#4285F4"/>
<path d="M14.732 26.1621C17.8791 26.1621 20.529 25.1288 22.4613 23.3471L18.702 20.4316C17.6556 21.141 16.308 21.546 14.732 21.546C11.6902 21.546 9.1084 19.4954 8.18517 16.7322H4.31244V19.7367C5.28308 21.6682 6.77145 23.2919 8.61138 24.4265C10.4513 25.5611 12.5704 26.162 14.732 26.1621Z" fill="#34A853"/>
<path d="M8.18454 16.7305C7.69646 15.2825 7.69646 13.7145 8.18454 12.2665V9.26196H4.31181C3.49527 10.8868 3.07002 12.68 3.07002 14.4985C3.07002 16.3169 3.49527 18.1102 4.31181 19.735L8.18454 16.7305Z" fill="#FBBC04"/>
<path d="M14.732 7.45141C16.3951 7.42424 18.0021 8.05261 19.2057 9.2007L22.5342 5.8722C20.4236 3.88979 17.6275 2.80142 14.732 2.83524C12.5704 2.83534 10.4513 3.43624 8.61138 4.57086C6.77145 5.70548 5.28308 7.32916 4.31244 9.26063L8.18517 12.2652C9.1084 9.50197 11.6902 7.45141 14.732 7.45141Z" fill="#EA4335"/>
</svg>
