<svg xmlns="http://www.w3.org/2000/svg" width="49" height="66" viewBox="0 0 49 66"><defs><linearGradient id="cqg3a" x1="24.99" x2="24.01" y1="66" y2="-.01" gradientUnits="userSpaceOnUse"><stop offset="0" stop-color="#e72f63"/><stop offset="1" stop-color="#f86540"/></linearGradient></defs><g><g><path fill="#ea6060" d="M24.625-.007c13.436 0 24.366 10.897 24.366 24.597 0 14.347-12.182 29.449-21.064 39.763-.035.04-1.462 1.648-3.222 1.648h-.157c-1.76 0-3.187-1.608-3.221-1.648C12.447 54.039.007 38.937.007 24.59c0-13.7 11.185-24.597 24.618-24.597zM35.373 24.63c0-6.045-4.92-10.965-10.967-10.965-6.046 0-10.967 4.92-10.967 10.965 0 6.044 4.92 10.965 10.967 10.965 6.046 0 10.967-4.921 10.967-10.965z"/><path fill="url(#cqg3a)" d="M24.625-.007c13.436 0 24.366 10.897 24.366 24.597 0 14.347-12.182 29.449-21.064 39.763-.035.04-1.462 1.648-3.222 1.648h-.157c-1.76 0-3.187-1.608-3.221-1.648C12.447 54.039.007 38.937.007 24.59c0-13.7 11.185-24.597 24.618-24.597zM35.373 24.63c0-6.045-4.92-10.965-10.967-10.965-6.046 0-10.967 4.92-10.967 10.965 0 6.044 4.92 10.965 10.967 10.965 6.046 0 10.967-4.921 10.967-10.965z"/></g></g></svg>