<svg xmlns="http://www.w3.org/2000/svg" width="41" height="41" viewBox="0 0 41 41">
  <defs>
    <linearGradient id="ckw9a" x1="0" x2="41" y1="20" y2="21" gradientUnits="userSpaceOnUse">
      <stop offset="0" stop-color="#8b2fb6" />
      <stop offset="1" stop-color="#fb2a86" />
    </linearGradient>
    <linearGradient id="ckw9b" x1="8.22" x2="33.22" y1="20.78" y2="20.22" gradientUnits="userSpaceOnUse">
      <stop offset="0" stop-color="#2e2946" />
      <stop offset="1" stop-color="#322c4a" />
    </linearGradient>
  </defs>
  <g>
    <g opacity=".2">
      <path fill="url(#ckw9a)" d="M20.5 0C31.822 0 41 9.177 41 20.5 41 31.82 31.822 41 20.5 41S0 31.82 0 20.5C0 9.177 9.178 0 20.5 0z" />
    </g>
    <g>
      <path fill="url(#ckw9b)" d="M20.5 8.216c6.784 0 12.283 5.5 12.283 12.283 0 6.784-5.5 12.284-12.283 12.284-6.784 0-12.284-5.5-12.284-12.284 0-6.784 5.5-12.283 12.284-12.283z" />
    </g>
  </g>
</svg>