<svg width="138" height="152" viewBox="0 0 138 152" fill="none" xmlns="http://www.w3.org/2000/svg">
<path d="M69 0L0 38.1445V114.433L69 152L138 114.433V38.1445L69 0Z" fill="#3B3D40"/>
<path d="M69 7L6 41.6312V110.894L69 145L132 110.894V41.6312L69 7Z" fill="black"/>
<g clip-path="url(#clip0_23_1005)">
<path d="M52.1807 67H55.1839V85H52.1807V67ZM65.6954 79.258C65.6954 82.0127 63.28 82.2323 62.5615 82.2323C60.7663 82.2323 60.4397 80.621 60.4397 79.649V72.76H57.4364V79.6346C57.4364 81.341 57.995 82.7493 58.9741 83.6882C59.839 84.5183 61.1349 84.9719 62.5389 84.9719C63.5345 84.9719 64.9446 84.6746 65.6954 84.0172V85H68.6986V72.76H65.6954V79.258ZM74.7052 68.44H71.7019V72.76H69.4495V75.64H71.7019V85H74.7052V75.64H76.9576V72.76H74.7052V68.44ZM86.4157 81.3402C85.7617 81.904 84.8983 82.2165 83.9508 82.2165C81.862 82.2165 80.3281 80.7455 80.3281 78.7259C80.3281 76.7063 81.8132 75.2973 83.9508 75.2973C84.8818 75.2973 85.7617 75.5946 86.4322 76.1584L86.8879 76.5342L88.9129 74.5931L88.4061 74.1546C87.2146 73.1229 85.6326 72.544 83.95 72.544C80.1959 72.544 77.4697 75.1418 77.4697 78.7108C77.4697 82.2647 80.2612 84.9554 83.95 84.9554C85.6641 84.9554 87.2626 84.3765 88.4391 83.3282L88.9287 82.8897L86.8722 80.95L86.4157 81.3402ZM99.6323 73.827C98.7674 72.9976 97.7538 72.544 96.3497 72.544C95.3542 72.544 94.2264 72.8414 93.4756 73.498V67H90.4723V85H93.4756V78.2572C93.4756 75.5025 95.5163 75.2836 96.2349 75.2836C98.0301 75.2836 97.9805 76.8957 97.9805 77.8662V85H100.984V77.8814C100.984 76.175 100.612 74.7666 99.6323 73.827Z" fill="#B8BEC8"/>
<path d="M83.8515 76.6758C84.4274 76.6758 84.9797 76.8952 85.3869 77.2857C85.7941 77.6762 86.0229 78.2058 86.0229 78.758C86.0229 79.3103 85.7941 79.8399 85.3869 80.2304C84.9797 80.6209 84.4274 80.8403 83.8515 80.8403C83.2757 80.8403 82.7234 80.6209 82.3162 80.2304C81.9089 79.8399 81.6802 79.3103 81.6802 78.758C81.6802 78.2058 81.9089 77.6762 82.3162 77.2857C82.7234 76.8952 83.2757 76.6758 83.8515 76.6758Z" fill="#3B3D40"/>
<path d="M47.9762 80.479C46.8342 81.6058 45.283 82.2164 43.6507 82.2164C40.3051 82.2164 37.8725 79.6964 37.8725 76.2375C37.8725 72.7628 40.3051 70.2428 43.6507 70.2428C45.2672 70.2428 46.8012 70.8526 47.9604 71.9643L48.4169 72.4028L50.4246 70.4775L49.9839 70.039C48.3193 68.3953 46.0669 67.5039 43.6507 67.5039C38.7216 67.5039 35.0164 71.2601 35.0164 76.2526C35.0164 81.23 38.7382 84.9711 43.6507 84.9711C46.0834 84.9711 48.3358 84.0639 50.0004 82.4201L50.4411 81.9817L48.45 80.0254L47.9762 80.479Z" fill="#B8BEC8"/>
</g>
<path d="M64.9227 25.77V26.875H62.7477V33H61.4027V26.875H59.2177V25.77H64.9227ZM72.3193 29.385C72.3193 29.915 72.231 30.4067 72.0543 30.86C71.8776 31.31 71.6293 31.7 71.3093 32.03C70.9893 32.36 70.6043 32.6183 70.1543 32.805C69.7043 32.9883 69.206 33.08 68.6593 33.08C68.1126 33.08 67.6126 32.9883 67.1593 32.805C66.7093 32.6183 66.3226 32.36 65.9993 32.03C65.6793 31.7 65.431 31.31 65.2543 30.86C65.0776 30.4067 64.9893 29.915 64.9893 29.385C64.9893 28.855 65.0776 28.365 65.2543 27.915C65.431 27.4617 65.6793 27.07 65.9993 26.74C66.3226 26.41 66.7093 26.1533 67.1593 25.97C67.6126 25.7833 68.1126 25.69 68.6593 25.69C69.206 25.69 69.7043 25.7833 70.1543 25.97C70.6043 26.1567 70.9893 26.415 71.3093 26.745C71.6293 27.0717 71.8776 27.4617 72.0543 27.915C72.231 28.365 72.3193 28.855 72.3193 29.385ZM70.9393 29.385C70.9393 28.9883 70.886 28.6333 70.7793 28.32C70.676 28.0033 70.526 27.735 70.3293 27.515C70.1326 27.295 69.8926 27.1267 69.6093 27.01C69.3293 26.8933 69.0126 26.835 68.6593 26.835C68.306 26.835 67.9876 26.8933 67.7043 27.01C67.421 27.1267 67.1793 27.295 66.9793 27.515C66.7826 27.735 66.631 28.0033 66.5243 28.32C66.4176 28.6333 66.3643 28.9883 66.3643 29.385C66.3643 29.7817 66.4176 30.1383 66.5243 30.455C66.631 30.7683 66.7826 31.035 66.9793 31.255C67.1793 31.4717 67.421 31.6383 67.7043 31.755C67.9876 31.8717 68.306 31.93 68.6593 31.93C69.0126 31.93 69.3293 31.8717 69.6093 31.755C69.8926 31.6383 70.1326 31.4717 70.3293 31.255C70.526 31.035 70.676 30.7683 70.7793 30.455C70.886 30.1383 70.9393 29.7817 70.9393 29.385ZM74.7723 30.455V33H73.4273V25.77H75.7823C76.2657 25.77 76.684 25.8267 77.0373 25.94C77.3907 26.0533 77.6823 26.2117 77.9123 26.415C78.1423 26.6183 78.3123 26.8617 78.4223 27.145C78.5323 27.4283 78.5873 27.7383 78.5873 28.075C78.5873 28.425 78.529 28.7467 78.4123 29.04C78.2957 29.33 78.1207 29.58 77.8873 29.79C77.654 30 77.3623 30.1633 77.0123 30.28C76.6623 30.3967 76.2523 30.455 75.7823 30.455H74.7723ZM74.7723 29.405H75.7823C76.029 29.405 76.244 29.375 76.4273 29.315C76.6107 29.2517 76.7623 29.1633 76.8823 29.05C77.0023 28.9333 77.0923 28.7933 77.1523 28.63C77.2123 28.4633 77.2423 28.2783 77.2423 28.075C77.2423 27.8817 77.2123 27.7067 77.1523 27.55C77.0923 27.3933 77.0023 27.26 76.8823 27.15C76.7623 27.04 76.6107 26.9567 76.4273 26.9C76.244 26.84 76.029 26.81 75.7823 26.81H74.7723V29.405ZM30.1646 49V41.77H32.6596C33.1329 41.77 33.5362 41.815 33.8696 41.905C34.2062 41.995 34.4812 42.1233 34.6946 42.29C34.9112 42.4567 35.0696 42.6583 35.1696 42.895C35.2696 43.1317 35.3196 43.3983 35.3196 43.695C35.3196 43.865 35.2946 44.0283 35.2446 44.185C35.1946 44.3383 35.1162 44.4833 35.0096 44.62C34.9062 44.7533 34.7729 44.875 34.6096 44.985C34.4496 45.095 34.2579 45.1883 34.0346 45.265C35.0279 45.4883 35.5246 46.025 35.5246 46.875C35.5246 47.1817 35.4662 47.465 35.3496 47.725C35.2329 47.985 35.0629 48.21 34.8396 48.4C34.6162 48.5867 34.3412 48.7333 34.0146 48.84C33.6879 48.9467 33.3146 49 32.8946 49H30.1646ZM31.5096 45.83V47.95H32.8746C33.1246 47.95 33.3329 47.92 33.4996 47.86C33.6696 47.8 33.8046 47.72 33.9046 47.62C34.0079 47.52 34.0812 47.4033 34.1246 47.27C34.1712 47.1367 34.1946 46.995 34.1946 46.845C34.1946 46.6883 34.1696 46.5483 34.1196 46.425C34.0696 46.2983 33.9912 46.1917 33.8846 46.105C33.7779 46.015 33.6412 45.9467 33.4746 45.9C33.3079 45.8533 33.1062 45.83 32.8696 45.83H31.5096ZM31.5096 44.9H32.5846C33.0412 44.9 33.3879 44.8167 33.6246 44.65C33.8612 44.4833 33.9796 44.2183 33.9796 43.855C33.9796 43.4783 33.8729 43.21 33.6596 43.05C33.4462 42.89 33.1129 42.81 32.6596 42.81H31.5096V44.9ZM38.9582 41.69C39.2916 41.69 39.5966 41.74 39.8732 41.84C40.1499 41.9367 40.3866 42.075 40.5832 42.255C40.7799 42.435 40.9332 42.6517 41.0432 42.905C41.1532 43.1583 41.2082 43.44 41.2082 43.75C41.2082 44.0167 41.1682 44.2633 41.0882 44.49C41.0116 44.7167 40.9066 44.9333 40.7732 45.14C40.6432 45.3467 40.4899 45.5467 40.3132 45.74C40.1366 45.9333 39.9516 46.13 39.7582 46.33L38.1282 47.995C38.2882 47.9483 38.4449 47.9133 38.5982 47.89C38.7516 47.8633 38.8982 47.85 39.0382 47.85H40.8932C41.0266 47.85 41.1316 47.8883 41.2082 47.965C41.2882 48.0383 41.3282 48.1367 41.3282 48.26V49H36.3682V48.59C36.3682 48.5067 36.3849 48.42 36.4182 48.33C36.4549 48.24 36.5116 48.1567 36.5882 48.08L38.7832 45.88C38.9666 45.6933 39.1299 45.515 39.2732 45.345C39.4199 45.175 39.5416 45.0067 39.6382 44.84C39.7382 44.6733 39.8132 44.505 39.8632 44.335C39.9166 44.1617 39.9432 43.98 39.9432 43.79C39.9432 43.6167 39.9182 43.465 39.8682 43.335C39.8182 43.2017 39.7466 43.09 39.6532 43C39.5599 42.91 39.4482 42.8433 39.3182 42.8C39.1916 42.7533 39.0482 42.73 38.8882 42.73C38.5916 42.73 38.3466 42.805 38.1532 42.955C37.9632 43.105 37.8299 43.3067 37.7532 43.56C37.7166 43.6867 37.6616 43.7783 37.5882 43.835C37.5149 43.8883 37.4216 43.915 37.3082 43.915C37.2582 43.915 37.2032 43.91 37.1432 43.9L36.4932 43.785C36.5432 43.4383 36.6399 43.135 36.7832 42.875C36.9266 42.6117 37.1049 42.3933 37.3182 42.22C37.5349 42.0433 37.7816 41.9117 38.0582 41.825C38.3382 41.735 38.6382 41.69 38.9582 41.69ZM42.479 49V41.77H44.974C45.4474 41.77 45.8507 41.815 46.184 41.905C46.5207 41.995 46.7957 42.1233 47.009 42.29C47.2257 42.4567 47.384 42.6583 47.484 42.895C47.584 43.1317 47.634 43.3983 47.634 43.695C47.634 43.865 47.609 44.0283 47.559 44.185C47.509 44.3383 47.4307 44.4833 47.324 44.62C47.2207 44.7533 47.0874 44.875 46.924 44.985C46.764 45.095 46.5724 45.1883 46.349 45.265C47.3424 45.4883 47.839 46.025 47.839 46.875C47.839 47.1817 47.7807 47.465 47.664 47.725C47.5474 47.985 47.3774 48.21 47.154 48.4C46.9307 48.5867 46.6557 48.7333 46.329 48.84C46.0024 48.9467 45.629 49 45.209 49H42.479ZM43.824 45.83V47.95H45.189C45.439 47.95 45.6474 47.92 45.814 47.86C45.984 47.8 46.119 47.72 46.219 47.62C46.3224 47.52 46.3957 47.4033 46.439 47.27C46.4857 47.1367 46.509 46.995 46.509 46.845C46.509 46.6883 46.484 46.5483 46.434 46.425C46.384 46.2983 46.3057 46.1917 46.199 46.105C46.0924 46.015 45.9557 45.9467 45.789 45.9C45.6224 45.8533 45.4207 45.83 45.184 45.83H43.824ZM43.824 44.9H44.899C45.3557 44.9 45.7024 44.8167 45.939 44.65C46.1757 44.4833 46.294 44.2183 46.294 43.855C46.294 43.4783 46.1874 43.21 45.974 43.05C45.7607 42.89 45.4274 42.81 44.974 42.81H43.824V44.9ZM55.8963 47.295C55.9696 47.295 56.033 47.3233 56.0863 47.38L56.6163 47.955C56.323 48.3183 55.9613 48.5967 55.5313 48.79C55.1046 48.9833 54.5913 49.08 53.9913 49.08C53.4546 49.08 52.9713 48.9883 52.5413 48.805C52.1146 48.6217 51.7496 48.3667 51.4463 48.04C51.143 47.7133 50.9096 47.3233 50.7463 46.87C50.5863 46.4167 50.5063 45.9217 50.5063 45.385C50.5063 44.8417 50.5963 44.345 50.7763 43.895C50.9563 43.4417 51.2096 43.0517 51.5363 42.725C51.863 42.3983 52.253 42.145 52.7063 41.965C53.163 41.7817 53.6663 41.69 54.2163 41.69C54.753 41.69 55.2213 41.7767 55.6213 41.95C56.0246 42.12 56.3696 42.3467 56.6563 42.63L56.2063 43.255C56.1796 43.295 56.1446 43.33 56.1013 43.36C56.0613 43.39 56.0046 43.405 55.9313 43.405C55.8546 43.405 55.7763 43.375 55.6963 43.315C55.6163 43.255 55.5146 43.19 55.3913 43.12C55.268 43.05 55.1113 42.985 54.9213 42.925C54.7346 42.865 54.4963 42.835 54.2063 42.835C53.8663 42.835 53.553 42.895 53.2663 43.015C52.983 43.1317 52.738 43.3 52.5313 43.52C52.328 43.74 52.168 44.0083 52.0513 44.325C51.938 44.6383 51.8813 44.9917 51.8813 45.385C51.8813 45.7917 51.938 46.1533 52.0513 46.47C52.168 46.7867 52.3246 47.0533 52.5213 47.27C52.718 47.4867 52.9496 47.6533 53.2163 47.77C53.483 47.8833 53.7696 47.94 54.0763 47.94C54.2596 47.94 54.4246 47.93 54.5713 47.91C54.7213 47.89 54.858 47.8583 54.9813 47.815C55.108 47.7717 55.2263 47.7167 55.3363 47.65C55.4496 47.58 55.5613 47.495 55.6713 47.395C55.7046 47.365 55.7396 47.3417 55.7763 47.325C55.813 47.305 55.853 47.295 55.8963 47.295ZM64.5703 45.385C64.5703 45.915 64.4819 46.4067 64.3053 46.86C64.1286 47.31 63.8803 47.7 63.5603 48.03C63.2403 48.36 62.8553 48.6183 62.4053 48.805C61.9553 48.9883 61.4569 49.08 60.9103 49.08C60.3636 49.08 59.8636 48.9883 59.4103 48.805C58.9603 48.6183 58.5736 48.36 58.2503 48.03C57.9303 47.7 57.6819 47.31 57.5053 46.86C57.3286 46.4067 57.2403 45.915 57.2403 45.385C57.2403 44.855 57.3286 44.365 57.5053 43.915C57.6819 43.4617 57.9303 43.07 58.2503 42.74C58.5736 42.41 58.9603 42.1533 59.4103 41.97C59.8636 41.7833 60.3636 41.69 60.9103 41.69C61.4569 41.69 61.9553 41.7833 62.4053 41.97C62.8553 42.1567 63.2403 42.415 63.5603 42.745C63.8803 43.0717 64.1286 43.4617 64.3053 43.915C64.4819 44.365 64.5703 44.855 64.5703 45.385ZM63.1903 45.385C63.1903 44.9883 63.1369 44.6333 63.0303 44.32C62.9269 44.0033 62.7769 43.735 62.5803 43.515C62.3836 43.295 62.1436 43.1267 61.8603 43.01C61.5803 42.8933 61.2636 42.835 60.9103 42.835C60.5569 42.835 60.2386 42.8933 59.9553 43.01C59.6719 43.1267 59.4303 43.295 59.2303 43.515C59.0336 43.735 58.8819 44.0033 58.7753 44.32C58.6686 44.6333 58.6153 44.9883 58.6153 45.385C58.6153 45.7817 58.6686 46.1383 58.7753 46.455C58.8819 46.7683 59.0336 47.035 59.2303 47.255C59.4303 47.4717 59.6719 47.6383 59.9553 47.755C60.2386 47.8717 60.5569 47.93 60.9103 47.93C61.2636 47.93 61.5803 47.8717 61.8603 47.755C62.1436 47.6383 62.3836 47.4717 62.5803 47.255C62.7769 47.035 62.9269 46.7683 63.0303 46.455C63.1369 46.1383 63.1903 45.7817 63.1903 45.385ZM69.2633 46C69.32 46.1067 69.3717 46.2183 69.4183 46.335C69.4683 46.4483 69.5167 46.5633 69.5633 46.68C69.61 46.56 69.6583 46.4417 69.7083 46.325C69.7583 46.2083 69.8117 46.0967 69.8683 45.99L72.0083 41.985C72.035 41.935 72.0617 41.895 72.0883 41.865C72.1183 41.835 72.15 41.8133 72.1833 41.8C72.22 41.7867 72.26 41.7783 72.3033 41.775C72.3467 41.7717 72.3983 41.77 72.4583 41.77H73.4733V49H72.2883V44.33C72.2883 44.2433 72.29 44.1483 72.2933 44.045C72.3 43.9417 72.3083 43.8367 72.3183 43.73L70.1333 47.83C70.0833 47.9233 70.0183 47.9967 69.9383 48.05C69.8583 48.1 69.765 48.125 69.6583 48.125H69.4733C69.3667 48.125 69.2733 48.1 69.1933 48.05C69.1133 47.9967 69.0483 47.9233 68.9983 47.83L66.7833 43.715C66.7967 43.825 66.805 43.9333 66.8083 44.04C66.815 44.1433 66.8183 44.24 66.8183 44.33V49H65.6333V41.77H66.6483C66.7083 41.77 66.76 41.7717 66.8033 41.775C66.8467 41.7783 66.885 41.7867 66.9183 41.8C66.955 41.8133 66.9883 41.835 67.0183 41.865C67.0483 41.895 67.0767 41.935 67.1033 41.985L69.2633 46ZM76.3202 46.455V49H74.9752V41.77H77.3302C77.8135 41.77 78.2319 41.8267 78.5852 41.94C78.9385 42.0533 79.2302 42.2117 79.4602 42.415C79.6902 42.6183 79.8602 42.8617 79.9702 43.145C80.0802 43.4283 80.1352 43.7383 80.1352 44.075C80.1352 44.425 80.0769 44.7467 79.9602 45.04C79.8435 45.33 79.6685 45.58 79.4352 45.79C79.2019 46 78.9102 46.1633 78.5602 46.28C78.2102 46.3967 77.8002 46.455 77.3302 46.455H76.3202ZM76.3202 45.405H77.3302C77.5769 45.405 77.7919 45.375 77.9752 45.315C78.1585 45.2517 78.3102 45.1633 78.4302 45.05C78.5502 44.9333 78.6402 44.7933 78.7002 44.63C78.7602 44.4633 78.7902 44.2783 78.7902 44.075C78.7902 43.8817 78.7602 43.7067 78.7002 43.55C78.6402 43.3933 78.5502 43.26 78.4302 43.15C78.3102 43.04 78.1585 42.9567 77.9752 42.9C77.7919 42.84 77.5769 42.81 77.3302 42.81H76.3202V45.405ZM86.7637 49H85.7237C85.607 49 85.5104 48.9717 85.4337 48.915C85.3604 48.855 85.307 48.7817 85.2737 48.695L84.7337 47.22H81.7387L81.1987 48.695C81.172 48.7717 81.1187 48.8417 81.0387 48.905C80.962 48.9683 80.867 49 80.7537 49H79.7087L82.5487 41.77H83.9237L86.7637 49ZM82.0837 46.27H84.3887L83.5087 43.865C83.4687 43.7583 83.4237 43.6333 83.3737 43.49C83.327 43.3433 83.2804 43.185 83.2337 43.015C83.187 43.185 83.1404 43.3433 83.0937 43.49C83.0504 43.6367 83.007 43.765 82.9637 43.875L82.0837 46.27ZM88.2133 41.77C88.2733 41.77 88.3233 41.7733 88.3633 41.78C88.4033 41.7833 88.4383 41.7933 88.4683 41.81C88.5017 41.8233 88.5333 41.845 88.5633 41.875C88.5933 41.9017 88.6267 41.9383 88.6633 41.985L92.4583 46.82C92.445 46.7033 92.435 46.59 92.4283 46.48C92.425 46.3667 92.4233 46.2617 92.4233 46.165V41.77H93.6083V49H92.9133C92.8067 49 92.7183 48.9833 92.6483 48.95C92.5783 48.9167 92.51 48.8567 92.4433 48.77L88.6633 43.955C88.6733 44.0617 88.68 44.1683 88.6833 44.275C88.69 44.3783 88.6933 44.4733 88.6933 44.56V49H87.5083V41.77H88.2133ZM96.5819 49H95.2319V41.77H96.5819V49ZM102.771 41.77V42.84H99.5664V44.845H102.091V45.88H99.5664V47.925H102.771V49H98.2114V41.77H102.771ZM107.809 43.085C107.772 43.1583 107.729 43.21 107.679 43.24C107.632 43.27 107.576 43.285 107.509 43.285C107.442 43.285 107.367 43.26 107.284 43.21C107.201 43.1567 107.102 43.0983 106.989 43.035C106.876 42.9717 106.742 42.915 106.589 42.865C106.439 42.8117 106.261 42.785 106.054 42.785C105.867 42.785 105.704 42.8083 105.564 42.855C105.427 42.8983 105.311 42.96 105.214 43.04C105.121 43.12 105.051 43.2167 105.004 43.33C104.957 43.44 104.934 43.5617 104.934 43.695C104.934 43.865 104.981 44.0067 105.074 44.12C105.171 44.2333 105.297 44.33 105.454 44.41C105.611 44.49 105.789 44.5617 105.989 44.625C106.189 44.6883 106.392 44.7567 106.599 44.83C106.809 44.9 107.014 44.9833 107.214 45.08C107.414 45.1733 107.592 45.2933 107.749 45.44C107.906 45.5833 108.031 45.76 108.124 45.97C108.221 46.18 108.269 46.435 108.269 46.735C108.269 47.0617 108.212 47.3683 108.099 47.655C107.989 47.9383 107.826 48.1867 107.609 48.4C107.396 48.61 107.134 48.7767 106.824 48.9C106.514 49.02 106.159 49.08 105.759 49.08C105.529 49.08 105.302 49.0567 105.079 49.01C104.856 48.9667 104.641 48.9033 104.434 48.82C104.231 48.7367 104.039 48.6367 103.859 48.52C103.682 48.4033 103.524 48.2733 103.384 48.13L103.774 47.485C103.811 47.4383 103.854 47.4 103.904 47.37C103.957 47.3367 104.016 47.32 104.079 47.32C104.162 47.32 104.252 47.355 104.349 47.425C104.446 47.4917 104.559 47.5667 104.689 47.65C104.822 47.7333 104.977 47.81 105.154 47.88C105.334 47.9467 105.549 47.98 105.799 47.98C106.182 47.98 106.479 47.89 106.689 47.71C106.899 47.5267 107.004 47.265 107.004 46.925C107.004 46.735 106.956 46.58 106.859 46.46C106.766 46.34 106.641 46.24 106.484 46.16C106.327 46.0767 106.149 46.0067 105.949 45.95C105.749 45.8933 105.546 45.8317 105.339 45.765C105.132 45.6983 104.929 45.6183 104.729 45.525C104.529 45.4317 104.351 45.31 104.194 45.16C104.037 45.01 103.911 44.8233 103.814 44.6C103.721 44.3733 103.674 44.095 103.674 43.765C103.674 43.5017 103.726 43.245 103.829 42.995C103.936 42.745 104.089 42.5233 104.289 42.33C104.492 42.1367 104.741 41.9817 105.034 41.865C105.327 41.7483 105.662 41.69 106.039 41.69C106.466 41.69 106.859 41.7567 107.219 41.89C107.579 42.0233 107.886 42.21 108.139 42.45L107.809 43.085Z" fill="#B8BEC8"/>
<path d="M50.972 109.915C51.232 109.915 51.4637 109.872 51.667 109.785C51.8737 109.698 52.047 109.577 52.187 109.42C52.3304 109.263 52.4387 109.073 52.512 108.85C52.5887 108.627 52.627 108.377 52.627 108.1V103.77H53.972V108.1C53.972 108.53 53.902 108.928 53.762 109.295C53.6254 109.658 53.427 109.973 53.167 110.24C52.907 110.503 52.592 110.71 52.222 110.86C51.852 111.007 51.4354 111.08 50.972 111.08C50.5087 111.08 50.092 111.007 49.722 110.86C49.352 110.71 49.037 110.503 48.777 110.24C48.5204 109.973 48.322 109.658 48.182 109.295C48.0454 108.928 47.977 108.53 47.977 108.1V103.77H49.322V108.095C49.322 108.372 49.3587 108.622 49.432 108.845C49.5087 109.068 49.617 109.26 49.757 109.42C49.897 109.577 50.0687 109.698 50.272 109.785C50.4787 109.872 50.712 109.915 50.972 109.915ZM56.7274 106.8H57.0424C57.1691 106.8 57.2741 106.783 57.3574 106.75C57.4408 106.713 57.5124 106.657 57.5724 106.58L59.5674 104.055C59.6508 103.948 59.7374 103.875 59.8274 103.835C59.9208 103.792 60.0374 103.77 60.1774 103.77H61.3374L58.9024 106.775C58.8258 106.868 58.7524 106.947 58.6824 107.01C58.6124 107.073 58.5374 107.125 58.4574 107.165C58.5674 107.205 58.6658 107.262 58.7524 107.335C58.8424 107.408 58.9291 107.502 59.0124 107.615L61.5224 111H60.3324C60.1724 111 60.0524 110.978 59.9724 110.935C59.8958 110.888 59.8308 110.822 59.7774 110.735L57.7324 108.065C57.6658 107.978 57.5908 107.917 57.5074 107.88C57.4241 107.84 57.3058 107.82 57.1524 107.82H56.7274V111H55.3824V103.765H56.7274V106.8ZM63.7098 108.175V111H62.3648V103.77H64.5698C65.0632 103.77 65.4848 103.822 65.8348 103.925C66.1882 104.025 66.4765 104.167 66.6998 104.35C66.9265 104.533 67.0915 104.753 67.1948 105.01C67.3015 105.263 67.3548 105.543 67.3548 105.85C67.3548 106.093 67.3182 106.323 67.2448 106.54C67.1748 106.757 67.0715 106.953 66.9348 107.13C66.8015 107.307 66.6348 107.462 66.4348 107.595C66.2382 107.728 66.0132 107.835 65.7598 107.915C65.9298 108.012 66.0765 108.15 66.1998 108.33L68.0098 111H66.7998C66.6832 111 66.5832 110.977 66.4998 110.93C66.4198 110.883 66.3515 110.817 66.2948 110.73L64.7748 108.415C64.7182 108.328 64.6548 108.267 64.5848 108.23C64.5182 108.193 64.4182 108.175 64.2848 108.175H63.7098ZM63.7098 107.21H64.5498C64.8032 107.21 65.0232 107.178 65.2098 107.115C65.3998 107.052 65.5548 106.965 65.6748 106.855C65.7982 106.742 65.8898 106.608 65.9498 106.455C66.0098 106.302 66.0398 106.133 66.0398 105.95C66.0398 105.583 65.9182 105.302 65.6748 105.105C65.4348 104.908 65.0665 104.81 64.5698 104.81H63.7098V107.21ZM75.2276 111H74.1876C74.0709 111 73.9742 110.972 73.8976 110.915C73.8242 110.855 73.7709 110.782 73.7376 110.695L73.1976 109.22H70.2026L69.6626 110.695C69.6359 110.772 69.5826 110.842 69.5026 110.905C69.4259 110.968 69.3309 111 69.2176 111H68.1726L71.0126 103.77H72.3876L75.2276 111ZM70.5476 108.27H72.8526L71.9726 105.865C71.9326 105.758 71.8876 105.633 71.8376 105.49C71.7909 105.343 71.7442 105.185 71.6976 105.015C71.6509 105.185 71.6042 105.343 71.5576 105.49C71.5142 105.637 71.4709 105.765 71.4276 105.875L70.5476 108.27ZM77.4872 111H76.1372V103.77H77.4872V111ZM79.8217 103.77C79.8817 103.77 79.9317 103.773 79.9717 103.78C80.0117 103.783 80.0467 103.793 80.0767 103.81C80.1101 103.823 80.1417 103.845 80.1717 103.875C80.2017 103.902 80.2351 103.938 80.2717 103.985L84.0667 108.82C84.0534 108.703 84.0434 108.59 84.0367 108.48C84.0334 108.367 84.0317 108.262 84.0317 108.165V103.77H85.2167V111H84.5217C84.4151 111 84.3267 110.983 84.2567 110.95C84.1867 110.917 84.1184 110.857 84.0517 110.77L80.2717 105.955C80.2817 106.062 80.2884 106.168 80.2917 106.275C80.2984 106.378 80.3017 106.473 80.3017 106.56V111H79.1167V103.77H79.8217ZM91.2353 103.77V104.84H88.0303V106.845H90.5553V107.88H88.0303V109.925H91.2353V111H86.6753V103.77H91.2353ZM60.9084 119.69C61.2418 119.69 61.5468 119.74 61.8234 119.84C62.1001 119.937 62.3368 120.075 62.5334 120.255C62.7301 120.435 62.8834 120.652 62.9934 120.905C63.1034 121.158 63.1584 121.44 63.1584 121.75C63.1584 122.017 63.1184 122.263 63.0384 122.49C62.9618 122.717 62.8568 122.933 62.7234 123.14C62.5934 123.347 62.4401 123.547 62.2634 123.74C62.0868 123.933 61.9018 124.13 61.7084 124.33L60.0784 125.995C60.2384 125.948 60.3951 125.913 60.5484 125.89C60.7018 125.863 60.8484 125.85 60.9884 125.85H62.8434C62.9768 125.85 63.0818 125.888 63.1584 125.965C63.2384 126.038 63.2784 126.137 63.2784 126.26V127H58.3184V126.59C58.3184 126.507 58.3351 126.42 58.3684 126.33C58.4051 126.24 58.4618 126.157 58.5384 126.08L60.7334 123.88C60.9168 123.693 61.0801 123.515 61.2234 123.345C61.3701 123.175 61.4918 123.007 61.5884 122.84C61.6884 122.673 61.7634 122.505 61.8134 122.335C61.8668 122.162 61.8934 121.98 61.8934 121.79C61.8934 121.617 61.8684 121.465 61.8184 121.335C61.7684 121.202 61.6968 121.09 61.6034 121C61.5101 120.91 61.3984 120.843 61.2684 120.8C61.1418 120.753 60.9984 120.73 60.8384 120.73C60.5418 120.73 60.2968 120.805 60.1034 120.955C59.9134 121.105 59.7801 121.307 59.7034 121.56C59.6668 121.687 59.6118 121.778 59.5384 121.835C59.4651 121.888 59.3718 121.915 59.2584 121.915C59.2084 121.915 59.1534 121.91 59.0934 121.9L58.4434 121.785C58.4934 121.438 58.5901 121.135 58.7334 120.875C58.8768 120.612 59.0551 120.393 59.2684 120.22C59.4851 120.043 59.7318 119.912 60.0084 119.825C60.2884 119.735 60.5884 119.69 60.9084 119.69ZM69.2492 123.385C69.2492 124.015 69.1809 124.563 69.0442 125.03C68.9109 125.493 68.7242 125.877 68.4842 126.18C68.2476 126.483 67.9659 126.71 67.6392 126.86C67.3159 127.007 66.9659 127.08 66.5892 127.08C66.2126 127.08 65.8626 127.007 65.5392 126.86C65.2192 126.71 64.9409 126.483 64.7042 126.18C64.4676 125.877 64.2826 125.493 64.1492 125.03C64.0159 124.563 63.9492 124.015 63.9492 123.385C63.9492 122.752 64.0159 122.203 64.1492 121.74C64.2826 121.277 64.4676 120.893 64.7042 120.59C64.9409 120.287 65.2192 120.062 65.5392 119.915C65.8626 119.765 66.2126 119.69 66.5892 119.69C66.9659 119.69 67.3159 119.765 67.6392 119.915C67.9659 120.062 68.2476 120.287 68.4842 120.59C68.7242 120.893 68.9109 121.277 69.0442 121.74C69.1809 122.203 69.2492 122.752 69.2492 123.385ZM67.9742 123.385C67.9742 122.862 67.9359 122.428 67.8592 122.085C67.7826 121.742 67.6792 121.468 67.5492 121.265C67.4226 121.062 67.2759 120.92 67.1092 120.84C66.9426 120.757 66.7692 120.715 66.5892 120.715C66.4126 120.715 66.2409 120.757 66.0742 120.84C65.9109 120.92 65.7659 121.062 65.6392 121.265C65.5126 121.468 65.4109 121.742 65.3342 122.085C65.2609 122.428 65.2242 122.862 65.2242 123.385C65.2242 123.908 65.2609 124.342 65.3342 124.685C65.4109 125.028 65.5126 125.302 65.6392 125.505C65.7659 125.708 65.9109 125.852 66.0742 125.935C66.2409 126.015 66.4126 126.055 66.5892 126.055C66.7692 126.055 66.9426 126.015 67.1092 125.935C67.2759 125.852 67.4226 125.708 67.5492 125.505C67.6792 125.302 67.7826 125.028 67.8592 124.685C67.9359 124.342 67.9742 123.908 67.9742 123.385ZM72.51 119.69C72.8433 119.69 73.1483 119.74 73.425 119.84C73.7017 119.937 73.9383 120.075 74.135 120.255C74.3317 120.435 74.485 120.652 74.595 120.905C74.705 121.158 74.76 121.44 74.76 121.75C74.76 122.017 74.72 122.263 74.64 122.49C74.5633 122.717 74.4583 122.933 74.325 123.14C74.195 123.347 74.0417 123.547 73.865 123.74C73.6883 123.933 73.5033 124.13 73.31 124.33L71.68 125.995C71.84 125.948 71.9967 125.913 72.15 125.89C72.3033 125.863 72.45 125.85 72.59 125.85H74.445C74.5783 125.85 74.6833 125.888 74.76 125.965C74.84 126.038 74.88 126.137 74.88 126.26V127H69.92V126.59C69.92 126.507 69.9367 126.42 69.97 126.33C70.0067 126.24 70.0633 126.157 70.14 126.08L72.335 123.88C72.5183 123.693 72.6817 123.515 72.825 123.345C72.9717 123.175 73.0933 123.007 73.19 122.84C73.29 122.673 73.365 122.505 73.415 122.335C73.4683 122.162 73.495 121.98 73.495 121.79C73.495 121.617 73.47 121.465 73.42 121.335C73.37 121.202 73.2983 121.09 73.205 121C73.1117 120.91 73 120.843 72.87 120.8C72.7433 120.753 72.6 120.73 72.44 120.73C72.1433 120.73 71.8983 120.805 71.705 120.955C71.515 121.105 71.3817 121.307 71.305 121.56C71.2683 121.687 71.2133 121.778 71.14 121.835C71.0667 121.888 70.9733 121.915 70.86 121.915C70.81 121.915 70.755 121.91 70.695 121.9L70.045 121.785C70.095 121.438 70.1917 121.135 70.335 120.875C70.4783 120.612 70.6567 120.393 70.87 120.22C71.0867 120.043 71.3333 119.912 71.61 119.825C71.89 119.735 72.19 119.69 72.51 119.69ZM76.6458 126.075H78.1108V121.86C78.1108 121.697 78.1158 121.525 78.1258 121.345L77.0858 122.215C77.0424 122.252 76.9974 122.277 76.9508 122.29C76.9074 122.303 76.8641 122.31 76.8208 122.31C76.7541 122.31 76.6924 122.297 76.6358 122.27C76.5824 122.24 76.5424 122.207 76.5158 122.17L76.1258 121.635L78.3308 119.76H79.3458V126.075H80.6458V127H76.6458V126.075Z" fill="#B8BEC8"/>
<path d="M18.5 55H119" stroke="#3B3D40" stroke-width="0.5"/>
<path d="M18.5 97H119" stroke="#3B3D40" stroke-width="0.5"/>
<defs>
<clipPath id="clip0_23_1005">
<rect width="66" height="18" fill="white" transform="translate(35 67)"/>
</clipPath>
</defs>
</svg>
