<svg width="162" height="56" viewBox="0 0 162 56" fill="none" xmlns="http://www.w3.org/2000/svg">
<rect width="162" height="56" fill="black"/>
<path d="M111.094 20.5539C112.315 20.5539 113.261 19.5447 113.261 18.2767C113.261 17.0346 112.315 16.0254 111.094 16.0254C109.899 16.0254 108.902 17.0346 108.902 18.2767C108.877 19.5447 109.899 20.5539 111.094 20.5539Z" fill="#B8BEC8"/>
<path d="M92.4131 22.1338H95.676V24.204C96.4979 22.9618 98.3162 21.8232 100.458 21.8232C104.518 21.8232 107.607 25.4202 107.607 29.8452C107.607 34.2444 104.518 37.8672 100.458 37.8672C98.3162 37.8672 96.5228 36.7286 95.676 35.4865V44.0002H92.4131V22.1338ZM99.8604 24.9027C97.2202 24.9027 95.402 27.0505 95.402 29.8452C95.402 32.6141 97.2202 34.7878 99.8604 34.7878C102.476 34.7878 104.294 32.64 104.294 29.8452C104.294 27.0764 102.476 24.9027 99.8604 24.9027Z" fill="#B8BEC8"/>
<path d="M115.131 22.1328H118.394V24.2289C119.291 22.6762 120.985 21.8223 122.902 21.8223C126.34 21.8223 128.581 24.3583 128.581 28.2657V37.5557H125.319V28.835C125.319 26.4026 124.123 24.9276 122.23 24.9276C120.063 24.9276 118.394 26.6872 118.394 29.9736V37.5557H115.131V22.1328V22.1328Z" fill="#B8BEC8"/>
<path d="M67.5622 21.8219C65.6443 21.8219 63.9506 22.6759 63.0539 24.2285V16.0254H59.791V37.5554H63.0539V29.9733C63.0539 26.6869 64.7227 24.9272 66.8897 24.9272C68.7827 24.9272 69.9782 26.4022 69.9782 28.8347V37.5554H73.2411V28.2654C73.2162 24.3579 70.9994 21.8219 67.5622 21.8219Z" fill="#B8BEC8"/>
<path d="M112.696 22.1331H109.433V37.556H112.696V22.1331Z" fill="#B8BEC8"/>
<path d="M82.8237 37.8672C78.4399 37.8672 75.0525 34.322 75.0525 29.8452C75.0525 25.3684 78.4399 21.8232 82.8237 21.8232C87.2074 21.8232 90.5948 25.3684 90.5948 29.8452C90.5948 34.322 87.2074 37.8672 82.8237 37.8672ZM82.8237 34.7102C85.4389 34.7102 87.2821 32.5883 87.2821 29.8452C87.2821 27.1022 85.4389 24.9803 82.8237 24.9803C80.1834 24.9803 78.3403 27.1022 78.3403 29.8452C78.3403 32.5883 80.1834 34.7102 82.8237 34.7102Z" fill="#B8BEC8"/>
<path d="M45.8037 20.1663C45.7788 21.2014 45.0813 22.6764 43.9107 22.6764C43.1884 22.6764 42.5906 22.0553 42.5906 21.3049V21.279C42.5657 20.0628 42.0426 19.0018 41.2207 18.2513C40.598 17.7079 39.8259 17.3456 38.979 17.2421C39.7013 16.4658 40.7225 16 41.8434 16C43.2631 16 44.5583 16.854 45.3055 18.0961C45.6542 18.7171 45.8286 19.4676 45.8037 20.1663Z" fill="#B8BEC8"/>
<path d="M41.1799 20.2692C41.8026 21.0973 42.1762 22.6758 41.2796 23.4521C40.7067 23.9438 39.8847 23.8662 39.4115 23.2969C38.6394 22.3912 37.5683 21.9254 36.4973 21.8995C35.6754 21.8736 34.8534 22.1324 34.156 22.6241C34.2307 21.5631 34.704 20.5021 35.5757 19.7517C36.6966 18.7942 38.2657 18.5096 39.6108 19.0789C40.2334 19.3117 40.7814 19.7258 41.1799 20.2692Z" fill="#B8BEC8"/>
<path d="M37.6846 23.4267C38.656 23.6338 39.9512 24.6171 39.7519 25.8075C39.6274 26.5579 38.93 27.0496 38.2077 26.9202H38.1828C37.037 26.7391 35.9162 27.1013 35.0942 27.8C34.4715 28.3176 33.9734 29.068 33.7492 29.922C33.1514 29.0421 32.8775 27.9294 33.0518 26.7649C33.3258 25.2899 34.347 24.0478 35.7418 23.5561C36.3645 23.3491 37.0619 23.2974 37.6846 23.4267Z" fill="#B8BEC8"/>
<path d="M36.9682 28.1888C37.84 27.6971 39.4341 27.5936 40.007 28.6287C40.3806 29.2756 40.1564 30.1296 39.5337 30.5177C38.5374 31.1388 37.9147 32.148 37.6906 33.2607C37.5411 34.0888 37.6158 34.9687 37.9894 35.7709C36.9931 35.5121 36.0716 34.8393 35.5236 33.83C34.8013 32.5103 34.8262 30.88 35.5734 29.5861C35.9221 28.991 36.3954 28.4993 36.9682 28.1888Z" fill="#B8BEC8"/>
<path d="M39.3594 32.3027C39.733 31.3452 40.8787 30.2066 41.9498 30.6207C42.6472 30.8794 42.9959 31.6816 42.7468 32.3803C42.3732 33.5189 42.5226 34.7093 43.0457 35.6926C43.4442 36.4431 44.042 37.0383 44.8141 37.4264C43.8676 37.8922 42.7717 37.9957 41.7256 37.5817C40.3557 37.0641 39.3594 35.7961 39.1352 34.2952C39.0605 33.6224 39.1352 32.9237 39.3594 32.3027Z" fill="#B8BEC8"/>
<path d="M43.7377 33.8557C43.4139 32.8723 43.5883 31.242 44.6842 30.828C45.3816 30.5692 46.1289 30.9315 46.3779 31.6561C46.8014 32.7688 47.6482 33.5969 48.6694 34.0109C49.4167 34.3215 50.2884 34.3732 51.1104 34.1662C50.6869 35.1495 49.8899 35.9517 48.8438 36.3658C47.4739 36.8833 45.9047 36.5728 44.8337 35.5636C44.3355 35.0719 43.937 34.5026 43.7377 33.8557Z" fill="#B8BEC8"/>
<path d="M48.0703 32.122C47.2235 31.5786 46.3268 30.2071 46.9246 29.172C47.2982 28.5251 48.0953 28.2922 48.7429 28.6545C49.7641 29.2238 50.9098 29.3014 51.9559 28.9391C52.7281 28.6545 53.4255 28.1369 53.9236 27.4124C54.1976 28.4475 54.098 29.5861 53.5251 30.5953C52.8028 31.915 51.408 32.7172 49.9633 32.6655C49.2659 32.6655 48.5934 32.4843 48.0703 32.122Z" fill="#B8BEC8"/>
<path d="M50.312 27.9039C49.3157 28.0591 47.7964 27.5933 47.5971 26.403C47.4477 25.6784 47.9458 24.9538 48.6681 24.8245H48.693C49.8388 24.5916 50.7604 23.867 51.3083 22.9095C51.7318 22.185 51.931 21.331 51.8563 20.4512C52.7032 21.0464 53.3508 22.0038 53.5251 23.1424C53.7742 24.6174 53.2013 26.1701 52.0805 27.1017C51.5574 27.5157 50.9347 27.8262 50.312 27.9039Z" fill="#B8BEC8"/>
<path d="M49.417 23.1923C48.7445 23.9686 47.2999 24.6414 46.4032 23.8651C45.8304 23.3734 45.7556 22.5195 46.2289 21.9243C46.9512 20.9927 47.2252 19.8024 47.0508 18.6896C46.9263 17.8616 46.5527 17.0594 45.9549 16.4124C46.9761 16.3089 48.0471 16.6194 48.9189 17.3699C50.0397 18.3274 50.5628 19.9059 50.2639 21.3809C50.1394 22.0537 49.8405 22.7006 49.417 23.1923Z" fill="#B8BEC8"/>
</svg>
