<svg width="162" height="56" viewBox="0 0 162 56" fill="none" xmlns="http://www.w3.org/2000/svg">
<rect width="162" height="56" fill="black"/>
<path d="M47.03 32.6371C48.3726 32.2194 49.1527 30.4939 49.1527 27.9492C49.1527 24.5773 47.8884 22.9906 45.3635 23.192L44.5583 23.255L44.5074 27.7915C44.4808 30.2876 44.4986 32.4454 44.547 32.5869C44.6545 32.9009 46.0845 32.9315 47.03 32.6371ZM52.8464 19.6082C54.6331 20.5877 56.0654 22.7491 56.5174 25.1352C56.6288 25.7238 56.7201 27.0114 56.7201 27.9998C56.7201 28.9882 56.6288 30.2757 56.5174 30.8643C56.0511 33.325 54.6052 35.4122 52.6718 36.4041C50.8352 37.3463 49.4788 37.4892 42.4693 37.4892H36V32.896L36.5742 32.7699C37.7778 32.5 37.8016 32.4043 37.8016 28.0567C37.8016 25.7499 37.7253 23.9762 37.6159 23.7472C37.5021 23.5087 37.1529 23.3083 36.7151 23.23L36 23.1036V18.5102L42.7116 18.5165C49.9681 18.5205 51.0692 18.634 52.8464 19.6082ZM88.8164 30.5802L89.4413 30.713C90.626 30.9619 91.0265 32.456 90.1225 33.2555C89.7241 33.6081 89.4607 33.6765 88.7656 33.6026C86.9066 33.4046 86.2181 31.7523 86.3219 27.7286C86.3769 25.6014 86.4441 25.1397 86.8342 24.2645C87.4012 22.9936 88.2325 22.3467 89.3004 22.3467C90.6614 22.3467 91.7337 23.3027 91.9918 24.7504L92.1045 25.3749H96.0234V18.5102H94.1314C92.6045 18.5102 92.2397 18.5656 92.2397 18.8005C92.2397 19.3081 91.9736 19.3101 91.0235 18.8005C89.9732 18.2372 88.5687 17.9562 87.1441 18.0056C86.6692 18.022 86.1925 18.0791 85.7254 18.1695C81.1657 19.0514 78.6795 22.4739 78.6647 27.8988C78.6581 30.229 78.9207 31.6603 79.6611 33.3187C80.8272 35.93 82.89 37.3913 86.1136 37.8994C88.1603 38.222 90.7805 37.6774 92.082 36.6563C92.5825 36.2639 92.769 36.358 93.0166 37.1359C93.1131 37.4389 93.374 37.4892 94.8466 37.4892H96.5639V34.4922C96.5639 31.1701 96.6159 31.0091 97.7799 30.7319L98.3655 30.5928V26.5866H88.8164V30.5802ZM126.833 22.7568V18.5102H110.978V25.9808H114.745L114.868 24.7314C115.05 22.9307 115.44 22.5483 117.087 22.5483C117.779 22.5483 118.386 22.6246 118.438 22.7187C118.49 22.8131 116.752 25.2267 114.576 28.082L110.617 33.2744V37.4892H126.833V30.0188H122.869V31.1166C122.869 31.9848 122.776 32.3325 122.436 32.7761C122.047 33.2822 121.873 33.3489 120.623 33.4196C119.86 33.4629 119.161 33.4095 119.069 33.3061C118.965 33.1896 120.411 31.1401 122.864 27.9366L126.833 22.7568ZM69.1089 33.079C69.8365 32.2634 70.0492 31.112 70.0492 27.9998C70.0492 24.8875 69.8365 23.736 69.1089 22.9207C68.739 22.5062 68.2755 22.3097 67.8027 22.3087C67.0143 22.3068 66.1994 22.8491 65.7418 23.8294C65.3427 24.6841 65.1891 29.416 65.5053 31.123C65.8162 32.8017 66.5699 33.6532 67.7518 33.6531C68.4377 33.6531 68.6922 33.5457 69.1089 33.079ZM67.7576 18.0562C73.2568 18.0808 76.565 20.6055 77.4871 25.4823C78.4041 30.3347 76.6645 34.9211 73.2192 36.7448C71.3101 37.7552 68.265 38.2286 65.8206 37.8931C61.6843 37.3253 58.9451 34.8895 58.0112 30.959C57.691 29.6113 57.6892 26.3767 58.0112 25.0216C58.6207 22.4563 59.8988 20.61 61.8679 19.4505C63.6423 18.4057 65.1737 18.0444 67.7576 18.0562ZM98.5457 23.1541H99.0918C99.4342 23.1541 99.8071 23.3435 100.083 23.6526C100.52 24.143 100.528 24.1849 100.528 27.8737C100.528 29.924 100.477 31.7509 100.415 31.9305C100.28 32.3254 99.4277 32.8455 98.9175 32.8455C98.5664 32.8455 98.5457 32.9613 98.5457 35.1673V37.4892H108.996V32.896L108.422 32.7699C107.215 32.4995 107.194 32.4097 107.194 27.9809V23.9931L107.667 23.5705C107.928 23.3403 108.334 23.1541 108.568 23.1541C108.991 23.1541 108.996 23.1392 108.996 20.8323V18.5102H98.5457V23.1541Z" fill="#B8BEC8"/>
</svg>
