<svg width="162" height="56" viewBox="0 0 162 56" fill="none" xmlns="http://www.w3.org/2000/svg">
<rect width="162" height="56" fill="black"/>
<path d="M58.5615 28.3852V17.7705H61.8764V18.4721C61.8764 18.858 61.8823 19.1737 61.8895 19.1737C61.8967 19.1737 62.1059 19.0465 62.3544 18.8911C65.2862 17.0574 69.548 16.5052 73.3704 17.4638C76.8142 18.3275 79.3107 20.3777 80.1981 23.0711C80.7167 24.645 80.6882 26.3953 80.1189 27.9174C79.4109 29.8109 77.9553 31.3333 75.8559 32.3762C74.0186 33.2888 71.9209 33.7458 69.569 33.7458C67.6194 33.7458 65.8011 33.4211 64.2004 32.7872C63.5653 32.5357 62.7511 32.1229 62.2573 31.8018L61.8764 31.5543V39H58.5615V28.3852ZM71.1725 30.9238C73.0371 30.6597 74.4837 30.0689 75.5684 29.1287C76.3895 28.417 76.9612 27.4286 77.1778 26.3465C77.2665 25.9039 77.2667 24.8588 77.1784 24.4175C76.9233 23.144 76.1925 22.0316 75.0987 21.2515C74.6577 20.9371 73.7621 20.489 73.1903 20.297C71.5759 19.7547 69.6184 19.5941 67.8256 19.8569C64.7128 20.313 62.609 21.8548 62.0445 24.0931C61.7954 25.0807 61.84 26.1469 62.1691 27.0786C62.9165 29.1952 65.1209 30.6037 68.236 30.9552C68.8623 31.0259 70.5818 31.0075 71.1726 30.9238H71.1725ZM82.1622 28.3852V17.7705H85.477V18.4721C85.477 18.858 85.4842 19.1737 85.4929 19.1737C85.5017 19.1737 85.6841 19.0597 85.8982 18.9204C86.3938 18.5977 87.3719 18.1152 87.9992 17.8841C90.7066 16.8861 94.0124 16.7251 96.9053 17.4505C101.621 18.6328 104.398 21.872 104.136 25.8844C103.936 28.9472 101.895 31.463 98.5384 32.7852C97.4434 33.2164 96.3213 33.4884 94.9169 33.6628C94.1756 33.7549 92.1779 33.7549 91.4042 33.6626C89.2141 33.4017 87.2914 32.7523 85.7922 31.7671L85.477 31.5599V39H82.1622V28.3852ZM94.8534 30.9082C97.4357 30.5231 99.2555 29.4842 100.212 27.8493C100.767 26.8995 100.975 25.6361 100.769 24.4631C100.341 22.025 98.1953 20.338 94.9102 19.8564C92.742 19.5386 90.2939 19.8551 88.6298 20.6685C86.931 21.4988 85.9086 22.7384 85.5596 24.3911C85.4681 24.8251 85.4683 25.9405 85.5601 26.3657C85.8073 27.5105 86.366 28.4576 87.2139 29.1694C88.3814 30.1496 89.9009 30.7333 91.8726 30.9589C92.5248 31.0335 94.2048 31.0049 94.8534 30.9082V30.9082ZM44.8694 33.7239C43.1111 33.5687 41.6102 33.2228 40.334 32.6785C37.4312 31.4403 35.5977 29.3505 35.1001 26.7129C35.0051 26.2091 34.9688 25.0742 35.0304 24.5319C35.3898 21.3696 37.7225 18.8648 41.4105 17.6813C43.3731 17.0515 45.7888 16.8457 47.9572 17.1237C51.9299 17.6331 54.935 19.4727 56.2558 22.2039C57.3314 24.4277 57.1949 27.129 55.9021 29.2057C55.3197 30.1412 54.361 31.1067 53.373 31.7524C51.8358 32.7569 49.9999 33.3819 47.77 33.6595C47.3234 33.7152 45.2838 33.7604 44.8694 33.7239V33.7239ZM47.221 30.9586C48.9501 30.7753 50.4048 30.2823 51.4992 29.5087C52.394 28.8763 53.1021 27.9441 53.4198 26.9804C53.6058 26.4164 53.6426 26.1515 53.6426 25.3807C53.6426 24.6121 53.6063 24.3495 53.4218 23.785C52.8152 21.9297 51.0413 20.5495 48.5627 20.0048C46.3895 19.527 43.8551 19.6931 41.9774 20.4361C40.6227 20.9722 39.5535 21.84 38.9264 22.9122C38.2597 24.0523 38.1083 25.6052 38.5337 26.9435C38.9921 28.3855 40.1994 29.5922 41.8608 30.269C42.7658 30.6377 43.8863 30.8947 44.9956 30.9878C45.4212 31.0234 46.7764 31.0056 47.221 30.9586V30.9586ZM115.599 33.7251C115.53 33.7172 115.287 33.693 115.059 33.6715C113.229 33.4983 111.305 32.9213 109.895 32.1225C107.989 31.0427 106.661 29.5078 106.054 27.6835C105.644 26.4489 105.574 25.0615 105.857 23.7849C106.286 21.8547 107.463 20.2157 109.29 19.0035C111.699 17.405 115.242 16.6949 118.662 17.1253C121.503 17.4828 123.844 18.5206 125.473 20.1448C126.714 21.3817 127.427 22.8311 127.633 24.5342C127.687 24.9768 127.678 25.8718 127.616 26.3414C127.169 29.7231 124.485 32.3078 120.374 33.3148C119.127 33.62 118.345 33.7125 116.879 33.7276C116.244 33.7341 115.669 33.733 115.599 33.7251V33.7251ZM117.779 30.9753C119.968 30.7743 121.752 30.0539 122.897 28.9088C123.673 28.1336 124.123 27.2801 124.3 26.2485C124.373 25.8235 124.372 24.9374 124.298 24.4965C123.899 22.123 121.803 20.4024 118.698 19.8991C117.952 19.7782 117.457 19.7388 116.68 19.7388C113.199 19.7388 110.497 21.0497 109.458 23.2435C109.149 23.8973 109.006 24.5721 109.006 25.3807C109.006 26.4476 109.255 27.2938 109.817 28.137C110.849 29.6849 112.806 30.6737 115.396 30.9562C115.93 31.0144 117.24 31.025 117.779 30.9754L117.779 30.9753Z" fill="#B8BEC8"/>
</svg>
