<svg width="304" height="108" viewBox="0 0 304 108" fill="none" xmlns="http://www.w3.org/2000/svg">
<rect width="304" height="108" fill="black"/>
<path d="M203.942 37.8072C206.031 37.8072 207.652 36.0771 207.652 33.9034C207.652 31.774 206.031 30.0439 203.942 30.0439C201.895 30.0439 200.19 31.774 200.19 33.9034C200.147 36.0771 201.895 37.8072 203.942 37.8072Z" fill="#B8BEC8"/>
<path d="M171.962 40.5145H177.548V44.0634C178.955 41.9341 182.068 39.9822 185.735 39.9822C192.685 39.9822 197.972 46.1484 197.972 53.7342C197.972 61.2757 192.685 67.4863 185.735 67.4863C182.068 67.4863 178.998 65.5344 177.548 63.405V77.9999H171.962V40.5145ZM184.711 45.2612C180.191 45.2612 177.079 48.9432 177.079 53.7342C177.079 58.4809 180.191 62.2073 184.711 62.2073C189.189 62.2073 192.301 58.5253 192.301 53.7342C192.301 48.9875 189.189 45.2612 184.711 45.2612Z" fill="#B8BEC8"/>
<path d="M210.853 40.5133H216.439V44.1066C217.974 41.4449 220.873 39.981 224.157 39.981C230.041 39.981 233.879 44.3284 233.879 51.027V66.9527H228.293V52.0029C228.293 47.8329 226.246 45.3043 223.005 45.3043C219.296 45.3043 216.439 48.3209 216.439 53.9548V66.9527H210.853V40.5133V40.5133Z" fill="#B8BEC8"/>
<path d="M129.418 39.9809C126.135 39.9809 123.236 41.4448 121.701 44.1065V30.0439H116.115V66.9526H121.701V53.9548C121.701 48.3209 124.558 45.3043 128.267 45.3043C131.508 45.3043 133.555 47.8329 133.555 52.0029V66.9526H139.14V51.0269C139.098 44.3283 135.303 39.9809 129.418 39.9809Z" fill="#B8BEC8"/>
<path d="M206.685 40.5146H201.099V66.9541H206.685V40.5146Z" fill="#B8BEC8"/>
<path d="M155.545 67.4863C148.041 67.4863 142.241 61.4088 142.241 53.7342C142.241 46.0597 148.041 39.9822 155.545 39.9822C163.05 39.9822 168.849 46.0597 168.849 53.7342C168.849 61.4088 163.05 67.4863 155.545 67.4863ZM155.545 62.0742C160.022 62.0742 163.178 58.4365 163.178 53.7342C163.178 49.0319 160.022 45.3943 155.545 45.3943C151.025 45.3943 147.87 49.0319 147.87 53.7342C147.87 58.4365 151.025 62.0742 155.545 62.0742Z" fill="#B8BEC8"/>
<path d="M92.169 37.1422C92.1264 38.9166 90.9325 41.4452 88.9284 41.4452C87.6918 41.4452 86.6684 40.3806 86.6684 39.0941V39.0497C86.6258 36.9647 85.7303 35.1459 84.3232 33.8594C83.2572 32.9279 81.9354 32.3068 80.4856 32.1293C81.7222 30.7985 83.4704 30 85.3892 30C87.8197 30 90.037 31.4639 91.3162 33.5933C91.9132 34.6579 92.2117 35.9444 92.169 37.1422Z" fill="#B8BEC8"/>
<path d="M84.2533 37.3191C85.3193 38.7386 85.9589 41.4447 84.4239 42.7755C83.4431 43.6184 82.036 43.4853 81.2259 42.5094C79.904 40.9567 78.0705 40.1582 76.2369 40.1139C74.8298 40.0695 73.4227 40.5131 72.2288 41.356C72.3567 39.5372 73.1668 37.7183 74.6593 36.4319C76.5781 34.7905 79.2644 34.3025 81.567 35.2785C82.633 35.6777 83.5711 36.3875 84.2533 37.3191Z" fill="#B8BEC8"/>
<path d="M78.2698 42.732C79.9327 43.0869 82.15 44.7726 81.8089 46.8133C81.5957 48.0997 80.4018 48.9426 79.1652 48.7208H79.1226C77.1611 48.4103 75.2423 49.0313 73.8352 50.2291C72.7692 51.1163 71.9164 52.4028 71.5326 53.8667C70.5093 52.3584 70.0402 50.4509 70.3387 48.4546C70.8077 45.926 72.556 43.7967 74.9438 42.9538C76.0098 42.5989 77.2038 42.5102 78.2698 42.732Z" fill="#B8BEC8"/>
<path d="M77.044 50.8946C78.5364 50.0518 81.2653 49.8743 82.2461 51.6488C82.8857 52.7578 82.5019 54.2217 81.4359 54.8872C79.7303 55.9518 78.6643 57.6819 78.2805 59.5895C78.0247 61.009 78.1526 62.5173 78.7922 63.8925C77.0866 63.4489 75.5089 62.2955 74.5708 60.5654C73.3343 58.303 73.3769 55.5082 74.6561 53.2902C75.2531 52.2698 76.0632 51.427 77.044 50.8946Z" fill="#B8BEC8"/>
<path d="M81.1366 57.9475C81.7762 56.3061 83.7376 54.3542 85.5712 55.064C86.7651 55.5076 87.362 56.8828 86.9356 58.0806C86.296 60.0325 86.5519 62.0731 87.4473 63.7588C88.1296 65.0453 89.1529 66.0656 90.4748 66.731C88.8545 67.5296 86.9783 67.707 85.1874 66.9972C82.8422 66.11 81.1366 63.9363 80.7528 61.3633C80.6249 60.2099 80.7528 59.0122 81.1366 57.9475Z" fill="#B8BEC8"/>
<path d="M88.6317 60.6093C88.0774 58.9236 88.3759 56.1288 90.2521 55.4191C91.446 54.9754 92.7252 55.5965 93.1516 56.8386C93.8765 58.7462 95.3263 60.1657 97.0745 60.8755C98.3537 61.4078 99.8461 61.4966 101.253 61.1417C100.528 62.8274 99.1639 64.2026 97.373 64.9124C95.0278 65.7996 92.3414 65.2673 90.5079 63.5372C89.6551 62.6943 88.9729 61.7184 88.6317 60.6093Z" fill="#B8BEC8"/>
<path d="M96.0492 57.6377C94.5994 56.7062 93.0643 54.355 94.0877 52.5805C94.7273 51.4715 96.0918 51.0723 97.2004 51.6933C98.9487 52.6693 100.91 52.8023 102.701 52.1813C104.023 51.6933 105.217 50.8061 106.07 49.564C106.539 51.3384 106.368 53.2903 105.387 55.0204C104.151 57.2828 101.763 58.6581 99.2898 58.5693C98.0959 58.5693 96.9446 58.2588 96.0492 57.6377Z" fill="#B8BEC8"/>
<path d="M99.8873 50.4072C98.1817 50.6734 95.5807 49.8749 95.2396 47.8342C94.9837 46.5921 95.8365 45.35 97.0731 45.1282H97.1157C99.0772 44.7289 100.655 43.4868 101.593 41.8454C102.318 40.6033 102.659 39.1394 102.531 37.6311C103.981 38.6514 105.089 40.2928 105.388 42.2447C105.814 44.7733 104.834 47.435 102.915 49.032C102.019 49.7418 100.953 50.2741 99.8873 50.4072Z" fill="#B8BEC8"/>
<path d="M98.3555 42.3302C97.2042 43.661 94.7311 44.8144 93.196 43.4836C92.2153 42.6407 92.0874 41.1768 92.8976 40.1565C94.1341 38.5595 94.6032 36.5188 94.3047 34.6113C94.0915 33.1917 93.4519 31.8165 92.4285 30.7075C94.1768 30.5301 96.0103 31.0624 97.5027 32.3489C99.4215 33.9902 100.317 36.6963 99.8053 39.2249C99.5921 40.3783 99.0804 41.4873 98.3555 42.3302Z" fill="#B8BEC8"/>
</svg>
