<svg width="304" height="108" viewBox="0 0 304 108" fill="none" xmlns="http://www.w3.org/2000/svg">
<rect width="304" height="108" fill="black"/>
<path d="M90.5023 37.5125C97.8497 37.5125 105.196 37.5187 112.543 37.5094C112.551 39.4669 112.559 41.4245 112.54 43.3836C107.351 43.3821 102.161 43.3789 96.971 43.3852C96.9742 45.8424 96.9679 48.3011 96.9742 50.7582C101.518 50.7488 106.062 50.7566 110.604 50.7551C110.629 52.7064 110.599 54.6577 110.62 56.609C106.071 56.6043 101.524 56.6137 96.9773 56.6043C96.9663 61.2336 96.971 65.8629 96.9742 70.4921C94.82 70.4686 92.6659 70.4686 90.5118 70.4906C90.4881 59.4984 90.5086 48.5047 90.5023 37.5125Z" fill="#B8BEC8"/>
<path d="M116.829 70.4922C116.821 59.4953 116.82 48.4985 116.831 37.5016C124.423 37.5251 132.017 37.5125 139.611 37.5078C139.613 39.467 139.603 41.4261 139.616 43.3837C134.133 43.3837 128.649 43.3743 123.167 43.39C123.184 45.6889 123.168 47.9895 123.175 50.29C128.21 50.2775 133.244 50.2853 138.279 50.2853C138.26 52.2351 138.282 54.1864 138.265 56.1361C133.236 56.1408 128.205 56.144 123.176 56.133C123.164 58.955 123.189 61.7771 123.164 64.5975C128.894 64.6163 134.625 64.6007 140.357 64.6054C140.371 66.5629 140.371 68.5205 140.357 70.4797C132.515 70.4859 124.671 70.4593 116.829 70.4922Z" fill="#B8BEC8"/>
<path d="M145.22 37.5016C147.502 37.5188 149.785 37.5235 152.067 37.5016C156.184 45.1643 160.299 52.827 164.424 60.4851C164.438 52.8286 164.437 45.1721 164.424 37.5172C166.436 37.5063 168.448 37.5204 170.46 37.5094C170.469 48.5016 170.468 59.4937 170.461 70.4859C168.309 70.4703 166.156 70.4797 164.005 70.4797C159.782 62.6321 155.55 54.7893 151.305 46.9528C151.307 54.7987 151.308 62.6431 151.303 70.4891C149.276 70.4718 147.246 70.464 145.217 70.4938C145.231 59.4969 145.225 48.4985 145.22 37.5016Z" fill="#B8BEC8"/>
<path d="M176.639 37.5079C181.34 37.522 186.04 37.5079 190.74 37.5157C193.318 37.5565 195.957 38.2768 197.944 39.9635C200.025 41.5797 201.241 44.0165 202.001 46.4736C202.642 48.7115 202.876 51.0449 202.916 53.3658C202.823 56.9505 202.312 60.6214 200.642 63.8475C199.595 66.0822 197.852 68.01 195.668 69.1987C194.067 70.0616 192.238 70.4249 190.43 70.4719C185.838 70.4938 181.243 70.4547 176.651 70.4922C176.619 59.4969 176.641 48.5016 176.639 37.5079ZM183.045 43.2554C183.028 50.4138 183.035 57.5723 183.04 64.7307C185.084 64.7213 187.126 64.7307 189.169 64.726C190.005 64.7041 190.859 64.6007 191.63 64.2656C193.123 63.6548 194.184 62.3315 194.887 60.933C196.074 58.3835 196.333 55.5113 196.256 52.7378C196.185 50.0802 195.777 47.2347 194.008 45.1237C192.945 43.8176 191.184 43.3838 189.569 43.2788C187.394 43.2397 185.22 43.2867 183.045 43.2554Z" fill="#B8BEC8"/>
<path d="M207.238 70.5C207.215 59.5 207.218 48.5 207.237 37.5C209.388 37.5313 211.54 37.5078 213.691 37.5094C213.701 48.4984 213.705 59.489 213.69 70.4796C211.539 70.489 209.388 70.4483 207.238 70.5Z" fill="#B8BEC8"/>
</svg>
