<svg width="26" height="12" viewBox="0 0 26 12" fill="none" xmlns="http://www.w3.org/2000/svg">
<mask id="path-1-outside-1" maskUnits="userSpaceOnUse" x="0" y="0" width="26" height="12" fill="black">
<rect fill="white" width="26" height="12"/>
<path fill-rule="evenodd" clip-rule="evenodd" d="M23 1H1V11H23V9.33333H25V2.66667H23V1Z"/>
</mask>
<path d="M1 1V0H0V1H1ZM23 1H24V0H23V1ZM1 11H0V12H1V11ZM23 11V12H24V11H23ZM23 9.33333V8.33333H22V9.33333H23ZM25 9.33333V10.3333H26V9.33333H25ZM25 2.66667H26V1.66667H25V2.66667ZM23 2.66667H22V3.66667H23V2.66667ZM1 2H23V0H1V2ZM2 11V1H0V11H2ZM23 10H1V12H23V10ZM22 9.33333V11H24V9.33333H22ZM25 8.33333H23V10.3333H25V8.33333ZM24 2.66667V9.33333H26V2.66667H24ZM23 3.66667H25V1.66667H23V3.66667ZM22 1V2.66667H24V1H22Z" fill="#555555" mask="url(#path-1-outside-1)"/>
<rect x="2" y="1.83333" width="15" height="8.33333" fill="#555555"/>
</svg>
