<svg xmlns="http://www.w3.org/2000/svg" width="13" height="9" viewBox="0 0 13 9"><g><g><path fill="#fff" d="M7.327 1.101a.587.587 0 0 1 0-.916.834.834 0 0 1 1.05 0l4.402 3.842c.137.118.22.284.22.467a.623.623 0 0 1-.22.468L8.378 8.804a.814.814 0 0 1-1.05 0 .587.587 0 0 1 0-.917l3.15-2.742H.736c-.41 0-.735-.293-.735-.65 0-.358.325-.643.735-.643h9.743z"/><path fill="#fff" d="M7.327 1.101a.587.587 0 0 1 0-.916.834.834 0 0 1 1.05 0l4.402 3.842c.137.118.22.284.22.467a.623.623 0 0 1-.22.468L8.378 8.804a.814.814 0 0 1-1.05 0 .587.587 0 0 1 0-.917l3.15-2.742H.736c-.41 0-.735-.293-.735-.65 0-.358.325-.643.735-.643h9.743z"/></g></g></svg>