<svg xmlns="http://www.w3.org/2000/svg" width="24" height="23" viewBox="0 0 24 23">
  <defs>
    <linearGradient id="yjcaa" x1="0" x2="23" y1="12" y2="11" gradientUnits="userSpaceOnUse">
      <stop offset="0" stop-color="#48255b" />
      <stop offset="1" stop-color="#001bbd" />
    </linearGradient>
    <linearGradient id="yjcab" x1="11.42" x2="12" y1="23" y2="0" gradientUnits="userSpaceOnUse">
      <stop offset="0" stop-color="#5e5192" />
      <stop offset="1" stop-color="#c4c1f7" />
    </linearGradient>
    <linearGradient id="yjcac" x1="4.69" x2="18.69" y1="11.4" y2="11.6" gradientUnits="userSpaceOnUse">
      <stop offset="0" stop-color="#8b2fb6" />
      <stop offset="1" stop-color="#001bbd" />
    </linearGradient>
    <linearGradient id="yjcad" x1="11.73" x2="11.69" y1="18.4" y2="4.6" gradientUnits="userSpaceOnUse">
      <stop offset="0" stop-color="#5e5192" />
      <stop offset="1" stop-color="#c4c1f7" />
    </linearGradient>
    <linearGradient id="yjcae" x1="12.2" x2="11.22" y1="14.93" y2="8.07" gradientUnits="userSpaceOnUse">
      <stop offset="0" stop-color="#5e5192" />
      <stop offset="1" stop-color="#c4c1f7" />
    </linearGradient>
  </defs>
  <g>
    <g>
      <g opacity=".11">
        <path fill="url(#yjcaa)" d="M11.708 0c6.466 0 11.707 5.149 11.707 11.5S18.174 23 11.708 23C5.242 23 0 17.85 0 11.5S5.242 0 11.708 0z" />
        <path fill="url(#yjcab)" d="M11.708 0c6.466 0 11.707 5.149 11.707 11.5S18.174 23 11.708 23C5.242 23 0 17.85 0 11.5S5.242 0 11.708 0z" />
      </g>
      <g opacity=".26">
        <path fill="url(#yjcac)" d="M11.708 4.602c3.878 0 7.022 3.089 7.022 6.898 0 3.81-3.144 6.897-7.022 6.897-3.879 0-7.022-3.088-7.022-6.897 0-3.81 3.143-6.898 7.022-6.898z" />
        <path fill="url(#yjcad)" d="M11.708 4.602c3.878 0 7.022 3.089 7.022 6.898 0 3.81-3.144 6.897-7.022 6.897-3.879 0-7.022-3.088-7.022-6.897 0-3.81 3.143-6.898 7.022-6.898z" />
      </g>
      <g>
        <path fill="#6f4386" d="M11.708 8.07c1.928 0 3.491 1.536 3.491 3.43 0 1.894-1.563 3.43-3.491 3.43-1.929 0-3.492-1.536-3.492-3.43 0-1.894 1.563-3.43 3.492-3.43z" />
        <path fill="url(#yjcae)" d="M11.708 8.07c1.928 0 3.491 1.536 3.491 3.43 0 1.894-1.563 3.43-3.491 3.43-1.929 0-3.492-1.536-3.492-3.43 0-1.894 1.563-3.43 3.492-3.43z" />
      </g>
    </g>
  </g>
</svg>