<svg width="32" height="32" viewBox="0 0 32 32" fill="none" xmlns="http://www.w3.org/2000/svg">
<path d="M23.4667 1.38525C19.7129 1.38525 17.2311 3.43494 16 4.79107C14.7689 3.43507 12.2871 1.38525 8.53331 1.38525C3.41131 1.38525 0 6.14832 0 11.484C0 15.4764 2.01319 23.2542 15.4957 30.488C15.8105 30.6569 16.1893 30.6571 16.5043 30.488C29.9869 23.2541 32 15.4764 32 11.484C32 6.0245 28.4877 1.38525 23.4667 1.38525ZM16 28.3343C9.52381 24.7735 2.13331 18.8406 2.13331 11.484C2.13331 7.39169 4.59075 3.51863 8.53331 3.51863C11.5244 3.51863 13.9991 5.35263 15.0941 7.07944C15.5116 7.75088 16.4919 7.75019 16.9077 7.07657C16.9297 7.041 19.1538 3.51857 23.4667 3.51857C27.4386 3.51857 29.8667 7.4305 29.8667 11.4839C29.8667 18.8408 22.4764 24.7734 16 28.3343Z" fill="#34384E"/>
</svg>
