<svg xmlns="http://www.w3.org/2000/svg" width="31" height="31" viewBox="0 0 31 31"><defs><mask id="6y50b" width="2" height="2" x="-1" y="-1"><path fill="#fff" d="M9 7h11v11H9z"/><path d="M12.076 12.07l1.492 2.965S15.99 9.009 19.813 7c-.093 1.435-.466 2.678.187 4.209-1.678.382-5.127 4.687-6.246 6.79-1.585-2.008-3.45-3.538-4.754-4.017z"/></mask><filter id="6y50a" width="65" height="68" x="-18" y="-20" filterUnits="userSpaceOnUse"><feOffset dy="3" in="SourceGraphic" result="FeOffset1041Out"/><feGaussianBlur in="FeOffset1041Out" result="FeGaussianBlur1042Out" stdDeviation="6.8 6.8"/></filter><linearGradient id="6y50c" x1="14" x2="15" y1="18" y2="7" gradientUnits="userSpaceOnUse"><stop offset="0" stop-color="#5b8c04"/><stop offset="1" stop-color="#8fb300"/></linearGradient></defs><g><g><g filter="url(#6y50a)"><path fill="none" d="M12.076 12.07l1.492 2.965S15.99 9.009 19.813 7c-.093 1.435-.466 2.678.187 4.209-1.678.382-5.127 4.687-6.246 6.79-1.585-2.008-3.45-3.538-4.754-4.017z" mask="url(&quot;#6y50b&quot;)"/><path fill-opacity=".17" d="M12.076 12.07l1.492 2.965S15.99 9.009 19.813 7c-.093 1.435-.466 2.678.187 4.209-1.678.382-5.127 4.687-6.246 6.79-1.585-2.008-3.45-3.538-4.754-4.017z"/></g><path d="M12.076 12.07l1.492 2.965S15.99 9.009 19.813 7c-.093 1.435-.466 2.678.187 4.209-1.678.382-5.127 4.687-6.246 6.79-1.585-2.008-3.45-3.538-4.754-4.017z"/><path fill="url(#6y50c)" d="M12.076 12.07l1.492 2.965S15.99 9.009 19.813 7c-.093 1.435-.466 2.678.187 4.209-1.678.382-5.127 4.687-6.246 6.79-1.585-2.008-3.45-3.538-4.754-4.017z"/></g></g></svg>