<svg width="9" height="9" viewBox="0 0 9 9" fill="none" xmlns="http://www.w3.org/2000/svg">
  <g clip-path="url(#clip0)">
    <g filter="url(#filter0_d)">
      <path d="M3.68188 2.64806C3.68188 3.32058 5.01961 3.67256 6.34098 3.67256C7.66236 3.67256 9.00008 3.32058 9.00008 2.64806C9.00007 1.30298 3.68188 1.30298 3.68188 2.64806Z" fill="#FF0202" />
      <path d="M8.9014 3.64034C8.84048 3.60352 8.76397 3.60091 8.70065 3.63415C8.14974 3.92309 7.31178 4.08237 6.34098 4.08237C5.37019 4.08237 4.53223 3.92309 3.98132 3.63415C3.918 3.60093 3.84149 3.60352 3.78057 3.64034C3.71924 3.67735 3.68188 3.74399 3.68188 3.81563V3.87745C3.68188 4.54998 5.01961 4.90196 6.34098 4.90196C7.66236 4.90196 9.00008 4.54998 9.00008 3.87745V3.81563C9.00007 3.74399 8.96271 3.67735 8.9014 3.64034Z" fill="#FF0202" />
      <path d="M1.22729 6.74608C1.22729 7.41862 2.56502 7.77058 3.88639 7.77058C5.20777 7.77058 6.54549 7.4186 6.54549 6.74608C6.54548 5.40101 1.22729 5.40101 1.22729 6.74608Z" fill="#FF0202" />
      <path d="M6.44681 7.73839C6.38568 7.70176 6.30938 7.69896 6.24606 7.73219C5.69515 8.02114 4.85719 8.18042 3.88639 8.18042C2.9156 8.18042 2.07764 8.02114 1.52673 7.73219C1.46341 7.69898 1.3869 7.70178 1.32598 7.73839C1.26465 7.7754 1.22729 7.84203 1.22729 7.91368V7.9755C1.22729 8.64805 2.56502 9.00001 3.88639 9.00001C5.20777 9.00001 6.54549 8.64803 6.54549 7.9755V7.91368C6.54548 7.84203 6.50812 7.7754 6.44681 7.73839Z" fill="#FF0202" />
      <path d="M2.6591 2.0332C2.93535 2.0332 3.21162 2.01759 3.48028 1.98659C3.52402 1.98158 3.56498 1.96258 3.59714 1.93236C3.90695 1.64021 4.43629 1.42471 5.12784 1.30925C5.20096 1.29703 5.26188 1.24621 5.28685 1.17618C5.30802 1.11716 5.3182 1.06233 5.3182 1.0087C5.31818 -0.336393 0 -0.336393 0 1.00868C0 1.68123 1.33773 2.0332 2.6591 2.0332Z" fill="#FF0202" />
      <path d="M2.6591 3.2627C2.82848 3.2627 2.99368 3.25689 3.15369 3.24629C3.21822 3.24188 3.27674 3.20747 3.31189 3.15303C3.34685 3.0988 3.35423 3.03098 3.33188 2.97034C3.29212 2.86328 3.27276 2.75783 3.27375 2.63698C3.27375 2.58095 3.25078 2.52733 3.21022 2.48871C3.16988 2.45009 3.11294 2.42668 3.0594 2.43228C2.92576 2.43868 2.79212 2.44307 2.6591 2.44307C1.68831 2.44307 0.850347 2.2838 0.299436 1.99485C0.236116 1.96164 0.159603 1.96424 0.0986805 2.00104C0.0373551 2.03809 0 2.10473 0 2.17637V2.2382C0 2.91074 1.33773 3.2627 2.6591 3.2627Z" fill="#FF0202" />
      <path d="M2.6591 4.49216C2.82848 4.49216 2.99368 4.48635 3.15369 4.47574C3.21822 4.47133 3.27674 4.43693 3.31189 4.38249C3.34685 4.32826 3.35423 4.26043 3.33188 4.1998C3.29212 4.09274 3.27276 3.98729 3.27276 3.86644C3.27276 3.81041 3.24978 3.75679 3.20922 3.71817C3.16888 3.67955 3.11294 3.65754 3.0584 3.66174C2.92517 3.66814 2.79193 3.67253 2.6591 3.67253C1.68831 3.67253 0.850347 3.51326 0.299436 3.22431C0.236116 3.1911 0.159603 3.19371 0.0986805 3.2305C0.0373551 3.26755 0 3.33419 0 3.40581V3.46764C0 4.14018 1.33773 4.49216 2.6591 4.49216Z" fill="#FF0202" />
      <path d="M8.90141 6.09914C8.84009 6.06172 8.76398 6.05971 8.70066 6.09294C8.31573 6.29485 7.7742 6.43591 7.13481 6.50055C7.02694 6.51156 6.95005 6.63762 6.95463 6.74608C6.95463 6.84994 6.93785 6.94918 6.90349 7.04903C6.88071 7.11526 6.89331 7.18871 6.93685 7.24353C6.97601 7.29257 7.03494 7.32077 7.09686 7.32077C7.10405 7.32077 7.11143 7.32037 7.11884 7.31957C8.29677 7.19229 9.00009 6.82472 9.00009 6.33627V6.27443C9.00007 6.2028 8.96272 6.13617 8.90141 6.09914Z" fill="#FF0202" />
      <path d="M3.88642 5.31175L4.02205 5.31415C4.02326 5.31415 4.02445 5.31415 4.02566 5.31415C4.12113 5.31415 4.20403 5.24791 4.2252 5.15447C4.24658 5.05962 4.19864 4.96297 4.11034 4.92274L4.0666 4.90312C4.03743 4.89031 4.00807 4.8775 3.9809 4.86329C3.91718 4.82987 3.84168 4.83288 3.78035 4.86989C3.71922 4.9069 3.68188 4.97335 3.68188 5.04497V5.10679C3.68187 5.22011 3.77336 5.31175 3.88642 5.31175Z" fill="#FF0202" />
      <path d="M8.90137 4.86977C8.84045 4.83295 8.76393 4.83034 8.70061 4.86358C8.1497 5.15252 7.31174 5.3118 6.34095 5.3118L6.20591 5.30919C6.12341 5.30219 6.02473 5.37483 6.00375 5.46947C5.98258 5.56412 6.03052 5.66056 6.11862 5.70058C6.34014 5.80142 6.52113 5.92129 6.65636 6.05675C6.6949 6.09518 6.74685 6.11658 6.80098 6.11658C6.80518 6.11658 6.80957 6.11639 6.81397 6.11618C7.82231 6.05215 9.00005 5.7494 9.00005 5.10688V5.04506C9.00003 4.97342 8.96267 4.90678 8.90137 4.86977Z" fill="#FF0202" />
      <path d="M1.71067 5.65792C1.73623 5.65792 1.76181 5.65312 1.78597 5.64351C2.14633 5.50084 2.58577 5.40259 3.09235 5.35158C3.20021 5.34078 3.27732 5.2043 3.27272 5.09584C3.27272 5.03981 3.24974 4.98619 3.20919 4.94757C3.16884 4.90895 3.1129 4.88834 3.05837 4.89114C2.92513 4.89754 2.79189 4.90193 2.65906 4.90193C1.68827 4.90193 0.850309 4.74266 0.299397 4.45371C0.236078 4.4205 0.159565 4.42311 0.0986421 4.45991C0.0373551 4.49693 0 4.56355 0 4.63519V4.69702C0 5.14984 0.628824 5.50842 1.6823 5.6559C1.6917 5.6573 1.70129 5.65792 1.71067 5.65792Z" fill="#FF0202" />
    </g>
  </g>
  <defs>
    <filter id="filter0_d" x="-4" y="-0.00012207" width="17.0001" height="17.0001" filterUnits="userSpaceOnUse" color-interpolation-filters="sRGB">
      <feFlood flood-opacity="0" result="BackgroundImageFix" />
      <feColorMatrix in="SourceAlpha" type="matrix" values="0 0 0 0 0 0 0 0 0 0 0 0 0 0 0 0 0 0 127 0" />
      <feOffset dy="4" />
      <feGaussianBlur stdDeviation="2" />
      <feColorMatrix type="matrix" values="0 0 0 0 0 0 0 0 0 0 0 0 0 0 0 0 0 0 0.25 0" />
      <feBlend mode="normal" in2="BackgroundImageFix" result="effect1_dropShadow" />
      <feBlend mode="normal" in="SourceGraphic" in2="effect1_dropShadow" result="shape" />
    </filter>
    <clipPath id="clip0">
      <rect width="9" height="9" fill="white" />
    </clipPath>
  </defs>
</svg>