<svg width="49" height="49" viewBox="0 0 49 49" fill="none" xmlns="http://www.w3.org/2000/svg">
  <g clip-path="url(#clip0)">
    <g filter="url(#filter0_d)">
      <path d="M18.8264 47.5815C-3.35257 42.5526 -6.18942 11.8631 14.829 2.44992C21.1474 -0.515874 26.9501 -0.644821 33.2685 1.93413C42.9395 6.06044 47.9685 13.5394 48.2264 23.8552C48.3553 39.3289 34.0422 50.9341 18.8264 47.5815ZM34.5579 41.2631C46.679 33.7841 47.0658 14.9578 35.0737 7.47886C21.5343 -0.902716 4.51322 8.89729 4.77111 24.8868C5.029 39.5868 21.9211 48.871 34.5579 41.2631Z" fill="white" />
      <path d="M17.6658 35.8474C17.4079 34.9448 17.9236 33.1395 19.0842 31.85C20.6315 30.0448 20.7605 29.0132 19.6 26.4342C18.6973 24.629 17.2789 23.2106 16.5052 23.3395C12.8947 23.7263 11.6052 23.0816 11.6052 20.7606C11.6052 17.15 13.9263 16.1185 16.6342 18.5685C19.8579 21.5342 26.3052 19.2132 25.1447 15.6027C24.371 13.0237 27.4658 9.67109 29.6579 10.9606C31.3342 11.9921 31.3342 15.8606 29.6579 17.5369C28.7552 18.4395 28.6263 19.9869 29.5289 22.3079C30.4315 24.7579 31.4631 25.4027 33.3973 24.8869C36.4921 24.1132 38.5552 27.7237 36.3631 29.9158C35.2026 31.0763 34.0421 30.9474 31.721 29.7869C28.3684 27.9816 22.9526 29.7869 23.3394 32.6237C23.7263 36.1053 23.0815 37.3948 20.7605 37.3948C19.3421 37.3948 18.0526 36.6211 17.6658 35.8474Z" fill="white" />
    </g>
  </g>
  <defs>
    <filter id="filter0_d" x="-3.47241" y="0.105713" width="55.6996" height="56.056" filterUnits="userSpaceOnUse" color-interpolation-filters="sRGB">
      <feFlood flood-opacity="0" result="BackgroundImageFix" />
      <feColorMatrix in="SourceAlpha" type="matrix" values="0 0 0 0 0 0 0 0 0 0 0 0 0 0 0 0 0 0 127 0" />
      <feOffset dy="4" />
      <feGaussianBlur stdDeviation="2" />
      <feColorMatrix type="matrix" values="0 0 0 0 0 0 0 0 0 0 0 0 0 0 0 0 0 0 0.25 0" />
      <feBlend mode="normal" in2="BackgroundImageFix" result="effect1_dropShadow" />
      <feBlend mode="normal" in="SourceGraphic" in2="effect1_dropShadow" result="shape" />
    </filter>
    <clipPath id="clip0">
      <rect width="49" height="49" fill="white" />
    </clipPath>
  </defs>
</svg>