<svg xmlns="http://www.w3.org/2000/svg" width="28" height="28" viewBox="0 0 28 28">
  <g>
    <g>
      <path fill="#fff" d="M12.863 27.404c-.009-.003-.132-.013-.275-.026-.378-.029-.772-.077-1.204-.147a9.751 9.751 0 0 1-.758-.155.645.645 0 0 0-.119-.024.716.716 0 0 1-.127-.028 16.322 16.322 0 0 1-1.55-.488 3.252 3.252 0 0 1-.214-.084 4.846 4.846 0 0 0-.129-.054 3.21 3.21 0 0 1-.138-.055c-.024-.01-.065-.029-.094-.04a13.118 13.118 0 0 1-.68-.319c-.31-.155-.386-.193-.395-.203a.564.564 0 0 0-.077-.045 6.428 6.428 0 0 1-.232-.129 5.204 5.204 0 0 0-.19-.108.859.859 0 0 1-.072-.043c-.258-.165-.256-.165-.313-.143-.029.012-.075.028-.105.037a3.355 3.355 0 0 0-.232.077 3.17 3.17 0 0 1-.232.077c-.027.009-.079.024-.112.036-.032.01-.087.03-.12.042a3.567 3.567 0 0 1-.232.077c-.028.009-.08.024-.112.036l-.12.041a3.17 3.17 0 0 1-.232.078 3.364 3.364 0 0 0-.232.077 3.567 3.567 0 0 1-.233.078 3.354 3.354 0 0 0-.232.077 3.17 3.17 0 0 1-.232.077c-.027.009-.079.024-.112.036-.032.01-.087.03-.12.042a3.357 3.357 0 0 1-.232.077c-.028.009-.08.024-.112.036a3.17 3.17 0 0 0-.12.042 3.355 3.355 0 0 1-.232.077 3.567 3.567 0 0 0-.232.077 3.357 3.357 0 0 1-.233.078c-.027.008-.079.024-.111.036a3.17 3.17 0 0 0-.12.041 3.355 3.355 0 0 1-.233.077c-.027.009-.079.024-.112.036-.032.01-.087.03-.12.042a3.357 3.357 0 0 1-.232.077c-.028.009-.08.024-.112.036a3.17 3.17 0 0 0-.12.042 3.354 3.354 0 0 1-.232.077c-.028.007-.07.02-.095.03-.215.087-.387.073-.55-.042-.038-.028-.069-.059-.069-.069 0-.012-.007-.022-.017-.022-.009 0-.033-.036-.052-.081a.657.657 0 0 1-.01-.418c.045-.112.074-.19.13-.352.03-.085.064-.178.078-.207a.777.777 0 0 0 .03-.086l.047-.129c.021-.051.045-.122.055-.154a.263.263 0 0 1 .033-.078c.009-.008.016-.03.016-.051a.13.13 0 0 1 .025-.067.141.141 0 0 0 .026-.071c0-.02.007-.043.016-.052a.263.263 0 0 0 .032-.077 2.66 2.66 0 0 1 .055-.155c.043-.113.08-.208.114-.304l.077-.215c.03-.08.059-.162.067-.186.009-.024.031-.086.052-.137.02-.052.044-.122.055-.155a.263.263 0 0 1 .032-.077c.01-.009.016-.031.016-.052a.13.13 0 0 1 .026-.067.142.142 0 0 0 .026-.07c0-.021.006-.043.015-.052a.263.263 0 0 0 .033-.077c.01-.033.034-.104.055-.155l.051-.138.067-.185.078-.215c.013-.04.041-.116.062-.167a3.63 3.63 0 0 0 .106-.293.23.23 0 0 1 .033-.075.092.092 0 0 0 .015-.052.13.13 0 0 1 .026-.069.141.141 0 0 0 .026-.07c0-.02.007-.043.015-.053a.23.23 0 0 0 .033-.076c.01-.033.035-.103.055-.155.043-.113.08-.208.114-.304l.072-.206.05-.136-.04-.06a.23.23 0 0 1-.04-.08c-.001-.012-.008-.022-.015-.022-.008 0-.024-.017-.036-.038a.94.94 0 0 0-.053-.09.81.81 0 0 1-.047-.078 1.052 1.052 0 0 0-.053-.086.84.84 0 0 1-.057-.095.866.866 0 0 0-.05-.086.872.872 0 0 1-.058-.103 2.705 2.705 0 0 0-.08-.146l-.108-.19c-.051-.094-.304-.6-.347-.696-.014-.027-.051-.113-.086-.189a5.551 5.551 0 0 1-.11-.253 6.216 6.216 0 0 1-.169-.418l-.04-.103a1.362 1.362 0 0 1-.033-.085 7.288 7.288 0 0 0-.078-.224 5.895 5.895 0 0 1-.077-.224c-.007-.027-.034-.113-.059-.189-.058-.18-.125-.409-.171-.588a13.813 13.813 0 0 1-.362-1.922c-.072-.612-.082-.851-.075-1.737.005-.486.017-.946.029-1.057.067-.65.122-1.042.2-1.427l.051-.258a7.22 7.22 0 0 1 .103-.456c.016-.065.04-.155.052-.198l.051-.189c.016-.062.04-.143.052-.18.012-.038.034-.116.052-.172l.051-.164c.012-.032.031-.087.041-.12a5.896 5.896 0 0 1 .172-.49l.042-.103c.029-.08.142-.358.17-.422.01-.024.03-.065.041-.094.067-.158.253-.554.316-.68.245-.472.315-.6.492-.892l.2-.325a.857.857 0 0 0 .043-.072.12.12 0 0 1 .02-.034.516.516 0 0 0 .088-.136c0-.009.005-.02.014-.023a.524.524 0 0 0 .106-.156c.01-.012.057-.074.105-.141l.11-.151c.014-.016.026-.038.026-.047 0-.01.005-.017.014-.017.007 0 .034-.034.06-.077.028-.043.057-.078.065-.078.009 0 .016-.012.016-.026 0-.013.005-.025.014-.025.007 0 .03-.03.055-.064.024-.034.051-.07.06-.08l.155-.192c.075-.094.146-.178.156-.189a14.53 14.53 0 0 1 1.589-1.6.452.452 0 0 0 .082-.078c.004-.009.018-.015.031-.015.014 0 .024-.006.024-.013 0-.008.067-.067.152-.134a2.95 2.95 0 0 0 .17-.14.779.779 0 0 1 .083-.057c.032-.021.06-.045.06-.054 0-.008.012-.015.025-.015.014 0 .026-.007.026-.016 0-.008.035-.037.078-.065.043-.026.077-.053.077-.06 0-.009.01-.014.024-.014s.028-.007.031-.014a2.15 2.15 0 0 1 .22-.161 9.214 9.214 0 0 0 .265-.186.558.558 0 0 0 .082-.05c.205-.136.324-.208.34-.208a1.215 1.215 0 0 1 .261-.155.015.015 0 0 0 .015-.015c0-.009.02-.024.048-.035a.775.775 0 0 0 .098-.051c.03-.019.11-.062.18-.1.071-.036.133-.07.138-.076.009-.01.606-.304.774-.381.052-.023.19-.083.31-.133l.249-.105C8.704.826 8.79.79 8.83.778c.024-.008.086-.03.137-.051.052-.02.15-.055.215-.078l.172-.058a13.665 13.665 0 0 1 1.247-.353 13.76 13.76 0 0 1 2.04-.31 21.27 21.27 0 0 1 2.145 0 14.27 14.27 0 0 1 2.641.464l.18.05c.137.04.228.07.302.095l.111.035c.052.014.124.038.233.079l.215.076c.085.029.178.063.206.077.03.012.086.036.129.052.043.015.101.04.129.051.029.012.094.04.146.06.179.073.44.195.79.368a6.486 6.486 0 0 1 .56.294c.108.054.275.153.28.167a.022.022 0 0 0 .02.014c.021 0 .231.125.238.14.003.01.014.015.024.015.024 0 .71.457.77.514a.85.85 0 0 0 .107.074c.045.027.082.058.082.067 0 .008.012.015.026.015.014 0 .026.007.026.014s.02.026.048.041a.616.616 0 0 1 .081.06c.019.018.084.07.146.116.062.046.12.093.13.103.01.01.078.069.154.129.076.062.162.136.19.163.03.03.107.1.173.157.325.282.748.705 1.03 1.03.056.065.127.142.156.172.028.029.102.115.163.19.06.076.12.147.13.155.01.01.056.067.103.13.046.061.098.126.115.145a.618.618 0 0 1 .06.081c.015.028.034.048.041.048.007 0 .014.012.014.026 0 .014.007.026.015.026.01 0 .04.038.068.082a.86.86 0 0 0 .073.107c.057.06.515.746.515.77 0 .01.005.02.013.024.016.007.141.217.141.238 0 .008.006.017.014.02.014.005.114.172.167.28a6.525 6.525 0 0 1 .294.559 12.697 12.697 0 0 1 .428.938c.012.029.036.085.052.128.015.043.04.102.051.13.014.029.048.122.078.206l.075.215c.042.108.066.18.08.232.008.03.023.079.034.112.026.074.055.165.094.3l.052.181.048.18c.077.303.08.305.158.671.11.494.2 1.116.258 1.79.036.408.036 1.739 0 2.146a13.839 13.839 0 0 1-.412 2.452 12.5 12.5 0 0 1-.174.593c-.024.076-.052.162-.059.19a6.02 6.02 0 0 1-.077.223l-.077.215a4.566 4.566 0 0 1-.052.137 11.111 11.111 0 0 1-.33.791c-.062.138-.373.762-.45.903a7.628 7.628 0 0 0-.124.229.334.334 0 0 1-.062.09c-.007 0-.014.008-.014.018 0 .016-.155.277-.261.442a.851.851 0 0 0-.043.072.117.117 0 0 1-.021.035.519.519 0 0 0-.088.136c0 .008-.005.018-.012.022a.487.487 0 0 0-.09.125.096.096 0 0 1-.018.031 3.87 3.87 0 0 0-.103.141 3.668 3.668 0 0 1-.11.152c-.016.015-.028.037-.028.046 0 .01-.005.017-.012.017-.008 0-.036.035-.062.078-.027.043-.057.077-.065.077-.009 0-.016.012-.016.026 0 .014-.006.026-.013.026-.007 0-.026.02-.042.048a.617.617 0 0 1-.06.08 3.506 3.506 0 0 0-.125.155c-.105.133-.152.191-.186.226a9.06 9.06 0 0 1-.27.315c-.038.039-.138.147-.223.238a13.687 13.687 0 0 1-1.067 1.027l-.146.124c-.024.02-.062.055-.086.074-.024.02-.09.073-.146.116a2.77 2.77 0 0 0-.12.098 3.68 3.68 0 0 1-.385.284c-.01 0-.02.007-.02.016 0 .008-.029.034-.063.055-.036.022-.11.072-.163.113a.537.537 0 0 1-.114.074c-.01 0-.02.005-.024.014a.391.391 0 0 1-.134.09c-.009 0-.017.006-.017.013 0 .009-.017.024-.038.036a10.282 10.282 0 0 0-.255.157 11.9 11.9 0 0 1-.24.15c-.014.006-.1.054-.19.108a6.45 6.45 0 0 1-.231.128 14.232 14.232 0 0 1-.791.404l-.207.095c-.136.062-.168.076-.278.122l-.112.048-.134.054c-.043.015-.1.04-.13.051-.027.014-.12.048-.205.078l-.215.075c-.109.042-.18.066-.233.08l-.103.032a11.913 11.913 0 0 1-.636.19c-.027.01-.12.032-.206.053a14.03 14.03 0 0 1-1.754.316c-.62.07-.82.079-1.635.077-.444 0-.814-.003-.824-.007zm1.135-6.21a.993.993 0 0 0 .49-.361.857.857 0 0 0 .148-.375c.03-.152.034-1.55.005-1.727a1.026 1.026 0 0 0-.24-.5 1.143 1.143 0 0 0-.205-.16l-.052-.026a.653.653 0 0 0-.215-.08.954.954 0 0 0-.43 0 .653.653 0 0 0-.215.08l-.051.026c-.036.015-.157.11-.205.16-.06.062-.146.203-.187.3-.064.154-.072.285-.072 1.06 0 .767.008.879.073 1.058a.949.949 0 0 0 .717.574c.131.019.356.003.439-.03zm.04-5.216a.63.63 0 0 0 .189-.098c.012-.012.027-.022.034-.022.02 0 .15-.126.205-.198a1.24 1.24 0 0 0 .165-.344c.008-.037.02-.4.027-.808.014-.77.012-.751.098-1.083.026-.096.04-.136.107-.31a2.41 2.41 0 0 1 .184-.376.315.315 0 0 0 .043-.074c0-.019.113-.155.213-.256a2.56 2.56 0 0 1 .268-.215c.165-.112.191-.133.351-.272.117-.101.174-.16.296-.302.11-.128.265-.327.265-.34 0-.006.027-.05.06-.102.053-.08.19-.35.232-.453l.033-.086c.208-.51.273-1.234.163-1.78a3.885 3.885 0 0 0-.212-.7l-.08-.168a1.358 1.358 0 0 0-.074-.146.554.554 0 0 1-.045-.077.612.612 0 0 0-.043-.077.534.534 0 0 1-.086-.138c0-.009-.005-.017-.012-.017-.009 0-.036-.035-.062-.078-.028-.043-.057-.077-.065-.077a.015.015 0 0 1-.016-.015c0-.033-.306-.356-.464-.492a4.06 4.06 0 0 0-.52-.372 12.342 12.342 0 0 0-.366-.178c-.154-.066-.184-.078-.206-.078a.278.278 0 0 1-.08-.024 2.456 2.456 0 0 0-.427-.107 4.115 4.115 0 0 0-1.008 0 4.202 4.202 0 0 0-.643.174 3.92 3.92 0 0 0-.495.244.154.154 0 0 1-.055.031c-.019.005-.035.02-.035.028s-.008.015-.017.015c-.02 0-.125.07-.134.091-.003.007-.017.012-.03.012-.015 0-.025.007-.025.016 0 .007-.029.034-.065.057a1.253 1.253 0 0 0-.14.115 2.213 2.213 0 0 0-.284.279 3.75 3.75 0 0 0-.183.228l-.136.177a.096.096 0 0 0-.017.031c0 .005-.02.041-.047.083a3.293 3.293 0 0 0-.137.244 8.641 8.641 0 0 0-.15.34.342.342 0 0 0-.027.09.28.28 0 0 1-.024.08c-.062.145-.126.47-.148.767-.035.42.038.664.254.88.158.156.196.181.379.248.098.038.331.052.467.03.138-.023.365-.133.461-.226.208-.2.287-.392.313-.756.02-.294.043-.38.168-.635.155-.31.475-.6.795-.718.115-.043.361-.092.466-.092.163 0 .37.052.557.141.289.138.597.45.73.742.106.232.137.376.138.617 0 .504-.221.92-.646 1.21-.066.045-.162.112-.213.15-.12.088-.511.48-.576.576-.026.04-.055.072-.062.072-.009 0-.016.01-.016.024s-.005.028-.012.031c-.02.009-.161.215-.189.272a3.955 3.955 0 0 0-.287.567 2.566 2.566 0 0 1-.062.141.133.133 0 0 0-.017.059c0 .015-.01.048-.024.072-.02.043-.035.084-.102.322-.022.079-.044.178-.098.438-.065.318-.096 1.616-.046 1.883.027.136.094.292.172.395.055.073.184.198.204.198.007 0 .023.01.035.022a.79.79 0 0 0 .314.135c.12.024.42.003.521-.037z" />
    </g>
  </g>
</svg>