<svg xmlns="http://www.w3.org/2000/svg" width="36" height="28" viewBox="0 0 36 28">
  <g>
    <g>
      <g>
        <path fill="#fff" d="M2.759 27.098C.673 26.8.34 26.321.34 23.75s.847-4.904 2.419-6.49c2.055-2.092 2.66-2.272 6.953-2.182 2.69.03 4.535-.09 6.349-.479l2.6-.508-.272 2.063c-.242 1.854-.212 2.273.423 3.738 1.149 2.722 3.084 5.174 5.593 7.058.514.359-.786.418-9.705.388-5.653 0-11.034-.12-11.941-.239z" />
      </g>
      <g>
        <path fill="#fff" d="M26.37 26.773c-1.24-.479-4.867-4.396-5.653-6.07-.575-1.227-.726-2.184-.786-4.337l-.091-2.751 2.57-.808c1.874-.568 3.235-.807 4.988-.807 2.207 0 2.63.09 4.777 1.136 2.963 1.436 3.628 2.333 3.416 4.665-.302 3.17-3.265 7.955-5.532 8.912-1.119.448-2.63.478-3.689.06zm3.417-5.712c.997-1.495.786-4.276-.303-4.635-.725-.24-1.42 2.691-.997 4.186.332 1.286.665 1.376 1.3.449z" />
      </g>
      <g>
        <path fill="#fff" d="M10.556 14.125c-1.844-.478-2.812-1.136-3.719-2.512-1.844-2.78-1.693-6.638.363-9.03C8.651.937 10.284.19 12.612.19c4.867 0 7.981 2.811 7.981 7.237 0 3.409-2.146 6.1-5.442 6.788-1.904.419-2.781.389-4.595-.09z" />
      </g>
    </g>
  </g>
</svg>