<svg width="54" height="54" viewBox="0 0 54 54" fill="none" xmlns="http://www.w3.org/2000/svg">
  <g filter="url(#filter0_d)">
    <path d="M20.9474 44.5474C10.779 41.6421 4.84741 33.6526 4.84741 23.1211C4.84741 12.1053 10.9 3.8737 21.1895 1.08949C40.679 -4.11577 56.9 17.5527 46.3685 34.8632C41.5264 42.7316 29.9053 47.2105 20.9474 44.5474ZM40.4369 35.3474C43.3422 32.3211 45.279 29.0527 45.4 26.9948C46.2474 11.1369 38.8632 3.75265 23.0053 4.60002C18.1632 4.96318 10.1737 12.7105 8.84215 18.5211C7.75268 23.4842 9.68952 32.8053 11.8685 33.5316C12.5948 33.7737 16.5895 30.3842 20.9474 26.0263C26.3948 20.579 28.0895 18.1579 26.5158 18.1579C22.1579 18.1579 25.5474 15.1316 30.3895 14.7684L35.4737 14.4053V19.8526C35.4737 23.9684 34.9895 25.4211 33.6579 25.4211C32.6895 25.4211 31.8421 24.4527 31.8421 23.3632C31.8421 21.9105 29.179 23.8474 23.9737 29.0527C19.6158 33.2895 16.1053 37.2842 16.1053 37.8895C16.1053 39.8263 21.7948 41.1579 28.6948 40.7948C35.2316 40.4316 36.2 39.9474 40.4369 35.3474Z" fill="white" />
  </g>
  <defs>
    <filter id="filter0_d" x="0" y="0" width="54" height="54" filterUnits="userSpaceOnUse" color-interpolation-filters="sRGB">
      <feFlood flood-opacity="0" result="BackgroundImageFix" />
      <feColorMatrix in="SourceAlpha" type="matrix" values="0 0 0 0 0 0 0 0 0 0 0 0 0 0 0 0 0 0 127 0" />
      <feOffset dy="4" />
      <feGaussianBlur stdDeviation="2" />
      <feColorMatrix type="matrix" values="0 0 0 0 0 0 0 0 0 0 0 0 0 0 0 0 0 0 0.25 0" />
      <feBlend mode="normal" in2="BackgroundImageFix" result="effect1_dropShadow" />
      <feBlend mode="normal" in="SourceGraphic" in2="effect1_dropShadow" result="shape" />
    </filter>
  </defs>
</svg>