<svg xmlns="http://www.w3.org/2000/svg" width="6" height="5" viewBox="0 0 6 5"><rect id="backgroundrect" width="100%" height="100%" x="0" y="0" fill="none" stroke="none"/><defs><mask id="tjaub" width="2" height="2" x="-1" y="-1"><path fill="#fff" d="M11 7h6v5h-6z" id="svg_1"/><path d="M16.78 8.422l-.75.833-2.25 2.5a.714.714 0 0 1-.53.244.714.714 0 0 1-.53-.244l-1.5-1.667A.879.879 0 0 1 11 9.5c0-.46.336-.833.75-.833.207 0 .394.093.53.244l.97 1.077 1.72-1.91.75-.834A.711.711 0 0 1 16.25 7c.414 0 .75.373.75.834a.88.88 0 0 1-.22.589z" id="svg_2"/></mask><filter id="tjaua" width="56" height="59" x="-14" y="-18" filterUnits="userSpaceOnUse"><feOffset dy="4" in="SourceGraphic" result="FeOffset1170Out"/><feGaussianBlur in="FeOffset1170Out" result="FeGaussianBlur1171Out" stdDeviation="6 6"/></filter><linearGradient id="tjauc" x1="0.000003655720749982238" x2="0.999995231668587" y1="0.4000799148160333" y2="0.6001199199173037"><stop offset="0" stop-color="#ef91c6"/><stop offset="1" stop-color="#e569af"/></linearGradient></defs><g class="currentLayer" style=""><title>Layer 1</title><g id="svg_3" class=""><g id="svg_4"><g filter="url(#tjaua)" id="svg_5"><path fill="none" d="M5.7800219345092785,1.4219995231628424 l-0.7500000000000001,0.8330000000000001 l-2.25,2.5 a0.7140000000000001,0.7140000000000001 0 0 1 -0.53,0.24400000000000002 a0.7140000000000001,0.7140000000000001 0 0 1 -0.53,-0.24400000000000002 l-1.5,-1.6670000000000003 A0.8790000000000001,0.8790000000000001 0 0 1 0.00002193450927734375,2.499999523162842 c0,-0.46 0.3360000000000001,-0.8330000000000001 0.7500000000000001,-0.8330000000000001 c0.20700000000000002,0 0.3940000000000001,0.09300000000000003 0.53,0.24400000000000002 l0.97,1.077 l1.7200000000000002,-1.9100000000000001 l0.7500000000000001,-0.8340000000000001 A0.7110000000000001,0.7110000000000001 0 0 1 5.250021934509277,-4.76837158203125e-7 c0.41400000000000003,0 0.7500000000000001,0.37300000000000005 0.7500000000000001,0.8340000000000001 a0.8800000000000001,0.8800000000000001 0 0 1 -0.22000000000000003,0.5890000000000001 z" mask="url(&quot;#tjaub&quot;)" id="svg_6"/><path fill="#fa5e7b" fill-opacity=".5" d="M5.7800219345092785,1.4219995231628424 l-0.7500000000000001,0.8330000000000001 l-2.25,2.5 a0.7140000000000001,0.7140000000000001 0 0 1 -0.53,0.24400000000000002 a0.7140000000000001,0.7140000000000001 0 0 1 -0.53,-0.24400000000000002 l-1.5,-1.6670000000000003 A0.8790000000000001,0.8790000000000001 0 0 1 0.00002193450927734375,2.499999523162842 c0,-0.46 0.3360000000000001,-0.8330000000000001 0.7500000000000001,-0.8330000000000001 c0.20700000000000002,0 0.3940000000000001,0.09300000000000003 0.53,0.24400000000000002 l0.97,1.077 l1.7200000000000002,-1.9100000000000001 l0.7500000000000001,-0.8340000000000001 A0.7110000000000001,0.7110000000000001 0 0 1 5.250021934509277,-4.76837158203125e-7 c0.41400000000000003,0 0.7500000000000001,0.37300000000000005 0.7500000000000001,0.8340000000000001 a0.8800000000000001,0.8800000000000001 0 0 1 -0.22000000000000003,0.5890000000000001 z" id="svg_7"/></g><path fill="#5a3434" d="M5.7800219345092785,1.4219995231628424 l-0.7500000000000001,0.8330000000000001 l-2.25,2.5 a0.7140000000000001,0.7140000000000001 0 0 1 -0.53,0.24400000000000002 a0.7140000000000001,0.7140000000000001 0 0 1 -0.53,-0.24400000000000002 l-1.5,-1.6670000000000003 A0.8790000000000001,0.8790000000000001 0 0 1 0.00002193450927734375,2.499999523162842 c0,-0.46 0.3360000000000001,-0.8330000000000001 0.7500000000000001,-0.8330000000000001 c0.20700000000000002,0 0.3940000000000001,0.09300000000000003 0.53,0.24400000000000002 l0.97,1.077 l1.7200000000000002,-1.9100000000000001 l0.7500000000000001,-0.8340000000000001 A0.7110000000000001,0.7110000000000001 0 0 1 5.250021934509277,-4.76837158203125e-7 c0.41400000000000003,0 0.7500000000000001,0.37300000000000005 0.7500000000000001,0.8340000000000001 a0.8800000000000001,0.8800000000000001 0 0 1 -0.22000000000000003,0.5890000000000001 z" id="svg_8"/><path fill="url(#tjauc)" d="M5.7800219345092785,1.4219995231628424 l-0.7500000000000001,0.8330000000000001 l-2.25,2.5 a0.7140000000000001,0.7140000000000001 0 0 1 -0.53,0.24400000000000002 a0.7140000000000001,0.7140000000000001 0 0 1 -0.53,-0.24400000000000002 l-1.5,-1.6670000000000003 A0.8790000000000001,0.8790000000000001 0 0 1 0.00002193450927734375,2.499999523162842 c0,-0.46 0.3360000000000001,-0.8330000000000001 0.7500000000000001,-0.8330000000000001 c0.20700000000000002,0 0.3940000000000001,0.09300000000000003 0.53,0.24400000000000002 l0.97,1.077 l1.7200000000000002,-1.9100000000000001 l0.7500000000000001,-0.8340000000000001 A0.7110000000000001,0.7110000000000001 0 0 1 5.250021934509277,-4.76837158203125e-7 c0.41400000000000003,0 0.7500000000000001,0.37300000000000005 0.7500000000000001,0.8340000000000001 a0.8800000000000001,0.8800000000000001 0 0 1 -0.22000000000000003,0.5890000000000001 z" id="svg_9"/></g></g></g></svg>