<svg xmlns="http://www.w3.org/2000/svg" width="6" height="5" viewBox="0 0 6 5"><defs><linearGradient id="c7g0a" x1="0" x2="6" y1="3" y2="2" gradientUnits="userSpaceOnUse"><stop offset="0" stop-color="#b42fb4"/><stop offset="1" stop-color="#9159ab"/></linearGradient></defs><g><g><path fill="#5a3434" d="M5.78 1.422l-.75.833-2.25 2.5a.712.712 0 0 1-.53.244.712.712 0 0 1-.53-.244L.22 3.088A.88.88 0 0 1 0 2.5c0-.46.336-.833.75-.833.207 0 .394.093.53.244l.97 1.077 1.72-1.91.75-.834A.71.71 0 0 1 5.25 0c.414 0 .75.373.75.833a.88.88 0 0 1-.22.59z"/><path fill="url(#c7g0a)" d="M5.78 1.422l-.75.833-2.25 2.5a.712.712 0 0 1-.53.244.712.712 0 0 1-.53-.244L.22 3.088A.88.88 0 0 1 0 2.5c0-.46.336-.833.75-.833.207 0 .394.093.53.244l.97 1.077 1.72-1.91.75-.834A.71.71 0 0 1 5.25 0c.414 0 .75.373.75.833a.88.88 0 0 1-.22.59z"/></g></g></svg>