<svg xmlns="http://www.w3.org/2000/svg" width="38" height="48" style=""><rect id="backgroundrect" width="100%" height="100%" x="0" y="0" fill="none" stroke="none" class="" style=""/><defs><linearGradient id="oc65a" x1="-0.0002500810696061119" x2="1.000165496200774" y1="0.5000633366210768" y2="0.5000633366210768"><stop offset="0" stop-color="#ef91c6"/><stop offset="1" stop-color="#e569af"/></linearGradient></defs><g class="currentLayer" style=""><title>Layer 1</title><g id="svg_1" class=""><g id="svg_2"><path fill="#ea6060" d="M18.961581050949995,0.00008127738908497005 a18.719330036026005,17.730684737314512 0 0 1 18.775959942017344,17.76942404850528 c0,10.364255717038631 -9.387979971008672,21.276821684777406 -16.230760278295488,28.726689221464177 c-0.02831495299566962,0.029799470146747085 -1.1263059080499682,1.1889988588552085 -2.4822775459537003,1.1889988588552085 h-0.11955202375949388 c-1.3559716379037328,0 -2.453962592958031,-1.1621793357231358 -2.4854236518421082,-1.1919788058698828 C9.583039397606544,39.043347063657095 8.615165942595613e-7,28.13674098994767 8.615165942595613e-7,17.766525378879688 C-0.0031452443718134773,7.873101290159661 8.610892678088556,0.0030612244037596806 18.961581050949995,0.0030612244037596806 zM27.24842396101596,17.796324849026433 c0,-4.365622376498446 -3.791057595531317,-7.920699165005372 -8.450440416263167,-7.920699165005372 c-4.656236714843443,0 -8.450440416263167,3.5550767885069257 -8.450440416263167,7.920699165005372 c0,4.36860232351312 3.791057595531317,7.9236791120200465 8.450440416263167,7.9236791120200465 c4.656236714843443,0 8.450440416263167,-3.5550767885069257 8.450440416263167,-7.9236791120200465 z" id="svg_3"/><path fill="url(#oc65a)" d="M18.961581050949995,0.00008127738908497005 a18.719330036026005,17.730684737314512 0 0 1 18.775959942017344,17.76942404850528 c0,10.364255717038631 -9.387979971008672,21.276821684777406 -16.230760278295488,28.726689221464177 c-0.02831495299566962,0.029799470146747085 -1.1263059080499682,1.1889988588552085 -2.4822775459537003,1.1889988588552085 h-0.11955202375949388 c-1.3559716379037328,0 -2.453962592958031,-1.1621793357231358 -2.4854236518421082,-1.1919788058698828 C9.583039397606544,39.043347063657095 8.615165942595613e-7,28.13674098994767 8.615165942595613e-7,17.766525378879688 C-0.0031452443718134773,7.873101290159661 8.610892678088556,0.0030612244037596806 18.961581050949995,0.0030612244037596806 zM27.24842396101596,17.796324849026433 c0,-4.365622376498446 -3.791057595531317,-7.920699165005372 -8.450440416263167,-7.920699165005372 c-4.656236714843443,0 -8.450440416263167,3.5550767885069257 -8.450440416263167,7.920699165005372 c0,4.36860232351312 3.791057595531317,7.9236791120200465 8.450440416263167,7.9236791120200465 c4.656236714843443,0 8.450440416263167,-3.5550767885069257 8.450440416263167,-7.9236791120200465 z" id="svg_4"/></g></g></g></svg>