<?xml version="1.0" encoding="utf-8"?>
<svg xmlns="http://www.w3.org/2000/svg" xmlns:xlink="http://www.w3.org/1999/xlink">

  <symbol viewBox="0 0 24 13" id="iconArrowDownSlider">
    <path d="M11.848 10.223L22.582 0 24 1.358 11.848 13 0 1.552 1.418.194z"/>
  </symbol>

  <symbol viewBox="0 0 7 12" id="iconArrowLeftSlider">
    <path d="M6.418 11.618c.678-.57.76-1.58.185-2.253l-2.88-3.366 2.88-3.366A1.592 1.592 0 0 0 6.418.38a1.62 1.62 0 0 0-2.27.184L.382 4.964a1.588 1.588 0 0 0 0 2.07l3.766 4.4a1.615 1.615 0 0 0 2.27.185z"/>
  </symbol>

  <symbol viewBox="0 0 7 12" id="iconArrowRightSlider">
    <path d="M.581.379a1.591 1.591 0 0 0-.184 2.254l2.88 3.365-2.88 3.367a1.59 1.59 0 0 0 .184 2.253c.68.573 1.695.489 2.271-.184l3.766-4.4a1.588 1.588 0 0 0 0-2.07L2.852.563A1.62 1.62 0 0 0 .582.379z"/>
  </symbol>

  <symbol viewBox="0 0 24 13" id="iconArrowTopSlider">
    <path d="M11.848 2.776L22.582 13 24 11.642 11.848 0 0 11.447l1.418 1.359z"/>
  </symbol>

  <symbol viewBox="0 0 12 16" id="iconMarkerSm">
    <defs>
      <linearGradient id="t5sga" x1="0" x2="12" y1="8" y2="8" gradientUnits="userSpaceOnUse">
        <stop offset="0" stop-color="#ef91c6"/>
        <stop offset="1" stop-color="#e569af"/>
      </linearGradient>
    </defs>
    <g>
      <g>
        <path fill="#ea6060" d="M6.03-.004a5.951 5.951 0 0 1 5.968 5.963c0 3.478-2.984 7.14-5.16 9.64-.008.01-.357.4-.788.4H6.01c-.43 0-.78-.39-.788-.4-2.176-2.5-5.221-6.162-5.221-9.64C.002 2.64 2.74-.004 6.03-.004zM8.663 5.97c0-1.466-1.206-2.658-2.686-2.658-1.481 0-2.686 1.192-2.686 2.658 0 1.465 1.205 2.658 2.686 2.658 1.48 0 2.686-1.193 2.686-2.658z"/>
        <path fill="url(#t5sga)" d="M6.03-.004a5.951 5.951 0 0 1 5.968 5.963c0 3.478-2.984 7.14-5.16 9.64-.008.01-.357.4-.788.4H6.01c-.43 0-.78-.39-.788-.4-2.176-2.5-5.221-6.162-5.221-9.64C.002 2.64 2.74-.004 6.03-.004zM8.663 5.97c0-1.466-1.206-2.658-2.686-2.658-1.481 0-2.686 1.192-2.686 2.658 0 1.465 1.205 2.658 2.686 2.658 1.48 0 2.686-1.193 2.686-2.658z"/>
      </g>
    </g>
  </symbol>

  <symbol viewBox="0 0 71 71" id="iconPlay">
    <g><g><path fill="#acacac" d="M35.5 0C55.106 0 71 15.894 71 35.5S55.106 71 35.5 71 0 55.106 0 35.5 15.894 0 35.5 0z"/></g><g><path fill="#fff" d="M30.327 45.056c-.537 0-.971-.407-.971-.91v-15.93c0-.502.434-.91.97-.91L46.1 35.5s.728.681 0 1.365c-.728.682-15.772 8.192-15.772 8.192z"/></g></g>
  </symbol>

  <symbol viewBox="0 0 10 8" id="iconTriangleDown">
    <rect id="backgroundrect" width="100%" height="100%" x="0" y="0" fill="none" stroke="none"/><defs><mask id="nci9b" width="2" height="2" x="-1" y="-1"><path fill="#fff" d="M11 9h10v8H11z" id="svg_1"/><path d="M20.98 9.017H10.972l5.003 7.98z" id="svg_2"/></mask><filter id="nci9a" width="60" height="62" x="-14" y="-16" filterUnits="userSpaceOnUse"><feOffset dy="4" in="SourceGraphic" result="FeOffset1062Out"/><feGaussianBlur in="FeOffset1062Out" result="FeGaussianBlur1063Out" stdDeviation="6 6"/></filter><linearGradient id="nci9c" x1="-0.00019982565521279097" x2="0.9990007764327319" y1="0.4991228107914828" y2="0.5016291339632842"><stop offset="0" stop-color="#ef91c6"/><stop offset="1" stop-color="#e569af"/></linearGradient></defs><g class="currentLayer" style=""><title>Layer 1</title><g id="svg_3" class=""><g id="svg_4"><g filter="url(#nci9a)" id="svg_5"><path fill="none" d="M10.007999877929688,-1.9836425835251248e-7 H-1.220703129689582e-7 l5.003,7.98 z" mask="url(&quot;#nci9b&quot;)" id="svg_6"/><path fill="#fa5e7b" fill-opacity=".5" d="M10.007999877929688,-1.9836425835251248e-7 H-1.220703129689582e-7 l5.003,7.98 z" id="svg_7"/></g><path fill="#9546b7" d="M10.007999877929688,-1.9836425835251248e-7 H-1.220703129689582e-7 l5.003,7.98 z" id="svg_8"/><path fill="url(#nci9c)" d="M10.007999877929688,-1.9836425835251248e-7 H-1.220703129689582e-7 l5.003,7.98 z" id="svg_9"/></g></g></g>
  </symbol>

  <symbol viewBox="0 0 8 10" id="iconTriangleDownSm">
    <rect id="backgroundrect" width="100%" height="100%" x="0" y="0" fill="none" stroke="none"/><defs><mask id="nci9b" width="2" height="2" x="-1" y="-1"><path fill="#fff" d="M11 9h10v8H11z" id="svg_1"/><path d="M20.98 9.017H10.972l5.003 7.98z" id="svg_2"/></mask><filter id="nci9a" width="60" height="62" x="-14" y="-16" filterUnits="userSpaceOnUse"><feOffset dy="4" in="SourceGraphic" result="FeOffset1062Out"/><feGaussianBlur in="FeOffset1062Out" result="FeGaussianBlur1063Out" stdDeviation="6 6"/></filter><linearGradient id="nci9c" x1="-0.00019982565521279097" x2="0.9990007764327319" y1="0.4991228107914828" y2="0.5016291339632842"><stop offset="0" stop-color="#ef91c6"/><stop offset="1" stop-color="#e569af"/></linearGradient></defs><g class="currentLayer" style=""><title>Layer 1</title><g id="svg_3" class=""><g id="svg_4"><g filter="url(#nci9a)" id="svg_5"><path fill="none" d="M10.007999877929688,-1.9836425835251248e-7 H-1.220703129689582e-7 l5.003,7.98 z" mask="url(&quot;#nci9b&quot;)" id="svg_6"/><path fill="#fa5e7b" fill-opacity=".5" d="M10.007999877929688,-1.9836425835251248e-7 H-1.220703129689582e-7 l5.003,7.98 z" id="svg_7"/></g><path fill="#9546b7" d="M10.007999877929688,-1.9836425835251248e-7 H-1.220703129689582e-7 l5.003,7.98 z" id="svg_8"/><path fill="url(#nci9c)" d="M10.007999877929688,-1.9836425835251248e-7 H-1.220703129689582e-7 l5.003,7.98 z" id="svg_9"/></g></g></g>
  </symbol>

  <symbol viewBox="0 0 38 48" id="iconMarker">
    <rect id="backgroundrect" width="100%" height="100%" x="0" y="0" fill="none" stroke="none"/><defs><linearGradient id="oc65a" x1="-0.0002500810696061119" x2="1.000165496200774" y1="0.5000633366210768" y2="0.5000633366210768"><stop offset="0" stop-color="#ef91c6"/><stop offset="1" stop-color="#e569af"/></linearGradient></defs><g class="currentLayer"><title>Layer 1</title><g id="svg_1"><g id="svg_2"><path fill="#ea6060" d="M18.961581050949995,0.00008127738908497005 a18.719330036026005,17.730684737314512 0 0 1 18.775959942017344,17.76942404850528 c0,10.364255717038631 -9.387979971008672,21.276821684777406 -16.230760278295488,28.726689221464177 c-0.02831495299566962,0.029799470146747085 -1.1263059080499682,1.1889988588552085 -2.4822775459537003,1.1889988588552085 h-0.11955202375949388 c-1.3559716379037328,0 -2.453962592958031,-1.1621793357231358 -2.4854236518421082,-1.1919788058698828 C9.583039397606544,39.043347063657095 8.615165942595613e-7,28.13674098994767 8.615165942595613e-7,17.766525378879688 C-0.0031452443718134773,7.873101290159661 8.610892678088556,0.0030612244037596806 18.961581050949995,0.0030612244037596806 zM27.24842396101596,17.796324849026433 c0,-4.365622376498446 -3.791057595531317,-7.920699165005372 -8.450440416263167,-7.920699165005372 c-4.656236714843443,0 -8.450440416263167,3.5550767885069257 -8.450440416263167,7.920699165005372 c0,4.36860232351312 3.791057595531317,7.9236791120200465 8.450440416263167,7.9236791120200465 c4.656236714843443,0 8.450440416263167,-3.5550767885069257 8.450440416263167,-7.9236791120200465 z" id="svg_3"/><path fill="url(#oc65a)" d="M18.961581050949995,0.00008127738908497005 a18.719330036026005,17.730684737314512 0 0 1 18.775959942017344,17.76942404850528 c0,10.364255717038631 -9.387979971008672,21.276821684777406 -16.230760278295488,28.726689221464177 c-0.02831495299566962,0.029799470146747085 -1.1263059080499682,1.1889988588552085 -2.4822775459537003,1.1889988588552085 h-0.11955202375949388 c-1.3559716379037328,0 -2.453962592958031,-1.1621793357231358 -2.4854236518421082,-1.1919788058698828 C9.583039397606544,39.043347063657095 8.615165942595613e-7,28.13674098994767 8.615165942595613e-7,17.766525378879688 C-0.0031452443718134773,7.873101290159661 8.610892678088556,0.0030612244037596806 18.961581050949995,0.0030612244037596806 zM27.24842396101596,17.796324849026433 c0,-4.365622376498446 -3.791057595531317,-7.920699165005372 -8.450440416263167,-7.920699165005372 c-4.656236714843443,0 -8.450440416263167,3.5550767885069257 -8.450440416263167,7.920699165005372 c0,4.36860232351312 3.791057595531317,7.9236791120200465 8.450440416263167,7.9236791120200465 c4.656236714843443,0 8.450440416263167,-3.5550767885069257 8.450440416263167,-7.9236791120200465 z" id="svg_4"/></g></g></g>
  </symbol>



  <symbol viewBox="0 0 14 15" id="iconArrowLeftDouble">
    <g>
      <path d="M7.925 7.553l5.994 6.614-.642.84-6.75-7.481L13.275.008l.723.843z"/>
      <path d="M1.392 7.553l5.994 6.614-.642.84-6.751-7.481L6.743.008l.722.843z"/>
    </g>
  </symbol>

  <symbol viewBox="0 0 14 15" id="iconArrowRightDouble">
    <g>
      <path d="M6.075 7.553L.08 14.167l.642.84 6.75-7.481L.725.008.001.85z"/>
      <path d="M12.608 7.553l-5.994 6.614.642.84 6.75-7.481L7.259.008 6.535.85z"/>
    </g>
  </symbol>

  <symbol viewBox="0 0 7 19" id="iconArrowLeftSliderSm">
    <g>
      <path d="M6.346 18.89c.588-.255.826-.875.531-1.384L2.253 9.51c-.294-.51-1.01-.716-1.599-.46-.588.255-.826.875-.532 1.384l4.625 7.995c.294.509 1.01.715 1.599.46z"/>
      <path d="M6.346.11c.588.254.826.874.531 1.384L2.253 9.489c-.294.509-1.01.715-1.599.46-.588-.255-.826-.875-.532-1.385L4.747.57C5.04.06 5.757-.146 6.346.11z"/>
    </g>
  </symbol>

  <symbol viewBox="0 0 7 19" id="iconArrowRightSliderSm">
    <g>
      <path d="M.654 18.89c-.588-.255-.826-.875-.531-1.384L4.747 9.51c.294-.51 1.01-.716 1.598-.46.589.255.827.875.532 1.384L2.253 18.43c-.294.509-1.01.715-1.599.46z"/>
      <path d="M.654.11C.066.363-.172.983.123 1.493l4.624 7.995c.294.509 1.01.715 1.598.46.589-.255.827-.875.532-1.385L2.253.57C1.96.06 1.243-.146.654.11z"/>
    </g>
  </symbol>

</svg>