<svg xmlns="http://www.w3.org/2000/svg" width="10" height="9" viewBox="0 0 10 9"><defs><linearGradient id="b5sxa" x1="0" x2="10" y1="4" y2="5" gradientUnits="userSpaceOnUse"><stop offset="0" stop-color="#b42fb4"/><stop offset="1" stop-color="#9258ab"/></linearGradient></defs><g><g><path fill="#5a3434" d="M9.633 2.557l-1.25 1.5-3.75 4.5c-.226.27-.539.44-.884.44s-.657-.17-.884-.44l-2.5-3A1.654 1.654 0 0 1 0 4.496c0-.829.56-1.5 1.25-1.5.345 0 .658.167.884.439l1.616 1.94 2.867-3.44 1.25-1.5c.225-.272.538-.44.883-.44.69 0 1.25.672 1.25 1.5 0 .414-.14.79-.366 1.061z"/><path fill="url(#b5sxa)" d="M9.633 2.557l-1.25 1.5-3.75 4.5c-.226.27-.539.44-.884.44s-.657-.17-.884-.44l-2.5-3A1.654 1.654 0 0 1 0 4.496c0-.829.56-1.5 1.25-1.5.345 0 .658.167.884.439l1.616 1.94 2.867-3.44 1.25-1.5c.225-.272.538-.44.883-.44.69 0 1.25.672 1.25 1.5 0 .414-.14.79-.366 1.061z"/></g></g></svg>