<svg xmlns="http://www.w3.org/2000/svg" width="10" height="9" viewBox="0 0 10 9"><defs><linearGradient id="3ncea" x1="0" x2="10" y1="5" y2="4" gradientUnits="userSpaceOnUse"><stop offset="0" stop-color="#ef91c6"/><stop offset="1" stop-color="#e569af"/></linearGradient></defs><g><g><path fill="#5a3434" d="M9.633 2.558l-1.25 1.5-3.75 4.5c-.226.271-.538.44-.884.44-.345 0-.657-.169-.884-.44l-2.5-3A1.652 1.652 0 0 1 0 4.497c0-.829.56-1.5 1.25-1.5.346 0 .658.167.884.439l1.616 1.94 2.867-3.44 1.25-1.5c.226-.272.538-.44.884-.44.69 0 1.25.673 1.25 1.5 0 .415-.14.79-.367 1.061z"/><path fill="url(#3ncea)" d="M9.633 2.558l-1.25 1.5-3.75 4.5c-.226.271-.538.44-.884.44-.345 0-.657-.169-.884-.44l-2.5-3A1.652 1.652 0 0 1 0 4.497c0-.829.56-1.5 1.25-1.5.346 0 .658.167.884.439l1.616 1.94 2.867-3.44 1.25-1.5c.226-.272.538-.44.884-.44.69 0 1.25.673 1.25 1.5 0 .415-.14.79-.367 1.061z"/></g></g></svg>