<svg xmlns="http://www.w3.org/2000/svg" width="12" height="16" viewBox="0 0 12 16"><defs><linearGradient id="t5sga" x1="0" x2="12" y1="8" y2="8" gradientUnits="userSpaceOnUse"><stop offset="0" stop-color="#ef91c6"/><stop offset="1" stop-color="#e569af"/></linearGradient></defs><g><g><path fill="#ea6060" d="M6.03-.004a5.951 5.951 0 0 1 5.968 5.963c0 3.478-2.984 7.14-5.16 9.64-.008.01-.357.4-.788.4H6.01c-.43 0-.78-.39-.788-.4-2.176-2.5-5.221-6.162-5.221-9.64C.002 2.64 2.74-.004 6.03-.004zM8.663 5.97c0-1.466-1.206-2.658-2.686-2.658-1.481 0-2.686 1.192-2.686 2.658 0 1.465 1.205 2.658 2.686 2.658 1.48 0 2.686-1.193 2.686-2.658z"/><path fill="url(#t5sga)" d="M6.03-.004a5.951 5.951 0 0 1 5.968 5.963c0 3.478-2.984 7.14-5.16 9.64-.008.01-.357.4-.788.4H6.01c-.43 0-.78-.39-.788-.4-2.176-2.5-5.221-6.162-5.221-9.64C.002 2.64 2.74-.004 6.03-.004zM8.663 5.97c0-1.466-1.206-2.658-2.686-2.658-1.481 0-2.686 1.192-2.686 2.658 0 1.465 1.205 2.658 2.686 2.658 1.48 0 2.686-1.193 2.686-2.658z"/></g></g></svg>