<svg xmlns="http://www.w3.org/2000/svg" width="13" height="13" viewBox="0 0 13 13"><rect id="backgroundrect" width="100%" height="100%" x="0" y="0" fill="none" stroke="none"/><defs><mask id="dd13b" width="2" height="2" x="-1" y="-1"><path fill="#fff" d="M12 8h13v13H12z" id="svg_1"/><path d="M21.253 15.982c.197.041.386.137.539.29l2.889 2.888a1.075 1.075 0 1 1-1.52 1.52l-2.89-2.888a1.079 1.079 0 0 1-.29-.539 5.094 5.094 0 0 1-6.5-.576 5.095 5.095 0 0 1 0-7.195 5.094 5.094 0 0 1 7.196 0 5.092 5.092 0 0 1 .576 6.5zm-1.488-5.588a3.803 3.803 0 0 0-5.372 0 3.804 3.804 0 0 0 0 5.371 3.804 3.804 0 0 0 5.372 0 3.802 3.802 0 0 0 0-5.37z" id="svg_2"/></mask><filter id="dd13a" width="63" height="67" x="-13" y="-17" filterUnits="userSpaceOnUse"><feOffset dy="4" in="SourceGraphic" result="FeOffset1098Out"/><feGaussianBlur in="FeOffset1098Out" result="FeGaussianBlur1099Out" stdDeviation="6 6"/></filter><linearGradient id="dd13c" x1="-0.00030031594350895185" x2="0.9984196596971242" y1="0.4614469901747671" y2="0.5375096929406816"><stop offset="0" stop-color="#ef91c6"/><stop offset="1" stop-color="#e569af"/></linearGradient></defs><g class="currentLayer" style=""><title>Layer 1</title><g id="svg_3" class=""><g id="svg_4"><g filter="url(#dd13a)" id="svg_5"><path fill="none" d="M9.259091117858887,7.987997657775878 c0.19700000000000004,0.04100000000000001 0.38600000000000007,0.137 0.539,0.29000000000000004 l2.8890000000000002,2.888 a1.075,1.075 0 1 1 -1.52,1.52 l-2.89,-2.888 a1.079,1.079 0 0 1 -0.29000000000000004,-0.539 a5.094,5.094 0 0 1 -6.5,-0.5760000000000001 a5.095,5.095 0 0 1 0,-7.195 a5.094,5.094 0 0 1 7.196,0 a5.092,5.092 0 0 1 0.5760000000000001,6.5 zm-1.488,-5.588 a3.803,3.803 0 0 0 -5.372,0 a3.8040000000000003,3.8040000000000003 0 0 0 0,5.371 a3.8040000000000003,3.8040000000000003 0 0 0 5.372,0 a3.802,3.802 0 0 0 0,-5.37 z" mask="url(&quot;#dd13b&quot;)" id="svg_6"/><path fill="#fa5e7b" fill-opacity=".5" d="M9.259091117858887,7.987997657775878 c0.19700000000000004,0.04100000000000001 0.38600000000000007,0.137 0.539,0.29000000000000004 l2.8890000000000002,2.888 a1.075,1.075 0 1 1 -1.52,1.52 l-2.89,-2.888 a1.079,1.079 0 0 1 -0.29000000000000004,-0.539 a5.094,5.094 0 0 1 -6.5,-0.5760000000000001 a5.095,5.095 0 0 1 0,-7.195 a5.094,5.094 0 0 1 7.196,0 a5.092,5.092 0 0 1 0.5760000000000001,6.5 zm-1.488,-5.588 a3.803,3.803 0 0 0 -5.372,0 a3.8040000000000003,3.8040000000000003 0 0 0 0,5.371 a3.8040000000000003,3.8040000000000003 0 0 0 5.372,0 a3.802,3.802 0 0 0 0,-5.37 z" id="svg_7"/></g><path fill="#9546b7" d="M9.259091117858887,7.987997657775878 c0.19700000000000004,0.04100000000000001 0.38600000000000007,0.137 0.539,0.29000000000000004 l2.8890000000000002,2.888 a1.075,1.075 0 1 1 -1.52,1.52 l-2.89,-2.888 a1.079,1.079 0 0 1 -0.29000000000000004,-0.539 a5.094,5.094 0 0 1 -6.5,-0.5760000000000001 a5.095,5.095 0 0 1 0,-7.195 a5.094,5.094 0 0 1 7.196,0 a5.092,5.092 0 0 1 0.5760000000000001,6.5 zm-1.488,-5.588 a3.803,3.803 0 0 0 -5.372,0 a3.8040000000000003,3.8040000000000003 0 0 0 0,5.371 a3.8040000000000003,3.8040000000000003 0 0 0 5.372,0 a3.802,3.802 0 0 0 0,-5.37 z" id="svg_8"/><path fill="url(#dd13c)" d="M9.259091117858887,7.987997657775878 c0.19700000000000004,0.04100000000000001 0.38600000000000007,0.137 0.539,0.29000000000000004 l2.8890000000000002,2.888 a1.075,1.075 0 1 1 -1.52,1.52 l-2.89,-2.888 a1.079,1.079 0 0 1 -0.29000000000000004,-0.539 a5.094,5.094 0 0 1 -6.5,-0.5760000000000001 a5.095,5.095 0 0 1 0,-7.195 a5.094,5.094 0 0 1 7.196,0 a5.092,5.092 0 0 1 0.5760000000000001,6.5 zm-1.488,-5.588 a3.803,3.803 0 0 0 -5.372,0 a3.8040000000000003,3.8040000000000003 0 0 0 0,5.371 a3.8040000000000003,3.8040000000000003 0 0 0 5.372,0 a3.802,3.802 0 0 0 0,-5.37 z" id="svg_9"/></g></g></g></svg>