<svg width="66" height="70" viewBox="0 0 66 70" fill="none" xmlns="http://www.w3.org/2000/svg">
<g clip-path="url(#clip0)">
<path d="M34.9789 47.0699C34.5116 49.1733 31.6156 49.1889 31.0749 47.2746C31.044 47.1791 31.3003 48.2553 27.7943 33.4802C26.3427 27.3624 20.9849 23.1098 14.7885 23.1098C9.19603 23.1098 4.67119 27.7122 4.67119 33.342V46.644C4.67119 47.7747 3.76569 48.6905 2.64773 48.6905C1.52977 48.6905 0.624268 47.7747 0.624268 46.644V33.342C0.624268 25.4467 6.97377 19.0168 14.7885 19.0168C22.7965 19.0168 29.8412 24.5659 31.7299 32.526C35.2487 47.353 35.1101 46.4576 34.9789 47.0699Z" fill="#80AAFF"/>
<path d="M12.7652 48.6905V68.1318C12.7652 69.2625 11.8597 70.1783 10.7417 70.1783C9.62376 70.1783 8.71826 69.2625 8.71826 68.1318V46.644C8.71826 47.7747 9.62376 48.6905 10.7417 48.6905H12.7652Z" fill="#245FB8"/>
<path d="M20.8589 46.644V68.1318C20.8589 69.2625 19.9534 70.1783 18.8355 70.1783C17.7175 70.1783 16.812 69.2625 16.812 68.1318V48.6905H18.8355C19.9534 48.6905 20.8589 47.7747 20.8589 46.644Z" fill="#245FB8"/>
<path d="M20.859 25.1563V46.6441C20.859 47.7747 19.9535 48.6905 18.8356 48.6905H10.7417C9.62376 48.6905 8.71826 47.7747 8.71826 46.6441V25.1563C8.71826 21.8231 11.3564 19.1026 14.6318 19.0195C18.0868 18.9342 20.859 21.7511 20.859 25.1563Z" fill="#80AAFF"/>
<path fill-rule="evenodd" clip-rule="evenodd" d="M42.9832 9.79581C42.9832 15.066 42.4758 18.0804 41.3403 20.1696C42.5459 21.515 42.7882 22.1756 43.5959 23.087C44.4037 23.9983 46.7234 25.883 51.9219 26.2972C55.6858 26.5971 59.2487 24.517 59.6473 24.3503C60.0459 24.1837 61.368 23.4063 62.3605 22.7763C63.1973 22.2451 63.7608 22.2275 62.9732 20.9884C62.9418 20.94 62.9079 20.8894 62.8741 20.8387C61.4415 18.7276 60.8132 15.653 60.8132 9.77411C60.7601 8.9215 60.6731 8.08102 60.4799 7.26941C58.7138 -0.167312 48.801 -0.648024 46.6121 3.5619C46.5203 3.73819 46.356 3.73341 46.182 3.75997C44.4473 4.03766 42.9832 6.51093 42.9832 9.79581Z" fill="#6D80AA"/>
<path fill-rule="evenodd" clip-rule="evenodd" d="M49.8203 1.20694C53.3718 1.05481 57.5225 2.99911 58.6073 7.56162C58.8006 8.37315 58.8875 9.21371 58.9406 10.0663C58.9406 15.9452 59.5688 19.0199 61.0015 21.1309C61.0353 21.1816 61.0691 21.2323 61.1006 21.2806C61.7601 22.3192 60.5289 23.991 59.9225 24.1263C59.7553 24.4022 61.0474 23.459 61.1006 23.5194C61.4992 23.3527 61.9496 23.1241 62.3934 22.7697C63.198 22.6104 63.7606 22.2274 62.973 20.9883C62.9416 20.94 62.9078 20.8893 62.8739 20.8386C61.4413 18.7276 60.8131 15.6529 60.8131 9.77404C60.7599 8.92143 60.6729 8.08094 60.4797 7.26934C59.1968 1.86873 53.6182 0.136946 49.8203 1.20694Z" fill="#49679B"/>
<path d="M20.859 42.551V46.6439C20.859 47.7746 19.9535 48.6904 18.8356 48.6904H10.7417C9.62376 48.6904 8.71826 47.7746 8.71826 46.6439V42.551H20.859Z" fill="#245FB8"/>
<path d="M65.375 33.342V46.644C65.375 47.7747 64.4695 48.6905 63.3516 48.6905C62.2336 48.6905 61.3281 47.7747 61.3281 46.644V33.342C61.3281 27.7084 56.7996 23.1098 51.2108 23.1098C45.0148 23.1098 39.6566 27.3619 38.205 33.4802C34.6861 48.3094 34.9671 47.2068 34.8157 47.547C33.8791 49.3488 31.3802 48.8908 31.0204 47.0699C30.8905 46.4644 30.7316 47.4327 34.2693 32.526C36.1472 24.6122 43.159 19.0168 51.2108 19.0168C59.0158 19.0168 65.375 25.4372 65.375 33.342Z" fill="#FFA4B8"/>
<path d="M55.2577 70.1782C54.1401 70.1782 53.2342 69.2619 53.2342 68.1317V54.8297H49.1873V68.1317C49.1873 69.2619 48.2814 70.1782 47.1638 70.1782C46.0463 70.1782 45.1404 69.2619 45.1404 68.1317V52.7833C45.1404 51.6531 46.0463 50.7368 47.1638 50.7368H55.2577C56.3753 50.7368 57.2812 51.6531 57.2812 52.7833V68.1317C57.2812 69.262 56.3753 70.1782 55.2577 70.1782Z" fill="#FFDFBA"/>
<path d="M47.1639 70.1781H44.1287C43.0111 70.1781 42.1052 69.2618 42.1052 68.1317C42.1052 67.0015 43.0111 66.0852 44.1287 66.0852H47.1639C48.2815 66.0852 49.1873 67.0015 49.1873 68.1317C49.1873 69.2618 48.2815 70.1781 47.1639 70.1781Z" fill="black"/>
<path d="M58.293 70.1781H55.2578C54.1403 70.1781 53.2344 69.2618 53.2344 68.1317C53.2344 67.0015 54.1403 66.0852 55.2578 66.0852H58.293C59.4106 66.0852 60.3165 67.0015 60.3165 68.1317C60.3165 69.2618 59.4106 70.1781 58.293 70.1781Z" fill="black"/>
<path d="M59.3047 54.8297H43.117C41.8243 54.8297 40.8613 53.6188 41.1415 52.3394C41.2345 51.9158 45.0252 34.6644 45.1404 34.14V25.156C45.1404 21.747 47.9169 18.934 51.3676 19.0192C54.6431 19.1024 57.2812 21.8229 57.2812 25.156V34.14C57.5155 35.2066 61.0811 51.4327 61.2801 52.3394C61.5601 53.6178 60.5984 54.8297 59.3047 54.8297Z" fill="#CC193B"/>
<path d="M57.3307 34.3653H45.0913C45.1618 34.0436 45.1406 35.1257 45.1406 25.1562C45.1406 21.7706 47.8635 19.0168 51.211 19.0168C54.5586 19.0168 57.2814 21.7706 57.2814 25.1562C57.2814 35.1361 57.2603 34.0436 57.3307 34.3653Z" fill="#FFA4B8"/>
<path d="M36.0351 46.6441C36.0351 47.7748 35.1296 48.6906 34.0116 48.6906H31.9881C30.1785 48.6906 29.2849 46.4572 30.5717 45.1822C30.9625 44.7936 31.476 44.5977 31.9881 44.5977C34.154 44.5977 34.2223 44.5667 34.6174 44.691C35.4435 44.9513 36.0351 45.732 36.0351 46.6441Z" fill="black"/>
<path d="M21.8708 11.8542C21.8708 15.8185 18.6937 19.0168 14.7887 19.0168C10.8771 19.0168 7.70654 15.8103 7.70654 11.8542C7.70654 9.30255 9.02559 7.06424 11.0111 5.79415C15.6574 2.82807 21.8708 6.16546 21.8708 11.8542Z" fill="#FFDFBA"/>
<path d="M21.6012 13.8213C16.1806 17.2816 9.23226 12.1684 11.0109 5.79403C16.3941 2.35739 23.394 7.39576 21.6012 13.8213Z" fill="#FFEBD2"/>
<path d="M58.2929 11.854C58.2929 15.8101 55.1224 19.0166 51.2108 19.0166C47.9732 19.0166 45.2441 16.8205 44.398 13.8212C43.112 9.21203 46.5338 4.69141 51.2108 4.69141C55.13 4.69141 58.2929 7.90639 58.2929 11.854Z" fill="#FFDFBA"/>
<path d="M44.398 13.8216C42.6173 7.43944 49.572 2.3366 54.9883 5.79434C56.7803 12.2169 49.7826 17.259 44.398 13.8216Z" fill="#FFEBD2"/>
<path d="M0.624268 43.5745H4.67119V46.6442C4.67119 47.7748 3.76569 48.6906 2.64773 48.6906C1.52977 48.6906 0.624268 47.7748 0.624268 46.6442V43.5745Z" fill="#FFDFBA"/>
<path d="M35.428 45.1822C36.7153 46.4578 35.8203 48.6906 34.0116 48.6906H31.9881C30.1785 48.6906 29.2849 46.4573 30.5717 45.1822L30.1898 43.5745H35.81L35.428 45.1822Z" fill="#FFDFBA"/>
<path d="M65.375 43.5745V46.6442C65.375 47.7748 64.4695 48.6906 63.3516 48.6906C62.2336 48.6906 61.3281 47.7748 61.3281 46.6442V43.5745H65.375Z" fill="#FFDFBA"/>
<path d="M12.765 66.0852V68.1317C12.765 69.2623 11.8595 70.1781 10.7415 70.1781H7.70632C6.58836 70.1781 5.68286 69.2623 5.68286 68.1317C5.68286 67.001 6.58836 66.0852 7.70632 66.0852H12.765Z" fill="#9B3690"/>
<path d="M23.8939 68.1317C23.8939 69.2623 22.9884 70.1781 21.8704 70.1781H18.8352C17.7173 70.1781 16.8118 69.2623 16.8118 68.1317V66.0852H21.8704C22.9884 66.0852 23.8939 67.001 23.8939 68.1317Z" fill="#9B3690"/>
<path d="M49.1873 66.0852V68.1317C49.1873 69.2623 48.2818 70.1781 47.1639 70.1781H44.1287C43.0107 70.1781 42.1052 69.2623 42.1052 68.1317C42.1052 67.001 43.0107 66.0852 44.1287 66.0852H49.1873Z" fill="#9B3690"/>
<path d="M60.3162 68.1317C60.3162 69.2623 59.4107 70.1781 58.2928 70.1781H55.2576C54.1396 70.1781 53.2341 69.2623 53.2341 68.1317V66.0852H58.2928C59.4107 66.0852 60.3162 67.001 60.3162 68.1317Z" fill="#9B3690"/>
<mask id="mask0" mask-type="alpha" maskUnits="userSpaceOnUse" x="42" y="3" width="18" height="16">
<rect x="45.1406" y="3.4021" width="14.2627" height="13.0979" rx="6.54896" transform="rotate(9.96679 45.1406 3.4021)" fill="#C4C4C4"/>
</mask>
<g mask="url(#mask0)">
<path fill-rule="evenodd" clip-rule="evenodd" d="M63.7416 7.06853C67.3082 3.42568 69.7293 1.67267 71.9964 0.968401C72.001 -0.747098 71.2931 -1.36102 70.6655 -2.05028L59.071 -13.6609C58.6588 -13.8055 58.2486 -14.0037 57.7986 -14.2674C57.0862 -14.6814 56.5433 -15.0627 56.2965 -13.6931C56.2874 -13.6392 56.2785 -13.5821 56.2696 -13.525C55.9174 -11.1323 54.3087 -8.59773 50.3302 -4.53416C49.7931 -3.9102 49.2897 -3.27253 48.8857 -2.58564C45.1799 3.70553 53.8016 11.6154 58.2952 10.1317C58.4835 10.0696 59.2144 9.00874 58.1726 9.00874C59.6639 9.94707 61.5186 9.33911 63.7416 7.06853Z" fill="#6D80AA"/>
</g>
</g>
<path fill-rule="evenodd" clip-rule="evenodd" d="M12.3823 6.99123C16.5465 8.13959 17.225 8.05137 20.8353 8.14243C22.5076 6.32594 22.2685 3.37316 21.7133 1.15182C21.3306 -0.383055 21.5816 -0.0736143 20.2422 0.576537C16.5915 2.34528 11.1353 0.522134 9.76644 3.37077C9.60999 3.69608 9.50709 4.08454 9.46741 4.54304C9.4471 4.77647 9.50646 4.73166 9.29216 4.87495C8.97758 5.08485 8.72317 5.29924 8.52022 5.51932C7.47899 6.64796 7.76686 7.94586 8.04153 9.80594L8.04367 9.80566C9.57325 9.50171 10.5396 8.0325 10.9945 7.50763C11.2987 7.15478 11.6633 6.79206 12.3823 6.99123Z" fill="#6D80AA"/>
<path fill-rule="evenodd" clip-rule="evenodd" d="M18.9642 1.3768C19.4932 3.48849 19.7405 6.26061 18.3298 8.08624C18.6424 8.09957 18.9745 8.11039 19.335 8.11966C19.784 8.1319 20.2791 8.14236 20.8497 8.15753C22.52 6.34387 22.2766 3.39196 21.7179 1.1708C21.3329 -0.363955 21.5843 -0.0543191 20.2454 0.593879C19.8162 0.8016 19.3618 0.958938 18.8912 1.08128C18.9134 1.1711 18.937 1.26904 18.9642 1.3768Z" fill="#49679B"/>
<defs>
<clipPath id="clip0">
<rect width="64.765" height="69.9167" fill="white" transform="translate(0.617432 0.083252)"/>
</clipPath>
</defs>
</svg>
