<svg width="70" height="70" viewBox="0 0 70 70" fill="none" xmlns="http://www.w3.org/2000/svg">
<g clip-path="url(#clip0)">
<path d="M60.1997 32.6685L57.1062 29.575L61.7466 24.9346C62.6008 24.0804 63.9859 24.0804 64.8401 24.9346C65.6917 25.7862 65.6971 27.1712 64.8401 28.0281L60.1997 32.6685Z" fill="#6F0267"/>
<path d="M61.8334 0C57.3228 0 53.6668 3.656 53.6668 8.16662V70H0V8.16662C0 3.656 3.656 0 8.16662 0L61.8334 0Z" fill="#ECE2E2"/>
<path d="M61.8334 0C57.3228 0 53.6668 3.656 53.6668 8.16662C53.6668 10.6982 53.6668 54.0444 53.6668 52.5C53.6668 58.9433 48.4434 64.1666 42.0001 64.1666H0V8.16662C0 3.65641 3.65641 0 8.16662 0L61.8334 0Z" fill="white"/>
<path d="M39.6666 18.6665C39.6666 26.5415 26.8332 32.6665 26.8332 32.6665C26.8332 32.6665 23.6249 31.1353 20.4166 28.6196C17.2763 26.158 14 22.6443 14 18.6665C14 14.8001 17.064 11.6665 20.8444 11.6665C23.4218 11.6665 25.6664 13.1226 26.8332 15.2759C28.017 13.0917 30.3194 11.6055 32.996 11.6692C36.7212 11.7644 39.6666 14.8843 39.6666 18.6665Z" fill="#CC193B"/>
<path d="M62.2672 31.8827C62.2672 33.0038 61.8393 34.1222 60.9848 34.9767C59.9582 36.0033 41.0895 54.872 40.1024 55.8591C37.6688 58.2927 34.2303 59.4397 30.8219 58.953C30.3352 55.5446 31.4809 52.1061 33.9159 49.6712C34.9665 48.6205 53.1184 30.4685 54.7969 28.7901C57.5733 26.0138 62.2672 28.0348 62.2672 31.8827Z" fill="#6F0267"/>
<path d="M56.2899 37.8602C56.2899 38.9813 55.8619 40.0996 55.0075 40.9541L40.1024 55.8592C37.6688 58.2928 34.2303 59.4399 30.8219 58.9531C30.3352 55.5447 31.4809 52.1063 33.9159 49.6713L48.8196 34.7676C51.5958 31.9914 56.2899 34.0122 56.2899 37.8602Z" fill="#BAC3EE"/>
<path d="M69.9999 8.16662V11.6666H53.6665V8.16662C53.6665 3.656 57.3226 0 61.8333 0C66.3439 0 69.9999 3.656 69.9999 8.16662Z" fill="#ECE2E2"/>
<path d="M9.33338 42.9998H32.6667C33.9555 42.9998 35.0001 42.2537 35.0001 41.3332C35.0001 40.4127 33.9555 39.6665 32.6667 39.6665H9.33338C8.04467 39.6665 7 40.4127 7 41.3332C7 42.2537 8.04467 42.9998 9.33338 42.9998Z" fill="#ECE2E2"/>
<path d="M24.5 48.3826H9.33338C8.04467 48.3826 7 49.1287 7 50.0492C7 50.9697 8.04467 51.7159 9.33338 51.7159H24.5C25.7887 51.7159 26.8334 50.9697 26.8334 50.0492C26.8334 49.1287 25.7887 48.3826 24.5 48.3826Z" fill="#ECE2E2"/>
<path d="M22.1666 56.7791H9.33338C8.04467 56.7791 7 57.5252 7 58.4457C7 59.3662 8.04467 60.1124 9.33338 60.1124H22.1668C23.4555 60.1124 24.5001 59.3662 24.5001 58.4457C24.5 57.5252 23.4553 56.7791 22.1666 56.7791Z" fill="#ECE2E2"/>
</g>
<defs>
<clipPath id="clip0">
<rect width="70" height="70" fill="white"/>
</clipPath>
</defs>
</svg>
