<svg width="69" height="70" viewBox="0 0 69 70" fill="none" xmlns="http://www.w3.org/2000/svg">
<path fill-rule="evenodd" clip-rule="evenodd" d="M15.6393 36.5175C21.8327 35.4045 26.5325 30.0141 26.5325 23.5307C26.5325 16.2412 20.5929 10.3317 13.2662 10.3317C5.93957 10.3317 0 16.2413 0 23.5307C0 30.0141 4.69696 35.4045 10.8904 36.5175V48.5949L8.70483 46.4175C8.47131 46.188 8.09068 46.188 7.86003 46.4175L5.34863 48.9162C5.11511 49.1485 5.11511 49.5273 5.34863 49.7568L9.90716 54.2951L12.583 56.9544C12.8165 57.1897 13.0414 57.3073 13.2663 57.3073C13.4884 57.3073 13.7132 57.1897 13.9497 56.9544L16.6225 54.2951L21.184 49.7568C21.4147 49.5273 21.4147 49.1485 21.184 48.9162L18.6726 46.4176C18.4391 46.1881 18.0585 46.1881 17.8278 46.4176L15.6394 48.595V36.5175H15.6393ZM21.7837 23.5307C21.7837 28.2097 17.9691 32.0049 13.2663 32.0049C8.56067 32.0049 4.74603 28.2096 4.74603 23.5307C4.74603 18.8489 8.56067 15.0536 13.2663 15.0536C17.969 15.0537 21.7837 18.8489 21.7837 23.5307Z" fill="#4681DB"/>
<path fill-rule="evenodd" clip-rule="evenodd" d="M68.2883 49.6461C68.2662 39.6922 61.0773 31.4156 51.6054 29.7074V14.399H56.4363C56.8912 14.399 57.2665 14.0282 57.2665 13.5691V7.95867C57.2665 7.50396 56.8912 7.13318 56.4363 7.13318H51.6054V0.829875C51.6054 0.370782 51.2344 0 50.7752 0H45.1627C44.7078 0 44.3369 0.370782 44.3369 0.829875V7.13333H39.5016C39.0467 7.13333 38.6758 7.50411 38.6758 7.95882V13.5692C38.6758 14.0283 39.0467 14.3991 39.5016 14.3991H44.3369V29.7075C34.8473 31.4202 27.6539 39.7144 27.6539 49.6904C27.6539 60.9069 36.7505 70 47.9712 70C59.1786 70 68.262 60.9288 68.2885 49.7346V49.6904V49.6461H68.2883ZM47.9711 36.6508C55.1777 36.6508 61.0154 42.4863 61.0154 49.6901C61.0154 56.8939 55.1777 62.7341 47.9711 62.7341C40.7644 62.7341 34.9223 56.8941 34.9223 49.6901C34.9223 42.4862 40.7644 36.6508 47.9711 36.6508Z" fill="#CC193B"/>
<path fill-rule="evenodd" clip-rule="evenodd" d="M15.8427 36.5493C21.9205 35.4309 26.5327 30.0143 26.5327 23.4994C26.5327 17.466 22.5798 12.3752 17.1726 10.7666C21.3518 13.0669 24.2068 17.6274 24.2068 22.4732C24.2068 29.0054 20.783 33.7647 15.2088 35.2262C13.712 35.6182 13.9299 36.0304 13.9299 37.8494V48.5615V50.2767C13.9299 51.13 14.4279 51.6834 15.6078 50.6774L19.589 47.2845L18.8193 46.4975C18.5902 46.267 18.2166 46.267 17.9903 46.4975L15.8427 48.6855V36.5493Z" fill="#245FB8"/>
<path fill-rule="evenodd" clip-rule="evenodd" d="M51.6054 7.13333V0.829875C51.6054 0.370782 51.2345 0 50.7753 0H47.7239C48.1787 0 48.554 0.370782 48.554 0.829875V28.9172C48.554 30.1841 48.32 31.654 49.4858 31.9056C73.6801 37.079 67.8778 68.3534 46.4434 69.9425C46.9468 69.9823 47.4589 69.9999 47.9712 69.9999C59.1786 69.9999 68.2621 60.9287 68.2885 49.7344C68.2973 39.9086 61.2895 31.4554 51.6056 29.7074V14.399H56.4365C56.8914 14.399 57.2667 14.0282 57.2667 13.5691V7.95867C57.2667 7.50396 56.8914 7.13318 56.4365 7.13318H51.6054V7.13333Z" fill="#BB0E2F"/>
</svg>
