<svg xmlns="http://www.w3.org/2000/svg" width="20" height="20" viewBox="0 0 20 20"><g><g><path d="M4.375 6.875c0-1.81.568-3.519 1.601-4.81C7.041.733 8.47 0 10 0c3.101 0 5.625 3.086 5.625 6.875 0 3.79-2.523 6.876-5.625 6.876s-5.625-3.085-5.625-6.875zm1.25 0C5.624 9.976 7.587 12.5 10 12.5s4.375-2.524 4.375-5.625c0-3.102-1.963-5.625-4.375-5.625-2.413 0-4.376 2.523-4.376 5.625zM20 18.125A1.877 1.877 0 0 1 18.125 20H1.875A1.877 1.877 0 0 1 0 18.124 5.631 5.631 0 0 1 5.625 12.5a.624.624 0 1 1 0 1.25 4.38 4.38 0 0 0-4.375 4.374c0 .345.28.626.625.626h16.25c.344 0 .625-.281.625-.626a4.38 4.38 0 0 0-4.375-4.374.625.625 0 1 1 0-1.25A5.631 5.631 0 0 1 20 18.124z"/><path fill="#c4a17b" d="M4.375 6.875c0-1.81.568-3.519 1.601-4.81C7.041.733 8.47 0 10 0c3.101 0 5.625 3.086 5.625 6.875 0 3.79-2.523 6.876-5.625 6.876s-5.625-3.085-5.625-6.875zm1.25 0C5.624 9.976 7.587 12.5 10 12.5s4.375-2.524 4.375-5.625c0-3.102-1.963-5.625-4.375-5.625-2.413 0-4.376 2.523-4.376 5.625zM20 18.125A1.877 1.877 0 0 1 18.125 20H1.875A1.877 1.877 0 0 1 0 18.124 5.631 5.631 0 0 1 5.625 12.5a.624.624 0 1 1 0 1.25 4.38 4.38 0 0 0-4.375 4.374c0 .345.28.626.625.626h16.25c.344 0 .625-.281.625-.626a4.38 4.38 0 0 0-4.375-4.374.625.625 0 1 1 0-1.25A5.631 5.631 0 0 1 20 18.124z"/></g></g></svg>