<svg xmlns="http://www.w3.org/2000/svg" width="20" height="20" viewBox="0 0 20 20"><g><g><path d="M11.01 11.01L8.99 8.99c-.505-.505-2.525 4.544-2.525 4.544s5.05-2.02 4.545-2.524zm-6.566 4.545S6.718 9.242 7.98 7.98c1.262-1.263 7.575-3.536 7.575-3.536s-2.273 6.313-3.535 7.576c-1.263 1.262-7.576 3.535-7.576 3.535zM10 20C4.477 20 0 15.523 0 10S4.477 0 10 0s10 4.477 10 10-4.477 10-10 10zm0-1.43a8.572 8.572 0 1 0 0-17.143 8.572 8.572 0 0 0 0 17.144z"/><path fill="#c4a17b" d="M11.01 11.01L8.99 8.99c-.505-.505-2.525 4.544-2.525 4.544s5.05-2.02 4.545-2.524zm-6.566 4.545S6.718 9.242 7.98 7.98c1.262-1.263 7.575-3.536 7.575-3.536s-2.273 6.313-3.535 7.576c-1.263 1.262-7.576 3.535-7.576 3.535zM10 20C4.477 20 0 15.523 0 10S4.477 0 10 0s10 4.477 10 10-4.477 10-10 10zm0-1.43a8.572 8.572 0 1 0 0-17.143 8.572 8.572 0 0 0 0 17.144z"/></g></g></svg>