<svg xmlns="http://www.w3.org/2000/svg" width="20" height="20" viewBox="0 0 20 20"><g><g><path d="M20 3.673c0 .982-.382 1.905-1.077 2.598L7.285 17.91a.618.618 0 0 1-.259.155L.808 19.972a.627.627 0 0 1-.77-.81l2.5-6.876a.618.618 0 0 1 .146-.23L13.73 1.074A3.646 3.646 0 0 1 16.326 0c.981 0 1.904.381 2.597 1.076A3.65 3.65 0 0 1 20 3.673zM6.728 15H5.625A.624.624 0 0 1 5 14.375v-1.25H3.562l-1.064 2.928c.306.157.597.351.847.6.289.288.5.641.635 1.04l2.328-.715zm9.49-8.795c0-.647-.254-1.256-.71-1.714a2.406 2.406 0 0 0-1.714-.71c-.648 0-1.256.252-1.715.71l-.006-.007-7.434 7.39h.986c.345 0 .625.28.625.626v1.25H7.5a.626.626 0 0 1 .612.755l-.22 1.03 7.616-7.616c.458-.458.71-1.066.71-1.714zm2.532-2.532c0-.646-.253-1.255-.71-1.714a2.407 2.407 0 0 0-1.714-.71c-.648 0-1.257.252-1.714.71l-.002.002-.585.582c.895.056 1.729.425 2.367 1.064a3.646 3.646 0 0 1 1.064 2.364l.583-.583c.46-.458.71-1.066.71-1.715zm-3.933 1.51a.625.625 0 0 1 0 .884l-6.25 6.25a.624.624 0 1 1-.884-.884l6.25-6.25a.624.624 0 0 1 .884 0z"/><path fill="#c4a17b" d="M20 3.673c0 .982-.382 1.905-1.077 2.598L7.285 17.91a.618.618 0 0 1-.259.155L.808 19.972a.627.627 0 0 1-.77-.81l2.5-6.876a.618.618 0 0 1 .146-.23L13.73 1.074A3.646 3.646 0 0 1 16.326 0c.981 0 1.904.381 2.597 1.076A3.65 3.65 0 0 1 20 3.673zM6.728 15H5.625A.624.624 0 0 1 5 14.375v-1.25H3.562l-1.064 2.928c.306.157.597.351.847.6.289.288.5.641.635 1.04l2.328-.715zm9.49-8.795c0-.647-.254-1.256-.71-1.714a2.406 2.406 0 0 0-1.714-.71c-.648 0-1.256.252-1.715.71l-.006-.007-7.434 7.39h.986c.345 0 .625.28.625.626v1.25H7.5a.626.626 0 0 1 .612.755l-.22 1.03 7.616-7.616c.458-.458.71-1.066.71-1.714zm2.532-2.532c0-.646-.253-1.255-.71-1.714a2.407 2.407 0 0 0-1.714-.71c-.648 0-1.257.252-1.714.71l-.002.002-.585.582c.895.056 1.729.425 2.367 1.064a3.646 3.646 0 0 1 1.064 2.364l.583-.583c.46-.458.71-1.066.71-1.715zm-3.933 1.51a.625.625 0 0 1 0 .884l-6.25 6.25a.624.624 0 1 1-.884-.884l6.25-6.25a.624.624 0 0 1 .884 0z"/></g></g></svg>