<svg width="138" height="152" viewBox="0 0 138 152" fill="none" xmlns="http://www.w3.org/2000/svg">
<path d="M69 0L0 38.1445V114.433L69 152L138 114.433V38.1445L69 0Z" fill="#3B3D40"/>
<path d="M69 7L6 41.6312V110.894L69 145L132 110.894V41.6312L69 7Z" fill="black"/>
<g clip-path="url(#clip0_23_993)">
<path d="M52.1807 67H55.1839V85H52.1807V67ZM65.6954 79.258C65.6954 82.0127 63.28 82.2323 62.5615 82.2323C60.7663 82.2323 60.4397 80.621 60.4397 79.649V72.76H57.4364V79.6346C57.4364 81.341 57.995 82.7493 58.9741 83.6882C59.839 84.5183 61.1349 84.9719 62.5389 84.9719C63.5345 84.9719 64.9446 84.6746 65.6954 84.0172V85H68.6986V72.76H65.6954V79.258ZM74.7052 68.44H71.7019V72.76H69.4495V75.64H71.7019V85H74.7052V75.64H76.9576V72.76H74.7052V68.44ZM86.4157 81.3402C85.7617 81.904 84.8983 82.2165 83.9508 82.2165C81.862 82.2165 80.3281 80.7455 80.3281 78.7259C80.3281 76.7063 81.8132 75.2973 83.9508 75.2973C84.8818 75.2973 85.7617 75.5946 86.4322 76.1584L86.8879 76.5342L88.9129 74.5931L88.4061 74.1546C87.2146 73.1229 85.6326 72.544 83.95 72.544C80.1959 72.544 77.4697 75.1418 77.4697 78.7108C77.4697 82.2647 80.2612 84.9554 83.95 84.9554C85.6641 84.9554 87.2626 84.3765 88.4391 83.3282L88.9287 82.8897L86.8722 80.95L86.4157 81.3402ZM99.6323 73.827C98.7674 72.9976 97.7538 72.544 96.3497 72.544C95.3542 72.544 94.2264 72.8414 93.4756 73.498V67H90.4723V85H93.4756V78.2572C93.4756 75.5025 95.5163 75.2836 96.2349 75.2836C98.0301 75.2836 97.9805 76.8957 97.9805 77.8662V85H100.984V77.8814C100.984 76.175 100.612 74.7666 99.6323 73.827Z" fill="#B8BEC8"/>
<path d="M83.8515 76.6758C84.4274 76.6758 84.9797 76.8952 85.3869 77.2857C85.7941 77.6762 86.0229 78.2058 86.0229 78.758C86.0229 79.3103 85.7941 79.8399 85.3869 80.2304C84.9797 80.6209 84.4274 80.8403 83.8515 80.8403C83.2757 80.8403 82.7234 80.6209 82.3162 80.2304C81.9089 79.8399 81.6802 79.3103 81.6802 78.758C81.6802 78.2058 81.9089 77.6762 82.3162 77.2857C82.7234 76.8952 83.2757 76.6758 83.8515 76.6758Z" fill="#3B3D40"/>
<path d="M47.9762 80.479C46.8342 81.6058 45.283 82.2164 43.6507 82.2164C40.3051 82.2164 37.8725 79.6964 37.8725 76.2375C37.8725 72.7628 40.3051 70.2428 43.6507 70.2428C45.2672 70.2428 46.8012 70.8526 47.9604 71.9643L48.4169 72.4028L50.4246 70.4775L49.9839 70.039C48.3193 68.3953 46.0669 67.5039 43.6507 67.5039C38.7216 67.5039 35.0164 71.2601 35.0164 76.2526C35.0164 81.23 38.7382 84.9711 43.6507 84.9711C46.0834 84.9711 48.3358 84.0639 50.0004 82.4201L50.4411 81.9817L48.45 80.0254L47.9762 80.479Z" fill="#B8BEC8"/>
</g>
<path d="M64.9602 26.65H62.6402V33H61.6752V26.65H59.3502V25.835H64.9602V26.65ZM72.3211 29.42C72.3211 29.9567 72.2361 30.45 72.0661 30.9C71.8961 31.3467 71.6561 31.7317 71.3461 32.055C71.0361 32.3783 70.6628 32.63 70.2261 32.81C69.7928 32.9867 69.3128 33.075 68.7861 33.075C68.2595 33.075 67.7795 32.9867 67.3461 32.81C66.9128 32.63 66.5411 32.3783 66.2311 32.055C65.9211 31.7317 65.6811 31.3467 65.5111 30.9C65.3411 30.45 65.2561 29.9567 65.2561 29.42C65.2561 28.8833 65.3411 28.3917 65.5111 27.945C65.6811 27.495 65.9211 27.1083 66.2311 26.785C66.5411 26.4583 66.9128 26.205 67.3461 26.025C67.7795 25.845 68.2595 25.755 68.7861 25.755C69.3128 25.755 69.7928 25.845 70.2261 26.025C70.6628 26.205 71.0361 26.4583 71.3461 26.785C71.6561 27.1083 71.8961 27.495 72.0661 27.945C72.2361 28.3917 72.3211 28.8833 72.3211 29.42ZM71.3261 29.42C71.3261 28.98 71.2661 28.585 71.1461 28.235C71.0261 27.885 70.8561 27.59 70.6361 27.35C70.4161 27.1067 70.1495 26.92 69.8361 26.79C69.5228 26.66 69.1728 26.595 68.7861 26.595C68.4028 26.595 68.0545 26.66 67.7411 26.79C67.4278 26.92 67.1595 27.1067 66.9361 27.35C66.7161 27.59 66.5461 27.885 66.4261 28.235C66.3061 28.585 66.2461 28.98 66.2461 29.42C66.2461 29.86 66.3061 30.255 66.4261 30.605C66.5461 30.9517 66.7161 31.2467 66.9361 31.49C67.1595 31.73 67.4278 31.915 67.7411 32.045C68.0545 32.1717 68.4028 32.235 68.7861 32.235C69.1728 32.235 69.5228 32.1717 69.8361 32.045C70.1495 31.915 70.4161 31.73 70.6361 31.49C70.8561 31.2467 71.0261 30.9517 71.1461 30.605C71.2661 30.255 71.3261 29.86 71.3261 29.42ZM75.8239 29.55C76.1006 29.55 76.3439 29.5133 76.5539 29.44C76.7673 29.3667 76.9456 29.265 77.0889 29.135C77.2356 29.0017 77.3456 28.8433 77.4189 28.66C77.4923 28.4767 77.5289 28.275 77.5289 28.055C77.5289 27.5983 77.3873 27.2417 77.1039 26.985C76.8239 26.7283 76.3973 26.6 75.8239 26.6H74.6739V29.55H75.8239ZM75.8239 25.835C76.2773 25.835 76.6706 25.8883 77.0039 25.995C77.3406 26.0983 77.6189 26.2467 77.8389 26.44C78.0589 26.6333 78.2223 26.8667 78.3289 27.14C78.4389 27.4133 78.4939 27.7183 78.4939 28.055C78.4939 28.3883 78.4356 28.6933 78.3189 28.97C78.2023 29.2467 78.0306 29.485 77.8039 29.685C77.5806 29.885 77.3023 30.0417 76.9689 30.155C76.6389 30.265 76.2573 30.32 75.8239 30.32H74.6739V33H73.7089V25.835H75.8239ZM32.9085 48.23C33.1852 48.23 33.4235 48.1983 33.6235 48.135C33.8235 48.0717 33.9868 47.9833 34.1135 47.87C34.2435 47.7533 34.3385 47.6167 34.3985 47.46C34.4585 47.3 34.4885 47.125 34.4885 46.935C34.4885 46.565 34.3568 46.2733 34.0935 46.06C33.8302 45.8433 33.4352 45.735 32.9085 45.735H31.3585V48.23H32.9085ZM31.3585 42.6V45.045H32.6385C32.9118 45.045 33.1485 45.015 33.3485 44.955C33.5518 44.895 33.7185 44.8117 33.8485 44.705C33.9818 44.5983 34.0802 44.47 34.1435 44.32C34.2068 44.1667 34.2385 44 34.2385 43.82C34.2385 43.3967 34.1118 43.0883 33.8585 42.895C33.6052 42.6983 33.2118 42.6 32.6785 42.6H31.3585ZM32.6785 41.835C33.1185 41.835 33.4968 41.8783 33.8135 41.965C34.1335 42.0517 34.3952 42.175 34.5985 42.335C34.8052 42.495 34.9568 42.6917 35.0535 42.925C35.1502 43.155 35.1985 43.415 35.1985 43.705C35.1985 43.8817 35.1702 44.0517 35.1135 44.215C35.0602 44.375 34.9785 44.525 34.8685 44.665C34.7585 44.805 34.6185 44.9317 34.4485 45.045C34.2818 45.155 34.0852 45.245 33.8585 45.315C34.3852 45.415 34.7802 45.6033 35.0435 45.88C35.3102 46.1533 35.4435 46.5133 35.4435 46.96C35.4435 47.2633 35.3868 47.54 35.2735 47.79C35.1635 48.04 35.0002 48.255 34.7835 48.435C34.5702 48.615 34.3068 48.755 33.9935 48.855C33.6802 48.9517 33.3235 49 32.9235 49H30.3935V41.835H32.6785ZM40.8784 48.155C40.975 48.155 41.0517 48.1833 41.1084 48.24C41.165 48.2967 41.1934 48.37 41.1934 48.46V49H36.4134V48.695C36.4134 48.6317 36.4267 48.5667 36.4534 48.5C36.48 48.4333 36.5217 48.3717 36.5784 48.315L38.8734 46.01C39.0634 45.8167 39.2367 45.6317 39.3934 45.455C39.55 45.275 39.6834 45.095 39.7934 44.915C39.9034 44.735 39.9884 44.5533 40.0484 44.37C40.1084 44.1833 40.1384 43.985 40.1384 43.775C40.1384 43.565 40.105 43.3817 40.0384 43.225C39.9717 43.065 39.88 42.9333 39.7634 42.83C39.65 42.7267 39.515 42.65 39.3584 42.6C39.2017 42.5467 39.0334 42.52 38.8534 42.52C38.67 42.52 38.5017 42.5467 38.3484 42.6C38.195 42.6533 38.0584 42.7283 37.9384 42.825C37.8217 42.9183 37.7234 43.03 37.6434 43.16C37.5634 43.29 37.5067 43.4333 37.4734 43.59C37.4334 43.7067 37.3784 43.785 37.3084 43.825C37.2417 43.8617 37.1467 43.8717 37.0234 43.855L36.5584 43.775C36.605 43.4483 36.695 43.16 36.8284 42.91C36.965 42.6567 37.135 42.445 37.3384 42.275C37.545 42.105 37.78 41.9767 38.0434 41.89C38.3067 41.8 38.5917 41.755 38.8984 41.755C39.2017 41.755 39.485 41.8 39.7484 41.89C40.0117 41.98 40.24 42.1117 40.4334 42.285C40.6267 42.455 40.7784 42.6633 40.8884 42.91C40.9984 43.1567 41.0534 43.4367 41.0534 43.75C41.0534 44.0167 41.0134 44.265 40.9334 44.495C40.8534 44.7217 40.745 44.9383 40.6084 45.145C40.4717 45.3517 40.3134 45.5533 40.1334 45.75C39.9567 45.9467 39.7684 46.145 39.5684 46.345L37.6784 48.275C37.8117 48.2383 37.9467 48.21 38.0834 48.19C38.22 48.1667 38.3517 48.155 38.4784 48.155H40.8784ZM45.1741 48.23C45.4508 48.23 45.6891 48.1983 45.8891 48.135C46.0891 48.0717 46.2525 47.9833 46.3791 47.87C46.5091 47.7533 46.6041 47.6167 46.6641 47.46C46.7241 47.3 46.7541 47.125 46.7541 46.935C46.7541 46.565 46.6225 46.2733 46.3591 46.06C46.0958 45.8433 45.7008 45.735 45.1741 45.735H43.6241V48.23H45.1741ZM43.6241 42.6V45.045H44.9041C45.1775 45.045 45.4141 45.015 45.6141 44.955C45.8175 44.895 45.9841 44.8117 46.1141 44.705C46.2475 44.5983 46.3458 44.47 46.4091 44.32C46.4725 44.1667 46.5041 44 46.5041 43.82C46.5041 43.3967 46.3775 43.0883 46.1241 42.895C45.8708 42.6983 45.4775 42.6 44.9441 42.6H43.6241ZM44.9441 41.835C45.3841 41.835 45.7625 41.8783 46.0791 41.965C46.3991 42.0517 46.6608 42.175 46.8641 42.335C47.0708 42.495 47.2225 42.6917 47.3191 42.925C47.4158 43.155 47.4641 43.415 47.4641 43.705C47.4641 43.8817 47.4358 44.0517 47.3791 44.215C47.3258 44.375 47.2441 44.525 47.1341 44.665C47.0241 44.805 46.8841 44.9317 46.7141 45.045C46.5475 45.155 46.3508 45.245 46.1241 45.315C46.6508 45.415 47.0458 45.6033 47.3091 45.88C47.5758 46.1533 47.7091 46.5133 47.7091 46.96C47.7091 47.2633 47.6525 47.54 47.5391 47.79C47.4291 48.04 47.2658 48.255 47.0491 48.435C46.8358 48.615 46.5725 48.755 46.2591 48.855C45.9458 48.9517 45.5891 49 45.1891 49H42.6591V41.835H44.9441ZM56.7126 47.52C56.7659 47.52 56.8126 47.5417 56.8526 47.585L57.2376 48C56.9442 48.34 56.5876 48.605 56.1676 48.795C55.7509 48.985 55.2459 49.08 54.6526 49.08C54.1392 49.08 53.6726 48.9917 53.2526 48.815C52.8326 48.635 52.4742 48.385 52.1776 48.065C51.8809 47.7417 51.6509 47.355 51.4876 46.905C51.3242 46.455 51.2426 45.96 51.2426 45.42C51.2426 44.88 51.3276 44.385 51.4976 43.935C51.6676 43.485 51.9059 43.0983 52.2126 42.775C52.5226 42.4517 52.8926 42.2017 53.3226 42.025C53.7526 41.845 54.2276 41.755 54.7476 41.755C55.2576 41.755 55.7076 41.8367 56.0976 42C56.4876 42.1633 56.8309 42.385 57.1276 42.665L56.8076 43.11C56.7876 43.1433 56.7609 43.1717 56.7276 43.195C56.6976 43.215 56.6559 43.225 56.6026 43.225C56.5426 43.225 56.4692 43.1933 56.3826 43.13C56.2959 43.0633 56.1826 42.99 56.0426 42.91C55.9026 42.83 55.7276 42.7583 55.5176 42.695C55.3076 42.6283 55.0492 42.595 54.7426 42.595C54.3726 42.595 54.0342 42.66 53.7276 42.79C53.4209 42.9167 53.1559 43.1017 52.9326 43.345C52.7126 43.5883 52.5409 43.885 52.4176 44.235C52.2942 44.585 52.2326 44.98 52.2326 45.42C52.2326 45.8667 52.2959 46.265 52.4226 46.615C52.5526 46.965 52.7276 47.2617 52.9476 47.505C53.1709 47.745 53.4326 47.9283 53.7326 48.055C54.0359 48.1817 54.3626 48.245 54.7126 48.245C54.9259 48.245 55.1176 48.2333 55.2876 48.21C55.4609 48.1833 55.6192 48.1433 55.7626 48.09C55.9092 48.0367 56.0442 47.97 56.1676 47.89C56.2942 47.8067 56.4192 47.7083 56.5426 47.595C56.5992 47.545 56.6559 47.52 56.7126 47.52ZM64.8455 45.42C64.8455 45.9567 64.7605 46.45 64.5905 46.9C64.4205 47.3467 64.1805 47.7317 63.8705 48.055C63.5605 48.3783 63.1872 48.63 62.7505 48.81C62.3172 48.9867 61.8372 49.075 61.3105 49.075C60.7839 49.075 60.3039 48.9867 59.8705 48.81C59.4372 48.63 59.0655 48.3783 58.7555 48.055C58.4455 47.7317 58.2055 47.3467 58.0355 46.9C57.8655 46.45 57.7805 45.9567 57.7805 45.42C57.7805 44.8833 57.8655 44.3917 58.0355 43.945C58.2055 43.495 58.4455 43.1083 58.7555 42.785C59.0655 42.4583 59.4372 42.205 59.8705 42.025C60.3039 41.845 60.7839 41.755 61.3105 41.755C61.8372 41.755 62.3172 41.845 62.7505 42.025C63.1872 42.205 63.5605 42.4583 63.8705 42.785C64.1805 43.1083 64.4205 43.495 64.5905 43.945C64.7605 44.3917 64.8455 44.8833 64.8455 45.42ZM63.8505 45.42C63.8505 44.98 63.7905 44.585 63.6705 44.235C63.5505 43.885 63.3805 43.59 63.1605 43.35C62.9405 43.1067 62.6739 42.92 62.3605 42.79C62.0472 42.66 61.6972 42.595 61.3105 42.595C60.9272 42.595 60.5789 42.66 60.2655 42.79C59.9522 42.92 59.6839 43.1067 59.4605 43.35C59.2405 43.59 59.0705 43.885 58.9505 44.235C58.8305 44.585 58.7705 44.98 58.7705 45.42C58.7705 45.86 58.8305 46.255 58.9505 46.605C59.0705 46.9517 59.2405 47.2467 59.4605 47.49C59.6839 47.73 59.9522 47.915 60.2655 48.045C60.5789 48.1717 60.9272 48.235 61.3105 48.235C61.6972 48.235 62.0472 48.1717 62.3605 48.045C62.6739 47.915 62.9405 47.73 63.1605 47.49C63.3805 47.2467 63.5505 46.9517 63.6705 46.605C63.7905 46.255 63.8505 45.86 63.8505 45.42ZM73.6884 41.835V49H72.8384V43.735C72.8384 43.665 72.84 43.59 72.8434 43.51C72.85 43.43 72.8567 43.3483 72.8634 43.265L70.4034 47.745C70.3267 47.895 70.21 47.97 70.0534 47.97H69.9134C69.7567 47.97 69.64 47.895 69.5634 47.745L67.0534 43.245C67.0734 43.4217 67.0834 43.585 67.0834 43.735V49H66.2334V41.835H66.9484C67.035 41.835 67.1017 41.8433 67.1484 41.86C67.195 41.8767 67.24 41.9233 67.2834 42L69.7584 46.41C69.7984 46.49 69.8367 46.5733 69.8734 46.66C69.9134 46.7467 69.95 46.835 69.9834 46.925C70.0167 46.835 70.0517 46.7467 70.0884 46.66C70.125 46.57 70.165 46.485 70.2084 46.405L72.6384 42C72.6784 41.9233 72.7217 41.8767 72.7684 41.86C72.8184 41.8433 72.8867 41.835 72.9734 41.835H73.6884ZM77.6355 45.55C77.9121 45.55 78.1555 45.5133 78.3655 45.44C78.5788 45.3667 78.7571 45.265 78.9005 45.135C79.0471 45.0017 79.1571 44.8433 79.2305 44.66C79.3038 44.4767 79.3405 44.275 79.3405 44.055C79.3405 43.5983 79.1988 43.2417 78.9155 42.985C78.6355 42.7283 78.2088 42.6 77.6355 42.6H76.4855V45.55H77.6355ZM77.6355 41.835C78.0888 41.835 78.4821 41.8883 78.8155 41.995C79.1521 42.0983 79.4305 42.2467 79.6505 42.44C79.8705 42.6333 80.0338 42.8667 80.1405 43.14C80.2505 43.4133 80.3055 43.7183 80.3055 44.055C80.3055 44.3883 80.2471 44.6933 80.1305 44.97C80.0138 45.2467 79.8421 45.485 79.6155 45.685C79.3921 45.885 79.1138 46.0417 78.7805 46.155C78.4505 46.265 78.0688 46.32 77.6355 46.32H76.4855V49H75.5205V41.835H77.6355ZM84.8333 46.34L83.7083 43.425C83.6749 43.3383 83.6399 43.2383 83.6033 43.125C83.5666 43.0083 83.5316 42.885 83.4983 42.755C83.4283 43.025 83.3566 43.25 83.2833 43.43L82.1583 46.34H84.8333ZM86.8533 49H86.1033C86.0166 49 85.9466 48.9783 85.8933 48.935C85.8399 48.8917 85.7999 48.8367 85.7733 48.77L85.1033 47.04H81.8883L81.2183 48.77C81.1983 48.83 81.1599 48.8833 81.1033 48.93C81.0466 48.9767 80.9766 49 80.8933 49H80.1433L83.0083 41.835H83.9883L86.8533 49ZM93.6009 41.835V49H93.1159C93.0392 49 92.9742 48.9867 92.9209 48.96C92.8709 48.9333 92.8209 48.8883 92.7709 48.825L88.6259 43.425C88.6325 43.5083 88.6375 43.59 88.6409 43.67C88.6442 43.75 88.6459 43.825 88.6459 43.895V49H87.7959V41.835H88.2959C88.3392 41.835 88.3759 41.8383 88.4059 41.845C88.4359 41.8483 88.4625 41.8567 88.4859 41.87C88.5092 41.88 88.5325 41.8967 88.5559 41.92C88.5792 41.94 88.6042 41.9667 88.6309 42L92.7759 47.395C92.7692 47.3083 92.7625 47.225 92.7559 47.145C92.7525 47.0617 92.7509 46.9833 92.7509 46.91V41.835H93.6009ZM96.4026 49H95.4326V41.835H96.4026V49ZM102.655 48.21L102.65 49H98.2353V41.835H102.65V42.625H99.2053V45.005H101.995V45.765H99.2053V48.21H102.655ZM107.672 42.955C107.642 43.005 107.608 43.0433 107.572 43.07C107.538 43.0933 107.497 43.105 107.447 43.105C107.39 43.105 107.323 43.0767 107.247 43.02C107.17 42.9633 107.073 42.9017 106.957 42.835C106.843 42.765 106.705 42.7017 106.542 42.645C106.382 42.5883 106.187 42.56 105.957 42.56C105.74 42.56 105.548 42.59 105.382 42.65C105.218 42.7067 105.08 42.785 104.967 42.885C104.857 42.985 104.773 43.1033 104.717 43.24C104.66 43.3733 104.632 43.5183 104.632 43.675C104.632 43.875 104.68 44.0417 104.777 44.175C104.877 44.305 105.007 44.4167 105.167 44.51C105.33 44.6033 105.513 44.685 105.717 44.755C105.923 44.8217 106.133 44.8917 106.347 44.965C106.563 45.0383 106.773 45.1217 106.977 45.215C107.183 45.305 107.367 45.42 107.527 45.56C107.69 45.7 107.82 45.8717 107.917 46.075C108.017 46.2783 108.067 46.5283 108.067 46.825C108.067 47.1383 108.013 47.4333 107.907 47.71C107.8 47.9833 107.643 48.2217 107.437 48.425C107.233 48.6283 106.982 48.7883 106.682 48.905C106.385 49.0217 106.047 49.08 105.667 49.08C105.2 49.08 104.777 48.9967 104.397 48.83C104.017 48.66 103.692 48.4317 103.422 48.145L103.702 47.685C103.728 47.6483 103.76 47.6183 103.797 47.595C103.837 47.5683 103.88 47.555 103.927 47.555C103.97 47.555 104.018 47.5733 104.072 47.61C104.128 47.6433 104.192 47.6867 104.262 47.74C104.332 47.7933 104.412 47.8517 104.502 47.915C104.592 47.9783 104.693 48.0367 104.807 48.09C104.923 48.1433 105.055 48.1883 105.202 48.225C105.348 48.2583 105.513 48.275 105.697 48.275C105.927 48.275 106.132 48.2433 106.312 48.18C106.492 48.1167 106.643 48.0283 106.767 47.915C106.893 47.7983 106.99 47.66 107.057 47.5C107.123 47.34 107.157 47.1617 107.157 46.965C107.157 46.7483 107.107 46.5717 107.007 46.435C106.91 46.295 106.782 46.1783 106.622 46.085C106.462 45.9917 106.278 45.9133 106.072 45.85C105.865 45.7833 105.655 45.7167 105.442 45.65C105.228 45.58 105.018 45.5 104.812 45.41C104.605 45.32 104.422 45.2033 104.262 45.06C104.102 44.9167 103.972 44.7383 103.872 44.525C103.775 44.3083 103.727 44.0417 103.727 43.725C103.727 43.4717 103.775 43.2267 103.872 42.99C103.972 42.7533 104.115 42.5433 104.302 42.36C104.492 42.1767 104.723 42.03 104.997 41.92C105.273 41.81 105.59 41.755 105.947 41.755C106.347 41.755 106.71 41.8183 107.037 41.945C107.367 42.0717 107.657 42.255 107.907 42.495L107.672 42.955Z" fill="#B8BEC8"/>
<path d="M51.0687 110.23C51.3653 110.23 51.6303 110.18 51.8637 110.08C52.097 109.98 52.2937 109.84 52.4537 109.66C52.617 109.48 52.7403 109.265 52.8237 109.015C52.9103 108.765 52.9537 108.49 52.9537 108.19V103.835H53.9187V108.19C53.9187 108.603 53.852 108.987 53.7187 109.34C53.5887 109.693 53.4003 110 53.1537 110.26C52.9103 110.517 52.612 110.718 52.2587 110.865C51.9053 111.012 51.5087 111.085 51.0687 111.085C50.6287 111.085 50.232 111.012 49.8787 110.865C49.5253 110.718 49.2253 110.517 48.9787 110.26C48.732 110 48.542 109.693 48.4087 109.34C48.2787 108.987 48.2137 108.603 48.2137 108.19V103.835H49.1787V108.185C49.1787 108.485 49.2203 108.76 49.3037 109.01C49.3903 109.26 49.5137 109.475 49.6737 109.655C49.837 109.835 50.0353 109.977 50.2687 110.08C50.5053 110.18 50.772 110.23 51.0687 110.23ZM56.6222 106.975H56.9872C57.1139 106.975 57.2155 106.96 57.2922 106.93C57.3689 106.897 57.4389 106.842 57.5022 106.765L59.8872 104.065C59.9539 103.978 60.0239 103.918 60.0972 103.885C60.1705 103.852 60.2605 103.835 60.3672 103.835H61.1872L58.4572 106.92C58.3905 107 58.3255 107.067 58.2622 107.12C58.2022 107.17 58.1372 107.212 58.0672 107.245C58.1572 107.275 58.2389 107.32 58.3122 107.38C58.3855 107.437 58.4572 107.512 58.5272 107.605L61.3772 111H60.5372C60.4739 111 60.4189 110.997 60.3722 110.99C60.3289 110.98 60.2905 110.967 60.2572 110.95C60.2239 110.93 60.1939 110.908 60.1672 110.885C60.1439 110.858 60.1205 110.828 60.0972 110.795L57.6272 107.95C57.5605 107.867 57.4889 107.808 57.4122 107.775C57.3355 107.738 57.2189 107.72 57.0622 107.72H56.6222V111H55.6572V103.835H56.6222V106.975ZM64.2633 107.305C64.5433 107.305 64.7899 107.272 65.0033 107.205C65.2199 107.135 65.3999 107.038 65.5433 106.915C65.6899 106.788 65.7999 106.638 65.8733 106.465C65.9466 106.292 65.9833 106.1 65.9833 105.89C65.9833 105.463 65.8433 105.142 65.5633 104.925C65.2833 104.708 64.8633 104.6 64.3033 104.6H63.2433V107.305H64.2633ZM67.5733 111H66.7133C66.5366 111 66.4066 110.932 66.3233 110.795L64.4633 108.235C64.4066 108.155 64.3449 108.098 64.2783 108.065C64.2149 108.028 64.1149 108.01 63.9783 108.01H63.2433V111H62.2783V103.835H64.3033C64.7566 103.835 65.1483 103.882 65.4783 103.975C65.8083 104.065 66.0799 104.197 66.2933 104.37C66.5099 104.543 66.6699 104.753 66.7733 105C66.8766 105.243 66.9283 105.517 66.9283 105.82C66.9283 106.073 66.8883 106.31 66.8083 106.53C66.7283 106.75 66.6116 106.948 66.4583 107.125C66.3083 107.298 66.1233 107.447 65.9033 107.57C65.6866 107.693 65.4399 107.787 65.1633 107.85C65.2866 107.92 65.3933 108.022 65.4833 108.155L67.5733 111ZM72.3528 108.34L71.2278 105.425C71.1945 105.338 71.1595 105.238 71.1228 105.125C71.0861 105.008 71.0511 104.885 71.0178 104.755C70.9478 105.025 70.8761 105.25 70.8028 105.43L69.6778 108.34H72.3528ZM74.3728 111H73.6228C73.5361 111 73.4661 110.978 73.4128 110.935C73.3595 110.892 73.3195 110.837 73.2928 110.77L72.6228 109.04H69.4078L68.7378 110.77C68.7178 110.83 68.6795 110.883 68.6228 110.93C68.5661 110.977 68.4961 111 68.4128 111H67.6628L70.5278 103.835H71.5078L74.3728 111ZM76.2854 111H75.3154V103.835H76.2854V111ZM83.9231 103.835V111H83.4381C83.3615 111 83.2965 110.987 83.2431 110.96C83.1931 110.933 83.1431 110.888 83.0931 110.825L78.9481 105.425C78.9548 105.508 78.9598 105.59 78.9631 105.67C78.9665 105.75 78.9681 105.825 78.9681 105.895V111H78.1181V103.835H78.6181C78.6615 103.835 78.6981 103.838 78.7281 103.845C78.7581 103.848 78.7848 103.857 78.8081 103.87C78.8315 103.88 78.8548 103.897 78.8781 103.92C78.9015 103.94 78.9265 103.967 78.9531 104L83.0981 109.395C83.0915 109.308 83.0848 109.225 83.0781 109.145C83.0748 109.062 83.0731 108.983 83.0731 108.91V103.835H83.9231ZM90.1748 110.21L90.1698 111H85.7548V103.835H90.1698V104.625H86.7248V107.005H89.5148V107.765H86.7248V110.21H90.1748ZM62.3334 126.155C62.4301 126.155 62.5068 126.183 62.5634 126.24C62.6201 126.297 62.6484 126.37 62.6484 126.46V127H57.8684V126.695C57.8684 126.632 57.8818 126.567 57.9084 126.5C57.9351 126.433 57.9768 126.372 58.0334 126.315L60.3284 124.01C60.5184 123.817 60.6918 123.632 60.8484 123.455C61.0051 123.275 61.1384 123.095 61.2484 122.915C61.3584 122.735 61.4434 122.553 61.5034 122.37C61.5634 122.183 61.5934 121.985 61.5934 121.775C61.5934 121.565 61.5601 121.382 61.4934 121.225C61.4268 121.065 61.3351 120.933 61.2184 120.83C61.1051 120.727 60.9701 120.65 60.8134 120.6C60.6568 120.547 60.4884 120.52 60.3084 120.52C60.1251 120.52 59.9568 120.547 59.8034 120.6C59.6501 120.653 59.5134 120.728 59.3934 120.825C59.2768 120.918 59.1784 121.03 59.0984 121.16C59.0184 121.29 58.9618 121.433 58.9284 121.59C58.8884 121.707 58.8334 121.785 58.7634 121.825C58.6968 121.862 58.6018 121.872 58.4784 121.855L58.0134 121.775C58.0601 121.448 58.1501 121.16 58.2834 120.91C58.4201 120.657 58.5901 120.445 58.7934 120.275C59.0001 120.105 59.2351 119.977 59.4984 119.89C59.7618 119.8 60.0468 119.755 60.3534 119.755C60.6568 119.755 60.9401 119.8 61.2034 119.89C61.4668 119.98 61.6951 120.112 61.8884 120.285C62.0818 120.455 62.2334 120.663 62.3434 120.91C62.4534 121.157 62.5084 121.437 62.5084 121.75C62.5084 122.017 62.4684 122.265 62.3884 122.495C62.3084 122.722 62.2001 122.938 62.0634 123.145C61.9268 123.352 61.7684 123.553 61.5884 123.75C61.4118 123.947 61.2234 124.145 61.0234 124.345L59.1334 126.275C59.2668 126.238 59.4018 126.21 59.5384 126.19C59.6751 126.167 59.8068 126.155 59.9334 126.155H62.3334ZM68.6992 123.42C68.6992 124.047 68.6309 124.59 68.4942 125.05C68.3609 125.507 68.1776 125.885 67.9442 126.185C67.7109 126.485 67.4342 126.708 67.1142 126.855C66.7976 127.002 66.4576 127.075 66.0942 127.075C65.7276 127.075 65.3859 127.002 65.0692 126.855C64.7559 126.708 64.4826 126.485 64.2492 126.185C64.0159 125.885 63.8326 125.507 63.6992 125.05C63.5659 124.59 63.4992 124.047 63.4992 123.42C63.4992 122.793 63.5659 122.25 63.6992 121.79C63.8326 121.33 64.0159 120.95 64.2492 120.65C64.4826 120.347 64.7559 120.122 65.0692 119.975C65.3859 119.828 65.7276 119.755 66.0942 119.755C66.4576 119.755 66.7976 119.828 67.1142 119.975C67.4342 120.122 67.7109 120.347 67.9442 120.65C68.1776 120.95 68.3609 121.33 68.4942 121.79C68.6309 122.25 68.6992 122.793 68.6992 123.42ZM67.7742 123.42C67.7742 122.873 67.7276 122.415 67.6342 122.045C67.5442 121.672 67.4209 121.372 67.2642 121.145C67.1109 120.918 66.9326 120.757 66.7292 120.66C66.5259 120.56 66.3142 120.51 66.0942 120.51C65.8742 120.51 65.6626 120.56 65.4592 120.66C65.2559 120.757 65.0776 120.918 64.9242 121.145C64.7709 121.372 64.6476 121.672 64.5542 122.045C64.4642 122.415 64.4192 122.873 64.4192 123.42C64.4192 123.967 64.4642 124.425 64.5542 124.795C64.6476 125.165 64.7709 125.463 64.9242 125.69C65.0776 125.917 65.2559 126.08 65.4592 126.18C65.6626 126.277 65.8742 126.325 66.0942 126.325C66.3142 126.325 66.5259 126.277 66.7292 126.18C66.9326 126.08 67.1109 125.917 67.2642 125.69C67.4209 125.463 67.5442 125.165 67.6342 124.795C67.7276 124.425 67.7742 123.967 67.7742 123.42ZM73.935 126.155C74.0317 126.155 74.1083 126.183 74.165 126.24C74.2217 126.297 74.25 126.37 74.25 126.46V127H69.47V126.695C69.47 126.632 69.4833 126.567 69.51 126.5C69.5367 126.433 69.5783 126.372 69.635 126.315L71.93 124.01C72.12 123.817 72.2933 123.632 72.45 123.455C72.6067 123.275 72.74 123.095 72.85 122.915C72.96 122.735 73.045 122.553 73.105 122.37C73.165 122.183 73.195 121.985 73.195 121.775C73.195 121.565 73.1617 121.382 73.095 121.225C73.0283 121.065 72.9367 120.933 72.82 120.83C72.7067 120.727 72.5717 120.65 72.415 120.6C72.2583 120.547 72.09 120.52 71.91 120.52C71.7267 120.52 71.5583 120.547 71.405 120.6C71.2517 120.653 71.115 120.728 70.995 120.825C70.8783 120.918 70.78 121.03 70.7 121.16C70.62 121.29 70.5633 121.433 70.53 121.59C70.49 121.707 70.435 121.785 70.365 121.825C70.2983 121.862 70.2033 121.872 70.08 121.855L69.615 121.775C69.6617 121.448 69.7517 121.16 69.885 120.91C70.0217 120.657 70.1917 120.445 70.395 120.275C70.6017 120.105 70.8367 119.977 71.1 119.89C71.3633 119.8 71.6483 119.755 71.955 119.755C72.2583 119.755 72.5417 119.8 72.805 119.89C73.0683 119.98 73.2967 120.112 73.49 120.285C73.6833 120.455 73.835 120.663 73.945 120.91C74.055 121.157 74.11 121.437 74.11 121.75C74.11 122.017 74.07 122.265 73.99 122.495C73.91 122.722 73.8017 122.938 73.665 123.145C73.5283 123.352 73.37 123.553 73.19 123.75C73.0133 123.947 72.825 124.145 72.625 124.345L70.735 126.275C70.8683 126.238 71.0033 126.21 71.14 126.19C71.2767 126.167 71.4083 126.155 71.535 126.155H73.935ZM80.3008 123.42C80.3008 124.047 80.2324 124.59 80.0958 125.05C79.9624 125.507 79.7791 125.885 79.5458 126.185C79.3124 126.485 79.0358 126.708 78.7158 126.855C78.3991 127.002 78.0591 127.075 77.6958 127.075C77.3291 127.075 76.9874 127.002 76.6708 126.855C76.3574 126.708 76.0841 126.485 75.8508 126.185C75.6174 125.885 75.4341 125.507 75.3008 125.05C75.1674 124.59 75.1008 124.047 75.1008 123.42C75.1008 122.793 75.1674 122.25 75.3008 121.79C75.4341 121.33 75.6174 120.95 75.8508 120.65C76.0841 120.347 76.3574 120.122 76.6708 119.975C76.9874 119.828 77.3291 119.755 77.6958 119.755C78.0591 119.755 78.3991 119.828 78.7158 119.975C79.0358 120.122 79.3124 120.347 79.5458 120.65C79.7791 120.95 79.9624 121.33 80.0958 121.79C80.2324 122.25 80.3008 122.793 80.3008 123.42ZM79.3758 123.42C79.3758 122.873 79.3291 122.415 79.2358 122.045C79.1458 121.672 79.0224 121.372 78.8658 121.145C78.7124 120.918 78.5341 120.757 78.3308 120.66C78.1274 120.56 77.9158 120.51 77.6958 120.51C77.4758 120.51 77.2641 120.56 77.0608 120.66C76.8574 120.757 76.6791 120.918 76.5258 121.145C76.3724 121.372 76.2491 121.672 76.1558 122.045C76.0658 122.415 76.0208 122.873 76.0208 123.42C76.0208 123.967 76.0658 124.425 76.1558 124.795C76.2491 125.165 76.3724 125.463 76.5258 125.69C76.6791 125.917 76.8574 126.08 77.0608 126.18C77.2641 126.277 77.4758 126.325 77.6958 126.325C77.9158 126.325 78.1274 126.277 78.3308 126.18C78.5341 126.08 78.7124 125.917 78.8658 125.69C79.0224 125.463 79.1458 125.165 79.2358 124.795C79.3291 124.425 79.3758 123.967 79.3758 123.42Z" fill="#B8BEC8"/>
<path d="M18.5 55H119" stroke="#3B3D40" stroke-width="0.5"/>
<path d="M18.5 97H119" stroke="#3B3D40" stroke-width="0.5"/>
<defs>
<clipPath id="clip0_23_993">
<rect width="66" height="18" fill="white" transform="translate(35 67)"/>
</clipPath>
</defs>
</svg>
