<svg width="162" height="56" viewBox="0 0 162 56" fill="none" xmlns="http://www.w3.org/2000/svg">
<rect width="162" height="56" fill="black"/>
<path d="M36.1958 26.0845C37.2686 26.2859 38.0244 26.7399 38.4664 27.4401C38.9083 28.1434 39.1293 29.2497 39.1293 30.7587C39.1293 33.7576 38.2262 36.2098 36.42 38.1217C34.6138 40.0304 32.3048 40.9864 29.493 40.9864C28.3849 40.9864 27.3089 40.7881 26.2649 40.3885C25.2209 39.9888 24.3242 39.4325 23.5748 38.7196C22.7165 37.9331 22.0728 37.105 21.6437 36.229C21.2146 35.353 21 34.4578 21 33.5434C21 32.5203 21.221 31.7306 21.6629 31.1711C22.1049 30.6116 22.7998 30.2312 23.7541 30.0298C23.5748 29.6141 23.4435 29.2624 23.3602 28.9779C23.277 28.6934 23.2353 28.4727 23.2353 28.3161C23.2353 27.7822 23.5172 27.2323 24.084 26.6728C24.6508 26.1133 25.1825 25.8351 25.6852 25.8351C25.8998 25.8351 26.1272 25.8735 26.3642 25.9502C26.6012 26.0269 26.8766 26.1548 27.1872 26.3339C26.2681 23.741 25.602 21.7396 25.1857 20.3296C24.7693 18.9197 24.5612 17.9478 24.5612 17.4106C24.5612 16.6721 24.6893 16.1094 25.0608 15.6682C25.5155 15.1279 26.1976 15 26.8541 15C28.18 15 28.6539 16.135 30.9437 22.4973C31.2512 23.3509 31.4689 24.0127 31.6226 24.4795C31.7539 24.1118 31.9397 23.5875 32.1767 22.9097C33.8932 17.9606 34.6266 15.486 36.6089 15.486C37.2174 15.486 37.701 15.6906 38.0661 16.103C38.4311 16.5122 38.6105 17.0654 38.6105 17.7527C38.6105 18.2771 38.4119 19.233 38.0116 20.627C37.6113 22.0177 37.006 23.8369 36.1958 26.0845ZM23.3955 33.3676C23.562 33.569 23.7958 33.8663 24.0936 34.2596C24.8814 35.3434 25.6084 35.8837 26.2745 35.8837C26.5019 35.8837 26.7036 35.8134 26.883 35.6695C27.0623 35.5256 27.152 35.3786 27.152 35.2219C27.152 35.0429 27.0335 34.7455 26.7933 34.3299C26.5531 33.9143 26.2265 33.4443 25.8101 32.92C25.333 32.3125 24.9359 31.8713 24.622 31.59C24.305 31.3118 24.052 31.1711 23.863 31.1711C23.4467 31.1711 23.0624 31.3949 22.7101 31.8393C22.3578 32.2869 22.1817 32.8113 22.1817 33.4187C22.1817 33.9079 22.3034 34.4514 22.5468 35.0525C22.7902 35.6535 23.1457 36.2578 23.61 36.8652C24.3146 37.8052 25.1857 38.5278 26.2297 39.0329C27.2737 39.538 28.4266 39.7906 29.6884 39.7906C32.0134 39.7906 33.9573 38.9242 35.5265 37.1945C37.0925 35.4649 37.8771 33.294 37.8771 30.6884C37.8771 29.8923 37.8163 29.2592 37.6978 28.7893C37.5793 28.3193 37.3807 27.9772 37.1085 27.763C36.6185 27.3601 35.6706 26.9957 34.2583 26.6728C32.846 26.353 31.3697 26.19 29.8325 26.19C29.4033 26.19 29.0991 26.2603 28.9197 26.4042C28.7404 26.5481 28.6507 26.7911 28.6507 27.1363C28.6507 27.9452 29.1023 28.5303 30.0086 28.8948C30.9149 29.2592 32.3816 29.4383 34.4056 29.4383H35.139C35.3055 29.4383 35.44 29.5022 35.5425 29.6269C35.645 29.7516 35.7122 29.9402 35.7475 30.1896C35.5457 30.3814 35.1262 30.5988 34.4953 30.8418C33.8644 31.0848 33.3808 31.3278 33.0478 31.5644C32.3336 32.0887 31.7572 32.709 31.3216 33.4283C30.8861 34.1477 30.6683 34.8287 30.6683 35.4713C30.6683 35.8645 30.7612 36.3377 30.9469 36.8908C31.1327 37.4439 31.2255 37.786 31.2255 37.9171V38.0418L31.1903 38.2016C30.6651 38.1665 30.252 37.8596 29.9478 37.2841C29.6435 36.7086 29.493 35.9381 29.493 34.9725V34.8127C29.3969 34.8958 29.3041 34.9565 29.2144 34.9917C29.1247 35.0269 29.0254 35.0461 28.9197 35.0461C28.8109 35.0461 28.7116 35.0365 28.6155 35.0205C28.5194 35.0013 28.4137 34.9757 28.2953 34.9406C28.3305 35.0716 28.3593 35.1995 28.3753 35.3242C28.3945 35.4489 28.4009 35.548 28.4009 35.6184C28.4009 36.0596 28.228 36.4368 27.8821 36.7501C27.5363 37.0667 27.1264 37.2233 26.6492 37.2233C25.8998 37.2233 25.1344 36.8588 24.3594 36.1267C23.5844 35.3946 23.1969 34.6784 23.1969 33.975C23.1969 33.8439 23.2129 33.7288 23.2417 33.6265C23.2738 33.5242 23.325 33.4379 23.3955 33.3676ZM28.7596 33.796C28.9614 33.796 29.1471 33.7033 29.3137 33.5178C29.4802 33.3324 29.5635 33.1342 29.5635 32.92C29.5635 32.693 29.4001 32.1686 29.0703 31.3406C28.7436 30.5125 28.3337 29.7004 27.8469 28.9044C27.4882 28.3097 27.1392 27.8589 26.7933 27.5584C26.4474 27.2546 26.1208 27.1044 25.8101 27.1044C25.5603 27.1044 25.2817 27.261 24.9775 27.5776C24.6732 27.8941 24.5227 28.1882 24.5227 28.46C24.5227 28.7445 24.6733 29.1729 24.9711 29.7452C25.2689 30.3175 25.6692 30.9218 26.1688 31.5644C26.694 32.2678 27.1872 32.8145 27.6516 33.2077C28.1159 33.5978 28.4842 33.796 28.7596 33.796ZM30.5114 25.1765L28.5803 19.6071C28.0807 18.1907 27.6932 17.2668 27.4178 16.832C27.1424 16.3972 26.8445 16.1797 26.5243 16.1797C26.2745 16.1797 26.0727 16.2757 25.9158 16.4643C25.7621 16.6561 25.682 16.9119 25.682 17.2316C25.682 17.7783 25.8902 18.7311 26.3065 20.0867C26.7228 21.4422 27.3505 23.223 28.1832 25.4227C28.2536 25.2916 28.3561 25.1989 28.4874 25.1445C28.6187 25.0902 28.7981 25.0646 29.0222 25.0646C29.0927 25.0646 29.2368 25.071 29.4514 25.0838C29.6691 25.0966 30.0214 25.1285 30.5114 25.1765ZM32.529 30.5829C32.0166 30.5605 31.5298 30.5061 31.0718 30.423C30.6139 30.3399 30.1751 30.2216 29.7588 30.0649C29.9477 30.4454 30.1175 30.8258 30.268 31.2063C30.4185 31.5868 30.5402 31.9608 30.6331 32.3317C30.9181 31.9736 31.2191 31.6507 31.5362 31.3598C31.8532 31.0688 32.1831 30.8099 32.529 30.5829ZM34.9084 25.7808C35.7058 23.6163 36.3303 21.8291 36.7755 20.4192C37.2238 19.0092 37.4448 18.1428 37.4448 17.8231C37.4448 17.4778 37.3711 17.2092 37.2206 17.0206C37.0701 16.832 36.8651 16.736 36.6025 16.736C36.2695 16.736 35.93 17.0142 35.5841 17.5673C35.2383 18.1204 34.8572 19.0092 34.4408 20.2369L32.6539 25.3939L34.9084 25.7808Z" fill="#B8BEC8"/>
<path d="M56.0824 19.4795L62.955 36.2996H59.397L57.7125 32.1338H50.5453L48.9153 36.2996H45.5463L52.3676 19.4795H56.0824ZM51.5637 29.5729H56.6973L54.1577 23.2713H54.0521L51.5637 29.5729Z" fill="#B8BEC8"/>
<path d="M67.0801 36.2996H63.8712V24.5246H67.0801V26.4461C67.6694 25.1096 69.1649 24.2017 70.9327 24.2017C74.0871 24.2017 75.24 26.3374 75.24 28.9558V36.2996H72.0311V29.5984C72.0311 27.7825 71.3106 26.7402 69.7318 26.7402C68.1017 26.7402 67.0833 28.0222 67.0833 29.9981V36.2996H67.0801Z" fill="#B8BEC8"/>
<path d="M82.2787 32.2142C81.3148 32.2142 80.4341 32.0799 79.6847 31.7857C79.3901 31.9712 79.2044 32.2653 79.2044 32.6394C79.2044 33.1733 79.5534 33.5218 80.4341 33.5218H85.1418C87.7614 33.5218 89.1001 34.9381 89.1001 36.834C89.1001 39.7722 85.6766 40.9999 82.0129 40.9999C78.7496 40.9999 75.9698 40.1718 75.9698 37.9818C75.9698 36.7797 76.9338 35.926 78.3237 35.7406C77.254 35.3921 76.6936 34.5385 76.6936 33.5793C76.6936 32.5115 77.443 31.709 78.5927 31.2582C77.5775 30.5644 76.9626 29.5222 76.9626 28.2401C76.9626 25.7304 79.1819 24.2085 82.2852 24.2085C83.7295 24.2085 85.0649 24.5826 86.0288 25.2508C86.6982 24.3172 87.8735 23.5691 89.1577 23.5691V26.1332C88.5172 26.1332 87.739 26.2387 87.1241 26.4529C87.4444 26.9613 87.6333 27.5751 87.6333 28.2401C87.6301 30.6955 85.382 32.2142 82.2787 32.2142ZM82.0129 39.0496C84.3668 39.0496 86.0769 38.5157 86.0769 37.3679C86.0769 36.5942 85.4364 36.3001 84.3668 36.3001H80.4341C79.579 36.3001 78.8841 36.6486 78.8841 37.5022C78.8841 38.5701 80.1139 39.0496 82.0129 39.0496ZM82.3076 26.1556C81.1034 26.1556 80.274 26.8749 80.274 28.2369C80.274 29.5989 81.1034 30.3183 82.3076 30.3183C83.5373 30.3183 84.3668 29.5989 84.3668 28.2369C84.3668 26.8749 83.5373 26.1556 82.3076 26.1556Z" fill="#B8BEC8"/>
<path d="M101.298 32.4564C100.684 35.0716 98.6501 36.6223 95.6301 36.6223C91.9921 36.6223 89.3724 34.2979 89.3724 30.5893C89.3724 26.8774 92.0209 24.2078 95.55 24.2078C99.4026 24.2078 101.382 26.8774 101.382 30.0809V31.2287H92.5301C92.6358 32.9647 94 34.1924 95.739 34.1924C97.3178 34.1924 98.2529 33.5242 98.7077 32.191L101.298 32.4564ZM98.2497 29.2241C98.144 27.8621 97.3146 26.5545 95.5212 26.5545C93.7566 26.5545 92.8728 27.7566 92.5781 29.2241H98.2497Z" fill="#B8BEC8"/>
<path d="M105.852 19.4795V36.2996H102.643V19.4795H105.852Z" fill="#B8BEC8"/>
<path d="M111.203 19.4795V33.5245H117.547V36.3028H107.86V19.4795H111.203Z" fill="#B8BEC8"/>
<path d="M118.301 19.4795H121.59V22.6031H118.301V19.4795ZM121.564 24.5246V36.2996H118.355V24.5246H121.564Z" fill="#B8BEC8"/>
<path d="M125.381 32.2965C125.567 33.7129 126.64 34.4322 128.27 34.4322C129.445 34.4322 130.409 34.0326 130.409 33.1789C130.409 32.3765 129.874 32.0312 128.699 31.8425L126.826 31.5228C124.312 31.1232 122.922 30.1864 122.922 27.9996C122.922 25.7552 124.821 24.2078 127.815 24.2078C131.079 24.2078 133.032 25.6753 133.243 28.2937L130.595 28.3992C130.38 27.066 129.471 26.3978 127.786 26.3978C126.637 26.3978 125.887 26.9061 125.887 27.7054C125.887 28.3449 126.316 28.7189 127.172 28.8532L129.417 29.2273C131.905 29.6269 133.375 30.6692 133.375 32.8848C133.375 35.289 131.29 36.6223 128.241 36.6223C125.167 36.6223 122.813 35.2859 122.598 32.4052L125.381 32.2965Z" fill="#B8BEC8"/>
<path d="M135.101 26.7691H133.417V24.8732L134.217 24.7389C135.367 24.5535 135.687 23.9652 135.956 22.8686L136.331 21.2668H138.285V24.5247H141.494V26.7659H138.285V32.5879C138.285 33.6014 138.739 34.0554 139.703 34.0554C140.344 34.0554 141.013 33.8156 141.708 33.4959V35.606C140.853 36.2454 139.889 36.6195 138.445 36.6195C136.626 36.6195 135.101 35.8202 135.101 33.3073V26.7691Z" fill="#B8BEC8"/>
</svg>
