<svg width="416" height="144" viewBox="0 0 416 144" fill="none" xmlns="http://www.w3.org/2000/svg">
<rect width="416" height="144" fill="black"/>
<path fill-rule="evenodd" clip-rule="evenodd" d="M119.882 45.8182C105.475 45.8182 93.7967 57.5402 93.7967 72C93.7967 86.4598 105.475 98.1818 119.882 98.1818C134.288 98.1818 145.967 86.4598 145.967 72C145.967 57.5402 134.288 45.8182 119.882 45.8182ZM88 72C88 54.3269 102.274 40 119.882 40C137.49 40 151.764 54.3269 151.764 72C151.764 89.6731 137.49 104 119.882 104C102.274 104 88 89.6731 88 72Z" fill="#B8BEC8"/>
<path d="M119.883 89.9835C129.778 89.9835 137.8 81.9321 137.8 72.0001C137.8 62.0681 129.778 54.0166 119.883 54.0166C109.987 54.0166 101.965 62.0681 101.965 72.0001C101.965 81.9321 109.987 89.9835 119.883 89.9835Z" fill="#B8BEC8"/>
<path fill-rule="evenodd" clip-rule="evenodd" d="M119.882 56.3975C111.297 56.3975 104.337 63.3834 104.337 72.0008C104.337 80.6183 111.297 87.6041 119.882 87.6041C128.468 87.6041 135.428 80.6183 135.428 72.0008C135.428 63.3834 128.468 56.3975 119.882 56.3975ZM99.5938 72.0008C99.5938 60.7543 108.677 51.6372 119.882 51.6372C131.087 51.6372 140.171 60.7543 140.171 72.0008C140.171 83.2474 131.087 92.3645 119.882 92.3645C108.677 92.3645 99.5938 83.2474 99.5938 72.0008Z" fill="#B8BEC8"/>
<path d="M192.67 61.0903C195.223 61.0903 197.535 61.6791 199.605 62.8566C201.676 63.9994 203.297 65.6271 204.47 67.7397C205.644 69.8522 206.23 72.2592 206.23 74.9605C206.23 77.6964 205.644 80.1206 204.47 82.2332C203.297 84.3457 201.676 85.9908 199.605 87.1683C197.57 88.3111 195.258 88.8825 192.67 88.8825C190.462 88.8825 188.46 88.4323 186.666 87.5319C184.906 86.5968 183.457 85.2462 182.319 83.4799V98.7007H178.644V61.2981H182.163V66.7007C183.267 64.8999 184.717 63.5146 186.511 62.5449C188.34 61.5752 190.393 61.0903 192.67 61.0903ZM192.411 85.6098C194.309 85.6098 196.034 85.1769 197.587 84.3111C199.139 83.4107 200.347 82.1466 201.21 80.5189C202.107 78.8912 202.555 77.0384 202.555 74.9605C202.555 72.8825 202.107 71.047 201.21 69.454C200.347 67.8263 199.139 66.5622 197.587 65.6618C196.034 64.7613 194.309 64.3111 192.411 64.3111C190.479 64.3111 188.736 64.7613 187.184 65.6618C185.666 66.5622 184.458 67.8263 183.561 69.454C182.698 71.047 182.267 72.8825 182.267 74.9605C182.267 77.0384 182.698 78.8912 183.561 80.5189C184.458 82.1466 185.666 83.4107 187.184 84.3111C188.736 85.1769 190.479 85.6098 192.411 85.6098Z" fill="#B8BEC8"/>
<path d="M223.093 61.0903C226.647 61.0903 229.372 61.9908 231.27 63.7916C233.168 65.5579 234.117 68.1899 234.117 71.6877V88.6228H230.597V84.3631C229.769 85.783 228.544 86.8912 226.923 87.6877C225.335 88.4843 223.438 88.8825 221.229 88.8825C218.193 88.8825 215.778 88.1553 213.983 86.7007C212.189 85.2462 211.292 83.3241 211.292 80.9345C211.292 78.6141 212.12 76.744 213.776 75.3241C215.467 73.9042 218.141 73.1942 221.799 73.1942H230.442V71.5319C230.442 69.1769 229.786 67.3934 228.475 66.1812C227.164 64.9345 225.249 64.3111 222.73 64.3111C221.005 64.3111 219.349 64.6055 217.762 65.1942C216.175 65.7483 214.812 66.5276 213.673 67.5319L212.017 64.7786C213.397 63.6012 215.053 62.7007 216.985 62.0773C218.918 61.4193 220.953 61.0903 223.093 61.0903ZM221.799 85.9735C223.869 85.9735 225.646 85.5059 227.13 84.5709C228.613 83.6012 229.717 82.2159 230.442 80.415V75.9475H221.902C217.244 75.9475 214.915 77.5752 214.915 80.8306C214.915 82.4237 215.519 83.6877 216.727 84.6228C217.934 85.5232 219.625 85.9735 221.799 85.9735Z" fill="#B8BEC8"/>
<path d="M268.63 61.2981V88.6228H265.111V83.6358C264.145 85.2981 262.816 86.5968 261.126 87.5319C259.435 88.4323 257.503 88.8825 255.329 88.8825C251.775 88.8825 248.963 87.8955 246.893 85.9215C244.857 83.9128 243.839 80.9864 243.839 77.1423V61.2981H247.514V76.7786C247.514 79.6531 248.221 81.8349 249.636 83.3241C251.05 84.8133 253.069 85.5579 255.691 85.5579C258.555 85.5579 260.815 84.6921 262.471 82.9605C264.127 81.1942 264.956 78.7527 264.956 75.6358V61.2981H268.63Z" fill="#B8BEC8"/>
<path d="M286.22 88.8825C284.011 88.8825 281.889 88.5709 279.854 87.9475C277.852 87.2895 276.283 86.4756 275.144 85.5059L276.8 82.5968C277.939 83.4973 279.371 84.2418 281.096 84.8306C282.821 85.3847 284.615 85.6618 286.479 85.6618C288.963 85.6618 290.792 85.2808 291.965 84.5189C293.172 83.7224 293.776 82.6141 293.776 81.1942C293.776 80.1899 293.448 79.4107 292.793 78.8566C292.137 78.2678 291.309 77.8349 290.309 77.5579C289.308 77.2462 287.979 76.9518 286.323 76.6747C284.115 76.2592 282.338 75.8436 280.992 75.428C279.647 74.9778 278.491 74.2332 277.525 73.1942C276.593 72.1553 276.127 70.718 276.127 68.8825C276.127 66.5968 277.076 64.7267 278.974 63.2722C280.872 61.8176 283.511 61.0903 286.893 61.0903C288.652 61.0903 290.412 61.3328 292.172 61.8176C293.931 62.2678 295.381 62.8739 296.519 63.6358L294.915 66.5968C292.672 65.0384 289.998 64.2592 286.893 64.2592C284.546 64.2592 282.769 64.6747 281.562 65.5059C280.389 66.3371 279.802 67.428 279.802 68.7786C279.802 69.8176 280.13 70.6488 280.785 71.2722C281.475 71.8955 282.321 72.3631 283.321 72.6747C284.322 72.9518 285.702 73.2462 287.462 73.5579C289.636 73.9735 291.378 74.389 292.689 74.8046C294 75.2202 295.122 75.9302 296.053 76.9345C296.985 77.9388 297.451 79.3241 297.451 81.0903C297.451 83.4799 296.45 85.3847 294.449 86.8046C292.482 88.1899 289.739 88.8825 286.22 88.8825Z" fill="#B8BEC8"/>
<path d="M327.949 76.1033H305.176C305.383 78.9431 306.47 81.2462 308.437 83.0124C310.403 84.744 312.888 85.6098 315.89 85.6098C317.58 85.6098 319.133 85.3154 320.548 84.7267C321.962 84.1033 323.187 83.2029 324.222 82.0254L326.293 84.415C325.085 85.8696 323.567 86.9778 321.738 87.7397C319.944 88.5016 317.96 88.8825 315.786 88.8825C312.991 88.8825 310.507 88.2938 308.333 87.1163C306.194 85.9042 304.52 84.2418 303.313 82.1293C302.105 80.0167 301.501 77.6271 301.501 74.9605C301.501 72.2938 302.071 69.9042 303.209 67.7916C304.382 65.6791 305.97 64.0341 307.971 62.8566C310.007 61.6791 312.284 61.0903 314.803 61.0903C317.321 61.0903 319.582 61.6791 321.583 62.8566C323.584 64.0341 325.154 65.6791 326.293 67.7916C327.431 69.8696 328.001 72.2592 328.001 74.9605L327.949 76.1033ZM314.803 64.2592C312.18 64.2592 309.972 65.1077 308.178 66.8046C306.418 68.467 305.417 70.6488 305.176 73.3501H324.481C324.24 70.6488 323.222 68.467 321.427 66.8046C319.668 65.1077 317.459 64.2592 314.803 64.2592Z" fill="#B8BEC8"/>
</svg>
