<svg width="162" height="56" viewBox="0 0 162 56" fill="none" xmlns="http://www.w3.org/2000/svg">
<rect width="162" height="56" fill="black"/>
<path d="M44.0014 18.0076C48.4605 18.0076 52.9187 18.0114 57.3778 18.0057C57.3826 19.1921 57.3874 20.3785 57.3759 21.5658C54.227 21.5649 51.0771 21.563 47.9272 21.5668C47.9291 23.056 47.9253 24.5461 47.9291 26.0353C50.6867 26.0296 53.4443 26.0343 56.2009 26.0334C56.2163 27.216 56.198 28.3986 56.2105 29.5812C53.45 29.5784 50.6906 29.5841 47.9311 29.5784C47.9243 32.384 47.9272 35.1896 47.9291 37.9952C46.6218 37.981 45.3145 37.981 44.0071 37.9943C43.9928 31.3324 44.0052 24.6695 44.0014 18.0076Z" fill="#B8BEC8"/>
<path d="M59.979 37.9953C59.9742 31.3305 59.9733 24.6657 59.98 18.001C64.5878 18.0152 69.1965 18.0076 73.8053 18.0048C73.8062 19.1921 73.8005 20.3795 73.8082 21.5659C70.4808 21.5659 67.1526 21.5602 63.8252 21.5697C63.8358 22.963 63.8262 24.3573 63.83 25.7515C66.8859 25.7439 69.9408 25.7487 72.9967 25.7487C72.9852 26.9303 72.9986 28.113 72.9881 29.2946C69.936 29.2975 66.883 29.2994 63.831 29.2927C63.8233 31.003 63.8387 32.7134 63.8233 34.4228C67.3012 34.4341 70.7791 34.4247 74.258 34.4275C74.2666 35.6139 74.2666 36.8003 74.258 37.9877C69.4987 37.9915 64.7384 37.9753 59.979 37.9953Z" fill="#B8BEC8"/>
<path d="M77.2093 18.001C78.5943 18.0114 79.9794 18.0142 81.3644 18.001C83.863 22.645 86.3607 27.2891 88.8641 31.9303C88.8727 27.2901 88.8717 22.6498 88.8641 18.0105C90.0851 18.0038 91.3061 18.0124 92.5271 18.0057C92.5328 24.6676 92.5319 31.3295 92.528 37.9915C91.2217 37.982 89.9153 37.9877 88.6099 37.9877C86.047 33.2316 83.4784 28.4784 80.9021 23.7289C80.903 28.4841 80.904 33.2382 80.9011 37.9934C79.6705 37.9829 78.439 37.9782 77.2074 37.9962C77.216 31.3314 77.2122 24.6657 77.2093 18.001Z" fill="#B8BEC8"/>
<path d="M96.2774 18.0048C99.13 18.0133 101.982 18.0048 104.835 18.0095C106.399 18.0342 108.001 18.4708 109.207 19.493C110.47 20.4725 111.208 21.9494 111.669 23.4385C112.058 24.7948 112.2 26.209 112.224 27.6157C112.168 29.7882 111.858 32.013 110.844 33.9682C110.209 35.3226 109.151 36.4909 107.826 37.2113C106.854 37.7343 105.744 37.9545 104.647 37.983C101.86 37.9963 99.0715 37.9725 96.2841 37.9953C96.265 31.3315 96.2784 24.6677 96.2774 18.0048ZM100.165 21.4881C100.154 25.8266 100.159 30.165 100.162 34.5035C101.402 34.4978 102.641 34.5035 103.882 34.5006C104.389 34.4873 104.907 34.4247 105.375 34.2216C106.281 33.8514 106.925 33.0494 107.352 32.2018C108.072 30.6567 108.229 28.916 108.182 27.2351C108.139 25.6244 107.892 23.8998 106.819 22.6204C106.173 21.8288 105.105 21.5659 104.124 21.5023C102.804 21.4786 101.485 21.5071 100.165 21.4881Z" fill="#B8BEC8"/>
<path d="M114.848 38C114.833 31.3333 114.835 24.6667 114.847 18C116.152 18.019 117.458 18.0047 118.764 18.0057C118.77 24.6657 118.773 31.3267 118.763 37.9877C117.458 37.9934 116.152 37.9687 114.848 38Z" fill="#B8BEC8"/>
</svg>
