<svg width="304" height="108" viewBox="0 0 304 108" fill="none" xmlns="http://www.w3.org/2000/svg">
<rect width="304" height="108" fill="black"/>
<path fill-rule="evenodd" clip-rule="evenodd" d="M75.5116 60.2282C75.1623 60.367 74.9083 60.6504 74.6282 60.8616C74.1659 61.2099 73.6955 61.5165 73.1879 61.8211C72.6071 62.1695 71.963 62.4903 71.2485 62.704C70.7087 62.8655 69.8571 63.0013 69.1938 62.8958C68.6484 62.8093 68.2057 62.8418 67.7535 62.704C66.1237 62.2065 65.1643 61.1011 64.5465 59.5947C64.1835 58.7096 64.0771 57.7043 63.8937 56.6199C63.7232 55.613 63.7707 53.9501 63.9321 52.9925C64.524 49.4756 65.2784 47.4044 68.8288 46.8124C70.8222 46.4801 72.887 47.6466 73.937 48.3863C74.2978 48.6406 75.3006 49.5784 75.934 49.1732C76.7413 48.6566 76.8089 45.1423 76.3565 44.0488C76.0578 43.327 75.316 42.9709 74.6666 42.5901C73.0498 41.642 70.9824 41.1666 68.3871 41.2082C68.0352 41.2339 67.6829 41.2595 67.331 41.285C66.511 41.4305 65.719 41.5177 64.9882 41.7456C62.1462 42.6321 60.1594 44.2718 58.7663 46.6014C57.9549 47.9582 57.4693 49.5406 57.0764 51.3227C56.8432 52.3812 56.9419 53.5289 56.75 54.7006C56.7565 55.1547 56.7627 55.6091 56.7692 56.0633C56.782 56.4471 56.7949 56.8309 56.8076 57.215C56.963 58.1405 57.0056 59.0605 57.2109 59.8826C58.2415 64.0109 60.2919 66.867 64.2009 68.0969C64.9768 68.3411 65.8119 68.4436 66.6972 68.596C67.107 68.6217 67.5167 68.6471 67.9262 68.6728C68.6172 68.786 69.4913 68.6627 70.077 68.5578C71.9573 68.2202 73.5188 67.8582 74.8778 67.0415C75.4268 66.7114 76.0984 66.3872 76.3949 65.8132C76.8685 64.8956 76.8419 61.7128 76.4718 60.6694C76.3478 60.3205 75.99 60.0376 75.5116 60.2282ZM247.172 43.3964C247.08 42.7748 247.139 42.258 246.84 41.8801C246.445 41.3818 244.811 41.1559 243.886 41.1698C243.621 41.1955 243.356 41.2211 243.091 41.2466C242.436 41.3853 241.849 41.587 241.356 41.8993C240.366 42.5264 239.47 43.4414 238.771 44.375C238.451 44.8165 238.131 45.2579 237.811 45.6993V45.7309C237.804 45.5004 237.798 45.2696 237.791 45.0392C237.791 44.3601 237.943 42.6673 237.676 42.2532C237.099 41.3586 232.366 41.3782 231.947 42.3686C231.779 42.7664 231.89 43.5536 231.89 44.0593V65.7289C231.89 66.2591 231.767 67.1629 231.985 67.5245C232.216 67.9082 232.827 68.0183 233.342 68.1168C234.706 68.3773 238.217 68.3338 238.694 67.4863C238.832 67.2414 238.771 66.7217 238.771 66.3593V51.9178C239.042 51.5147 239.312 51.1115 239.583 50.7087C240.413 49.4925 241.416 48.1266 242.999 47.7145C244.065 47.4374 245.066 47.9219 245.824 48.1751C246.232 48.3113 246.692 48.2525 246.877 47.9449C247.253 47.3173 247.331 44.4725 247.172 43.3964ZM209.224 52.1991C209.217 48.605 211.618 45.213 215.714 46.1153C216.271 46.2378 216.804 46.41 217.231 46.6717C218.831 47.6522 219.516 49.5768 219.478 52.1991H209.224ZM225.991 49.9572C225.525 47.8412 224.859 46.2034 223.744 44.7732C222.375 43.019 220.295 41.9583 217.731 41.394C217.071 41.2486 216.364 41.2796 215.656 41.1635H214.964C214.275 41.0495 213.098 41.171 212.467 41.2979C211.483 41.4958 210.559 41.6737 209.719 42.0084C206.405 43.328 204.183 45.8825 203.072 49.4004C202.82 50.1998 202.697 50.9973 202.515 51.8966C202.445 52.4789 202.374 53.0614 202.304 53.6439C202.298 53.9125 202.291 54.1815 202.285 54.4502V55.9863C202.298 56.3638 202.31 56.7416 202.323 57.1192C202.58 58.6458 202.661 60.0479 203.111 61.3241C204.403 64.993 206.749 67.0188 210.584 68.1594C211.477 68.4252 212.46 68.4529 213.465 68.62C214.125 68.6394 214.785 68.6586 215.444 68.6778C218.16 68.6778 220.492 68.255 222.572 67.6026C223.423 67.3356 224.502 67.0779 224.858 66.3161C225.24 65.4971 225.33 62.0703 224.493 61.8231C223.862 61.6374 223.2 62.045 222.783 62.2073C221.744 62.6114 220.636 62.8608 219.479 63.148C218.794 63.318 218.055 63.3132 217.308 63.436C216.644 63.5452 215.589 63.5187 214.964 63.4168C214.19 63.2905 213.534 63.2598 212.908 63.0136C210.525 62.0764 209.246 60.0352 209.297 56.6773H220.612C221.86 56.6775 224.499 56.8776 225.261 56.4279C226.156 55.9 226.26 54.8906 226.26 53.4517C226.254 53.0359 226.247 52.6197 226.241 52.2038C226.113 51.4357 226.148 50.6703 225.991 49.9572ZM159.878 60.8998C159.051 62.0151 157.582 63.199 156.095 63.6442C153.665 64.3717 151.56 63.1996 151.14 61.2837C150.985 60.5752 151.122 59.711 151.332 59.1917C152.39 56.5783 156.182 56.7456 159.878 56.7733V60.8998ZM166.759 53.3379C166.759 51.4602 166.876 49.4224 166.528 47.8489C165.721 44.2004 163.914 42.4864 160.364 41.5922C159.679 41.4194 158.993 41.415 158.233 41.285C157.214 41.111 155.274 41.0663 154.219 41.2466C153.17 41.4261 152.153 41.5282 151.223 41.784C149.473 42.2657 146.626 43.0146 146 44.5284C145.538 45.6466 145.734 49.1047 147.114 48.8854C147.966 48.7499 148.562 48.2727 149.245 47.9449C151.496 46.8652 157.318 45.1227 159.231 47.8105C159.99 48.8765 160.017 50.5753 159.999 52.436C153.739 52.4334 148.149 52.7339 145.654 56.4663C145.149 57.2233 144.802 58.075 144.579 59.1341C144.547 59.4795 144.515 59.8251 144.483 60.1706C144.477 60.5736 144.47 60.9766 144.464 61.3797C144.577 62.061 144.59 62.707 144.771 63.2988C145.605 66.029 147.503 67.5486 150.302 68.3274C151.211 68.5804 153.035 68.8777 154.257 68.6728C155.065 68.5374 155.808 68.4703 156.504 68.2506C157.911 67.8065 159.06 67.0552 160.095 66.2354C160.415 65.9284 160.735 65.6212 161.055 65.3141C161.048 66.0867 160.87 67.5233 161.324 67.8667C162.105 68.4577 166.181 68.4015 166.663 67.6557C166.853 67.362 166.759 66.6304 166.759 66.1778V53.3379ZM142.182 41.8801C141.788 41.3818 140.153 41.1559 139.228 41.1698C138.963 41.1955 138.699 41.2211 138.434 41.2466C137.779 41.3853 137.191 41.587 136.698 41.8993C135.708 42.5264 134.813 43.4414 134.113 44.375C133.793 44.8165 133.473 45.2579 133.153 45.6993V45.7309C133.147 45.5004 133.14 45.2696 133.134 45.0392C133.134 44.3601 133.286 42.6673 133.019 42.2532C132.441 41.3586 127.709 41.3782 127.29 42.3686C127.122 42.7664 127.232 43.5536 127.232 44.0593V65.7289C127.232 66.2591 127.11 67.1629 127.328 67.5245C127.559 67.9082 128.17 68.0183 128.685 68.1168C130.048 68.3773 133.56 68.3338 134.037 67.4863C134.175 67.2414 134.113 66.7217 134.113 66.3593V51.9178C134.384 51.5147 134.655 51.1115 134.926 50.7087C135.755 49.4925 136.758 48.1266 138.342 47.7145C139.407 47.4374 140.408 47.9219 141.167 48.1751C141.575 48.3113 142.035 48.2525 142.219 47.9449C142.596 47.3173 142.674 44.4725 142.515 43.3964C142.423 42.7748 142.481 42.258 142.182 41.8801ZM94.753 51.0157C94.3629 52.9157 93.3564 53.9513 91.4117 54.2975C87.8241 54.9365 85.6546 51.5806 86.9567 48.4055C87.3485 47.4501 88.065 46.7136 89.0304 46.3328C89.4137 46.1816 89.8863 46.2275 90.3172 46.064C92.4231 46.0543 93.614 46.6784 94.369 48.0023C94.5565 48.3309 94.664 48.7641 94.753 49.1732C94.8705 49.7124 94.8612 50.4902 94.753 51.0157ZM87.1679 67.5021C87.3982 67.3166 87.6288 67.131 87.8591 66.9455C88.864 66.9774 89.8691 67.0095 90.8742 67.0415C91.6423 67.0607 92.4104 67.0799 93.1784 67.0991C94.9822 67.3802 96.9258 67.9965 96.3855 70.3619C96.31 70.6918 96.1962 71.0374 96.0398 71.3022C94.7945 73.4097 90.1375 73.9089 87.36 72.7609C86.2091 72.2851 85.2169 71.2882 85.7468 69.5367C85.9856 68.747 86.5877 67.9688 87.1679 67.5021ZM115.87 47.401H119.938C120.44 47.401 121.258 47.5075 121.597 47.3052C122.348 46.8559 122.345 45.1625 122.271 43.9696C122.23 43.3105 122.211 42.6641 121.944 42.2249C121.642 41.7295 120.971 41.8033 120.17 41.8033H115.87V37.8158C115.87 37.2893 115.987 36.4697 115.813 36.0519C115.633 35.6204 115.147 35.4987 114.643 35.3811C113.35 35.0791 110.133 35.0789 109.296 35.7069C108.907 35.9989 108.989 36.733 108.989 37.4132V41.8033H95.5144C94.6746 41.8033 94.134 41.6141 93.425 41.4772C92.1584 41.2331 90.3532 41.151 88.9973 41.3814C84.972 42.0658 82.3327 43.7685 81.1195 47.2478C80.6511 48.5911 80.4353 50.8445 80.8319 52.4813C81.0691 53.4592 81.4392 54.3137 81.9438 55.031C82.161 55.2993 82.3782 55.5677 82.5954 55.8361C82.6401 55.881 82.685 55.9256 82.7297 55.9703C81.6538 56.7695 80.6135 58.3642 80.2377 59.8619C79.6426 62.2352 80.9017 64.7763 82.5379 65.3447C82.1802 65.6385 81.8222 65.9326 81.4645 66.2267C80.6717 66.8654 79.9544 67.8795 79.5287 68.8721C79.3265 69.3434 79.1958 69.8659 79.0876 70.425C78.8175 71.8239 79.2213 73.2785 79.7202 74.125C80.9363 76.1874 83.1631 77.0418 85.8538 77.6332C86.5098 77.7773 87.1588 77.7638 87.8666 77.8824C88.7168 78.0249 89.6808 77.9984 90.6392 77.9974C91.1951 77.9708 92.1024 77.9271 92.6583 77.9002C93.4933 77.8133 94.3101 77.8022 95.0734 77.614C98.4011 76.7934 101.383 75.4572 102.645 72.5913C102.917 71.973 103.122 71.3222 103.277 70.5784C103.562 69.2135 103.287 67.5706 102.875 66.5907C101.944 64.3797 100.144 63.1638 97.6419 62.5267C96.998 62.3626 96.3092 62.3177 95.6103 62.2009C94.9904 62.1754 94.3706 62.1497 93.751 62.1243C93.227 62.1049 92.703 62.0857 92.1792 62.0667C89.933 61.7029 87.2894 62.4679 86.2948 60.8204C86.0966 60.4921 86.0279 59.928 86.1605 59.4593C86.3041 58.9522 86.6562 58.6502 86.8506 58.2324C86.9513 58.1716 87.9631 58.6464 88.269 58.7501C89.3807 59.1274 91.2366 59.2841 92.6393 59.0183C93.2763 58.8978 93.9136 58.8509 94.4984 58.6733C97.4896 57.7649 99.3415 56.2446 100.421 53.4207C100.824 52.3659 101.143 50.507 100.824 49.1073C100.668 48.4231 100.414 47.9245 100.134 47.401H108.989V57.4989C108.989 60.3159 108.991 62.933 109.835 64.8567C110.694 66.8167 112.225 67.8489 114.525 68.3914C115.351 68.5865 116.838 68.7714 117.87 68.6029C119.096 68.4024 120.184 68.3326 121.137 67.9114C122.227 67.4299 122.054 66.6306 122.271 65.2988V64.1562C122.169 63.5072 122.268 62.7789 121.944 62.3541C121.648 61.9672 120.902 62.3228 120.575 62.4501C119.476 62.8764 117.746 62.9429 116.873 62.2583C115.83 61.4409 115.87 59.5159 115.87 57.6574V47.401ZM189.803 58.9231C189.438 59.3453 189.073 59.7675 188.708 60.1896C187.619 61.5446 186.38 62.5117 184.253 62.8576C183.084 63.0476 182.09 62.4836 181.507 62.0323C180.114 60.954 179.645 59.2054 179.26 57.0998C179.222 56.5368 179.183 55.9737 179.145 55.4108C179.027 54.686 179.102 53.7328 179.222 53.0693C179.644 50.7156 180.24 48.6899 181.929 47.6187C182.269 47.4032 182.684 47.2342 183.123 47.1229C183.396 47.0972 183.832 47.056 184.105 47.0301C186.298 47.131 187.72 48.3657 188.727 49.6146C188.957 49.8992 189.696 50.5371 189.803 50.8429V58.9231ZM196.684 33.2598C196.684 32.6433 196.827 31.3126 196.626 30.8517C196.237 29.9588 193.976 29.9897 192.631 30.0046C192.379 30.0236 191.97 30.0546 191.719 30.0736C190.996 30.1767 190.201 30.2442 189.899 30.7555C189.747 31.012 189.803 31.5347 189.803 31.9307V44.4138C189.449 44.0929 189.096 43.7717 188.742 43.4505C187.824 42.7358 186.856 42.0759 185.678 41.6205C183.246 40.6807 179.64 41.2496 177.814 42.314C174.972 43.9702 173.448 46.5092 172.552 50.1159C172.373 50.8332 172.336 51.5483 172.205 52.3313C172.063 53.1713 171.914 54.7715 172.05 55.7027C172.07 56.2484 172.089 56.7943 172.108 57.3403C172.285 58.4808 172.351 59.5804 172.61 60.615C173.54 64.3395 175.496 67.2193 179.047 68.3207C180.151 68.6631 181.853 68.9665 183.346 68.7253C184.132 68.5982 184.881 68.4982 185.543 68.2437C187.135 67.6317 188.339 66.7334 189.552 65.7586C189.976 65.3412 190.4 64.9236 190.824 64.5065C190.817 65.3879 190.638 67.5201 191.113 67.8778C191.935 68.4953 196.177 68.557 196.607 67.6272C196.838 67.127 196.684 65.6402 196.684 64.9495V33.2598Z" fill="#B8BEC8"/>
</svg>
