<svg width="416" height="144" viewBox="0 0 416 144" fill="none" xmlns="http://www.w3.org/2000/svg">
<rect width="416" height="144" fill="black"/>
<path d="M158.336 72.8403V49.6811H165.559V51.2118C165.559 52.0538 165.572 52.7427 165.587 52.7427C165.603 52.7427 166.059 52.4652 166.601 52.126C172.988 48.1252 182.274 46.9203 190.602 49.0119C198.106 50.8964 203.545 55.3695 205.479 61.246C206.609 64.68 206.547 68.4988 205.306 71.8198C203.764 75.9511 200.592 79.2726 196.018 81.548C192.015 83.5392 187.444 84.5363 182.32 84.5363C178.072 84.5363 174.11 83.8278 170.623 82.4449C169.239 81.8962 167.465 80.9955 166.389 80.2949L165.559 79.7547V96H158.336V72.8403ZM185.813 78.3793C189.876 77.803 193.028 76.514 195.391 74.4626C197.18 72.9098 198.426 70.7533 198.898 68.3923C199.091 67.4266 199.092 65.1464 198.899 64.1836C198.344 61.405 196.751 58.9779 194.368 57.276C193.407 56.5901 191.456 55.6125 190.21 55.1935C186.693 54.0103 182.427 53.6599 178.521 54.2332C171.739 55.2284 167.155 58.5923 165.925 63.4758C165.383 65.6306 165.48 67.9568 166.197 69.9897C167.825 74.6077 172.628 77.6808 179.415 78.4477C180.78 78.602 184.526 78.5618 185.814 78.3793H185.813ZM209.758 72.8403V49.6811H216.98V51.2118C216.98 52.0538 216.996 52.7427 217.015 52.7427C217.034 52.7427 217.432 52.4938 217.898 52.1899C218.978 51.4859 221.109 50.4331 222.476 49.9289C228.375 47.7515 235.578 47.4002 241.881 48.9828C252.156 51.5624 258.207 58.6298 257.635 67.3842C257.199 74.0666 252.753 79.5557 245.439 82.4404C243.053 83.3813 240.608 83.9747 237.548 84.3553C235.933 84.5561 231.581 84.5561 229.895 84.3548C225.123 83.7856 220.934 82.3686 217.667 80.2191L216.98 79.7671V96H209.758V72.8403ZM237.41 78.3452C243.037 77.505 247.002 75.2383 249.085 71.6711C250.295 69.599 250.748 66.8424 250.3 64.2831C249.367 58.9637 244.692 55.2828 237.534 54.2321C232.81 53.5387 227.476 54.2294 223.85 56.0039C220.149 57.8155 217.921 60.5201 217.161 64.1261C216.961 65.0728 216.962 67.5065 217.162 68.4343C217.7 70.932 218.918 72.9985 220.765 74.5515C223.309 76.69 226.62 77.9635 230.916 78.4558C232.337 78.6185 235.997 78.5562 237.41 78.3452V78.3452ZM128.504 84.4884C124.673 84.15 121.403 83.3952 118.622 82.2075C112.297 79.5061 108.302 74.9466 107.218 69.1917C107.011 68.0927 106.932 65.6164 107.066 64.4332C107.849 57.5337 112.932 52.0687 120.967 49.4864C125.243 48.1123 130.507 47.6633 135.232 48.2698C143.887 49.3813 150.435 53.395 153.313 59.3541C155.656 64.206 155.359 70.0996 152.542 74.6307C151.273 76.6717 149.184 78.7782 147.032 80.187C143.682 82.3788 139.682 83.7423 134.824 84.3481C133.851 84.4695 129.407 84.5681 128.504 84.4884V84.4884ZM133.627 78.4551C137.395 78.0553 140.564 76.9795 142.949 75.2918C144.898 73.9118 146.441 71.878 147.133 69.7754C147.539 68.5448 147.619 67.967 147.619 66.2851C147.619 64.6083 147.54 64.0352 147.138 62.8037C145.816 58.7557 141.951 55.7444 136.551 54.5558C131.816 53.5134 126.294 53.8758 122.203 55.4969C119.251 56.6666 116.921 58.5601 115.555 60.8994C114.102 63.3869 113.772 66.775 114.699 69.6948C115.698 72.841 118.329 75.4739 121.949 76.9506C123.92 77.755 126.362 78.3157 128.779 78.5187C129.706 78.5966 132.659 78.5578 133.627 78.4551V78.4551ZM282.612 84.4911C282.461 84.474 281.931 84.4212 281.434 84.3743C277.447 83.9963 273.256 82.7373 270.183 80.9946C266.029 78.6385 263.136 75.2898 261.815 71.3094C260.921 68.6159 260.768 65.5886 261.386 62.8035C262.32 58.5921 264.884 55.0161 268.864 52.3713C274.114 48.8835 281.834 47.3344 289.285 48.2734C295.476 49.0534 300.576 51.3176 304.125 54.8613C306.828 57.5601 308.382 60.7225 308.831 64.4381C308.948 65.4038 308.93 67.3567 308.794 68.3812C307.821 75.7595 301.971 81.3989 293.014 83.5958C290.298 84.2619 288.593 84.4636 285.399 84.4965C284.017 84.5108 282.763 84.5083 282.612 84.4911V84.4911ZM287.362 78.4917C292.131 78.053 296.018 76.4813 298.513 73.9829C300.202 72.2914 301.183 70.4293 301.569 68.1786C301.729 67.2513 301.726 65.3179 301.565 64.356C300.696 59.1774 296.129 55.4234 289.364 54.3252C287.739 54.0615 286.659 53.9755 284.967 53.9755C277.382 53.9755 271.496 56.8358 269.232 61.6221C268.557 63.0487 268.246 64.521 268.246 66.2851C268.246 68.613 268.788 70.4593 270.013 72.2988C272.262 75.676 276.525 77.8335 282.169 78.4499C283.333 78.5769 286.186 78.6 287.362 78.4919L287.362 78.4917Z" fill="#B8BEC8"/>
</svg>
