<svg width="416" height="144" viewBox="0 0 416 144" fill="none" xmlns="http://www.w3.org/2000/svg">
<rect width="416" height="144" fill="black"/>
<path d="M66.4619 90.3087L67.0501 85.9808C69.7805 87.7205 74.2751 89.8843 80.24 89.8843C87.129 89.8843 90.9934 87.1688 90.9934 82.3742C90.9934 69.7725 66 78.1736 66 61.8804C66 54.1582 71.0406 50 80.1139 50C88.8511 50 93.0097 53.6066 93.7658 59.6741L89.4812 60.5227C88.8092 55.9826 85.7427 53.8187 80.0299 53.8187C73.981 53.8187 70.4106 56.5342 70.4106 61.4561C70.4106 74.6094 95.1941 65.487 95.3621 82.2894C95.4041 90.1389 90.3633 94 80.3239 94C72.9309 93.9152 68.7724 91.8361 66.4619 90.3087Z" fill="#B8BEC8"/>
<path d="M106.535 68.075V86.0654C106.535 89.3751 108.005 90.1387 110.231 90.1387C112.289 90.1387 113.634 89.5447 114.558 89.1629L114.894 92.9391C113.886 93.2786 111.995 93.9151 109.139 93.9151C104.728 93.9151 102.25 92.3451 102.25 86.1079V68.075H96.9573V64.426H102.25V56.0249H106.535V64.426H115.566V68.075H106.535Z" fill="#B8BEC8"/>
<path d="M133.965 64.2139L133.671 68.4568C133.335 68.3296 132.537 68.2022 131.487 68.2022C127.202 68.2022 124.472 73.2939 124.472 77.9612V93.1513H120.187V64.426H123.926L124.22 69.9419C125.816 66.2929 128.378 63.832 131.402 63.832C132.748 63.832 133.503 64.0442 133.965 64.2139Z" fill="#B8BEC8"/>
<path d="M160.47 90.9449C159 92.2178 155.178 93.9574 149.296 93.9574C140.138 93.9574 135.561 88.4414 135.561 79.0644C135.561 70.1965 140.055 63.832 149.632 63.832C157.194 63.832 160.302 67.7779 160.302 72.1058C160.302 79.4038 154.168 81.6951 140.055 82.2891C140.937 87.9748 144.508 90.1386 149.632 90.1386C154.631 90.1386 158.411 87.9748 159.63 86.9988L160.47 90.9449ZM139.844 78.8098C152.194 78.343 156.059 76.9429 156.059 72.4029C156.059 70.1116 154.463 67.6082 149.507 67.6082C144.256 67.6082 139.971 70.5359 139.844 78.8098Z" fill="#B8BEC8"/>
<path d="M189.326 64.426V93.2361H185.755L185.294 89.0779C183.403 91.9632 180.168 93.9574 175.716 93.9574C168.114 93.9574 163.199 88.5688 163.199 79.3615C163.199 69.645 168.617 63.832 176.304 63.832C180.631 63.832 183.614 65.5292 185.336 67.9901L185.755 64.4685H189.326V64.426ZM185.042 81.992V76.8156C185.042 72.7847 183.025 67.5658 176.724 67.5658C170.844 67.5658 167.442 72.0634 167.442 79.319C167.442 86.2775 170.592 90.0963 176.304 90.0963C181.765 90.1386 185.042 86.617 185.042 81.992Z" fill="#B8BEC8"/>
<path d="M238.427 75.288V93.2361H234.144V75.967C234.144 70.7905 232.126 67.7355 227.674 67.7355C222.339 67.7355 219.358 71.9361 219.358 75.7548V93.1936H215.157V75.6276C215.157 70.5783 213.099 67.6932 208.73 67.6932C203.395 67.6932 200.455 71.9361 200.455 75.7973V93.1936H196.17V64.426H199.488L200.077 69.3479C201.799 66.1657 205.074 63.832 209.822 63.832C214.274 63.832 217.299 65.9111 218.601 69.8146C220.281 66.3354 223.725 63.832 228.682 63.832C234.941 63.832 238.427 67.6507 238.427 75.288Z" fill="#B8BEC8"/>
<path d="M275.653 50.636L260.194 76.8578V93.2359H252.171V76.8578L236.713 50.636H245.746L256.247 69.3477L266.831 50.636H275.653Z" fill="#B8BEC8"/>
<path d="M298.247 64.426V93.2361H292.325L291.359 89.7143C289.468 92.3025 286.318 93.9574 282.201 93.9574C274.64 93.9574 269.389 88.4839 269.389 79.319C269.389 69.645 275.144 63.832 282.747 63.832C286.738 63.832 289.51 65.3171 291.317 67.481L291.989 64.426H298.247ZM290.392 80.9313V76.7732C290.098 73.4212 288.208 70.4936 284.049 70.4936C279.848 70.4936 276.993 73.5061 276.993 79.1916C276.993 84.5378 279.47 87.2959 283.755 87.2959C287.955 87.2534 290.392 84.5803 290.392 80.9313Z" fill="#B8BEC8"/>
<path d="M320.64 64.2986L320.177 71.8089C319.716 71.6391 318.875 71.3846 317.574 71.3846C314.548 71.3846 311.735 74.1425 311.735 79.6159V93.2361H303.837V64.426H310.18L310.852 68.7539C312.407 65.7414 314.759 63.832 317.741 63.832C319.254 63.832 320.261 64.1289 320.64 64.2986Z" fill="#B8BEC8"/>
<path d="M349.834 50.636V93.2359H343.239L342.483 89.9263C340.425 92.2599 337.316 93.9571 333.158 93.9571C326.226 93.9571 321.102 89.1626 321.102 79.3612C321.102 69.5599 326.52 63.8317 335.132 63.8317C337.988 63.8317 340.256 64.3834 341.978 65.1046V50.636H349.834ZM341.936 79.9976V72.2754C340.55 71.2995 338.618 70.4932 336.013 70.4932C331.813 70.4932 328.998 73.2513 328.998 79.2339C328.998 85.0044 331.603 87.2533 335.005 87.2533C338.785 87.2533 341.936 84.4104 341.936 79.9976Z" fill="#B8BEC8"/>
</svg>
