<svg width="416" height="144" viewBox="0 0 416 144" fill="none" xmlns="http://www.w3.org/2000/svg">
<rect width="416" height="144" fill="black"/>
<path fill-rule="evenodd" clip-rule="evenodd" d="M106.015 80.3042C105.55 80.4894 105.211 80.8672 104.838 81.1488C104.221 81.6132 103.594 82.022 102.917 82.4281C102.143 82.8927 101.284 83.3204 100.331 83.6053C99.6116 83.8206 98.4762 84.0017 97.5917 83.861C96.8645 83.7457 96.2743 83.7891 95.6713 83.6053C93.4983 82.9421 92.2191 81.4682 91.3953 79.4596C90.9113 78.2795 90.7695 76.9391 90.5249 75.4932C90.2976 74.1506 90.361 71.9335 90.5761 70.6566C91.3654 65.9674 92.3712 63.2059 97.105 62.4165C99.7629 61.9735 102.516 63.5287 103.916 64.5151C104.397 64.8541 105.734 66.1046 106.579 65.5642C107.655 64.8754 107.745 60.1897 107.142 58.7318C106.744 57.7694 105.755 57.2945 104.889 56.7868C102.733 55.5226 99.9765 54.8888 96.5161 54.9443C96.0469 54.9785 95.5772 55.0127 95.108 55.0467C94.0146 55.2407 92.9587 55.3569 91.9842 55.6609C88.1949 56.8429 85.5459 59.029 83.6884 62.1352C82.6065 63.9443 81.9591 66.0542 81.4352 68.4303C81.1243 69.8417 81.2559 71.3718 81 72.9341C81.0086 73.5397 81.017 74.1455 81.0256 74.751C81.0426 75.2628 81.0599 75.7746 81.0768 76.2866C81.2839 77.5206 81.3408 78.7474 81.6145 79.8434C82.9886 85.3478 85.7225 89.1561 90.9345 90.7959C91.9691 91.1215 93.0825 91.2581 94.263 91.4613C94.8093 91.4955 95.3556 91.5295 95.9016 91.5637C96.823 91.7146 97.9884 91.5502 98.7693 91.4104C101.276 90.9603 103.358 90.4777 105.17 89.3886C105.902 88.9485 106.798 88.5163 107.193 87.7509C107.825 86.5274 107.789 82.2837 107.296 80.8925C107.13 80.4274 106.653 80.0501 106.015 80.3042ZM334.896 57.8618C334.774 57.0331 334.852 56.344 334.453 55.8401C333.927 55.1758 331.748 54.8745 330.514 54.8931C330.161 54.9273 329.808 54.9615 329.455 54.9955C328.582 55.1804 327.798 55.4493 327.141 55.8657C325.821 56.7019 324.627 57.9219 323.694 59.1667C323.268 59.7553 322.841 60.3439 322.414 60.9324V60.9745C322.406 60.6673 322.397 60.3595 322.388 60.0523C322.389 59.1468 322.591 56.8898 322.235 56.3376C321.465 55.1448 315.155 55.1709 314.596 56.4914C314.372 57.0218 314.52 58.0715 314.52 58.7458V87.6385C314.52 88.3454 314.356 89.5506 314.647 90.0327C314.955 90.5442 315.77 90.6911 316.456 90.8223C318.274 91.1697 322.956 91.1118 323.592 89.9818C323.776 89.6552 323.694 88.9623 323.694 88.4791V69.2237C324.056 68.6863 324.417 68.1487 324.778 67.6116C325.884 65.99 327.221 64.1688 329.332 63.6193C330.753 63.2498 332.088 63.8958 333.099 64.2335C333.643 64.4151 334.256 64.3367 334.502 63.9265C335.004 63.0897 335.108 59.2966 334.896 57.8618ZM284.298 69.5988C284.289 64.8067 287.49 60.284 292.952 61.4871C293.694 61.6504 294.405 61.88 294.975 62.229C297.108 63.5363 298.021 66.1024 297.971 69.5988H284.298ZM306.655 66.6096C306.033 63.7883 305.146 61.6046 303.658 59.6976C301.833 57.3587 299.06 55.9444 295.641 55.1919C294.761 54.9982 293.818 55.0394 292.874 54.8847H291.952C291.033 54.7327 289.464 54.8947 288.622 55.0639C287.31 55.3278 286.079 55.5649 284.959 56.0112C280.541 57.7707 277.577 61.1766 276.097 65.8672C275.76 66.933 275.596 67.9964 275.354 69.1954C275.26 69.9718 275.166 70.7485 275.072 71.5252C275.063 71.8833 275.055 72.242 275.046 72.6002V74.6484C275.063 75.1518 275.08 75.6555 275.097 76.1589C275.44 78.1944 275.548 80.0639 276.148 81.7654C277.87 86.6573 280.999 89.3584 286.112 90.8792C287.303 91.2336 288.613 91.2705 289.954 91.4934C290.833 91.5192 291.713 91.5449 292.592 91.5705C296.213 91.5705 299.323 91.0067 302.095 90.1367C303.23 89.7807 304.669 89.4371 305.143 88.4214C305.654 87.3294 305.774 82.7604 304.657 82.4308C303.817 82.1832 302.933 82.7267 302.377 82.9431C300.992 83.4818 299.514 83.8144 297.972 84.1974C297.058 84.424 296.073 84.4175 295.077 84.5814C294.192 84.7269 292.785 84.6916 291.952 84.5558C290.921 84.3873 290.046 84.3464 289.211 84.0181C286.034 82.7685 284.328 80.0469 284.396 75.5698H299.483C301.146 75.57 304.665 75.8368 305.681 75.2372C306.875 74.5333 307.014 73.1874 307.014 71.2689C307.005 70.7145 306.996 70.1597 306.988 69.605C306.818 68.581 306.864 67.5604 306.655 66.6096ZM218.504 81.1998C217.402 82.6868 215.443 84.2653 213.459 84.859C210.22 85.8289 207.413 84.2661 206.854 81.7115C206.647 80.767 206.829 79.6146 207.11 78.9223C208.52 75.4377 213.576 75.6608 218.504 75.6978V81.1998ZM227.678 71.1172C227.678 68.6136 227.835 65.8965 227.371 63.7985C226.295 58.9339 223.885 56.6486 219.152 55.4563C218.238 55.2259 217.324 55.22 216.31 55.0467C214.951 54.8146 212.365 54.7551 210.959 54.9955C209.56 55.2348 208.204 55.3709 206.964 55.7121C204.631 56.3543 200.835 57.3527 200 59.3713C199.383 60.8621 199.645 65.4729 201.485 65.1805C202.621 64.9999 203.416 64.3636 204.327 63.9265C207.327 62.4869 215.09 60.1636 217.641 63.7473C218.653 65.1686 218.69 67.4337 218.666 69.9147C210.318 69.9112 202.865 70.3119 199.539 75.2884C198.865 76.2977 198.403 77.4333 198.105 78.8455C198.063 79.306 198.02 79.7669 197.978 80.2274C197.969 80.7648 197.96 81.3022 197.952 81.8396C198.103 82.748 198.12 83.6093 198.361 84.3984C199.474 88.0387 202.004 90.0648 205.735 91.1031C206.948 91.4406 209.379 91.837 211.01 91.5637C212.087 91.3832 213.078 91.2937 214.006 91.0007C215.881 90.4087 217.413 89.407 218.794 88.3139C219.22 87.9045 219.647 87.4949 220.074 87.0855C220.064 88.1155 219.827 90.0311 220.432 90.489C221.473 91.277 226.907 91.2021 227.55 90.2076C227.803 89.816 227.678 88.8405 227.678 88.2371V71.1172ZM194.91 55.8401C194.384 55.1758 192.204 54.8745 190.971 54.8931C190.618 54.9273 190.265 54.9615 189.912 54.9955C189.039 55.1804 188.255 55.4493 187.598 55.8657C186.278 56.7019 185.083 57.9219 184.151 59.1667C183.724 59.7553 183.298 60.3439 182.871 60.9324V60.9745C182.862 60.6673 182.854 60.3595 182.845 60.0523C182.845 59.1468 183.048 56.8898 182.691 56.3376C181.922 55.1448 175.612 55.1709 175.053 56.4914C174.829 57.0218 174.976 58.0715 174.976 58.7458V87.6385C174.976 88.3454 174.813 89.5506 175.104 90.0327C175.412 90.5442 176.227 90.6911 176.913 90.8223C178.731 91.1697 183.413 91.1118 184.049 89.9818C184.233 89.6552 184.151 88.9623 184.151 88.4791V69.2237C184.512 68.6863 184.873 68.1487 185.234 67.6116C186.34 65.99 187.678 64.1688 189.789 63.6193C191.21 63.2498 192.544 63.8958 193.556 64.2335C194.099 64.4151 194.713 64.3367 194.959 63.9265C195.461 63.0897 195.565 59.2966 195.353 57.8618C195.231 57.0331 195.309 56.344 194.91 55.8401ZM131.671 68.021C131.151 70.5542 129.809 71.9351 127.216 72.3967C122.432 73.2486 119.539 68.7742 121.276 64.5407C121.798 63.2668 122.753 62.2848 124.041 61.777C124.552 61.5755 125.182 61.6366 125.756 61.4186C128.564 61.4057 130.152 62.2379 131.159 64.0031C131.409 64.4413 131.552 65.0188 131.671 65.5642C131.827 66.2833 131.815 67.3203 131.671 68.021ZM121.557 90.0028C121.864 89.7554 122.172 89.508 122.479 89.2606C123.819 89.3032 125.159 89.346 126.499 89.3886C127.523 89.4142 128.547 89.4398 129.571 89.4654C131.976 89.8403 134.568 90.662 133.847 93.8159C133.747 94.2557 133.595 94.7165 133.386 95.0696C131.726 97.8796 125.517 98.5452 121.813 97.0145C120.279 96.3801 118.956 95.051 119.662 92.7155C119.981 91.6626 120.784 90.6251 121.557 90.0028ZM159.827 63.2013H165.251C165.92 63.2013 167.011 63.3433 167.462 63.0736C168.464 62.4745 168.46 60.2167 168.362 58.6261C168.307 57.7473 168.281 56.8854 167.925 56.2998C167.523 55.6393 166.628 55.7377 165.56 55.7377H159.827V50.4211C159.827 49.719 159.982 48.6262 159.75 48.0692C159.51 47.4938 158.863 47.3316 158.191 47.1748C156.466 46.7721 152.177 46.7719 151.061 47.6092C150.542 47.9986 150.652 48.9774 150.652 49.8842V55.7377H132.686C131.566 55.7377 130.845 55.4854 129.9 55.303C128.211 54.9774 125.804 54.868 123.996 55.1752C118.629 56.0877 115.11 58.358 113.493 62.997C112.868 64.7881 112.58 67.7927 113.109 69.9751C113.426 71.2789 113.919 72.4183 114.592 73.3747C114.881 73.7323 115.171 74.0902 115.461 74.4481C115.52 74.508 115.58 74.5675 115.64 74.6271C114.205 75.6926 112.818 77.819 112.317 79.8159C111.523 82.9803 113.202 86.3684 115.384 87.1262C114.907 87.5181 114.43 87.9102 113.953 88.3023C112.896 89.1539 111.939 90.506 111.372 91.8294C111.102 92.4579 110.928 93.1545 110.784 93.9C110.423 95.7651 110.962 97.7047 111.627 98.8333C113.248 101.583 116.217 102.722 119.805 103.511C120.68 103.703 121.545 103.685 122.489 103.843C123.622 104.033 124.908 103.998 126.186 103.997C126.927 103.961 128.136 103.903 128.878 103.867C129.991 103.751 131.08 103.736 132.098 103.485C136.535 102.391 140.511 100.61 142.193 96.7884C142.556 95.964 142.829 95.0962 143.036 94.1045C143.417 92.2846 143.05 90.0942 142.5 88.7877C141.258 85.8397 138.858 84.2184 135.523 83.3689C134.664 83.1501 133.746 83.0903 132.814 82.9345C131.987 82.9005 131.161 82.8663 130.335 82.8324C129.636 82.8065 128.937 82.7809 128.239 82.7556C125.244 82.2705 121.719 83.2905 120.393 81.0939C120.129 80.6562 120.037 79.904 120.214 79.2791C120.406 78.6029 120.875 78.2003 121.134 77.6432C121.268 77.5621 122.617 78.1952 123.025 78.3334C124.508 78.8366 126.982 79.0454 128.852 78.691C129.702 78.5304 130.551 78.4679 131.331 78.231C135.32 77.0199 137.789 74.9928 139.228 71.2277C139.766 69.8212 140.191 67.3426 139.765 65.4764C139.557 64.5641 139.218 63.8993 138.845 63.2013H150.652V76.6653C150.652 80.4212 150.655 83.9106 151.78 86.4757C152.925 89.0889 154.967 90.4653 158.033 91.1886C159.134 91.4486 161.117 91.6952 162.493 91.4705C164.128 91.2031 165.578 91.1102 166.85 90.5485C168.303 89.9066 168.073 88.8407 168.362 87.065V85.5416C168.225 84.6762 168.357 83.7053 167.925 83.1388C167.531 82.623 166.536 83.097 166.099 83.2668C164.634 83.8352 162.328 83.9238 161.164 83.011C159.774 81.9212 159.827 79.3545 159.827 76.8765V63.2013ZM258.403 78.5641C257.917 79.1271 257.431 79.6901 256.944 80.2528C255.492 82.0595 253.839 83.349 251.004 83.8101C249.445 84.0634 248.12 83.3115 247.342 82.7097C245.486 81.272 244.859 78.9406 244.347 76.133C244.296 75.3825 244.244 74.6316 244.193 73.8811C244.036 72.9147 244.137 71.6438 244.296 70.759C244.859 67.6208 245.654 64.9199 247.906 63.4916C248.358 63.2043 248.912 62.979 249.497 62.8305C249.861 62.7963 250.443 62.7413 250.806 62.7068C253.73 62.8413 255.627 64.4876 256.97 66.1528C257.276 66.5323 258.262 67.3828 258.403 67.7905V78.5641ZM267.578 44.3464C267.579 43.5244 267.769 41.7501 267.501 41.1356C266.983 39.945 263.969 39.9863 262.175 40.0062C261.839 40.0315 261.293 40.0728 260.958 40.0981C259.995 40.2355 258.935 40.3255 258.532 41.0074C258.33 41.3494 258.403 42.0463 258.403 42.5742V59.2185C257.932 58.7905 257.461 58.3623 256.99 57.934C255.766 56.9811 254.475 56.1012 252.904 55.494C249.661 54.2409 244.853 54.9995 242.418 56.4187C238.629 58.6269 236.597 62.0123 235.402 66.8212C235.164 67.7776 235.115 68.7311 234.94 69.7751C234.751 70.8951 234.552 73.0287 234.734 74.2703C234.76 74.9979 234.785 75.7258 234.811 76.4537C235.047 77.9745 235.134 79.4405 235.479 80.8201C236.721 85.786 239.327 89.6258 244.063 91.0943C245.535 91.5508 247.804 91.9553 249.794 91.6338C250.842 91.4643 251.841 91.3309 252.724 90.9916C254.847 90.1755 256.452 88.9779 258.069 87.6781C258.635 87.1216 259.2 86.5649 259.766 86.0086C259.755 87.1839 259.517 90.0268 260.151 90.5038C261.246 91.3271 266.902 91.4093 267.476 90.1696C267.784 89.5026 267.579 87.5202 267.578 86.5994V44.3464Z" fill="#B8BEC8"/>
</svg>
