<svg width="162" height="56" viewBox="0 0 162 56" fill="none" xmlns="http://www.w3.org/2000/svg">
<rect width="162" height="56" fill="black"/>
<path fill-rule="evenodd" clip-rule="evenodd" d="M41.9675 16.5455C35.656 16.5455 30.5395 21.6738 30.5395 28C30.5395 34.3262 35.656 39.4545 41.9675 39.4545C48.279 39.4545 53.3955 34.3262 53.3955 28C53.3955 21.6738 48.279 16.5455 41.9675 16.5455ZM28 28C28 20.268 34.2535 14 41.9675 14C49.6816 14 55.935 20.268 55.935 28C55.935 35.732 49.6816 42 41.9675 42C34.2535 42 28 35.732 28 28Z" fill="#B8BEC8"/>
<path d="M41.9679 35.8679C46.3031 35.8679 49.8174 32.3453 49.8174 28.0001C49.8174 23.6548 46.3031 20.1323 41.9679 20.1323C37.6328 20.1323 34.1184 23.6548 34.1184 28.0001C34.1184 32.3453 37.6328 35.8679 41.9679 35.8679Z" fill="#B8BEC8"/>
<path fill-rule="evenodd" clip-rule="evenodd" d="M41.9676 21.174C38.2063 21.174 35.157 24.2303 35.157 28.0004C35.157 31.7705 38.2063 34.8268 41.9676 34.8268C45.729 34.8268 48.7783 31.7705 48.7783 28.0004C48.7783 24.2303 45.729 21.174 41.9676 21.174ZM33.0792 28.0004C33.0792 23.08 37.0587 19.0913 41.9676 19.0913C46.8766 19.0913 50.8561 23.08 50.8561 28.0004C50.8561 32.9208 46.8766 36.9095 41.9676 36.9095C37.0587 36.9095 33.0792 32.9208 33.0792 28.0004Z" fill="#B8BEC8"/>
<path d="M73.856 23.2271C74.9746 23.2271 75.9874 23.4846 76.8944 23.9998C77.8014 24.4998 78.5118 25.2119 79.0258 26.1361C79.5397 27.0604 79.7967 28.1134 79.7967 29.2952C79.7967 30.4922 79.5397 31.5528 79.0258 32.4771C78.5118 33.4013 77.8014 34.121 76.8944 34.6361C76.0025 35.1361 74.9897 35.3861 73.856 35.3861C72.8885 35.3861 72.0118 35.1892 71.2257 34.7952C70.4548 34.3861 69.8199 33.7952 69.3211 33.0225V39.6816H67.7112V23.318H69.2531V25.6816C69.7368 24.8937 70.3717 24.2877 71.1577 23.8634C71.9589 23.4392 72.8583 23.2271 73.856 23.2271ZM73.7426 33.9543C74.574 33.9543 75.3298 33.7649 76.0101 33.3861C76.6903 32.9922 77.2194 32.4392 77.5973 31.7271C77.9903 31.0149 78.1868 30.2043 78.1868 29.2952C78.1868 28.3861 77.9903 27.5831 77.5973 26.8861C77.2194 26.174 76.6903 25.621 76.0101 25.2271C75.3298 24.8331 74.574 24.6361 73.7426 24.6361C72.8961 24.6361 72.1327 24.8331 71.4525 25.2271C70.7874 25.621 70.2583 26.174 69.8653 26.8861C69.4874 27.5831 69.2984 28.3861 69.2984 29.2952C69.2984 30.2043 69.4874 31.0149 69.8653 31.7271C70.2583 32.4392 70.7874 32.9922 71.4525 33.3861C72.1327 33.7649 72.8961 33.9543 73.7426 33.9543Z" fill="#B8BEC8"/>
<path d="M87.1842 23.2271C88.7412 23.2271 89.9354 23.621 90.7668 24.4089C91.5982 25.1816 92.0139 26.3331 92.0139 27.8634V35.2725H90.472V33.4089C90.1092 34.0301 89.5726 34.5149 88.8621 34.8634C88.1668 35.2119 87.3354 35.3861 86.3679 35.3861C85.0377 35.3861 83.9795 35.068 83.1935 34.4316C82.4074 33.7952 82.0144 32.9543 82.0144 31.9089C82.0144 30.8937 82.3772 30.0755 83.1028 29.4543C83.8435 28.8331 85.015 28.5225 86.6173 28.5225H90.404V27.7952C90.404 26.7649 90.1168 25.9846 89.5423 25.4543C88.9679 24.9089 88.129 24.6361 87.0255 24.6361C86.2697 24.6361 85.5441 24.7649 84.8487 25.0225C84.1534 25.2649 83.5563 25.6058 83.0574 26.0452L82.3318 24.8407C82.9365 24.3255 83.6621 23.9316 84.5086 23.6589C85.3551 23.371 86.247 23.2271 87.1842 23.2271ZM86.6173 34.1134C87.5243 34.1134 88.3028 33.9089 88.9528 33.4998C89.6028 33.0755 90.0865 32.4695 90.404 31.6816V29.7271H86.6627C84.622 29.7271 83.6016 30.4392 83.6016 31.8634C83.6016 32.5604 83.8662 33.1134 84.3952 33.5225C84.9243 33.9164 85.665 34.1134 86.6173 34.1134Z" fill="#B8BEC8"/>
<path d="M107.134 23.318V35.2725H105.592V33.0907C105.169 33.818 104.587 34.3861 103.846 34.7952C103.106 35.1892 102.259 35.3861 101.307 35.3861C99.7499 35.3861 98.5179 34.9543 97.6109 34.0907C96.7191 33.2119 96.2731 31.9316 96.2731 30.2498V23.318H97.883V30.0907C97.883 31.3483 98.1929 32.3028 98.8127 32.9543C99.4325 33.6058 100.317 33.9316 101.466 33.9316C102.72 33.9316 103.71 33.5528 104.436 32.7952C105.162 32.0225 105.524 30.9543 105.524 29.5907V23.318H107.134Z" fill="#B8BEC8"/>
<path d="M114.84 35.3861C113.873 35.3861 112.943 35.2498 112.051 34.9771C111.175 34.6892 110.487 34.3331 109.988 33.9089L110.713 32.6361C111.212 33.0301 111.84 33.3558 112.595 33.6134C113.351 33.8558 114.137 33.9771 114.954 33.9771C116.042 33.9771 116.843 33.8104 117.357 33.4771C117.886 33.1286 118.151 32.6437 118.151 32.0225C118.151 31.5831 118.007 31.2422 117.72 30.9998C117.433 30.7422 117.07 30.5528 116.632 30.4316C116.193 30.2952 115.611 30.1664 114.886 30.0452C113.918 29.8634 113.14 29.6816 112.55 29.4998C111.961 29.3028 111.454 28.9771 111.031 28.5225C110.623 28.068 110.419 27.4392 110.419 26.6361C110.419 25.6361 110.834 24.818 111.666 24.1816C112.497 23.5452 113.654 23.2271 115.135 23.2271C115.906 23.2271 116.677 23.3331 117.448 23.5452C118.219 23.7422 118.854 24.0074 119.352 24.3407L118.65 25.6361C117.667 24.9543 116.495 24.6134 115.135 24.6134C114.107 24.6134 113.329 24.7952 112.8 25.1589C112.286 25.5225 112.029 25.9998 112.029 26.5907C112.029 27.0452 112.172 27.4089 112.459 27.6816C112.762 27.9543 113.132 28.1589 113.57 28.2952C114.009 28.4164 114.613 28.5452 115.384 28.6816C116.337 28.8634 117.1 29.0452 117.675 29.2271C118.249 29.4089 118.74 29.7195 119.148 30.1589C119.557 30.5983 119.761 31.2043 119.761 31.9771C119.761 33.0225 119.322 33.8558 118.445 34.4771C117.584 35.0831 116.382 35.3861 114.84 35.3861Z" fill="#B8BEC8"/>
<path d="M133.122 29.7952H123.145C123.236 31.0377 123.712 32.0452 124.573 32.818C125.435 33.5755 126.523 33.9543 127.839 33.9543C128.579 33.9543 129.26 33.8255 129.879 33.568C130.499 33.2952 131.036 32.9013 131.489 32.3861L132.396 33.4316C131.867 34.068 131.202 34.5528 130.401 34.8861C129.615 35.2195 128.746 35.3861 127.793 35.3861C126.569 35.3861 125.48 35.1286 124.528 34.6134C123.591 34.0831 122.858 33.3558 122.329 32.4316C121.8 31.5074 121.535 30.4619 121.535 29.2952C121.535 28.1286 121.784 27.0831 122.283 26.1589C122.797 25.2346 123.493 24.5149 124.369 23.9998C125.261 23.4846 126.259 23.2271 127.362 23.2271C128.466 23.2271 129.456 23.4846 130.333 23.9998C131.21 24.5149 131.897 25.2346 132.396 26.1589C132.895 27.068 133.144 28.1134 133.144 29.2952L133.122 29.7952ZM127.362 24.6134C126.214 24.6134 125.246 24.9846 124.46 25.7271C123.689 26.4543 123.251 27.4089 123.145 28.5907H131.603C131.497 27.4089 131.051 26.4543 130.265 25.7271C129.494 24.9846 128.526 24.6134 127.362 24.6134Z" fill="#B8BEC8"/>
</svg>
