<svg width="416" height="144" viewBox="0 0 416 144" fill="none" xmlns="http://www.w3.org/2000/svg">
<rect width="416" height="144" fill="black"/>
<path fill-rule="evenodd" clip-rule="evenodd" d="M354.727 90.059C354.723 91.339 354.224 92.5644 353.341 93.4644C352.459 94.3645 351.265 94.865 350.023 94.8555C348.784 94.8892 347.583 94.4074 346.692 93.5187C345.801 92.63 345.293 91.409 345.284 90.1306C345.298 88.8411 345.809 87.6103 346.705 86.7103C347.601 85.8103 348.807 85.3151 350.058 85.3342C351.288 85.3102 352.476 85.7973 353.355 86.686C354.233 87.5747 354.727 88.7903 354.727 90.059ZM346.465 90.059C346.587 92.0006 348.192 93.4855 350.077 93.4026C351.962 93.3196 353.438 91.6991 353.4 89.7538C353.362 87.8086 351.823 86.2511 349.936 86.2469C348.979 86.2842 348.074 86.7126 347.423 87.4377C346.772 88.1629 346.427 89.1252 346.465 90.1127V90.059ZM349.225 92.4215H348.131V87.7324C348.707 87.6476 349.286 87.5938 349.867 87.5713C350.414 87.5078 350.966 87.6405 351.429 87.9472C351.752 88.1687 351.937 88.5501 351.915 88.9494C351.879 89.5039 351.489 89.9654 350.961 90.0769C351.412 90.2201 351.638 90.5781 351.776 91.2224C351.833 91.6263 351.95 92.0188 352.124 92.3857H351.013C350.803 92.0303 350.668 91.6343 350.613 91.2224C350.613 90.7391 350.266 90.5065 349.693 90.5244H349.19L349.225 92.4215ZM349.225 89.7548H349.728C350.301 89.7548 350.787 89.54 350.787 89.0389C350.787 88.5378 350.492 88.3409 349.798 88.3409C349.607 88.315 349.415 88.315 349.225 88.3409V89.7548ZM144.663 62.7903C144.239 65.2331 143.727 68.0602 143.037 70.8873C143.811 77.576 146.134 85.2433 152.311 85.0668C155.617 84.9706 158.472 82.9174 160.908 79.9019C158.884 73.7902 158.079 67.3446 158.537 60.9263C158.94 51.7673 161.472 33.4974 169.827 33.4974C178.907 33.4974 174.182 56.2265 172.746 61.3593C171.311 66.4922 168.972 74.4161 165.053 80.4954C166.671 83.708 169.988 85.7243 173.601 85.6924C175.511 85.7114 177.394 85.2419 179.069 84.329C177.404 81.7659 176.591 78.7469 176.746 75.6993C176.875 67.6952 181.407 61.5679 186.552 61.5679C192.359 61.5037 193.552 67.2782 191.649 73.582C190.399 77.6379 188.128 81.3094 185.052 84.2488C186.423 84.8388 187.918 85.0866 189.407 84.9706C192.207 84.9071 194.87 83.7555 196.826 81.7625C197.552 81.2332 198.407 81.4417 197.73 82.9816C197.052 84.5215 194.407 88.5796 187.375 88.5796C185.349 88.5934 183.367 87.9887 181.698 86.8473C179.274 88.375 176.498 89.2638 173.633 89.4298C169.17 89.7817 164.907 87.5214 162.714 83.6393C160.259 86.8058 156.576 88.7972 152.569 89.125C146.069 89.4137 142.472 84.5054 140.601 78.4583C138.843 82.5646 136.424 85.7245 132.956 86.2699C128.118 87.0077 125.585 83.3666 124.311 78.7791C122.069 83.9921 119.037 88.1626 115.053 88.1626C109.263 88.1947 109.489 79.2121 109.489 79.2121C106.505 86.3982 100.15 94.0815 91.7473 92.8143C85.8764 91.9481 82.4248 87.6493 80.4571 82.2438C77.3754 85.0416 73.9698 87.4647 70.3121 89.4619C66.9089 91.3065 64.5702 91.916 63.0541 91.6915C61.538 91.4669 61.7638 90.5847 63.0541 90.0874C69.3303 87.4663 74.9153 83.4432 79.3765 78.3299C78.2187 72.8706 77.8655 67.2727 78.3281 61.7122C79.1184 51.7512 84.2474 30.4819 94.1343 32.0859C105.07 33.9466 98.0859 55.7132 94.6827 63.0917C91.9066 68.9994 88.1803 74.4172 83.6506 79.1319C85.2151 84.4733 88.1505 88.9807 93.4247 88.8684C101.554 88.6919 106.231 77.4638 108.844 70.6948C109.699 68.5133 110.682 67.6952 112.07 67.8717C113.457 68.0481 114.166 69.1389 113.94 71.4005C113.62 73.8086 113.501 76.2391 113.586 78.6668C113.86 81.1691 114.231 83.6232 115.86 83.7195C117.489 83.8157 120.779 78.362 123.166 71.0958C123.008 68.8261 123.008 66.5483 123.166 64.2787C123.23 63.4835 123.301 62.7152 123.381 61.9777C120.537 61.946 118.263 61.9718 117.15 62.0803C116.701 64.8697 114.663 66.0759 112.337 66.2644C109.4 66.4905 105.437 64.9074 105.437 62.1557C105.437 59.4041 109.384 57.0105 112.305 56.7844C114.647 56.5959 116.717 57.5759 117.118 60.3653C118.246 60.1592 120.656 59.9339 123.67 59.7251C124.335 55.3342 125.453 52.4752 127.392 52.3287C129.43 52.1748 129.704 55.4778 129.278 59.3912C132.64 59.2188 136.206 59.0807 139.37 59.0086C140.633 48.2052 143.043 46.9486 144.343 47.0514C145.757 47.1633 147.187 49.0262 145.332 58.9673C146.783 58.9923 147.892 59.0534 148.504 59.1591C151.729 59.4041 154.634 60.1768 154.537 61.5526C154.441 62.9285 152.82 63.4373 148.392 63.1358C147.701 63.0267 146.384 62.9084 144.663 62.7903ZM139.035 62.4711C135.84 62.3173 132.255 62.1812 128.898 62.089C128.88 62.1933 128.862 62.2977 128.844 62.402C128.456 64.6636 127.86 67.583 127.037 70.6146C127.085 71.3685 127.15 72.1224 127.247 72.8762C127.989 78.6347 129.973 82.9014 132.343 82.9014C135.44 82.9495 137.714 77.0788 139.198 71.2883C138.882 68.3596 138.827 65.409 139.035 62.4711ZM81.9248 65.8667C81.8873 68.7705 82.0868 71.6727 82.5216 74.5444C84.3765 72.186 86.0428 69.6868 87.5054 67.0697C93.1182 56.9964 98.0375 37.3952 93.1182 36.497C88.1989 35.5987 82.1667 54.4941 81.9248 65.8667ZM126.15 56.3548V56.1142C126.15 56.1142 126.134 56.0981 126.15 56.3548ZM162.569 58.5844C161.888 64.4228 162.16 70.3323 163.375 76.0843C166.363 70.2571 168.477 64.0262 169.649 57.5899C171.811 45.8645 171.101 38.5662 169.649 38.101C168.198 37.6358 163.956 43.699 162.569 58.5844ZM180.73 74.7369C180.414 77.2344 180.966 79.7643 182.294 81.9069C184.749 79.4814 186.614 76.5296 187.746 73.2773C188.907 69.8767 188.859 65.6742 186.407 65.4657C183.956 65.2571 181.214 69.3474 180.73 74.7369ZM221.142 72.7476C225.721 73.6558 230.174 74.2502 230.081 79.848C229.893 85.1485 225.205 89.3262 219.142 90.6638C213.079 92.0013 208.515 89.4583 207.969 88.8969C207.422 88.3355 206.906 87.097 208.406 87.4768C209.906 87.8566 212.172 88.5006 218.095 87.1466C222.783 86.0898 226.033 82.3744 226.127 79.9966C226.221 77.6188 222.783 77.1729 218.704 76.2482C214.235 75.2575 209.687 73.9695 209.687 68.9331C209.75 64.4252 213.141 60.6273 218.689 59.2072C224.236 57.7871 227.69 59.5375 228.549 60.2145C229.792 60.9408 230.263 62.5796 229.612 63.9133C228.612 65.3169 226.971 64.4252 226.174 63.9133C225.377 63.4014 224.252 62.5923 220.314 62.9886C216.376 63.3849 213.422 66.159 213.422 68.6855C213.422 71.2119 216.876 71.9054 221.142 72.7476ZM348.948 75.9875C349.348 76.6729 348.66 78.2885 347.38 80.1815C346.101 82.0745 341.365 89.9403 334.455 88.9448C327.544 87.9493 326.984 80.7363 326.872 77.0319C326.776 71.2549 327.944 66.1307 326.872 65.6085C326.152 65.2658 323.801 67.3057 320.809 72.691C318.755 76.526 316.902 80.4699 315.258 84.506C314.059 87.0355 313.499 87.574 312.059 87.0355C311.147 86.6601 310.619 85.5994 311.147 82.6783C311.531 80.8832 312.043 78.9086 312.747 74.3556C313.138 72.2433 313.384 70.1057 313.483 67.9585C311.116 69.103 308.591 69.8681 305.996 70.2268C306.05 72.6737 305.654 75.1092 304.828 77.4072C302.141 85.2893 297.726 86.9865 294.718 86.7907C289.999 86.497 287.536 82.6783 287.536 77.9131C287.385 75.68 287.758 73.4424 288.623 71.3855C286.986 72.212 285.271 72.8681 283.504 73.3438C282.257 79.6266 278.369 85.9911 272.658 86.5459C269.116 87.088 265.652 85.1612 264.18 81.8297C263.373 79.9618 262.87 77.9718 262.692 75.9385C260.585 78.4771 258.115 80.6777 255.366 82.4661C253.545 83.6677 251.617 84.6895 249.607 85.5178C248.636 86.5326 247.44 87.2938 246.119 87.7372C240.296 89.5813 239.161 86.4154 241.32 84.7834C242.936 83.5922 243.944 83.9022 246.823 82.8741C249.014 80.5593 250.55 77.6837 251.27 74.5514C252.598 69.8678 253.078 63.3402 249.111 61.7083C244.04 59.701 239.752 65.7064 236.841 72.2341C238.565 79.913 239.381 87.775 239.273 95.652C239.129 103.126 236.841 112.591 233.642 111.971C225.963 110.502 228.059 88.9938 230.026 80.9648C230.841 77.6208 231.911 74.347 233.226 71.1733C232.922 69.4109 232.586 67.779 232.186 66.1471C231.322 62.6548 229.866 61.4961 230.858 60.7454C231.514 60.2559 233.69 61.3492 235.401 66.604C238.601 60.827 243.032 56.2251 248.759 56.8125C257.269 57.6285 257.333 69.4109 254.998 75.5795C254.438 76.934 253.926 78.2069 253.398 79.3818C257.28 76.1819 260.747 72.4914 263.716 68.3991C264.756 67.0936 265.38 67.012 266.355 67.4199C267.331 67.8279 267.459 68.7744 267.091 71.0917C266.723 73.409 266.483 82.9231 272.13 83.2005C275.73 83.38 278.129 78.8107 279.281 74.2087C277.648 74.3681 276.001 74.2579 274.402 73.8823C269.011 72.5605 266.371 69.4598 267.091 63.944C267.285 61.8281 268.304 59.8803 269.919 58.539C271.535 57.1977 273.612 56.5755 275.682 56.8125C278.593 57.1063 284.416 59.7337 283.92 69.672C285.582 69.0208 287.187 68.2293 288.719 67.3057C290.991 66.0002 292.527 65.2495 293.39 66.6366C293.902 67.4526 293.87 67.9911 293.15 69.8025C292.072 72.2199 291.526 74.8492 291.551 77.5051C291.791 80.2141 293.102 82.8904 295.63 82.972C298.158 83.0536 300.861 79.9204 301.837 73.2622C301.928 72.3951 301.966 71.523 301.949 70.6511C296.638 70.3574 291.807 66.8977 293.23 62.7853C294.782 58.2323 300.205 59.9458 301.997 61.3656C303.646 62.8134 304.804 64.7551 305.308 66.9141C306.172 66.8161 306.908 66.6856 307.772 66.5224C310.249 66.1034 312.591 65.085 314.602 63.5523C315.77 62.9975 317.61 63.7645 317.37 66.2613C317.13 68.7581 316.65 72.0219 316.65 72.0219C318.044 69.2685 319.745 66.6892 321.721 64.3356C324.057 61.9367 326.776 59.6031 329.72 61.235C332.199 62.6548 331.319 66.8161 330.983 69.982C330.487 74.4371 329.944 82.6946 334.183 84.2286C337.718 85.5504 340.582 82.9394 343.221 80.6547C345.861 78.37 348.324 74.8778 348.948 75.9875ZM234.905 90.3972C234.745 86.7091 234.521 82.9394 234.154 79.2186C233.77 80.3773 233.466 81.5033 233.226 82.4825C231.594 89.1896 230.842 105.966 232.874 106.831C233.306 106.994 235.289 99.2258 234.905 90.3972ZM274.642 70.39C276.319 70.8509 278.068 70.9783 279.793 70.7654C279.921 70.1616 279.921 69.623 279.921 69.1334C280.161 63.7318 277.169 60.9739 274.274 61.1861C272.357 61.4242 270.808 62.8927 270.435 64.8252C270.035 67.1262 270.851 69.3782 274.642 70.39ZM298.062 66.0165H298.078C299.078 66.6832 300.242 67.0507 301.437 67.0772C301.055 65.667 300.012 64.542 298.653 64.0745C297.086 63.6829 296.142 64.5804 298.062 66.0165Z" fill="#B8BEC8"/>
</svg>
