<svg width="138" height="152" viewBox="0 0 138 152" fill="none" xmlns="http://www.w3.org/2000/svg">
<path d="M69 0L0 38.1445V114.433L69 152L138 114.433V38.1445L69 0Z" fill="#3B3D40"/>
<path d="M69 7L6 41.6312V110.894L69 145L132 110.894V41.6312L69 7Z" fill="black"/>
<g clip-path="url(#clip0_108_1264)">
<path d="M95.6667 62.6673H77V57.334H95.6667V62.6673ZM100.269 89.334C99.0907 92.7927 94.8587 97.334 86.6667 97.334C78.4693 97.334 71.8293 92.7233 71.8293 82.2007C71.8293 71.774 78.0293 66.414 86.4053 66.414C94.624 66.414 99.6427 71.166 100.739 78.2167C100.947 79.566 101.029 81.3847 100.992 83.9233H79.5867C79.9333 92.486 88.8747 92.7553 91.8213 89.334H100.269ZM79.7733 78.6673H93.0133C92.7333 74.542 89.984 72.75 86.408 72.75C82.4987 72.75 80.336 74.798 79.7733 78.6673ZM54.2427 97.302H37V57.39H55.5413C70.144 57.606 70.4213 71.9073 62.7947 75.806C72.024 79.166 72.3333 97.302 54.2427 97.302ZM45 73.334H54.5573C61.2453 73.334 62.3067 65.334 53.7253 65.334H45V73.334ZM54.0427 81.334H45V89.3767H53.9093C62.056 89.3767 61.5573 81.334 54.0427 81.334Z" fill="#B8BEC8"/>
</g>
<defs>
<clipPath id="clip0_108_1264">
<rect width="64" height="64" fill="white" transform="translate(37 44)"/>
</clipPath>
</defs>
</svg>
