<svg width="304" height="108" viewBox="0 0 304 108" fill="none" xmlns="http://www.w3.org/2000/svg">
<rect width="304" height="108" fill="black"/>
<path d="M79.0138 50.906C80.7445 51.2314 81.9637 51.9647 82.6766 53.0958C83.3896 54.232 83.746 56.019 83.746 58.4568C83.746 63.3012 82.2892 67.2626 79.3754 70.351C76.4617 73.4344 72.7368 74.9786 68.2009 74.9786C66.4133 74.9786 64.6775 74.6584 62.9933 74.0128C61.3091 73.3672 59.8625 72.4686 58.6536 71.3168C57.2691 70.0463 56.2307 68.7087 55.5384 67.2935C54.8461 65.8784 54.5 64.4323 54.5 62.9552C54.5 61.3025 54.8565 60.0268 55.5694 59.123C56.2824 58.2192 57.4034 57.6046 58.9429 57.2792C58.6536 56.6078 58.4418 56.0397 58.3075 55.58C58.1732 55.1204 58.106 54.764 58.106 54.5109C58.106 53.6484 58.5607 52.7601 59.4751 51.8563C60.3895 50.9525 61.2471 50.5031 62.0582 50.5031C62.4043 50.5031 62.7711 50.5651 63.1534 50.6891C63.5357 50.813 63.98 51.0196 64.4812 51.3088C62.9985 47.1203 61.9239 43.8872 61.2523 41.6095C60.5807 39.3319 60.2448 37.7618 60.2448 36.8942C60.2448 35.7011 60.4515 34.7921 61.0508 34.0794C61.7844 33.2066 62.8848 33 63.9439 33C66.0827 33 66.8473 34.8335 70.5411 45.1112C71.0371 46.4902 71.3884 47.5593 71.6364 48.3133C71.8482 47.7194 72.1479 46.8724 72.5302 45.7774C75.2993 37.7825 76.4823 33.785 79.6802 33.785C80.6618 33.785 81.4419 34.1156 82.0308 34.7818C82.6198 35.4429 82.9091 36.3364 82.9091 37.4468C82.9091 38.2938 82.5888 39.838 81.943 42.0899C81.2972 44.3365 80.3208 47.2752 79.0138 50.906ZM58.3643 62.6711C58.633 62.9965 59.0101 63.4768 59.4906 64.1121C60.7615 65.8629 61.9342 66.7358 63.0088 66.7358C63.3756 66.7358 63.7011 66.6221 63.9904 66.3897C64.2797 66.1573 64.4243 65.9197 64.4243 65.6667C64.4243 65.3774 64.2332 64.8971 63.8457 64.2257C63.4582 63.5543 62.9313 62.7951 62.2597 61.9481C61.4899 60.9668 60.8493 60.2541 60.343 59.7996C59.8316 59.3502 59.4234 59.123 59.1186 59.123C58.447 59.123 57.827 59.4845 57.2588 60.2024C56.6905 60.9255 56.4063 61.7725 56.4063 62.7538C56.4063 63.544 56.6027 64.422 56.9953 65.3929C57.3879 66.3639 57.9614 67.34 58.7105 68.3213C59.8471 69.8397 61.2523 71.007 62.9365 71.823C64.6207 72.639 66.4805 73.047 68.516 73.047C72.2667 73.047 75.4026 71.6474 77.934 68.8533C80.4603 66.0592 81.726 62.5524 81.726 58.3431C81.726 57.0571 81.6279 56.0345 81.4367 55.2753C81.2456 54.5161 80.9253 53.9635 80.4861 53.6174C79.6957 52.9667 78.1665 52.3779 75.8882 51.8563C73.6099 51.3398 71.2283 51.0764 68.7485 51.0764C68.0562 51.0764 67.5654 51.19 67.2761 51.4224C66.9868 51.6549 66.8421 52.0474 66.8421 52.6052C66.8421 53.9118 67.5706 54.857 69.0326 55.4457C70.4947 56.0345 72.8608 56.3237 76.1258 56.3237H77.3089C77.5776 56.3237 77.7945 56.427 77.9598 56.6285C78.1252 56.8299 78.2337 57.1346 78.2905 57.5374C77.965 57.8473 77.2883 58.1985 76.2705 58.591C75.2528 58.9836 74.4727 59.3761 73.9354 59.7583C72.7833 60.6053 71.8534 61.6072 71.1508 62.7693C70.4481 63.9313 70.0969 65.0314 70.0969 66.0695C70.0969 66.7048 70.2467 67.4691 70.5463 68.3626C70.846 69.2561 70.9958 69.8087 70.9958 70.0205V70.2219L70.939 70.4802C70.0917 70.4233 69.4252 69.9275 68.9345 68.9979C68.4437 68.0682 68.2009 66.8236 68.2009 65.2638V65.0056C68.0459 65.1399 67.8961 65.238 67.7514 65.2948C67.6067 65.3516 67.4466 65.3826 67.2761 65.3826C67.1004 65.3826 66.9403 65.3671 66.7853 65.3413C66.6303 65.3103 66.4598 65.269 66.2687 65.2122C66.3255 65.4239 66.372 65.6305 66.3978 65.8319C66.4288 66.0334 66.4392 66.1935 66.4392 66.3071C66.4392 67.0198 66.1602 67.6292 65.6022 68.1354C65.0443 68.6467 64.383 68.8998 63.6132 68.8998C62.4043 68.8998 61.1696 68.311 59.9194 67.1283C58.6691 65.9456 58.044 64.7887 58.044 63.6524C58.044 63.4407 58.0699 63.2548 58.1164 63.0895C58.168 62.9242 58.2507 62.7848 58.3643 62.6711ZM67.0178 63.3632C67.3432 63.3632 67.6429 63.2134 67.9115 62.9139C68.1802 62.6143 68.3145 62.2941 68.3145 61.9481C68.3145 61.5814 68.051 60.7344 67.5189 59.3967C66.992 58.0591 66.3307 56.7472 65.5454 55.4612C64.9668 54.5006 64.4036 53.7724 63.8457 53.2869C63.2877 52.7963 62.7608 52.5535 62.2597 52.5535C61.8567 52.5535 61.4072 52.8066 60.9165 53.3179C60.4257 53.8292 60.1829 54.3043 60.1829 54.7433C60.1829 55.203 60.4257 55.8951 60.9061 56.8196C61.3866 57.744 62.0324 58.7202 62.8383 59.7583C63.6856 60.8945 64.4812 61.7777 65.2303 62.4129C65.9794 63.043 66.5735 63.3632 67.0178 63.3632ZM69.8437 49.4392L66.7285 40.4423C65.9225 38.1544 65.2974 36.6618 64.8531 35.9594C64.4088 35.257 63.9284 34.9058 63.4118 34.9058C63.0088 34.9058 62.6833 35.0607 62.4302 35.3654C62.1822 35.6753 62.053 36.0885 62.053 36.605C62.053 37.4881 62.3888 39.0272 63.0605 41.217C63.7321 43.4069 64.7446 46.2836 66.0879 49.8369C66.2015 49.6251 66.3668 49.4754 66.5787 49.3876C66.7905 49.2998 67.0798 49.2584 67.4414 49.2584C67.5551 49.2584 67.7876 49.2688 68.1337 49.2894C68.485 49.3101 69.0533 49.3617 69.8437 49.4392ZM73.0984 58.1727C72.2718 58.1365 71.4866 58.0487 70.7478 57.9145C70.009 57.7802 69.3012 57.5891 68.6296 57.336C68.9344 57.9506 69.2083 58.5652 69.4511 59.1798C69.6939 59.7944 69.8902 60.3987 70.04 60.9978C70.4998 60.4193 70.9855 59.8977 71.4969 59.4277C72.0084 58.9577 72.5405 58.5394 73.0984 58.1727ZM76.9369 50.4153C78.2233 46.9188 79.2308 44.0318 79.9489 41.7541C80.6721 39.4765 81.0286 38.0769 81.0286 37.5604C81.0286 37.0026 80.9098 36.5688 80.667 36.2641C80.4242 35.9594 80.0935 35.8044 79.6699 35.8044C79.1326 35.8044 78.585 36.2538 78.027 37.1472C77.4691 38.0407 76.8543 39.4765 76.1827 41.4598L73.2999 49.7904L76.9369 50.4153Z" fill="#B8BEC8"/>
<path d="M111.095 40.2358L122.181 67.4073H116.442L113.724 60.6777H102.162L99.5325 67.4073H94.0977L105.102 40.2358H111.095ZM103.805 56.5408H112.086L107.99 46.3612H107.819L103.805 56.5408Z" fill="#B8BEC8"/>
<path d="M128.836 67.4072H123.659V48.3856H128.836V51.4896C129.787 49.3308 132.199 47.864 135.051 47.864C140.14 47.864 142 51.314 142 55.5439V67.4072H136.823V56.582C136.823 53.6485 135.661 51.9648 133.114 51.9648C130.484 51.9648 128.841 54.0358 128.841 57.2276V67.4072H128.836Z" fill="#B8BEC8"/>
<path d="M153.354 60.8071C151.799 60.8071 150.378 60.5902 149.17 60.1151C148.694 60.4146 148.395 60.8898 148.395 61.494C148.395 62.3565 148.958 62.9195 150.378 62.9195H157.973C162.199 62.9195 164.358 65.2074 164.358 68.2701C164.358 73.0164 158.836 74.9997 152.925 74.9997C147.661 74.9997 143.177 73.662 143.177 70.1242C143.177 68.1823 144.732 66.8033 146.974 66.5038C145.248 65.9408 144.344 64.5618 144.344 63.0124C144.344 61.2874 145.553 59.9911 147.408 59.2629C145.77 58.1421 144.778 56.4585 144.778 54.3874C144.778 50.3331 148.358 47.8747 153.365 47.8747C155.695 47.8747 157.849 48.479 159.404 49.5584C160.484 48.0503 162.38 46.8418 164.451 46.8418V50.9839C163.418 50.9839 162.163 51.1543 161.171 51.5003C161.687 52.3215 161.992 53.3132 161.992 54.3874C161.987 58.3539 158.36 60.8071 153.354 60.8071ZM152.925 71.8492C156.723 71.8492 159.481 70.9867 159.481 69.1326C159.481 67.8827 158.448 67.4076 156.723 67.4076H150.378C148.999 67.4076 147.878 67.9705 147.878 69.3495C147.878 71.0745 149.862 71.8492 152.925 71.8492ZM153.401 51.02C151.458 51.02 150.12 52.1821 150.12 54.3822C150.12 56.5824 151.458 57.7445 153.401 57.7445C155.385 57.7445 156.723 56.5824 156.723 54.3822C156.723 52.1821 155.385 51.02 153.401 51.02Z" fill="#B8BEC8"/>
<path d="M184.037 61.1992C183.045 65.4239 179.764 67.9288 174.893 67.9288C169.024 67.9288 164.798 64.174 164.798 58.183C164.798 52.1868 169.07 47.8743 174.764 47.8743C180.979 47.8743 184.171 52.1868 184.171 57.3618V59.2159H169.892C170.062 62.0204 172.263 64.0036 175.068 64.0036C177.615 64.0036 179.124 62.9242 179.857 60.7705L184.037 61.1992ZM179.119 55.9777C178.948 53.7775 177.61 51.6651 174.717 51.6651C171.87 51.6651 170.445 53.6071 169.969 55.9777H179.119Z" fill="#B8BEC8"/>
<path d="M191.382 40.2358V67.4073H186.206V40.2358H191.382Z" fill="#B8BEC8"/>
<path d="M200.015 40.2358V62.9243H210.249V67.4124H194.621V40.2358H200.015Z" fill="#B8BEC8"/>
<path d="M211.465 40.2358H216.77V45.2817H211.465V40.2358ZM216.729 48.3857V67.4073H211.552V48.3857H216.729Z" fill="#B8BEC8"/>
<path d="M222.887 60.9409C223.187 63.2289 224.917 64.3909 227.547 64.3909C229.443 64.3909 230.998 63.7454 230.998 62.3664C230.998 61.07 230.135 60.5123 228.239 60.2075L225.217 59.6911C221.162 59.0455 218.919 57.5322 218.919 53.9996C218.919 50.374 221.983 47.8743 226.814 47.8743C232.078 47.8743 235.229 50.2449 235.57 54.4747L231.298 54.6452C230.952 52.4915 229.484 51.4121 226.767 51.4121C224.912 51.4121 223.703 52.2333 223.703 53.5244C223.703 54.5574 224.396 55.1616 225.775 55.3786L229.397 55.9828C233.411 56.6284 235.782 58.3121 235.782 61.8912C235.782 65.7751 232.419 67.9288 227.501 67.9288C222.541 67.9288 218.744 65.7699 218.398 61.1165L222.887 60.9409Z" fill="#B8BEC8"/>
<path d="M238.567 52.0115H235.85V48.9488L237.141 48.7319C238.996 48.4323 239.512 47.482 239.946 45.7106L240.551 43.123H243.702V48.3859H248.879V52.0063H243.702V61.4112C243.702 63.0484 244.436 63.7818 245.991 63.7818C247.024 63.7818 248.104 63.3945 249.225 62.878V66.2867C247.846 67.3196 246.291 67.9239 243.961 67.9239C241.026 67.9239 238.567 66.6327 238.567 62.5733V52.0115Z" fill="#B8BEC8"/>
</svg>
