<svg width="416" height="144" viewBox="0 0 416 144" fill="none" xmlns="http://www.w3.org/2000/svg">
<rect width="416" height="144" fill="black"/>
<path d="M126.003 50.0166C135.8 50.0166 145.594 50.025 155.391 50.0125C155.401 52.6226 155.412 55.2327 155.387 57.8448C148.468 57.8428 141.548 57.8386 134.628 57.8469C134.632 61.1231 134.624 64.4014 134.632 67.6776C140.691 67.6651 146.749 67.6755 152.805 67.6734C152.839 70.2752 152.799 72.8769 152.826 75.4787C146.762 75.4724 140.699 75.4849 134.636 75.4724C134.622 81.6448 134.628 87.8171 134.632 93.9895C131.76 93.9582 128.888 93.9582 126.016 93.9874C125.984 79.3312 126.011 64.6729 126.003 50.0166Z" fill="#B8BEC8"/>
<path d="M161.106 93.9896C161.095 79.3271 161.093 64.6646 161.108 50.0021C171.231 50.0334 181.356 50.0167 191.482 50.0105C191.484 52.6227 191.471 55.2348 191.488 57.8449C184.178 57.8449 176.866 57.8324 169.556 57.8533C169.579 60.9186 169.558 63.986 169.566 67.0534C176.28 67.0367 182.992 67.0471 189.705 67.0471C189.68 69.6468 189.709 72.2485 189.686 74.8482C182.981 74.8544 176.274 74.8586 169.568 74.844C169.552 78.6067 169.585 82.3694 169.552 86.1301C177.192 86.1551 184.833 86.1342 192.476 86.1405C192.495 88.7506 192.495 91.3607 192.476 93.9729C182.02 93.9812 171.562 93.9457 161.106 93.9896Z" fill="#B8BEC8"/>
<path d="M198.96 50.0021C202.003 50.0251 205.046 50.0313 208.089 50.0021C213.578 60.2191 219.066 70.4361 224.566 80.6468C224.585 70.4381 224.582 60.2295 224.566 50.023C227.248 50.0084 229.931 50.0272 232.613 50.0126C232.626 64.6688 232.624 79.325 232.615 93.9812C229.745 93.9603 226.875 93.9729 224.007 93.9729C218.377 83.5095 212.733 73.0524 207.073 62.6037C207.075 73.0649 207.077 83.5241 207.071 93.9854C204.368 93.9624 201.662 93.952 198.956 93.9917C198.975 79.3292 198.967 64.6646 198.96 50.0021Z" fill="#B8BEC8"/>
<path d="M240.853 50.0106C247.12 50.0293 253.387 50.0105 259.654 50.021C263.09 50.0753 266.61 51.0358 269.258 53.2847C272.034 55.4396 273.654 58.6886 274.668 61.9648C275.523 64.9487 275.835 68.0599 275.888 71.1544C275.763 75.9341 275.083 80.8285 272.855 85.1299C271.46 88.1096 269.136 90.6801 266.224 92.2649C264.089 93.4154 261.651 93.8999 259.241 93.9625C253.117 93.9918 246.991 93.9395 240.867 93.9897C240.825 79.3293 240.855 64.6689 240.853 50.0106ZM249.393 57.6738C249.37 67.2184 249.381 76.763 249.387 86.3076C252.112 86.2951 254.834 86.3076 257.559 86.3014C258.674 86.2721 259.812 86.1343 260.84 85.6875C262.831 84.8731 264.245 83.1087 265.183 81.244C266.765 77.8446 267.111 74.0151 267.008 70.3171C266.913 66.7736 266.369 62.9796 264.011 60.1649C262.593 58.4234 260.246 57.845 258.092 57.7051C255.192 57.6529 252.293 57.7156 249.393 57.6738Z" fill="#B8BEC8"/>
<path d="M281.651 94C281.619 79.3333 281.624 64.6667 281.649 50C284.517 50.0418 287.387 50.0104 290.255 50.0125C290.268 64.6646 290.274 79.3187 290.253 93.9729C287.385 93.9854 284.517 93.9311 281.651 94Z" fill="#B8BEC8"/>
</svg>
