<svg width="416" height="144" viewBox="0 0 416 144" fill="none" xmlns="http://www.w3.org/2000/svg">
<rect width="416" height="144" fill="black"/>
<path d="M139.078 81.2741C141.766 80.4387 143.327 76.9878 143.327 71.8984C143.327 65.1546 140.797 61.9813 135.743 62.3839L134.131 62.51L134.029 71.583C133.976 76.5753 134.011 80.8909 134.108 81.1737C134.323 81.8018 137.186 81.863 139.078 81.2741ZM150.721 55.2164C154.297 57.1755 157.164 61.4982 158.069 66.2703C158.292 67.4476 158.475 70.0227 158.475 71.9996C158.475 73.9764 158.292 76.5515 158.069 77.7285C157.136 82.65 154.241 86.8245 150.371 88.8081C146.695 90.6925 143.98 90.9784 129.949 90.9784H117V81.7919L118.149 81.5397C120.559 81 120.606 80.8086 120.606 72.1134C120.606 67.4999 120.453 63.9524 120.234 63.4945C120.007 63.0174 119.308 62.6167 118.431 62.46L117 62.2072V53.0205L130.434 53.033C144.959 53.041 147.164 53.268 150.721 55.2164ZM222.721 77.1604L223.972 77.426C226.343 77.9238 227.145 80.912 225.335 82.511C224.538 83.2162 224.011 83.353 222.619 83.2053C218.898 82.8092 217.52 79.5046 217.728 71.4571C217.838 67.2028 217.972 66.2794 218.753 64.529C219.888 61.9873 221.552 60.6935 223.69 60.6935C226.414 60.6935 228.56 62.6055 229.077 65.5009L229.303 66.7498H237.147V53.0205H233.36C230.304 53.0205 229.573 53.1312 229.573 53.6009C229.573 54.6163 229.041 54.6201 227.139 53.6009C225.036 52.4745 222.225 51.9124 219.373 52.0111C218.423 52.0439 217.469 52.1583 216.534 52.3391C207.407 54.1028 202.43 60.9478 202.401 71.7977C202.387 76.4579 202.913 79.3205 204.395 82.6374C206.729 87.8601 210.858 90.7825 217.311 91.7987C221.408 92.444 226.652 91.3548 229.258 89.3125C230.259 88.5278 230.633 88.716 231.128 90.2718C231.321 90.8777 231.844 90.9784 234.791 90.9784H238.229V84.9844C238.229 78.3402 238.333 78.0182 240.663 77.4637L241.835 77.1856V69.1731H222.721V77.1604ZM298.818 61.5135V53.0205H267.081V67.9616H274.62L274.869 65.4628C275.232 61.8615 276.013 61.0966 279.309 61.0966C280.695 61.0966 281.91 61.2493 282.014 61.4375C282.118 61.6262 278.639 66.4533 274.283 72.164L266.359 82.5488V90.9784H298.818V76.0375H290.884V78.2332C290.884 79.9696 290.697 80.6649 290.016 81.5523C289.238 82.5644 288.888 82.6979 286.387 82.8393C284.86 82.9257 283.461 82.8191 283.276 82.6123C283.068 82.3792 285.962 78.2802 290.872 71.8732L298.818 61.5135ZM183.273 82.1579C184.73 80.5268 185.155 78.2239 185.155 71.9996C185.155 65.7749 184.73 63.472 183.273 61.8415C182.533 61.0124 181.605 60.6193 180.658 60.6174C179.08 60.6136 177.449 61.6982 176.533 63.6589C175.734 65.3682 175.427 74.832 176.06 78.2461C176.682 81.6035 178.191 83.3065 180.557 83.3062C181.93 83.3062 182.439 83.0915 183.273 82.1579ZM180.568 52.1123C191.576 52.1616 198.198 57.211 200.043 66.9646C201.879 76.6694 198.397 85.8422 191.5 89.4895C187.679 91.5104 181.584 92.4571 176.691 91.7861C168.411 90.6507 162.928 85.779 161.059 77.9181C160.418 75.2227 160.415 68.7535 161.059 66.0433C162.279 60.9126 164.837 57.2201 168.779 54.901C172.331 52.8115 175.396 52.0888 180.568 52.1123ZM242.196 62.3081H243.289C243.974 62.3081 244.721 62.687 245.273 63.3052C246.149 64.2861 246.163 64.3698 246.163 71.7474C246.163 75.848 246.061 79.5019 245.938 79.861C245.667 80.6507 243.961 81.691 242.94 81.691C242.237 81.691 242.196 81.9227 242.196 86.3346V90.9784H263.114V81.7919L261.964 81.5397C259.55 80.9989 259.507 80.8195 259.507 71.9618V63.9863L260.454 63.1411C260.977 62.6807 261.788 62.3081 262.257 62.3081C263.104 62.3081 263.114 62.2783 263.114 57.6646V53.0205H242.196V62.3081Z" fill="#B8BEC8"/>
</svg>
