<svg width="304" height="108" viewBox="0 0 304 108" fill="none" xmlns="http://www.w3.org/2000/svg">
<rect width="304" height="108" fill="black"/>
<path d="M45.8465 67.7315L46.2876 64.4856C48.3354 65.7904 51.7063 67.4132 56.18 67.4132C61.3467 67.4132 64.245 65.3766 64.245 61.7806C64.245 52.3294 45.5 58.6302 45.5 46.4103C45.5 40.6186 49.2805 37.5 56.0854 37.5C62.6383 37.5 65.7573 40.2049 66.3243 44.7556L63.1109 45.392C62.6069 41.987 60.307 40.364 56.0224 40.364C51.4858 40.364 48.8079 42.4007 48.8079 46.0921C48.8079 55.9571 67.3955 49.1153 67.5215 61.717C67.5531 67.6042 63.7725 70.5 56.2429 70.5C50.6982 70.4364 47.5793 68.877 45.8465 67.7315Z" fill="#B8BEC8"/>
<path d="M75.901 51.0564V64.5492C75.901 67.0314 77.0037 67.6042 78.6734 67.6042C80.2171 67.6042 81.2253 67.1587 81.9183 66.8723L82.1704 69.7045C81.4143 69.9591 79.9965 70.4364 77.8543 70.4364C74.5464 70.4364 72.6876 69.259 72.6876 64.5811V51.0564H68.718V48.3196H72.6876V42.0188H75.901V48.3196H82.6745V51.0564H75.901Z" fill="#B8BEC8"/>
<path d="M96.4738 48.1604L96.2534 51.3426C96.0014 51.2472 95.4025 51.1517 94.6149 51.1517C91.4013 51.1517 89.3537 54.9705 89.3537 58.4709V69.8635H86.1404V48.3195H88.9447L89.165 52.4564C90.3617 49.7197 92.2838 47.874 94.5517 47.874C95.5607 47.874 96.1269 48.0331 96.4738 48.1604Z" fill="#B8BEC8"/>
<path d="M116.353 68.2087C115.25 69.1633 112.383 70.4681 107.972 70.4681C101.104 70.4681 97.6709 66.3311 97.6709 59.2983C97.6709 52.6474 101.042 47.874 108.224 47.874C113.895 47.874 116.226 50.8334 116.226 54.0794C116.226 59.5528 111.626 61.2713 101.042 61.7168C101.703 65.9811 104.381 67.6039 108.224 67.6039C111.973 67.6039 114.808 65.9811 115.722 65.2491L116.353 68.2087ZM100.883 59.1074C110.146 58.7573 113.044 57.7072 113.044 54.3022C113.044 52.5837 111.848 50.7062 108.13 50.7062C104.192 50.7062 100.978 52.9019 100.883 59.1074Z" fill="#B8BEC8"/>
<path d="M137.994 48.3195V69.927H135.316L134.97 66.8084C133.552 68.9724 131.126 70.4681 127.787 70.4681C122.085 70.4681 118.399 66.4266 118.399 59.5211C118.399 52.2337 122.463 47.874 128.228 47.874C131.473 47.874 133.71 49.1469 135.002 50.9926L135.316 48.3514H137.994V48.3195ZM134.782 61.494V57.6117C134.782 54.5885 133.269 50.6743 128.543 50.6743C124.133 50.6743 121.581 54.0475 121.581 59.4893C121.581 64.7081 123.944 67.5722 128.228 67.5722C132.324 67.6039 134.782 64.9627 134.782 61.494Z" fill="#B8BEC8"/>
<path d="M174.82 56.466V69.927H171.608V56.9752C171.608 53.0929 170.095 50.8016 166.756 50.8016C162.754 50.8016 160.518 53.9521 160.518 56.8161V69.8952H157.368V56.7207C157.368 52.9337 155.824 50.7699 152.547 50.7699C148.546 50.7699 146.341 53.9521 146.341 56.848V69.8952H143.128V48.3195H145.616L146.058 52.0109C147.349 49.6242 149.806 47.874 153.366 47.874C156.706 47.874 158.975 49.4333 159.951 52.361C161.211 49.7515 163.794 47.874 167.512 47.874C172.206 47.874 174.82 50.738 174.82 56.466Z" fill="#B8BEC8"/>
<path d="M202.739 37.9771L191.146 57.6434V69.927H185.128V57.6434L173.535 37.9771H180.309L188.185 52.0109L196.123 37.9771H202.739Z" fill="#B8BEC8"/>
<path d="M219.685 48.3195V69.927H215.244L214.519 67.2857C213.101 69.2269 210.738 70.4681 207.651 70.4681C201.98 70.4681 198.042 66.3629 198.042 59.4893C198.042 52.2337 202.358 47.874 208.06 47.874C211.054 47.874 213.133 48.9878 214.488 50.6108L214.992 48.3195H219.685ZM213.794 60.6985V57.5799C213.573 55.0659 212.156 52.8702 209.037 52.8702C205.886 52.8702 203.745 55.1296 203.745 59.3937C203.745 63.4034 205.602 65.4719 208.816 65.4719C211.967 65.4401 213.794 63.4352 213.794 60.6985Z" fill="#B8BEC8"/>
<path d="M236.48 48.224L236.133 53.8567C235.787 53.7293 235.156 53.5385 234.18 53.5385C231.911 53.5385 229.801 55.6069 229.801 59.712V69.927H223.878V48.3195H228.635L229.139 51.5654C230.305 49.306 232.069 47.874 234.306 47.874C235.44 47.874 236.196 48.0967 236.48 48.224Z" fill="#B8BEC8"/>
<path d="M258.375 37.9771V69.927H253.429L252.862 67.4448C251.318 69.195 248.987 70.4679 245.869 70.4679C240.67 70.4679 236.826 66.872 236.826 59.5209C236.826 52.17 240.89 47.8739 247.349 47.8739C249.491 47.8739 251.192 48.2876 252.483 48.8285V37.9771H258.375ZM252.452 59.9983V54.2066C251.412 53.4747 249.964 52.87 248.01 52.87C244.859 52.87 242.749 54.9386 242.749 59.4255C242.749 63.7534 244.702 65.44 247.254 65.44C250.089 65.44 252.452 63.3079 252.452 59.9983Z" fill="#B8BEC8"/>
</svg>
