<svg width="25" height="40" viewBox="0 0 25 40" fill="none" xmlns="http://www.w3.org/2000/svg">
<g clip-path="url(#clip0_160_2433)">
<path d="M0.164153 12.1242C2.89464 11.5116 5.49405 10.549 7.91352 9.28564V17.2985C9.14498 15.6891 10.9761 15.1512 12.8287 15.1512C15.6214 15.1512 17.2063 16.9073 17.2063 20.1645V28.1927C17.2063 29.6278 17.6496 30.2146 18.8597 30.2656C18.9299 30.2716 18.9951 30.3044 19.0414 30.3572C19.0878 30.4099 19.1117 30.4785 19.1081 30.5484V30.9035H10.2244L10.218 30.5484C10.2179 30.4894 10.2359 30.4318 10.2696 30.3833C10.3032 30.3347 10.351 30.2974 10.4064 30.2763C11.231 29.9765 11.4966 29.3493 11.4966 28.1969V20.645C11.4837 18.7167 11.1475 17.8131 9.7832 17.8131C8.53889 17.8131 8.14482 18.7464 8.14482 20.645V28.2054C8.14482 29.3472 8.42966 29.9999 9.21566 30.2826C9.27747 30.3023 9.33145 30.3409 9.3699 30.3928C9.40835 30.4447 9.42932 30.5074 9.42983 30.5718V30.9035H0.543987L0.533279 30.5399C0.533662 30.4657 0.562382 30.3943 0.613652 30.3403C0.664921 30.2862 0.734927 30.2535 0.809556 30.2486C1.96606 30.1742 2.4458 29.6087 2.4458 28.1969V15.8762C2.42938 15.3309 2.2984 14.7951 2.06126 14.3031C1.82412 13.811 1.48604 13.3735 1.0687 13.0187L0.128501 12.2618L0 12.1725C0.0540695 12.1569 0.108787 12.1407 0.164153 12.1242Z" fill="white"/>
<path d="M21.2302 15.3964C22.9176 15.3964 24.2856 14.0285 24.2856 12.341C24.2856 10.6536 22.9176 9.28564 21.2302 9.28564C19.5428 9.28564 18.1748 10.6536 18.1748 12.341C18.1748 14.0285 19.5428 15.3964 21.2302 15.3964Z" fill="white"/>
</g>
<defs>
<clipPath id="clip0_160_2433">
<rect width="24.2857" height="40" fill="white"/>
</clipPath>
</defs>
</svg>
