<svg width="304" height="108" viewBox="0 0 304 108" fill="none" xmlns="http://www.w3.org/2000/svg">
<rect width="304" height="108" fill="black"/>
<path d="M100.309 60.9556C102.324 60.329 103.495 57.7408 103.495 53.9238C103.495 48.8659 101.597 46.4859 97.807 46.7879L96.5982 46.8825L96.5218 53.6872C96.4817 57.4315 96.5086 60.6682 96.5812 60.8803C96.7425 61.3513 98.8893 61.3973 100.309 60.9556ZM109.041 41.4123C111.723 42.8816 113.873 46.1236 114.552 49.7027C114.719 50.5857 114.856 52.517 114.856 53.9997C114.856 55.4823 114.719 57.4136 114.552 58.2964C113.852 61.9875 111.681 65.1183 108.779 66.6061C106.021 68.0194 103.985 68.2338 93.462 68.2338H83.75V61.3439L84.612 61.1548C86.419 60.75 86.4546 60.6064 86.4546 54.085C86.4546 50.6249 86.3401 47.9643 86.1758 47.6209C86.005 47.2631 85.4808 46.9625 84.8235 46.845L83.75 46.6554V39.7653L93.8258 39.7748C104.72 39.7807 106.373 39.951 109.041 41.4123ZM163.041 57.8703L163.979 58.0695C165.757 58.4429 166.359 60.684 165.002 61.8833C164.403 62.4122 164.008 62.5147 162.964 62.404C160.174 62.1069 159.14 59.6285 159.296 53.5929C159.378 50.4021 159.479 49.7095 160.065 48.3967C160.916 46.4905 162.164 45.5201 163.767 45.5201C165.81 45.5201 167.42 46.9541 167.808 49.1256L167.977 50.0624H173.86V39.7653H171.02C168.728 39.7653 168.18 39.8484 168.18 40.2007C168.18 40.9622 167.78 40.9651 166.354 40.2007C164.777 39.3559 162.669 38.9343 160.53 39.0083C159.817 39.0329 159.102 39.1187 158.4 39.2543C151.555 40.5771 147.823 45.7109 147.8 53.8483C147.791 57.3435 148.185 59.4904 149.296 61.9781C151.047 65.8951 154.144 68.0869 158.983 68.849C162.056 69.333 165.989 68.5161 167.943 66.9844C168.694 66.3958 168.975 66.537 169.346 67.7039C169.491 68.1583 169.883 68.2338 172.094 68.2338H174.672V63.7383C174.672 58.7551 174.75 58.5137 176.497 58.0978L177.376 57.8892V51.8798H163.041V57.8703ZM220.114 46.1351V39.7653H196.31V50.9712H201.965L202.151 49.0971C202.424 46.3961 203.009 45.8225 205.482 45.8225C206.521 45.8225 207.432 45.937 207.51 46.0781C207.589 46.2197 204.98 49.84 201.712 54.123L195.77 61.9116V68.2338H220.114V57.0281H214.163V58.6749C214.163 59.9772 214.023 60.4987 213.512 61.1642C212.929 61.9233 212.666 62.0234 210.79 62.1295C209.645 62.1943 208.596 62.1143 208.457 61.9592C208.301 61.7844 210.472 58.7102 214.154 53.9049L220.114 46.1351ZM133.455 61.6184C134.547 60.3951 134.866 58.6679 134.866 53.9997C134.866 49.3312 134.547 47.604 133.455 46.3811C132.899 45.7593 132.204 45.4645 131.494 45.4631C130.31 45.4602 129.087 46.2736 128.4 47.7442C127.801 49.0262 127.57 56.124 128.045 58.6845C128.512 61.2026 129.643 62.4799 131.417 62.4797C132.447 62.4797 132.829 62.3186 133.455 61.6184ZM131.426 39.0842C139.682 39.1212 144.648 42.9083 146.033 50.2234C147.409 57.502 144.798 64.3816 139.625 67.1171C136.759 68.6328 132.188 69.3428 128.518 68.8396C122.309 67.988 118.196 64.3342 116.794 58.4386C116.314 56.417 116.311 51.5651 116.794 49.5325C117.709 45.6844 119.628 42.9151 122.584 41.1758C125.248 39.6086 127.547 39.0666 131.426 39.0842ZM177.647 46.7311H178.467C178.981 46.7311 179.54 47.0152 179.955 47.4789C180.611 48.2146 180.622 48.2773 180.622 53.8105C180.622 56.886 180.546 59.6264 180.453 59.8958C180.251 60.488 178.971 61.2682 178.205 61.2682C177.678 61.2682 177.647 61.442 177.647 64.7509V68.2338H193.335V61.3439L192.473 61.1548C190.662 60.7492 190.63 60.6146 190.63 53.9714V47.9897L191.34 47.3558C191.733 47.0105 192.341 46.7311 192.693 46.7311C193.328 46.7311 193.335 46.7087 193.335 43.2484V39.7653H177.647V46.7311Z" fill="#B8BEC8"/>
</svg>
