<svg width="12" height="12" viewBox="0 0 12 12" fill="none" xmlns="http://www.w3.org/2000/svg">
<g clip-path="url(#clip0_9107_74)">
<path fill-rule="evenodd" clip-rule="evenodd" d="M5 12C5 12.5523 5.44772 13 6 13C6.55228 13 7 12.5523 7 12V7H12C12.5523 7 13 6.55228 13 6C13 5.44772 12.5523 5 12 5H7V0C7 -0.552285 6.55228 -1 6 -1C5.44772 -1 5 -0.552285 5 0V5H0C-0.552285 5 -1 5.44772 -1 6C-1 6.55228 -0.552285 7 0 7H5V12Z" fill="white"/>
</g>
<defs>
<clipPath id="clip0_9107_74">
<rect width="12" height="12" fill="white" transform="translate(12 12) rotate(-180)"/>
</clipPath>
</defs>
</svg>
